STARTFONT 2.1
FONT -PixelFonts-pixelfont_3d_condensed_17x7_bold-Bold-R-Normal--20-200-75-75-P-0-ISO10646-1
SIZE 20 75 75
FONTBOUNDINGBOX 14 20 0 0
STARTPROPERTIES 7
FOUNDRY "PixelFonts"
FAMILY_NAME "pixelfont_3d_condensed_17x7_bold"
WEIGHT_NAME "Bold"
PIXEL_SIZE 20
FONT_ASCENT 20
FONT_DESCENT 0
DEFAULT_CHAR 32
ENDPROPERTIES
CHARS 95
STARTCHAR U+0020
ENCODING 32
SWIDTH 400 0
DWIDTH 8 0
BBX 1 1 0 0
BITMAP
00
ENDCHAR
STARTCHAR U+0021
ENCODING 33
SWIDTH 300 0
DWIDTH 6 0
BBX 6 20 0 0
BITMAP
F8
8C
8C
8C
8C
8C
8C
8C
8C
8C
8C
8C
8C
8C
FC
8C
8C
8C
FC
7C
ENDCHAR
STARTCHAR U+0022
ENCODING 34
SWIDTH 500 0
DWIDTH 10 0
BBX 10 8 0 12
BITMAP
FF80
88C0
88C0
88C0
88C0
88C0
FFC0
7FC0
ENDCHAR
STARTCHAR U+0023
ENCODING 35
SWIDTH 700 0
DWIDTH 14 0
BBX 14 16 0 1
BITMAP
3FE0
2230
2230
E238
800C
800C
800C
E23C
800C
800C
800C
E23C
623C
2230
3FF0
1FF0
ENDCHAR
STARTCHAR U+0024
ENCODING 36
SWIDTH 700 0
DWIDTH 14 0
BBX 14 20 0 0
BITMAP
0F80
08C0
F8F8
800C
800C
800C
88FC
88FC
800C
800C
800C
F88C
F88C
800C
800C
800C
F8FC
78FC
0FC0
07C0
ENDCHAR
STARTCHAR U+0025
ENCODING 37
SWIDTH 700 0
DWIDTH 14 0
BBX 14 20 0 0
BITMAP
FE78
834C
834C
934C
83CC
838C
FF1C
7E3C
0C78
18F0
31E0
63C0
C7F8
8E0C
9E0C
9E4C
9A0C
9A0C
FBFC
79FC
ENDCHAR
STARTCHAR U+0026
ENCODING 38
SWIDTH 700 0
DWIDTH 14 0
BBX 14 20 0 0
BITMAP
3F80
E0E0
8030
8030
8E30
8E30
8E70
8C70
8060
80E0
80F8
808C
8C0C
8C0C
8E3C
800C
800C
C00C
7FFC
3FFC
ENDCHAR
STARTCHAR U+0027
ENCODING 39
SWIDTH 300 0
DWIDTH 6 0
BBX 6 10 0 10
BITMAP
F8
8C
8C
8C
8C
8C
8C
8C
FC
7C
ENDCHAR
STARTCHAR U+0028
ENCODING 40
SWIDTH 400 0
DWIDTH 8 0
BBX 8 20 0 0
BITMAP
7E
C3
83
83
83
8F
8F
8C
8C
8C
8C
8C
8C
8C
8E
83
83
C3
7F
3F
ENDCHAR
STARTCHAR U+0029
ENCODING 41
SWIDTH 400 0
DWIDTH 8 0
BBX 8 20 0 0
BITMAP
FC
86
83
83
83
E3
63
23
23
23
23
23
23
23
E3
83
83
87
FF
7E
ENDCHAR
STARTCHAR U+002A
ENCODING 42
SWIDTH 700 0
DWIDTH 14 0
BBX 14 16 0 2
BITMAP
FFF8
888C
888C
888C
888C
888C
800C
800C
800C
888C
888C
888C
888C
888C
FFFC
7FFC
ENDCHAR
STARTCHAR U+002B
ENCODING 43
SWIDTH 600 0
DWIDTH 12 0
BBX 12 16 0 2
BITMAP
1F00
1180
1180
1180
1180
F1E0
8030
8030
8030
F1F0
71F0
1180
1180
1180
1F80
0F80
ENDCHAR
STARTCHAR U+002C
ENCODING 44
SWIDTH 300 0
DWIDTH 6 0
BBX 6 10 0 0
BITMAP
F8
8C
8C
8C
8C
8C
8C
8C
FC
7C
ENDCHAR
STARTCHAR U+002D
ENCODING 45
SWIDTH 500 0
DWIDTH 10 0
BBX 10 6 0 7
BITMAP
FF80
80C0
80C0
80C0
FFC0
7FC0
ENDCHAR
STARTCHAR U+002E
ENCODING 46
SWIDTH 300 0
DWIDTH 6 0
BBX 6 6 0 0
BITMAP
F8
8C
8C
8C
FC
7C
ENDCHAR
STARTCHAR U+002F
ENCODING 47
SWIDTH 500 0
DWIDTH 10 0
BBX 10 20 0 0
BITMAP
0F80
08C0
08C0
08C0
38C0
20C0
23C0
23C0
2300
2300
2300
E300
8300
8300
8F00
8F00
8C00
8C00
FC00
7C00
ENDCHAR
STARTCHAR U+0030
ENCODING 48
SWIDTH 500 0
DWIDTH 10 0
BBX 10 20 0 0
BITMAP
FF80
80C0
80C0
80C0
88C0
88C0
88C0
88C0
88C0
88C0
88C0
88C0
88C0
88C0
88C0
80C0
80C0
80C0
FFC0
7FC0
ENDCHAR
STARTCHAR U+0031
ENCODING 49
SWIDTH 300 0
DWIDTH 6 0
BBX 6 20 0 0
BITMAP
F8
8C
8C
8C
8C
8C
8C
8C
8C
8C
8C
8C
8C
8C
8C
8C
8C
8C
FC
7C
ENDCHAR
STARTCHAR U+0032
ENCODING 50
SWIDTH 500 0
DWIDTH 10 0
BBX 10 20 0 0
BITMAP
FF80
80C0
80C0
80C0
88C0
F8C0
78C0
F8C0
80C0
80C0
80C0
8FC0
8FC0
8C00
8F80
80C0
80C0
80C0
FFC0
7FC0
ENDCHAR
STARTCHAR U+0033
ENCODING 51
SWIDTH 500 0
DWIDTH 10 0
BBX 10 20 0 0
BITMAP
FF80
80C0
80C0
80C0
F8C0
78C0
08C0
38C0
20C0
20C0
20C0
38C0
18C0
08C0
F8C0
80C0
80C0
80C0
FFC0
7FC0
ENDCHAR
STARTCHAR U+0034
ENCODING 52
SWIDTH 500 0
DWIDTH 10 0
BBX 10 20 0 0
BITMAP
FF80
88C0
88C0
88C0
88C0
88C0
88C0
88C0
80C0
80C0
80C0
F8C0
78C0
08C0
08C0
08C0
08C0
08C0
0FC0
07C0
ENDCHAR
STARTCHAR U+0035
ENCODING 53
SWIDTH 500 0
DWIDTH 10 0
BBX 10 20 0 0
BITMAP
FF80
80C0
80C0
80C0
8FC0
8FC0
8C00
8F80
80C0
80C0
80C0
F8C0
78C0
F8C0
88C0
80C0
80C0
80C0
FFC0
7FC0
ENDCHAR
STARTCHAR U+0036
ENCODING 54
SWIDTH 500 0
DWIDTH 10 0
BBX 10 20 0 0
BITMAP
FF80
80C0
80C0
80C0
88C0
8FC0
8FC0
8F80
80C0
80C0
80C0
88C0
88C0
88C0
88C0
80C0
80C0
80C0
FFC0
7FC0
ENDCHAR
STARTCHAR U+0037
ENCODING 55
SWIDTH 500 0
DWIDTH 10 0
BBX 10 20 0 0
BITMAP
FF80
80C0
80C0
80C0
88C0
F8C0
78C0
08C0
08C0
08C0
08C0
08C0
08C0
08C0
08C0
08C0
08C0
08C0
0FC0
07C0
ENDCHAR
STARTCHAR U+0038
ENCODING 56
SWIDTH 500 0
DWIDTH 10 0
BBX 10 20 0 0
BITMAP
FF80
80C0
80C0
80C0
88C0
88C0
88C0
88C0
80C0
80C0
80C0
88C0
88C0
88C0
88C0
80C0
80C0
80C0
FFC0
7FC0
ENDCHAR
STARTCHAR U+0039
ENCODING 57
SWIDTH 500 0
DWIDTH 10 0
BBX 10 20 0 0
BITMAP
FF80
80C0
80C0
80C0
88C0
88C0
88C0
88C0
80C0
80C0
80C0
F8C0
78C0
F8C0
88C0
80C0
80C0
80C0
FFC0
7FC0
ENDCHAR
STARTCHAR U+003A
ENCODING 58
SWIDTH 300 0
DWIDTH 6 0
BBX 6 14 0 0
BITMAP
F8
8C
8C
8C
8C
FC
7C
F8
8C
8C
8C
8C
FC
7C
ENDCHAR
STARTCHAR U+003B
ENCODING 59
SWIDTH 400 0
DWIDTH 8 0
BBX 6 16 2 0
BITMAP
F8
8C
8C
8C
8C
FC
7C
F8
8C
8C
8C
8C
8C
8C
FC
7C
ENDCHAR
STARTCHAR U+003C
ENCODING 60
SWIDTH 600 0
DWIDTH 12 0
BBX 12 20 0 0
BITMAP
01E0
0330
0630
0C30
1830
3070
60F0
C1E0
83C0
8780
8300
C180
60C0
3060
1830
0C30
0630
0330
01F0
00F0
ENDCHAR
STARTCHAR U+003D
ENCODING 61
SWIDTH 600 0
DWIDTH 12 0
BBX 12 10 0 4
BITMAP
FFE0
8030
8030
8030
FFF0
8030
8030
8030
FFF0
7FF0
ENDCHAR
STARTCHAR U+003E
ENCODING 62
SWIDTH 600 0
DWIDTH 12 0
BBX 12 20 0 0
BITMAP
F000
9800
8C00
8600
8300
C180
60C0
3060
1830
0C30
1830
3070
60F0
C1E0
83C0
8780
8F00
9E00
FC00
7800
ENDCHAR
STARTCHAR U+003F
ENCODING 63
SWIDTH 600 0
DWIDTH 12 0
BBX 12 20 0 0
BITMAP
FFE0
8030
8030
8030
8E30
8E30
FE30
7E30
1030
1030
1030
11F0
11F0
1180
1F80
1180
1180
1180
1F80
0F80
ENDCHAR
STARTCHAR U+0040
ENCODING 64
SWIDTH 700 0
DWIDTH 14 0
BBX 14 20 0 0
BITMAP
FFF8
800C
800C
800C
8F8C
8F8C
8F8C
888C
888C
888C
888C
880C
880C
880C
8FFC
800C
800C
800C
FFFC
7FFC
ENDCHAR
STARTCHAR U+0041
ENCODING 65
SWIDTH 500 0
DWIDTH 10 0
BBX 10 20 0 0
BITMAP
FF80
80C0
80C0
80C0
88C0
88C0
88C0
88C0
88C0
88C0
88C0
80C0
80C0
80C0
88C0
88C0
88C0
88C0
FFC0
7FC0
ENDCHAR
STARTCHAR U+0042
ENCODING 66
SWIDTH 500 0
DWIDTH 10 0
BBX 10 20 0 0
BITMAP
FF00
8180
80C0
80C0
88C0
88C0
88C0
88C0
80C0
80C0
80C0
88C0
88C0
88C0
88C0
80C0
80C0
81C0
FFC0
7F80
ENDCHAR
STARTCHAR U+0043
ENCODING 67
SWIDTH 500 0
DWIDTH 10 0
BBX 10 20 0 0
BITMAP
FF80
80C0
80C0
80C0
88C0
88C0
8FC0
8FC0
8C00
8C00
8C00
8C00
8F80
88C0
88C0
80C0
80C0
80C0
FFC0
7FC0
ENDCHAR
STARTCHAR U+0044
ENCODING 68
SWIDTH 500 0
DWIDTH 10 0
BBX 10 20 0 0
BITMAP
FF00
8180
80C0
80C0
88C0
88C0
88C0
88C0
88C0
88C0
88C0
88C0
88C0
88C0
88C0
80C0
80C0
81C0
FFC0
7F80
ENDCHAR
STARTCHAR U+0045
ENCODING 69
SWIDTH 500 0
DWIDTH 10 0
BBX 10 20 0 0
BITMAP
FF80
80C0
80C0
80C0
8FC0
8FC0
8C00
8E00
8300
8300
8300
8F00
8F00
8C00
8F80
80C0
80C0
80C0
FFC0
7FC0
ENDCHAR
STARTCHAR U+0046
ENCODING 70
SWIDTH 500 0
DWIDTH 10 0
BBX 10 20 0 0
BITMAP
FF80
80C0
80C0
80C0
8FC0
8FC0
8C00
8F00
8180
8180
8180
8F80
8F80
8C00
8C00
8C00
8C00
8C00
FC00
7C00
ENDCHAR
STARTCHAR U+0047
ENCODING 71
SWIDTH 500 0
DWIDTH 10 0
BBX 10 20 0 0
BITMAP
FF80
80C0
80C0
80C0
88C0
88C0
8FC0
8FC0
88C0
88C0
88C0
88C0
88C0
88C0
88C0
80C0
80C0
80C0
FFC0
7FC0
ENDCHAR
STARTCHAR U+0048
ENCODING 72
SWIDTH 500 0
DWIDTH 10 0
BBX 10 20 0 0
BITMAP
FF80
88C0
88C0
88C0
88C0
88C0
88C0
88C0
80C0
80C0
80C0
88C0
88C0
88C0
88C0
88C0
88C0
88C0
FFC0
7FC0
ENDCHAR
STARTCHAR U+0049
ENCODING 73
SWIDTH 300 0
DWIDTH 6 0
BBX 6 20 0 0
BITMAP
F8
8C
8C
8C
8C
8C
8C
8C
8C
8C
8C
8C
8C
8C
8C
8C
8C
8C
FC
7C
ENDCHAR
STARTCHAR U+004A
ENCODING 74
SWIDTH 500 0
DWIDTH 10 0
BBX 10 20 0 0
BITMAP
0F80
08C0
08C0
08C0
08C0
08C0
08C0
08C0
08C0
08C0
F8C0
88C0
88C0
88C0
88C0
80C0
80C0
80C0
FFC0
7FC0
ENDCHAR
STARTCHAR U+004B
ENCODING 75
SWIDTH 600 0
DWIDTH 12 0
BBX 12 20 0 0
BITMAP
FBE0
8E30
8E30
8E30
8E30
8E30
8C30
8870
80F0
81E0
80C0
8860
8C30
8E30
8E30
8E30
8E30
8E30
FFF0
7DF0
ENDCHAR
STARTCHAR U+004C
ENCODING 76
SWIDTH 500 0
DWIDTH 10 0
BBX 10 20 0 0
BITMAP
F800
8C00
8C00
8C00
8C00
8C00
8C00
8C00
8C00
8C00
8C00
8C00
8C00
8C00
8F80
80C0
80C0
80C0
FFC0
7FC0
ENDCHAR
STARTCHAR U+004D
ENCODING 77
SWIDTH 700 0
DWIDTH 14 0
BBX 14 20 0 0
BITMAP
FFF8
800C
800C
800C
888C
888C
888C
888C
888C
888C
888C
8F8C
8F8C
8C8C
8C8C
8C8C
8C8C
8C8C
FCFC
7C7C
ENDCHAR
STARTCHAR U+004E
ENCODING 78
SWIDTH 600 0
DWIDTH 12 0
BBX 12 20 0 0
BITMAP
FBE0
8E30
8E30
8E30
8E30
8E30
8630
8230
8030
8030
8830
8C30
8E30
8E30
8E30
8E30
8E30
8E30
FFF0
7DF0
ENDCHAR
STARTCHAR U+004F
ENCODING 79
SWIDTH 500 0
DWIDTH 10 0
BBX 10 20 0 0
BITMAP
FF80
80C0
80C0
80C0
88C0
88C0
88C0
88C0
88C0
88C0
88C0
88C0
88C0
88C0
88C0
80C0
80C0
80C0
FFC0
7FC0
ENDCHAR
STARTCHAR U+0050
ENCODING 80
SWIDTH 500 0
DWIDTH 10 0
BBX 10 20 0 0
BITMAP
FF80
80C0
80C0
80C0
88C0
88C0
88C0
88C0
80C0
80C0
80C0
8FC0
8FC0
8C00
8C00
8C00
8C00
8C00
FC00
7C00
ENDCHAR
STARTCHAR U+0051
ENCODING 81
SWIDTH 550 0
DWIDTH 11 0
BBX 11 20 0 0
BITMAP
FFC0
8060
8060
8060
8C60
8C60
8C60
8C60
8C60
8C60
8C60
8C60
8860
8860
8860
8060
8060
8060
FFE0
7FE0
ENDCHAR
STARTCHAR U+0052
ENCODING 82
SWIDTH 600 0
DWIDTH 12 0
BBX 12 20 0 0
BITMAP
FFE0
8030
8030
8030
8E30
8E30
8E30
8E30
8030
8030
8030
81F0
88F0
8C60
8E30
8E30
8E30
8E30
FFF0
7DF0
ENDCHAR
STARTCHAR U+0053
ENCODING 83
SWIDTH 500 0
DWIDTH 10 0
BBX 10 20 0 0
BITMAP
FF80
80C0
80C0
80C0
88C0
88C0
8FC0
8FC0
80C0
80C0
80C0
F8C0
F8C0
88C0
88C0
80C0
80C0
80C0
FFC0
7FC0
ENDCHAR
STARTCHAR U+0054
ENCODING 84
SWIDTH 600 0
DWIDTH 12 0
BBX 12 20 0 0
BITMAP
FFE0
8030
8030
8030
F1F0
71F0
1180
1180
1180
1180
1180
1180
1180
1180
1180
1180
1180
1180
1F80
0F80
ENDCHAR
STARTCHAR U+0055
ENCODING 85
SWIDTH 600 0
DWIDTH 12 0
BBX 12 20 0 0
BITMAP
FBE0
8E30
8E30
8E30
8E30
8E30
8E30
8E30
8E30
8E30
8E30
8E30
8E30
8E30
8E30
8030
8030
8030
FFF0
7FF0
ENDCHAR
STARTCHAR U+0056
ENCODING 86
SWIDTH 600 0
DWIDTH 12 0
BBX 12 20 0 0
BITMAP
FBE0
8E30
8E30
8E30
8E30
8E30
8E30
8E30
8E30
8E30
8E30
8E30
8E30
8E30
8430
C070
60F0
31E0
1FC0
0F80
ENDCHAR
STARTCHAR U+0057
ENCODING 87
SWIDTH 700 0
DWIDTH 14 0
BBX 14 20 0 0
BITMAP
F8F8
8C8C
8C8C
8C8C
8C8C
8C8C
8C8C
8F8C
888C
888C
888C
888C
888C
888C
888C
800C
800C
800C
FFFC
7FFC
ENDCHAR
STARTCHAR U+0058
ENCODING 88
SWIDTH 600 0
DWIDTH 12 0
BBX 12 20 0 0
BITMAP
FBE0
8E30
8E30
8E30
8E30
8430
8030
C070
60F0
31E0
60C0
C060
8030
8430
8E30
8E30
8E30
8E30
FFF0
7DF0
ENDCHAR
STARTCHAR U+0059
ENCODING 89
SWIDTH 600 0
DWIDTH 12 0
BBX 12 20 0 0
BITMAP
FBE0
8E30
8E30
8E30
8E30
8E30
8E30
8430
C070
60F0
31E0
11C0
1180
1180
1180
1180
1180
1180
1F80
0F80
ENDCHAR
STARTCHAR U+005A
ENCODING 90
SWIDTH 600 0
DWIDTH 12 0
BBX 12 20 0 0
BITMAP
FFE0
8030
8030
8030
FE30
7E30
0C30
1870
30F0
61E0
C3C0
8780
8F00
8E00
8FE0
8030
8030
8030
FFF0
7FF0
ENDCHAR
STARTCHAR U+005B
ENCODING 91
SWIDTH 500 0
DWIDTH 10 0
BBX 10 20 0 0
BITMAP
FF80
80C0
80C0
80C0
8FC0
8FC0
8C00
8C00
8C00
8C00
8C00
8C00
8C00
8C00
8F80
80C0
80C0
80C0
FFC0
7FC0
ENDCHAR
STARTCHAR U+005C
ENCODING 92
SWIDTH 500 0
DWIDTH 10 0
BBX 10 20 0 0
BITMAP
F800
8C00
8C00
8C00
8C00
8600
C600
4300
6300
2300
2180
3180
1180
10C0
18C0
08C0
08C0
08C0
0FC0
07C0
ENDCHAR
STARTCHAR U+005D
ENCODING 93
SWIDTH 500 0
DWIDTH 10 0
BBX 10 20 0 0
BITMAP
FF80
80C0
80C0
80C0
F8C0
78C0
08C0
08C0
08C0
08C0
08C0
08C0
08C0
08C0
F8C0
80C0
80C0
80C0
FFC0
7FC0
ENDCHAR
STARTCHAR U+005E
ENCODING 94
SWIDTH 700 0
DWIDTH 14 0
BBX 14 10 0 10
BITMAP
0F80
18C0
3060
6030
C018
820C
870C
8F8C
FEFC
7C7C
ENDCHAR
STARTCHAR U+005F
ENCODING 95
SWIDTH 600 0
DWIDTH 12 0
BBX 12 6 0 0
BITMAP
FFE0
8030
8030
8030
FFF0
7FF0
ENDCHAR
STARTCHAR U+0060
ENCODING 96
SWIDTH 500 0
DWIDTH 10 0
BBX 10 10 0 10
BITMAP
F800
8C00
8600
8300
C180
60C0
30C0
18C0
0FC0
07C0
ENDCHAR
STARTCHAR U+0061
ENCODING 97
SWIDTH 500 0
DWIDTH 10 0
BBX 10 14 0 0
BITMAP
3F80
20C0
20C0
20C0
F8C0
80C0
80C0
80C0
88C0
80C0
80C0
80C0
FFC0
7FC0
ENDCHAR
STARTCHAR U+0062
ENCODING 98
SWIDTH 500 0
DWIDTH 10 0
BBX 10 20 0 0
BITMAP
F800
8C00
8C00
8C00
8C00
8C00
8F80
80C0
80C0
80C0
88C0
88C0
88C0
88C0
88C0
80C0
80C0
80C0
FFC0
7FC0
ENDCHAR
STARTCHAR U+0063
ENCODING 99
SWIDTH 500 0
DWIDTH 10 0
BBX 10 14 0 0
BITMAP
FF80
80C0
80C0
80C0
8FC0
8FC0
8C00
8C00
8F80
80C0
80C0
80C0
FFC0
7FC0
ENDCHAR
STARTCHAR U+0064
ENCODING 100
SWIDTH 500 0
DWIDTH 10 0
BBX 10 20 0 0
BITMAP
0F80
08C0
08C0
08C0
08C0
08C0
F8C0
80C0
80C0
80C0
88C0
88C0
88C0
88C0
88C0
80C0
80C0
80C0
FFC0
7FC0
ENDCHAR
STARTCHAR U+0065
ENCODING 101
SWIDTH 500 0
DWIDTH 10 0
BBX 10 14 0 0
BITMAP
FF80
80C0
80C0
80C0
88C0
80C0
80C0
80C0
8FC0
80C0
80C0
80C0
FFC0
7FC0
ENDCHAR
STARTCHAR U+0066
ENCODING 102
SWIDTH 500 0
DWIDTH 10 0
BBX 10 20 0 0
BITMAP
3F80
20C0
20C0
20C0
23C0
23C0
E380
80C0
80C0
80C0
E3C0
63C0
2300
2300
2300
2300
2300
2300
3F00
1F00
ENDCHAR
STARTCHAR U+0067
ENCODING 103
SWIDTH 500 0
DWIDTH 10 0
BBX 10 14 0 0
BITMAP
FF80
80C0
80C0
80C0
88C0
80C0
80C0
80C0
F8C0
80C0
80C0
80C0
FFC0
7FC0
ENDCHAR
STARTCHAR U+0068
ENCODING 104
SWIDTH 500 0
DWIDTH 10 0
BBX 10 20 0 0
BITMAP
F800
8C00
8C00
8C00
8C00
8C00
8F80
80C0
80C0
80C0
88C0
88C0
88C0
88C0
88C0
88C0
88C0
88C0
FFC0
7FC0
ENDCHAR
STARTCHAR U+0069
ENCODING 105
SWIDTH 300 0
DWIDTH 6 0
BBX 6 20 0 0
BITMAP
F8
8C
8C
8C
FC
7C
F8
8C
8C
8C
8C
8C
8C
8C
8C
8C
8C
8C
FC
7C
ENDCHAR
STARTCHAR U+006A
ENCODING 106
SWIDTH 500 0
DWIDTH 10 0
BBX 10 20 0 0
BITMAP
0F80
08C0
08C0
08C0
0FC0
07C0
0F80
08C0
08C0
08C0
08C0
08C0
F8C0
88C0
88C0
80C0
80C0
80C0
FFC0
7FC0
ENDCHAR
STARTCHAR U+006B
ENCODING 107
SWIDTH 600 0
DWIDTH 12 0
BBX 12 20 0 0
BITMAP
F800
8C00
8C00
8C00
8C00
8C00
8FE0
8E30
8E30
8C30
8830
8070
80F0
8060
8830
8C30
8E30
8E30
FFF0
7DF0
ENDCHAR
STARTCHAR U+006C
ENCODING 108
SWIDTH 300 0
DWIDTH 6 0
BBX 6 20 0 0
BITMAP
F8
8C
8C
8C
8C
8C
8C
8C
8C
8C
8C
8C
8C
8C
8C
8C
8C
8C
FC
7C
ENDCHAR
STARTCHAR U+006D
ENCODING 109
SWIDTH 700 0
DWIDTH 14 0
BBX 14 14 0 0
BITMAP
FFF8
800C
800C
800C
888C
888C
888C
888C
888C
888C
888C
888C
FFFC
7FFC
ENDCHAR
STARTCHAR U+006E
ENCODING 110
SWIDTH 500 0
DWIDTH 10 0
BBX 10 14 0 0
BITMAP
FF00
8180
80C0
80C0
88C0
88C0
88C0
88C0
88C0
88C0
88C0
88C0
FFC0
7FC0
ENDCHAR
STARTCHAR U+006F
ENCODING 111
SWIDTH 500 0
DWIDTH 10 0
BBX 10 14 0 0
BITMAP
FF80
80C0
80C0
80C0
88C0
88C0
88C0
88C0
88C0
80C0
80C0
80C0
FFC0
7FC0
ENDCHAR
STARTCHAR U+0070
ENCODING 112
SWIDTH 500 0
DWIDTH 10 0
BBX 10 14 0 0
BITMAP
FF80
80C0
80C0
80C0
88C0
80C0
80C0
80C0
8FC0
8FC0
8C00
8C00
FC00
7C00
ENDCHAR
STARTCHAR U+0071
ENCODING 113
SWIDTH 500 0
DWIDTH 10 0
BBX 10 14 0 0
BITMAP
FF80
80C0
80C0
80C0
88C0
80C0
80C0
80C0
F8C0
78C0
08C0
08C0
0FC0
07C0
ENDCHAR
STARTCHAR U+0072
ENCODING 114
SWIDTH 500 0
DWIDTH 10 0
BBX 10 14 0 0
BITMAP
FF80
80C0
80C0
80C0
8FC0
8FC0
8C00
8C00
8C00
8C00
8C00
8C00
FC00
7C00
ENDCHAR
STARTCHAR U+0073
ENCODING 115
SWIDTH 500 0
DWIDTH 10 0
BBX 10 14 0 0
BITMAP
FF80
80C0
80C0
80C0
8FC0
80C0
80C0
80C0
F8C0
80C0
80C0
80C0
FFC0
7FC0
ENDCHAR
STARTCHAR U+0074
ENCODING 116
SWIDTH 500 0
DWIDTH 10 0
BBX 10 20 0 0
BITMAP
3E00
2300
2300
2300
2300
2300
E380
80C0
80C0
80C0
E3C0
63C0
2300
2300
2380
20C0
20C0
20C0
3FC0
1FC0
ENDCHAR
STARTCHAR U+0075
ENCODING 117
SWIDTH 500 0
DWIDTH 10 0
BBX 10 14 0 0
BITMAP
FF80
88C0
88C0
88C0
88C0
88C0
88C0
88C0
88C0
80C0
80C0
80C0
FFC0
7FC0
ENDCHAR
STARTCHAR U+0076
ENCODING 118
SWIDTH 500 0
DWIDTH 10 0
BBX 10 14 0 0
BITMAP
FF80
88C0
88C0
88C0
88C0
88C0
88C0
88C0
80C0
C0C0
60C0
30C0
1FC0
0FC0
ENDCHAR
STARTCHAR U+0077
ENCODING 119
SWIDTH 700 0
DWIDTH 14 0
BBX 14 14 0 0
BITMAP
F8F8
8C8C
8C8C
8C8C
8F8C
888C
888C
888C
888C
800C
800C
800C
FFFC
7FFC
ENDCHAR
STARTCHAR U+0078
ENCODING 120
SWIDTH 600 0
DWIDTH 12 0
BBX 12 14 0 0
BITMAP
FBE0
8E30
8E30
8E30
8430
C070
60F0
6060
C430
8E30
8E30
8E30
FFF0
7DF0
ENDCHAR
STARTCHAR U+0079
ENCODING 121
SWIDTH 500 0
DWIDTH 10 0
BBX 10 14 0 0
BITMAP
FF80
88C0
88C0
88C0
88C0
80C0
80C0
80C0
F8C0
80C0
80C0
80C0
FFC0
7FC0
ENDCHAR
STARTCHAR U+007A
ENCODING 122
SWIDTH 500 0
DWIDTH 10 0
BBX 10 14 0 0
BITMAP
FF80
80C0
80C0
80C0
F0C0
61C0
C3C0
8780
8F80
80C0
80C0
80C0
FFC0
7FC0
ENDCHAR
STARTCHAR U+007B
ENCODING 123
SWIDTH 400 0
DWIDTH 8 0
BBX 8 20 0 0
BITMAP
3E
63
43
43
47
C7
86
86
86
8E
86
86
86
C6
46
43
43
63
3F
1F
ENDCHAR
STARTCHAR U+007C
ENCODING 124
SWIDTH 300 0
DWIDTH 6 0
BBX 6 20 0 0
BITMAP
F8
8C
8C
8C
8C
8C
8C
8C
8C
8C
8C
8C
8C
8C
8C
8C
8C
8C
FC
7C
ENDCHAR
STARTCHAR U+007D
ENCODING 125
SWIDTH 450 0
DWIDTH 9 0
BBX 8 20 1 0
BITMAP
F8
8C
86
86
C6
46
43
43
43
63
43
43
43
47
47
C6
86
8E
FE
7C
ENDCHAR
STARTCHAR U+007E
ENCODING 126
SWIDTH 700 0
DWIDTH 14 0
BBX 14 9 0 4
BITMAP
FF80
80F8
808C
808C
880C
880C
F80C
7FFC
07FC
ENDCHAR
ENDFONT
