STARTFONT 2.1
FONT -PixelFonts-pixelfont_3d_extended_latin_21x11_thin-Thin-R-Normal--25-250-75-75-P-0-ISO10646-1
SIZE 25 75 75
FONTBOUNDINGBOX 24 24 0 0
STARTPROPERTIES 7
FOUNDRY "PixelFonts"
FAMILY_NAME "pixelfont_3d_extended_latin_21x11_thin"
WEIGHT_NAME "Thin"
PIXEL_SIZE 25
FONT_ASCENT 24
FONT_DESCENT 1
DEFAULT_CHAR 32
ENDPROPERTIES
CHARS 145
STARTCHAR U+0020
ENCODING 32
SWIDTH 360 0
DWIDTH 9 0
BBX 1 1 0 0
BITMAP
00
ENDCHAR
STARTCHAR U+0021
ENCODING 33
SWIDTH 200 0
DWIDTH 5 0
BBX 4 24 0 0
BITMAP
E0
B0
B0
B0
B0
B0
B0
B0
B0
B0
B0
B0
B0
B0
B0
B0
F0
70
00
E0
B0
B0
F0
70
ENDCHAR
STARTCHAR U+0022
ENCODING 34
SWIDTH 320 0
DWIDTH 8 0
BBX 7 8 0 16
BITMAP
FC
B6
B6
B6
B6
B6
FE
7E
ENDCHAR
STARTCHAR U+0023
ENCODING 35
SWIDTH 680 0
DWIDTH 17 0
BBX 16 24 0 0
BITMAP
1C70
1658
1658
1658
1658
1658
F7DE
8003
F7DF
77DF
1658
1658
1658
1658
F7DE
8003
F7DF
77DF
1658
1658
1658
1658
1E78
0E38
ENDCHAR
STARTCHAR U+0024
ENCODING 36
SWIDTH 680 0
DWIDTH 17 0
BBX 16 24 0 0
BITMAP
0380
02C0
02C0
02C0
FEFE
8003
BEFF
BEFF
B2C0
B2C0
BEFE
8003
FEFB
7EFB
02CB
02CB
FEFB
8003
FEFF
7EFF
02C0
02C0
03C0
01C0
ENDCHAR
STARTCHAR U+0025
ENCODING 37
SWIDTH 680 0
DWIDTH 17 0
BBX 16 22 0 1
BITMAP
FE0E
830B
BB0B
BB0B
BB1B
8337
FF6F
7FDE
01BC
0378
06F0
0DE0
1BC0
3780
6FFE
DE83
BCBB
B8BB
B0BB
B083
F0FF
707F
ENDCHAR
STARTCHAR U+0026
ENCODING 38
SWIDTH 680 0
DWIDTH 17 0
BBX 16 24 0 0
BITMAP
7FE0
C030
BFD8
BFD8
B0D8
B1B8
B378
B6F0
BDE0
BBC0
D780
6F00
D370
BDD8
BED8
B358
B1B8
B0D8
B04C
B056
BFDB
C03F
7FFF
3FF0
ENDCHAR
STARTCHAR U+0027
ENCODING 39
SWIDTH 200 0
DWIDTH 5 0
BBX 4 8 0 16
BITMAP
E0
B0
B0
B0
B0
B0
F0
70
ENDCHAR
STARTCHAR U+0028
ENCODING 40
SWIDTH 240 0
DWIDTH 6 0
BBX 5 24 0 0
BITMAP
70
D8
B8
B8
B0
B0
B0
B0
B0
B0
B0
B0
B0
B0
B0
B0
B0
B0
B0
B0
B0
D8
78
38
ENDCHAR
STARTCHAR U+0029
ENCODING 41
SWIDTH 240 0
DWIDTH 6 0
BBX 5 24 0 0
BITMAP
E0
B0
D8
58
58
58
58
58
58
58
58
58
58
58
58
58
58
58
58
58
D8
B8
F8
70
ENDCHAR
STARTCHAR U+002A
ENCODING 42
SWIDTH 560 0
DWIDTH 14 0
BBX 10 10 3 7
BITMAP
7700
5D80
6B80
F780
80C0
F7C0
6BC0
5D80
7F80
3B80
ENDCHAR
STARTCHAR U+002B
ENCODING 43
SWIDTH 440 0
DWIDTH 11 0
BBX 10 10 0 7
BITMAP
1C00
1600
1600
F780
80C0
F7C0
77C0
1600
1E00
0E00
ENDCHAR
STARTCHAR U+002C
ENCODING 44
SWIDTH 200 0
DWIDTH 5 0
BBX 4 8 0 0
BITMAP
E0
B0
B0
B0
B0
B0
F0
70
ENDCHAR
STARTCHAR U+002D
ENCODING 45
SWIDTH 440 0
DWIDTH 11 0
BBX 10 4 0 10
BITMAP
FF80
80C0
FFC0
7FC0
ENDCHAR
STARTCHAR U+002E
ENCODING 46
SWIDTH 200 0
DWIDTH 5 0
BBX 4 4 0 0
BITMAP
E0
B0
F0
70
ENDCHAR
STARTCHAR U+002F
ENCODING 47
SWIDTH 360 0
DWIDTH 9 0
BBX 8 24 0 0
BITMAP
0E
0B
0B
1B
17
17
16
16
36
2E
2E
2C
2C
6C
5C
5C
58
58
D8
B8
B8
B0
F0
70
ENDCHAR
STARTCHAR U+0030
ENCODING 48
SWIDTH 600 0
DWIDTH 15 0
BBX 14 24 0 0
BITMAP
FFF8
800C
BFEC
BFEC
B02C
B02C
B02C
B02C
B02C
B02C
B02C
B02C
B02C
B02C
B02C
B02C
B02C
B02C
B02C
B02C
BFEC
800C
FFFC
7FFC
ENDCHAR
STARTCHAR U+0031
ENCODING 49
SWIDTH 200 0
DWIDTH 5 0
BBX 4 24 0 0
BITMAP
E0
B0
B0
B0
B0
B0
B0
B0
B0
B0
B0
B0
B0
B0
B0
B0
B0
B0
B0
B0
B0
B0
F0
70
ENDCHAR
STARTCHAR U+0032
ENCODING 50
SWIDTH 600 0
DWIDTH 15 0
BBX 14 24 0 0
BITMAP
FFF8
800C
BFEC
BFEC
B02C
F02C
702C
002C
002C
002C
FFEC
800C
BFFC
BFFC
B000
B000
B000
B000
B000
B000
BFF8
800C
FFFC
7FFC
ENDCHAR
STARTCHAR U+0033
ENCODING 51
SWIDTH 600 0
DWIDTH 15 0
BBX 14 24 0 0
BITMAP
FFF8
800C
FFEC
7FEC
002C
002C
002C
002C
002C
002C
1FEC
100C
1FEC
0FEC
002C
002C
002C
002C
002C
002C
FFEC
800C
FFFC
7FFC
ENDCHAR
STARTCHAR U+0034
ENCODING 52
SWIDTH 600 0
DWIDTH 15 0
BBX 14 24 0 0
BITMAP
E038
B02C
B02C
B02C
B02C
B02C
B02C
B02C
B02C
B02C
BFEC
800C
FFEC
7FEC
002C
002C
002C
002C
002C
002C
002C
002C
003C
001C
ENDCHAR
STARTCHAR U+0035
ENCODING 53
SWIDTH 600 0
DWIDTH 15 0
BBX 14 24 0 0
BITMAP
FFF8
800C
BFFC
BFFC
B000
B000
B000
B000
B000
B000
BFF8
800C
FFEC
7FEC
002C
002C
002C
002C
002C
002C
FFEC
800C
FFFC
7FFC
ENDCHAR
STARTCHAR U+0036
ENCODING 54
SWIDTH 600 0
DWIDTH 15 0
BBX 14 24 0 0
BITMAP
FFF8
800C
BFEC
BFEC
B02C
B03C
B01C
B000
B000
B000
BFF8
800C
BFEC
BFEC
B02C
B02C
B02C
B02C
B02C
B02C
BFEC
800C
FFFC
7FFC
ENDCHAR
STARTCHAR U+0037
ENCODING 55
SWIDTH 600 0
DWIDTH 15 0
BBX 14 24 0 0
BITMAP
FFF8
800C
BFEC
BFEC
B02C
F02C
702C
002C
002C
002C
002C
002C
002C
002C
002C
002C
002C
002C
002C
002C
002C
002C
003C
001C
ENDCHAR
STARTCHAR U+0038
ENCODING 56
SWIDTH 600 0
DWIDTH 15 0
BBX 14 24 0 0
BITMAP
FFF8
800C
BFEC
BFEC
B02C
B02C
B02C
B02C
B02C
B02C
BFEC
800C
BFEC
BFEC
B02C
B02C
B02C
B02C
B02C
B02C
BFEC
800C
FFFC
7FFC
ENDCHAR
STARTCHAR U+0039
ENCODING 57
SWIDTH 600 0
DWIDTH 15 0
BBX 14 24 0 0
BITMAP
FFF8
800C
BFEC
BFEC
B02C
B02C
B02C
B02C
B02C
B02C
BFEC
800C
FFEC
7FEC
002C
002C
002C
E02C
B02C
B02C
BFEC
800C
FFFC
7FFC
ENDCHAR
STARTCHAR U+003A
ENCODING 58
SWIDTH 200 0
DWIDTH 5 0
BBX 4 16 0 4
BITMAP
E0
B0
B0
B0
F0
70
00
00
00
00
E0
B0
B0
B0
F0
70
ENDCHAR
STARTCHAR U+003B
ENCODING 59
SWIDTH 200 0
DWIDTH 5 0
BBX 4 12 0 0
BITMAP
E0
B0
B0
B0
F0
F0
B0
B0
B0
B0
F0
70
ENDCHAR
STARTCHAR U+003C
ENCODING 60
SWIDTH 440 0
DWIDTH 11 0
BBX 10 16 0 4
BITMAP
0380
06C0
0DC0
1BC0
3780
6F00
DE00
BC00
D800
6C00
3600
1B00
0D80
06C0
03C0
01C0
ENDCHAR
STARTCHAR U+003D
ENCODING 61
SWIDTH 440 0
DWIDTH 11 0
BBX 10 8 0 8
BITMAP
FF80
80C0
FFC0
7FC0
FF80
80C0
FFC0
7FC0
ENDCHAR
STARTCHAR U+003E
ENCODING 62
SWIDTH 440 0
DWIDTH 11 0
BBX 10 16 0 4
BITMAP
E000
B000
D800
6C00
3600
1B00
0D80
06C0
0DC0
1BC0
3780
6F00
DE00
BC00
F800
7000
ENDCHAR
STARTCHAR U+003F
ENCODING 63
SWIDTH 680 0
DWIDTH 17 0
BBX 16 24 0 0
BITMAP
FFFE
8003
BFFB
BFFB
B00B
B00B
F00B
700B
000B
000B
03FB
0203
02FF
02FF
02C0
02C0
03C0
01C0
0000
0380
02C0
02C0
03C0
01C0
ENDCHAR
STARTCHAR U+0040
ENCODING 64
SWIDTH 680 0
DWIDTH 17 0
BBX 16 24 0 0
BITMAP
FFFE
8003
BFFB
BFFB
B00B
B00B
B38B
B2CB
B2CB
B2CB
B2CB
B2CB
B2CB
B2CB
B2FB
B203
B3FF
B1FF
B000
B000
BFFE
8003
FFFF
7FFF
ENDCHAR
STARTCHAR U+0041
ENCODING 65
SWIDTH 600 0
DWIDTH 15 0
BBX 14 24 0 0
BITMAP
FFF8
800C
BFEC
BFEC
B02C
B02C
B02C
B02C
B02C
B02C
B02C
B02C
B02C
B02C
BFEC
800C
BFEC
BFEC
B02C
B02C
B02C
B02C
F03C
701C
ENDCHAR
STARTCHAR U+0042
ENCODING 66
SWIDTH 600 0
DWIDTH 15 0
BBX 14 24 0 0
BITMAP
FFF0
8018
BFEC
BFEC
B02C
B02C
B02C
B02C
B02C
B02C
BFEC
800C
BFEC
BFEC
B02C
B02C
B02C
B02C
B02C
B02C
BFEC
801C
FFFC
7FF8
ENDCHAR
STARTCHAR U+0043
ENCODING 67
SWIDTH 600 0
DWIDTH 15 0
BBX 14 24 0 0
BITMAP
FFF8
800C
BFEC
BFEC
B02C
B03C
B01C
B000
B000
B000
B000
B000
B000
B000
B000
B000
B000
B038
B02C
B02C
BFEC
800C
FFFC
7FFC
ENDCHAR
STARTCHAR U+0044
ENCODING 68
SWIDTH 600 0
DWIDTH 15 0
BBX 14 24 0 0
BITMAP
FFF0
8018
BFEC
BFEC
B02C
B02C
B02C
B02C
B02C
B02C
B02C
B02C
B02C
B02C
B02C
B02C
B02C
B02C
B02C
B02C
BFEC
801C
FFFC
7FF8
ENDCHAR
STARTCHAR U+0045
ENCODING 69
SWIDTH 600 0
DWIDTH 15 0
BBX 14 24 0 0
BITMAP
FFF8
800C
BFFC
BFFC
B000
B000
B000
B000
B000
B000
BFC0
8060
BFE0
BFE0
B000
B000
B000
B000
B000
B000
BFF8
800C
FFFC
7FFC
ENDCHAR
STARTCHAR U+0046
ENCODING 70
SWIDTH 600 0
DWIDTH 15 0
BBX 14 24 0 0
BITMAP
FFF8
800C
BFFC
BFFC
B000
B000
B000
B000
B000
B000
BFC0
8060
BFE0
BFE0
B000
B000
B000
B000
B000
B000
B000
B000
F000
7000
ENDCHAR
STARTCHAR U+0047
ENCODING 71
SWIDTH 600 0
DWIDTH 15 0
BBX 14 24 0 0
BITMAP
FFF8
800C
BFEC
BFEC
B02C
B03C
B01C
B000
B000
B000
B1F8
B10C
B1EC
B0EC
B02C
B02C
B02C
B02C
B02C
B02C
BFEC
800C
FFFC
7FFC
ENDCHAR
STARTCHAR U+0048
ENCODING 72
SWIDTH 600 0
DWIDTH 15 0
BBX 14 24 0 0
BITMAP
E038
B02C
B02C
B02C
B02C
B02C
B02C
B02C
B02C
B02C
BFEC
800C
BFEC
BFEC
B02C
B02C
B02C
B02C
B02C
B02C
B02C
B02C
F03C
701C
ENDCHAR
STARTCHAR U+0049
ENCODING 73
SWIDTH 200 0
DWIDTH 5 0
BBX 4 24 0 0
BITMAP
E0
B0
B0
B0
B0
B0
B0
B0
B0
B0
B0
B0
B0
B0
B0
B0
B0
B0
B0
B0
B0
B0
F0
70
ENDCHAR
STARTCHAR U+004A
ENCODING 74
SWIDTH 600 0
DWIDTH 15 0
BBX 14 24 0 0
BITMAP
0038
002C
002C
002C
002C
002C
002C
002C
002C
002C
002C
002C
002C
002C
E02C
B02C
B02C
B02C
B02C
B02C
BFEC
800C
FFFC
7FFC
ENDCHAR
STARTCHAR U+004B
ENCODING 75
SWIDTH 680 0
DWIDTH 17 0
BBX 16 24 0 0
BITMAP
E00E
B00B
B00B
B00B
B00B
B03B
B0E7
B39F
BE7E
B9F8
A7E0
9F80
A700
B9C0
BE70
B79C
B1E6
B07B
B01B
B00B
B00B
B00B
F00F
7007
ENDCHAR
STARTCHAR U+004C
ENCODING 76
SWIDTH 600 0
DWIDTH 15 0
BBX 14 24 0 0
BITMAP
E000
B000
B000
B000
B000
B000
B000
B000
B000
B000
B000
B000
B000
B000
B000
B000
B000
B000
B000
B000
BFF8
800C
FFFC
7FFC
ENDCHAR
STARTCHAR U+004D
ENCODING 77
SWIDTH 680 0
DWIDTH 17 0
BBX 16 24 0 0
BITMAP
FFFE
8003
BEFB
BEFB
B2CB
B2CB
B2CB
B2CB
B3CB
B1CB
B00B
B00B
B00B
B00B
B00B
B00B
B00B
B00B
B00B
B00B
B00B
B00B
F00F
7007
ENDCHAR
STARTCHAR U+004E
ENCODING 78
SWIDTH 600 0
DWIDTH 15 0
BBX 14 24 0 0
BITMAP
E038
B02C
B02C
B02C
B02C
982C
AC2C
B62C
BB2C
BDAC
B6EC
B36C
B1AC
B0CC
B06C
B02C
B02C
B02C
B02C
B02C
B02C
B02C
F03C
701C
ENDCHAR
STARTCHAR U+004F
ENCODING 79
SWIDTH 600 0
DWIDTH 15 0
BBX 14 24 0 0
BITMAP
FFF8
800C
BFEC
BFEC
B02C
B02C
B02C
B02C
B02C
B02C
B02C
B02C
B02C
B02C
B02C
B02C
B02C
B02C
B02C
B02C
BFEC
800C
FFFC
7FFC
ENDCHAR
STARTCHAR U+0050
ENCODING 80
SWIDTH 600 0
DWIDTH 15 0
BBX 14 24 0 0
BITMAP
FFF8
800C
BFEC
BFEC
B02C
B02C
B02C
B02C
B02C
B02C
BFEC
800C
BFFC
BFFC
B000
B000
B000
B000
B000
B000
B000
B000
F000
7000
ENDCHAR
STARTCHAR U+0051
ENCODING 81
SWIDTH 680 0
DWIDTH 17 0
BBX 16 24 0 0
BITMAP
FFFE
8003
BFFB
BFFB
B00B
B00B
B00B
B00B
B00B
B00B
B00B
B00B
B00B
B00B
B00B
B1CB
B16B
B1BB
B0DB
B06B
BFF3
8003
FFFF
7FFF
ENDCHAR
STARTCHAR U+0052
ENCODING 82
SWIDTH 680 0
DWIDTH 17 0
BBX 16 24 0 0
BITMAP
FFFE
8003
BFFB
BFFB
B00B
B00B
B00B
B00B
B00B
B00B
BFFB
8003
B7FF
BBFF
BD80
B6C0
B360
B1B0
B0D8
B06C
B036
B01B
F00F
7007
ENDCHAR
STARTCHAR U+0053
ENCODING 83
SWIDTH 680 0
DWIDTH 17 0
BBX 16 24 0 0
BITMAP
FFFE
8003
BFFF
BFFF
B000
B000
B000
B000
B000
B000
BFFE
8003
FFFB
7FFB
000B
000B
000B
000B
000B
000B
FFFB
8003
FFFF
7FFF
ENDCHAR
STARTCHAR U+0054
ENCODING 84
SWIDTH 680 0
DWIDTH 17 0
BBX 16 24 0 0
BITMAP
FFFE
8003
FEFF
7EFF
02C0
02C0
02C0
02C0
02C0
02C0
02C0
02C0
02C0
02C0
02C0
02C0
02C0
02C0
02C0
02C0
02C0
02C0
03C0
01C0
ENDCHAR
STARTCHAR U+0055
ENCODING 85
SWIDTH 680 0
DWIDTH 17 0
BBX 16 24 0 0
BITMAP
E00E
B00B
B00B
B00B
B00B
B00B
B00B
B00B
B00B
B00B
B00B
B00B
B00B
B00B
B00B
B00B
B00B
B00B
B00B
B00B
BFFB
8003
FFFF
7FFF
ENDCHAR
STARTCHAR U+0056
ENCODING 86
SWIDTH 680 0
DWIDTH 17 0
BBX 16 24 0 0
BITMAP
E00E
B00B
B00B
B00B
B00B
B00B
B00B
B00B
B00B
B00B
B00B
B00B
B00B
B00B
B00B
B01B
D837
6C6F
36DE
1BBC
0D78
06F0
03E0
01C0
ENDCHAR
STARTCHAR U+0057
ENCODING 87
SWIDTH 680 0
DWIDTH 17 0
BBX 16 24 0 0
BITMAP
E00E
B00B
B00B
B00B
B00B
B00B
B00B
B00B
B00B
B00B
B38B
B2CB
B2CB
B2CB
B2CB
B2CB
B2CB
B2CB
B2CB
B2CB
BEFB
8003
FFFF
7FFF
ENDCHAR
STARTCHAR U+0058
ENCODING 88
SWIDTH 680 0
DWIDTH 17 0
BBX 16 24 0 0
BITMAP
E00E
B00B
B00B
B00B
B00B
B01B
D837
6C6F
36DE
1BBC
0D78
06F0
0D60
1BB0
37D8
6F6C
DE36
BC1B
B80B
B00B
B00B
B00B
F00F
7007
ENDCHAR
STARTCHAR U+0059
ENCODING 89
SWIDTH 680 0
DWIDTH 17 0
BBX 16 24 0 0
BITMAP
E00E
B00B
B00B
B00B
B00B
B01B
D837
6C6F
36DE
1BBC
0D78
06F0
02E0
02C0
02C0
02C0
02C0
02C0
02C0
02C0
02C0
02C0
03C0
01C0
ENDCHAR
STARTCHAR U+005A
ENCODING 90
SWIDTH 680 0
DWIDTH 17 0
BBX 16 24 0 0
BITMAP
FFFE
8003
FFFB
7FF7
0037
006E
005E
00DC
01B8
0178
0370
06E0
05E0
0DC0
1B80
1780
3700
6E00
5E00
DC00
BFFE
8003
FFFF
7FFF
ENDCHAR
STARTCHAR U+005B
ENCODING 91
SWIDTH 240 0
DWIDTH 6 0
BBX 5 24 0 0
BITMAP
F0
98
B8
B8
B0
B0
B0
B0
B0
B0
B0
B0
B0
B0
B0
B0
B0
B0
B0
B0
B0
98
F8
78
ENDCHAR
STARTCHAR U+005C
ENCODING 92
SWIDTH 360 0
DWIDTH 9 0
BBX 8 24 0 0
BITMAP
E0
B0
B0
B0
D8
58
58
58
58
6C
2C
2C
2C
2C
36
16
16
16
16
1B
0B
0B
0F
07
ENDCHAR
STARTCHAR U+005D
ENCODING 93
SWIDTH 240 0
DWIDTH 6 0
BBX 5 24 0 0
BITMAP
F0
98
D8
58
58
58
58
58
58
58
58
58
58
58
58
58
58
58
58
58
D8
98
F8
78
ENDCHAR
STARTCHAR U+005E
ENCODING 94
SWIDTH 680 0
DWIDTH 17 0
BBX 16 10 0 14
BITMAP
0380
06C0
0D60
1BB0
37D8
6F6C
DE36
BC1B
F80F
7007
ENDCHAR
STARTCHAR U+005F
ENCODING 95
SWIDTH 680 0
DWIDTH 17 0
BBX 16 4 0 0
BITMAP
FFFE
8003
FFFF
7FFF
ENDCHAR
STARTCHAR U+0060
ENCODING 96
SWIDTH 280 0
DWIDTH 7 0
BBX 6 9 0 15
BITMAP
E0
B0
B0
D8
58
6C
2C
3C
1C
ENDCHAR
STARTCHAR U+0061
ENCODING 97
SWIDTH 600 0
DWIDTH 15 0
BBX 14 18 0 0
BITMAP
1FF8
100C
1FEC
0FEC
002C
002C
002C
002C
FFEC
800C
BFEC
BFEC
B02C
B02C
BFEC
800C
FFFC
7FFC
ENDCHAR
STARTCHAR U+0062
ENCODING 98
SWIDTH 600 0
DWIDTH 15 0
BBX 14 24 0 0
BITMAP
E000
B000
B000
B000
B000
B000
BFF8
800C
BFEC
BFEC
B02C
B02C
B02C
B02C
B02C
B02C
B02C
B02C
B02C
B02C
BFEC
800C
FFFC
7FFC
ENDCHAR
STARTCHAR U+0063
ENCODING 99
SWIDTH 600 0
DWIDTH 15 0
BBX 14 18 0 0
BITMAP
FFF8
800C
BFFC
BFFC
B000
B000
B000
B000
B000
B000
B000
B000
B000
B000
BFF8
800C
FFFC
7FFC
ENDCHAR
STARTCHAR U+0064
ENCODING 100
SWIDTH 600 0
DWIDTH 15 0
BBX 14 24 0 0
BITMAP
0038
002C
002C
002C
002C
002C
FFEC
800C
BFEC
BFEC
B02C
B02C
B02C
B02C
B02C
B02C
B02C
B02C
B02C
B02C
BFEC
800C
FFFC
7FFC
ENDCHAR
STARTCHAR U+0065
ENCODING 101
SWIDTH 600 0
DWIDTH 15 0
BBX 14 18 0 0
BITMAP
FFF8
800C
BFEC
BFEC
B02C
B02C
B02C
B02C
BFEC
800C
BFFC
BFFC
B000
B000
BFF8
800C
FFFC
7FFC
ENDCHAR
STARTCHAR U+0066
ENCODING 102
SWIDTH 360 0
DWIDTH 9 0
BBX 8 24 0 0
BITMAP
3E
23
2F
2F
2C
2C
EE
83
EF
6F
2C
2C
2C
2C
2C
2C
2C
2C
2C
2C
2C
2C
3C
1C
ENDCHAR
STARTCHAR U+0067
ENCODING 103
SWIDTH 600 0
DWIDTH 15 0
BBX 14 18 0 0
BITMAP
FFF8
800C
BFEC
BFEC
B02C
B02C
B02C
B02C
BFEC
800C
FFEC
7FEC
002C
002C
FFEC
800C
FFFC
7FFC
ENDCHAR
STARTCHAR U+0068
ENCODING 104
SWIDTH 600 0
DWIDTH 15 0
BBX 14 24 0 0
BITMAP
E000
B000
B000
B000
B000
B000
BFF8
800C
BFEC
BFEC
B02C
B02C
B02C
B02C
B02C
B02C
B02C
B02C
B02C
B02C
B02C
B02C
F03C
701C
ENDCHAR
STARTCHAR U+0069
ENCODING 105
SWIDTH 200 0
DWIDTH 5 0
BBX 4 22 0 0
BITMAP
E0
B0
B0
F0
F0
B0
B0
B0
B0
B0
B0
B0
B0
B0
B0
B0
B0
B0
B0
B0
F0
70
ENDCHAR
STARTCHAR U+006A
ENCODING 106
SWIDTH 360 0
DWIDTH 9 0
BBX 8 22 0 0
BITMAP
0E
0B
0B
0F
0F
0B
0B
0B
0B
0B
0B
0B
0B
0B
EB
BB
BB
BB
BB
83
FF
7F
ENDCHAR
STARTCHAR U+006B
ENCODING 107
SWIDTH 600 0
DWIDTH 15 0
BBX 14 24 0 0
BITMAP
E000
B000
B000
B000
B000
B000
B038
B02C
B02C
B02C
B0EC
B39C
BE7C
B9F8
A7E0
9F80
A700
B9C0
BE70
B798
B1EC
B06C
F03C
701C
ENDCHAR
STARTCHAR U+006C
ENCODING 108
SWIDTH 200 0
DWIDTH 5 0
BBX 4 24 0 0
BITMAP
E0
B0
B0
B0
B0
B0
B0
B0
B0
B0
B0
B0
B0
B0
B0
B0
B0
B0
B0
B0
B0
B0
F0
70
ENDCHAR
STARTCHAR U+006D
ENCODING 109
SWIDTH 680 0
DWIDTH 17 0
BBX 16 18 0 0
BITMAP
FFFE
8003
BEFB
BEFB
B2CB
B2CB
B2CB
B2CB
B2CB
B2CB
B2CB
B2CB
B2CB
B2CB
B2CB
B2CB
F3CF
71C7
ENDCHAR
STARTCHAR U+006E
ENCODING 110
SWIDTH 600 0
DWIDTH 15 0
BBX 14 18 0 0
BITMAP
FFF0
8018
BFEC
BFEC
B02C
B02C
B02C
B02C
B02C
B02C
B02C
B02C
B02C
B02C
B02C
B02C
F03C
701C
ENDCHAR
STARTCHAR U+006F
ENCODING 111
SWIDTH 600 0
DWIDTH 15 0
BBX 14 18 0 0
BITMAP
FFF8
800C
BFEC
BFEC
B02C
B02C
B02C
B02C
B02C
B02C
B02C
B02C
B02C
B02C
BFEC
800C
FFFC
7FFC
ENDCHAR
STARTCHAR U+0070
ENCODING 112
SWIDTH 600 0
DWIDTH 15 0
BBX 14 18 0 0
BITMAP
FFF8
800C
BFEC
BFEC
B02C
B02C
B02C
B02C
BFEC
800C
BFFC
BFFC
B000
B000
B000
B000
F000
7000
ENDCHAR
STARTCHAR U+0071
ENCODING 113
SWIDTH 600 0
DWIDTH 15 0
BBX 14 18 0 0
BITMAP
FFF8
800C
BFEC
BFEC
B02C
B02C
B02C
B02C
BFEC
800C
FFEC
7FEC
002C
002C
002C
002C
003C
001C
ENDCHAR
STARTCHAR U+0072
ENCODING 114
SWIDTH 360 0
DWIDTH 9 0
BBX 8 18 0 0
BITMAP
FE
83
BF
BF
B0
B0
B0
B0
B0
B0
B0
B0
B0
B0
B0
B0
F0
70
ENDCHAR
STARTCHAR U+0073
ENCODING 115
SWIDTH 600 0
DWIDTH 15 0
BBX 14 18 0 0
BITMAP
FFF8
800C
BFFC
BFFC
B000
B000
B000
B000
BFF8
800C
FFEC
7FEC
002C
002C
FFEC
800C
FFFC
7FFC
ENDCHAR
STARTCHAR U+0074
ENCODING 116
SWIDTH 360 0
DWIDTH 9 0
BBX 8 24 0 0
BITMAP
38
2C
2C
2C
2C
2C
EE
83
EF
6F
2C
2C
2C
2C
2C
2C
2C
2C
2C
2C
2E
23
3F
1F
ENDCHAR
STARTCHAR U+0075
ENCODING 117
SWIDTH 600 0
DWIDTH 15 0
BBX 14 18 0 0
BITMAP
E038
B02C
B02C
B02C
B02C
B02C
B02C
B02C
B02C
B02C
B02C
B02C
B02C
B02C
BFEC
800C
FFFC
7FFC
ENDCHAR
STARTCHAR U+0076
ENCODING 118
SWIDTH 600 0
DWIDTH 15 0
BBX 14 18 0 0
BITMAP
E038
B02C
B02C
B02C
B02C
B02C
B02C
B02C
D82C
6C2C
362C
1B2C
0DAC
06EC
036C
018C
00FC
007C
ENDCHAR
STARTCHAR U+0077
ENCODING 119
SWIDTH 680 0
DWIDTH 17 0
BBX 16 18 0 0
BITMAP
E00E
B00B
B00B
B00B
B00B
B00B
B00B
B00B
B38B
B2CB
B2CB
B2CB
B2CB
B2CB
BEFB
8003
FFFF
7FFF
ENDCHAR
STARTCHAR U+0078
ENCODING 120
SWIDTH 680 0
DWIDTH 17 0
BBX 16 18 0 0
BITMAP
E00E
B00B
B01B
D837
6C6F
36DE
1BBC
0D78
06F0
0D60
1BB0
37D8
6F6C
DE36
BC1B
B80B
F00F
7007
ENDCHAR
STARTCHAR U+0079
ENCODING 121
SWIDTH 600 0
DWIDTH 15 0
BBX 14 18 0 0
BITMAP
E038
B02C
B02C
B02C
B02C
B02C
B02C
B02C
BFEC
800C
FFEC
7FEC
002C
002C
FFEC
800C
FFFC
7FFC
ENDCHAR
STARTCHAR U+007A
ENCODING 122
SWIDTH 600 0
DWIDTH 15 0
BBX 14 18 0 0
BITMAP
FFF8
800C
FFEC
7FEC
00DC
01BC
0378
06F0
0DE0
1BC0
3780
6F00
DE00
BC00
BFF8
800C
FFFC
7FFC
ENDCHAR
STARTCHAR U+007B
ENCODING 123
SWIDTH 320 0
DWIDTH 8 0
BBX 6 24 1 0
BITMAP
38
6C
5C
5C
58
58
58
58
58
D8
98
B8
98
D8
58
58
58
58
58
58
58
6C
3C
1C
ENDCHAR
STARTCHAR U+007C
ENCODING 124
SWIDTH 200 0
DWIDTH 5 0
BBX 4 24 0 0
BITMAP
E0
B0
B0
B0
B0
B0
B0
B0
B0
B0
B0
B0
B0
B0
B0
B0
B0
B0
B0
B0
B0
B0
F0
70
ENDCHAR
STARTCHAR U+007D
ENCODING 125
SWIDTH 280 0
DWIDTH 7 0
BBX 6 24 0 0
BITMAP
E0
B0
D8
58
58
58
58
58
58
58
4C
6C
4C
5C
5C
58
58
58
58
58
D8
B8
F8
70
ENDCHAR
STARTCHAR U+007E
ENCODING 126
SWIDTH 760 0
DWIDTH 19 0
BBX 18 6 0 9
BITMAP
FFC380
8062C0
BF7EC0
BF00C0
F1FFC0
70FFC0
ENDCHAR
STARTCHAR U+00A1
ENCODING 161
SWIDTH 200 0
DWIDTH 5 0
BBX 4 24 0 0
BITMAP
E0
B0
B0
F0
70
00
E0
B0
B0
B0
B0
B0
B0
B0
B0
B0
B0
B0
B0
B0
B0
B0
F0
70
ENDCHAR
STARTCHAR U+00AA
ENCODING 170
SWIDTH 360 0
DWIDTH 9 0
BBX 8 11 0 13
BITMAP
7E
C3
BB
BB
BB
BB
83
FF
83
FF
7F
ENDCHAR
STARTCHAR U+00AB
ENCODING 171
SWIDTH 480 0
DWIDTH 12 0
BBX 11 12 0 3
BITMAP
0FC0
1B60
36E0
6DE0
DBC0
B780
DB00
6D80
36C0
1B60
0FE0
07E0
ENDCHAR
STARTCHAR U+00B0
ENCODING 176
SWIDTH 360 0
DWIDTH 9 0
BBX 8 9 0 15
BITMAP
FE
83
BB
BB
BB
BB
83
FF
7F
ENDCHAR
STARTCHAR U+00BA
ENCODING 186
SWIDTH 360 0
DWIDTH 9 0
BBX 8 11 0 13
BITMAP
FE
83
BB
BB
BB
BB
83
FF
83
FF
7F
ENDCHAR
STARTCHAR U+00BB
ENCODING 187
SWIDTH 480 0
DWIDTH 12 0
BBX 11 12 0 3
BITMAP
FC00
B600
DB00
6D80
36C0
1B60
36E0
6DE0
DBC0
B780
FF00
7E00
ENDCHAR
STARTCHAR U+00BF
ENCODING 191
SWIDTH 680 0
DWIDTH 17 0
BBX 16 24 0 0
BITMAP
0380
02C0
02C0
03C0
01C0
0000
0380
02C0
02C0
02C0
FEC0
80C0
BFC0
BFC0
B000
B000
B00E
B00B
B00B
B00B
BFFB
8003
FFFF
7FFF
ENDCHAR
STARTCHAR U+00DF
ENCODING 223
SWIDTH 600 0
DWIDTH 15 0
BBX 14 24 0 0
BITMAP
FFF0
8018
BFEC
BFEC
B02C
B02C
B02C
B02C
B02C
B02C
BFEC
A00C
BFEC
BFEC
B02C
B02C
B02C
B02C
B02C
B02C
BFEC
A01C
FFFC
7FF8
ENDCHAR
STARTCHAR U+00E0
ENCODING 224
SWIDTH 600 0
DWIDTH 15 0
BBX 14 23 0 0
BITMAP
0E00
0B00
0D80
06C0
03C0
1FF8
100C
1FEC
0FEC
002C
002C
002C
002C
FFEC
800C
BFEC
BFEC
B02C
B02C
BFEC
800C
FFFC
7FFC
ENDCHAR
STARTCHAR U+00E1
ENCODING 225
SWIDTH 600 0
DWIDTH 15 0
BBX 14 23 0 0
BITMAP
0380
06C0
0DC0
0BC0
0F80
1FF8
100C
1FEC
0FEC
002C
002C
002C
002C
FFEC
800C
BFEC
BFEC
B02C
B02C
BFEC
800C
FFFC
7FFC
ENDCHAR
STARTCHAR U+00E2
ENCODING 226
SWIDTH 600 0
DWIDTH 15 0
BBX 14 22 0 0
BITMAP
0F00
1980
16C0
1FC0
1FF8
100C
1FEC
0FEC
002C
002C
002C
002C
FFEC
800C
BFEC
BFEC
B02C
B02C
BFEC
800C
FFFC
7FFC
ENDCHAR
STARTCHAR U+00E4
ENCODING 228
SWIDTH 600 0
DWIDTH 15 0
BBX 14 22 0 0
BITMAP
1F80
16C0
16C0
1FC0
1FF8
100C
1FEC
0FEC
002C
002C
002C
002C
FFEC
800C
BFEC
BFEC
B02C
B02C
BFEC
800C
FFFC
7FFC
ENDCHAR
STARTCHAR U+00E6
ENCODING 230
SWIDTH 1000 0
DWIDTH 25 0
BBX 24 18 0 0
BITMAP
1FFFFE
100003
1FEFFB
0FEFFB
002C0B
002C0B
002C0B
002C0B
FFEFFB
800003
BFEFFF
BFEFFF
B02C00
B02C00
BFEFFE
800003
FFFFFF
7FFFFF
ENDCHAR
STARTCHAR U+00E7
ENCODING 231
SWIDTH 600 0
DWIDTH 15 0
BBX 14 18 0 0
BITMAP
FFF8
800C
BFFC
BFFC
B000
B000
B000
B000
B000
B000
B000
B000
B000
BFF8
800C
FDFC
7FFC
0380
ENDCHAR
STARTCHAR U+00E8
ENCODING 232
SWIDTH 600 0
DWIDTH 15 0
BBX 14 23 0 0
BITMAP
0E00
0B00
0D80
06C0
03C0
FFF8
800C
BFEC
BFEC
B02C
B02C
B02C
B02C
BFEC
800C
BFFC
BFFC
B000
B000
BFF8
800C
FFFC
7FFC
ENDCHAR
STARTCHAR U+00E9
ENCODING 233
SWIDTH 600 0
DWIDTH 15 0
BBX 14 23 0 0
BITMAP
0380
06C0
0DC0
0BC0
0F80
FFF8
800C
BFEC
BFEC
B02C
B02C
B02C
B02C
BFEC
800C
BFFC
BFFC
B000
B000
BFF8
800C
FFFC
7FFC
ENDCHAR
STARTCHAR U+00EA
ENCODING 234
SWIDTH 600 0
DWIDTH 15 0
BBX 14 22 0 0
BITMAP
0F00
1980
16C0
1FC0
FFF8
800C
BFEC
BFEC
B02C
B02C
B02C
B02C
BFEC
800C
BFFC
BFFC
B000
B000
BFF8
800C
FFFC
7FFC
ENDCHAR
STARTCHAR U+00EB
ENCODING 235
SWIDTH 600 0
DWIDTH 15 0
BBX 14 22 0 0
BITMAP
1F80
16C0
16C0
1FC0
FFF8
800C
BFEC
BFEC
B02C
B02C
B02C
B02C
BFEC
800C
BFFC
BFFC
B000
B000
BFF8
800C
FFFC
7FFC
ENDCHAR
STARTCHAR U+00EC
ENCODING 236
SWIDTH 280 0
DWIDTH 7 0
BBX 6 23 0 0
BITMAP
E0
B0
D8
6C
3C
7C
58
58
58
58
58
58
58
58
58
58
58
58
58
58
58
78
38
ENDCHAR
STARTCHAR U+00ED
ENCODING 237
SWIDTH 320 0
DWIDTH 8 0
BBX 7 23 0 0
BITMAP
1C
36
6E
5E
7C
F8
B0
B0
B0
B0
B0
B0
B0
B0
B0
B0
B0
B0
B0
B0
B0
F0
70
ENDCHAR
STARTCHAR U+00EE
ENCODING 238
SWIDTH 320 0
DWIDTH 8 0
BBX 7 22 0 0
BITMAP
78
CC
B6
FE
7E
2C
2C
2C
2C
2C
2C
2C
2C
2C
2C
2C
2C
2C
2C
2C
3C
1C
ENDCHAR
STARTCHAR U+00EF
ENCODING 239
SWIDTH 320 0
DWIDTH 8 0
BBX 7 22 0 0
BITMAP
FC
B6
B6
FE
7E
2C
2C
2C
2C
2C
2C
2C
2C
2C
2C
2C
2C
2C
2C
2C
3C
1C
ENDCHAR
STARTCHAR U+00F1
ENCODING 241
SWIDTH 600 0
DWIDTH 15 0
BBX 14 22 0 0
BITMAP
FF00
8D80
B180
FF80
FFF0
8018
BFEC
BFEC
B02C
B02C
B02C
B02C
B02C
B02C
B02C
B02C
B02C
B02C
B02C
B02C
F03C
701C
ENDCHAR
STARTCHAR U+00F2
ENCODING 242
SWIDTH 600 0
DWIDTH 15 0
BBX 14 23 0 0
BITMAP
0E00
0B00
0D80
06C0
03C0
FFF8
800C
BFEC
BFEC
B02C
B02C
B02C
B02C
B02C
B02C
B02C
B02C
B02C
B02C
BFEC
800C
FFFC
7FFC
ENDCHAR
STARTCHAR U+00F3
ENCODING 243
SWIDTH 600 0
DWIDTH 15 0
BBX 14 23 0 0
BITMAP
0380
06C0
0DC0
0BC0
0F80
FFF8
800C
BFEC
BFEC
B02C
B02C
B02C
B02C
B02C
B02C
B02C
B02C
B02C
B02C
BFEC
800C
FFFC
7FFC
ENDCHAR
STARTCHAR U+00F4
ENCODING 244
SWIDTH 600 0
DWIDTH 15 0
BBX 14 22 0 0
BITMAP
0F00
1980
16C0
1FC0
FFF8
800C
BFEC
BFEC
B02C
B02C
B02C
B02C
B02C
B02C
B02C
B02C
B02C
B02C
BFEC
800C
FFFC
7FFC
ENDCHAR
STARTCHAR U+00F6
ENCODING 246
SWIDTH 600 0
DWIDTH 15 0
BBX 14 22 0 0
BITMAP
1F80
16C0
16C0
1FC0
FFF8
800C
BFEC
BFEC
B02C
B02C
B02C
B02C
B02C
B02C
B02C
B02C
B02C
B02C
BFEC
800C
FFFC
7FFC
ENDCHAR
STARTCHAR U+00F9
ENCODING 249
SWIDTH 600 0
DWIDTH 15 0
BBX 14 23 0 0
BITMAP
0E00
0B00
0D80
06C0
03C0
E1F8
B02C
B02C
B02C
B02C
B02C
B02C
B02C
B02C
B02C
B02C
B02C
B02C
B02C
BFEC
800C
FFFC
7FFC
ENDCHAR
STARTCHAR U+00FA
ENCODING 250
SWIDTH 600 0
DWIDTH 15 0
BBX 14 23 0 0
BITMAP
0380
06C0
0DC0
0BC0
0F80
E738
B02C
B02C
B02C
B02C
B02C
B02C
B02C
B02C
B02C
B02C
B02C
B02C
B02C
BFEC
800C
FFFC
7FFC
ENDCHAR
STARTCHAR U+00FB
ENCODING 251
SWIDTH 600 0
DWIDTH 15 0
BBX 14 22 0 0
BITMAP
0F00
1980
16C0
1FC0
EFF8
B02C
B02C
B02C
B02C
B02C
B02C
B02C
B02C
B02C
B02C
B02C
B02C
B02C
BFEC
800C
FFFC
7FFC
ENDCHAR
STARTCHAR U+00FC
ENCODING 252
SWIDTH 600 0
DWIDTH 15 0
BBX 14 22 0 0
BITMAP
1F80
16C0
16C0
1FC0
EFF8
B02C
B02C
B02C
B02C
B02C
B02C
B02C
B02C
B02C
B02C
B02C
B02C
B02C
BFEC
800C
FFFC
7FFC
ENDCHAR
STARTCHAR U+00FD
ENCODING 253
SWIDTH 600 0
DWIDTH 15 0
BBX 14 23 0 0
BITMAP
0380
06C0
0DC0
0BC0
0F80
E738
B02C
B02C
B02C
B02C
B02C
B02C
B02C
BFEC
800C
FFEC
7FEC
002C
002C
FFEC
800C
FFFC
7FFC
ENDCHAR
STARTCHAR U+00FF
ENCODING 255
SWIDTH 600 0
DWIDTH 15 0
BBX 14 22 0 0
BITMAP
1F80
16C0
16C0
1FC0
EFF8
B02C
B02C
B02C
B02C
B02C
B02C
B02C
BFEC
800C
FFEC
7FEC
002C
002C
FFEC
800C
FFFC
7FFC
ENDCHAR
STARTCHAR U+010D
ENCODING 269
SWIDTH 600 0
DWIDTH 15 0
BBX 14 22 0 0
BITMAP
1F80
16C0
19C0
0FC0
FFF8
800C
BFFC
BFFC
B000
B000
B000
B000
B000
B000
B000
B000
B000
B000
BFF8
800C
FFFC
7FFC
ENDCHAR
STARTCHAR U+010F
ENCODING 271
SWIDTH 600 0
DWIDTH 15 0
BBX 14 24 0 0
BITMAP
1C38
162C
162C
162C
162C
1E2C
FFEC
800C
BFEC
BFEC
B02C
B02C
B02C
B02C
B02C
B02C
B02C
B02C
B02C
B02C
BFEC
800C
FFFC
7FFC
ENDCHAR
STARTCHAR U+011B
ENCODING 283
SWIDTH 600 0
DWIDTH 15 0
BBX 14 22 0 0
BITMAP
1F80
16C0
19C0
0FC0
FFF8
800C
BFEC
BFEC
B02C
B02C
B02C
B02C
BFEC
800C
BFFC
BFFC
B000
B000
BFF8
800C
FFFC
7FFC
ENDCHAR
STARTCHAR U+0148
ENCODING 328
SWIDTH 600 0
DWIDTH 15 0
BBX 14 22 0 0
BITMAP
1F80
16C0
19C0
0FC0
FFF0
8018
BFEC
BFEC
B02C
B02C
B02C
B02C
B02C
B02C
B02C
B02C
B02C
B02C
B02C
B02C
F03C
701C
ENDCHAR
STARTCHAR U+0153
ENCODING 339
SWIDTH 1000 0
DWIDTH 25 0
BBX 24 18 0 0
BITMAP
FFFFFE
800003
BFEFFB
BFEFFB
B02C0B
B02C0B
B02C0B
B02C0B
B02FFB
B02003
B02FFF
B02FFF
B02C00
B02C00
BFEFFE
800003
FFFFFF
7FFFFF
ENDCHAR
STARTCHAR U+0159
ENCODING 345
SWIDTH 360 0
DWIDTH 9 0
BBX 8 22 0 0
BITMAP
7C
56
6E
3E
FE
83
BF
BF
B0
B0
B0
B0
B0
B0
B0
B0
B0
B0
B0
B0
F0
70
ENDCHAR
STARTCHAR U+0161
ENCODING 353
SWIDTH 600 0
DWIDTH 15 0
BBX 14 22 0 0
BITMAP
1F80
16C0
19C0
0FC0
FFF8
800C
BFFC
BFFC
B000
B000
B000
B000
BFF8
800C
FFEC
7FEC
002C
002C
FFEC
800C
FFFC
7FFC
ENDCHAR
STARTCHAR U+0165
ENCODING 357
SWIDTH 480 0
DWIDTH 12 0
BBX 11 24 0 0
BITMAP
39C0
2D60
2D60
2D60
2D60
2DE0
EFE0
8180
EF80
6F80
2C00
2C00
2C00
2C00
2C00
2C00
2C00
2C00
2C00
2C00
2F00
2180
3F80
1F80
ENDCHAR
STARTCHAR U+016F
ENCODING 367
SWIDTH 600 0
DWIDTH 15 0
BBX 14 23 0 0
BITMAP
0F00
1980
16C0
19C0
0FC0
E7B8
B02C
B02C
B02C
B02C
B02C
B02C
B02C
B02C
B02C
B02C
B02C
B02C
B02C
BFEC
800C
FFFC
7FFC
ENDCHAR
STARTCHAR U+017E
ENCODING 382
SWIDTH 600 0
DWIDTH 15 0
BBX 14 22 0 0
BITMAP
1F80
16C0
19C0
0FC0
FFF8
800C
FFEC
7FEC
00DC
01BC
0378
06F0
0DE0
1BC0
3780
6F00
DE00
BC00
BFF8
800C
FFFC
7FFC
ENDCHAR
STARTCHAR U+2018
ENCODING 8216
SWIDTH 200 0
DWIDTH 5 0
BBX 4 8 0 16
BITMAP
E0
B0
B0
B0
B0
B0
F0
70
ENDCHAR
STARTCHAR U+2019
ENCODING 8217
SWIDTH 200 0
DWIDTH 5 0
BBX 4 8 0 16
BITMAP
E0
B0
B0
B0
B0
B0
F0
70
ENDCHAR
STARTCHAR U+201A
ENCODING 8218
SWIDTH 200 0
DWIDTH 5 0
BBX 4 8 0 0
BITMAP
E0
B0
B0
B0
B0
B0
F0
70
ENDCHAR
STARTCHAR U+201C
ENCODING 8220
SWIDTH 320 0
DWIDTH 8 0
BBX 7 8 0 16
BITMAP
FC
B6
B6
B6
B6
B6
FE
7E
ENDCHAR
STARTCHAR U+201D
ENCODING 8221
SWIDTH 320 0
DWIDTH 8 0
BBX 7 8 0 16
BITMAP
FC
B6
B6
B6
B6
B6
FE
7E
ENDCHAR
STARTCHAR U+201E
ENCODING 8222
SWIDTH 320 0
DWIDTH 8 0
BBX 7 8 0 0
BITMAP
FC
B6
B6
B6
B6
B6
FE
7E
ENDCHAR
STARTCHAR U+20AC
ENCODING 8364
SWIDTH 640 0
DWIDTH 16 0
BBX 15 24 0 0
BITMAP
7FFC
4006
5FF6
5FF6
5816
581E
580E
5800
5800
DFC0
8060
DFE0
8060
DFE0
5FE0
5800
5800
581C
5816
5816
5FF6
4006
7FFE
3FFE
ENDCHAR
ENDFONT
