STARTFONT 2.1
FONT -PixelFonts-pixelfont_3d_condensed_extended_latin_21x11_bold-Bold-R-Normal--24-240-75-75-P-0-ISO10646-1
SIZE 24 75 75
FONTBOUNDINGBOX 22 24 0 0
STARTPROPERTIES 7
FOUNDRY "PixelFonts"
FAMILY_NAME "pixelfont_3d_condensed_extended_latin_21x11_bold"
WEIGHT_NAME "Bold"
PIXEL_SIZE 24
FONT_ASCENT 24
FONT_DESCENT 0
DEFAULT_CHAR 32
ENDPROPERTIES
CHARS 145
STARTCHAR U+0020
ENCODING 32
SWIDTH 333 0
DWIDTH 8 0
BBX 1 1 0 0
BITMAP
00
ENDCHAR
STARTCHAR U+0021
ENCODING 33
SWIDTH 250 0
DWIDTH 6 0
BBX 6 24 0 0
BITMAP
F8
8C
8C
8C
8C
8C
8C
8C
8C
8C
8C
8C
8C
8C
8C
8C
FC
7C
F8
8C
8C
8C
FC
7C
ENDCHAR
STARTCHAR U+0022
ENCODING 34
SWIDTH 417 0
DWIDTH 10 0
BBX 10 8 0 16
BITMAP
FF80
88C0
88C0
88C0
88C0
88C0
FFC0
7FC0
ENDCHAR
STARTCHAR U+0023
ENCODING 35
SWIDTH 667 0
DWIDTH 16 0
BBX 16 17 0 3
BITMAP
3EF8
238C
238C
E38E
8003
8003
8003
E38F
E38F
8003
8003
8003
E38F
638F
238C
3FFC
1F7C
ENDCHAR
STARTCHAR U+0024
ENCODING 36
SWIDTH 667 0
DWIDTH 16 0
BBX 16 24 0 0
BITMAP
07C0
0460
FC7E
8003
8003
8003
8C7F
8C7F
8C60
8C7E
8003
8003
8003
FC63
7C63
0463
FC63
8003
8003
8003
FC7F
7C7F
07E0
03E0
ENDCHAR
STARTCHAR U+0025
ENCODING 37
SWIDTH 667 0
DWIDTH 16 0
BBX 16 24 0 0
BITMAP
FE3E
8323
8323
9323
8323
8323
FF63
7FC3
0187
030F
061E
0C3C
1878
30F0
61E0
C3C0
87FE
8F83
8E83
8C93
8C83
8C83
FCFF
7C7F
ENDCHAR
STARTCHAR U+0026
ENCODING 38
SWIDTH 667 0
DWIDTH 16 0
BBX 16 24 0 0
BITMAP
7FF0
C018
800C
800C
8F8C
8F8C
8D8C
8F0C
8E0C
8C1C
803C
807E
8023
8003
8E03
8F07
8D8F
8D8E
8F06
8003
8003
C063
7FFF
3FFF
ENDCHAR
STARTCHAR U+0027
ENCODING 39
SWIDTH 250 0
DWIDTH 6 0
BBX 6 12 0 12
BITMAP
F8
8C
8C
8C
8C
8C
8C
8C
8C
8C
FC
7C
ENDCHAR
STARTCHAR U+0028
ENCODING 40
SWIDTH 333 0
DWIDTH 8 0
BBX 8 24 0 0
BITMAP
7E
C3
83
83
8F
8F
8C
8C
8C
8C
8C
8C
8C
8C
8C
8C
8C
8C
8E
83
83
C3
7F
3F
ENDCHAR
STARTCHAR U+0029
ENCODING 41
SWIDTH 333 0
DWIDTH 8 0
BBX 8 24 0 0
BITMAP
FC
86
83
83
E3
63
23
23
23
23
23
23
23
23
23
23
23
23
E3
83
83
87
FF
7E
ENDCHAR
STARTCHAR U+002A
ENCODING 42
SWIDTH 667 0
DWIDTH 16 0
BBX 16 20 0 2
BITMAP
FFFE
8C63
8C63
8C63
8C63
8C63
8C63
8C63
8003
8003
8003
8C63
8C63
8C63
8C63
8C63
8C63
8C63
FFFF
7FFF
ENDCHAR
STARTCHAR U+002B
ENCODING 43
SWIDTH 500 0
DWIDTH 12 0
BBX 12 12 0 6
BITMAP
1F00
1180
1180
F1E0
8030
8030
8030
F1F0
71F0
1180
1F80
0F80
ENDCHAR
STARTCHAR U+002C
ENCODING 44
SWIDTH 250 0
DWIDTH 6 0
BBX 6 12 0 0
BITMAP
F8
8C
8C
8C
8C
8C
8C
8C
8C
8C
FC
7C
ENDCHAR
STARTCHAR U+002D
ENCODING 45
SWIDTH 500 0
DWIDTH 12 0
BBX 12 6 0 9
BITMAP
FFE0
8030
8030
8030
FFF0
7FF0
ENDCHAR
STARTCHAR U+002E
ENCODING 46
SWIDTH 250 0
DWIDTH 6 0
BBX 6 6 0 0
BITMAP
F8
8C
8C
8C
FC
7C
ENDCHAR
STARTCHAR U+002F
ENCODING 47
SWIDTH 417 0
DWIDTH 10 0
BBX 10 24 0 0
BITMAP
0F80
08C0
08C0
08C0
18C0
11C0
11C0
1180
3180
2380
2380
2300
2300
6300
4700
4700
4600
C600
8E00
8E00
8C00
8C00
FC00
7C00
ENDCHAR
STARTCHAR U+0030
ENCODING 48
SWIDTH 583 0
DWIDTH 14 0
BBX 14 24 0 0
BITMAP
FFF8
800C
800C
800C
8F8C
8F8C
8C8C
8C8C
8C8C
8C8C
8C8C
8C8C
8C8C
8C8C
8C8C
8C8C
8C8C
8C8C
8F8C
800C
800C
800C
FFFC
7FFC
ENDCHAR
STARTCHAR U+0031
ENCODING 49
SWIDTH 250 0
DWIDTH 6 0
BBX 6 24 0 0
BITMAP
F8
8C
8C
8C
8C
8C
8C
8C
8C
8C
8C
8C
8C
8C
8C
8C
8C
8C
8C
8C
8C
8C
FC
7C
ENDCHAR
STARTCHAR U+0032
ENCODING 50
SWIDTH 583 0
DWIDTH 14 0
BBX 14 24 0 0
BITMAP
FFF8
800C
800C
800C
8F8C
FF8C
7C8C
008C
008C
FF8C
800C
800C
800C
8FFC
8FFC
8C00
8C00
8C00
8FF8
800C
800C
800C
FFFC
7FFC
ENDCHAR
STARTCHAR U+0033
ENCODING 51
SWIDTH 583 0
DWIDTH 14 0
BBX 14 24 0 0
BITMAP
FFF8
800C
800C
800C
FF8C
7F8C
008C
008C
008C
1F8C
100C
100C
100C
1F8C
0F8C
008C
008C
008C
FF8C
800C
800C
800C
FFFC
7FFC
ENDCHAR
STARTCHAR U+0034
ENCODING 52
SWIDTH 583 0
DWIDTH 14 0
BBX 14 24 0 0
BITMAP
F8F8
8C8C
8C8C
8C8C
8C8C
8C8C
8C8C
8C8C
8C8C
8F8C
800C
800C
800C
FF8C
7F8C
008C
008C
008C
008C
008C
008C
008C
00FC
007C
ENDCHAR
STARTCHAR U+0035
ENCODING 53
SWIDTH 583 0
DWIDTH 14 0
BBX 14 24 0 0
BITMAP
FFF8
800C
800C
800C
8FFC
8FFC
8C00
8C00
8C00
8FF8
800C
800C
800C
FF8C
7F8C
008C
008C
F88C
8F8C
800C
800C
800C
FFFC
7FFC
ENDCHAR
STARTCHAR U+0036
ENCODING 54
SWIDTH 583 0
DWIDTH 14 0
BBX 14 24 0 0
BITMAP
FFF8
800C
800C
800C
8F8C
8FFC
8C7C
8C00
8C00
8FF8
800C
800C
800C
8F8C
8F8C
8C8C
8C8C
8C8C
8F8C
800C
800C
800C
FFFC
7FFC
ENDCHAR
STARTCHAR U+0037
ENCODING 55
SWIDTH 583 0
DWIDTH 14 0
BBX 14 24 0 0
BITMAP
FFF8
800C
800C
800C
8F8C
FF8C
7C8C
008C
008C
008C
008C
008C
008C
008C
008C
008C
008C
008C
008C
008C
008C
008C
00FC
007C
ENDCHAR
STARTCHAR U+0038
ENCODING 56
SWIDTH 583 0
DWIDTH 14 0
BBX 14 24 0 0
BITMAP
FFF8
800C
800C
800C
8F8C
8F8C
8C8C
8C8C
8C8C
8F8C
800C
800C
800C
8F8C
8F8C
8C8C
8C8C
8C8C
8F8C
800C
800C
800C
FFFC
7FFC
ENDCHAR
STARTCHAR U+0039
ENCODING 57
SWIDTH 583 0
DWIDTH 14 0
BBX 14 24 0 0
BITMAP
FFF8
800C
800C
800C
8F8C
8F8C
8C8C
8C8C
8C8C
8F8C
800C
800C
800C
FF8C
7F8C
008C
008C
F88C
8F8C
800C
800C
800C
FFFC
7FFC
ENDCHAR
STARTCHAR U+003A
ENCODING 58
SWIDTH 250 0
DWIDTH 6 0
BBX 6 16 0 2
BITMAP
F8
8C
8C
8C
8C
FC
7C
00
00
F8
8C
8C
8C
8C
FC
7C
ENDCHAR
STARTCHAR U+003B
ENCODING 59
SWIDTH 333 0
DWIDTH 8 0
BBX 6 18 2 0
BITMAP
F8
8C
8C
8C
8C
FC
7C
00
00
F8
8C
8C
8C
8C
8C
8C
FC
7C
ENDCHAR
STARTCHAR U+003C
ENCODING 60
SWIDTH 583 0
DWIDTH 14 0
BBX 14 20 0 2
BITMAP
00F8
018C
030C
060C
0C1C
183C
3078
60F0
C1E0
83C0
C180
60C0
3060
1830
0C18
060C
030C
018C
00FC
007C
ENDCHAR
STARTCHAR U+003D
ENCODING 61
SWIDTH 500 0
DWIDTH 12 0
BBX 12 11 0 6
BITMAP
FFE0
8030
8030
8030
FFF0
FFF0
8030
8030
8030
FFF0
7FF0
ENDCHAR
STARTCHAR U+003E
ENCODING 62
SWIDTH 583 0
DWIDTH 14 0
BBX 14 20 0 2
BITMAP
F800
8C00
8600
8300
C180
60C0
3060
1830
0C18
060C
0C1C
183C
3078
60F0
C1E0
83C0
8780
8F00
FE00
7C00
ENDCHAR
STARTCHAR U+003F
ENCODING 63
SWIDTH 667 0
DWIDTH 16 0
BBX 16 24 0 0
BITMAP
FFFE
8003
8003
8003
8FE3
8FE3
FC23
7C23
0023
07E3
0403
0403
0403
047F
047F
0460
07E0
03E0
07C0
0460
0460
0460
07E0
03E0
ENDCHAR
STARTCHAR U+0040
ENCODING 64
SWIDTH 667 0
DWIDTH 16 0
BBX 16 24 0 0
BITMAP
FFFE
8003
8003
8003
8FE3
8FE3
8C23
8C23
8FE3
8C63
8C63
8C63
8C63
8C03
8C03
8C03
8FFF
8FFF
8FFE
8003
8003
8003
FFFF
7FFF
ENDCHAR
STARTCHAR U+0041
ENCODING 65
SWIDTH 583 0
DWIDTH 14 0
BBX 14 24 0 0
BITMAP
FFF8
800C
800C
800C
8F8C
8F8C
8C8C
8C8C
8C8C
8C8C
8C8C
8C8C
8F8C
800C
800C
800C
8F8C
8F8C
8C8C
8C8C
8C8C
8C8C
FCFC
7C7C
ENDCHAR
STARTCHAR U+0042
ENCODING 66
SWIDTH 583 0
DWIDTH 14 0
BBX 14 24 0 0
BITMAP
FFF0
8018
800C
800C
8F8C
8F8C
8C8C
8C8C
8C8C
8F8C
800C
800C
800C
8F8C
8F8C
8C8C
8C8C
8C8C
8F8C
800C
800C
801C
FFFC
7FF8
ENDCHAR
STARTCHAR U+0043
ENCODING 67
SWIDTH 583 0
DWIDTH 14 0
BBX 14 24 0 0
BITMAP
FFF8
800C
800C
800C
8F8C
8F8C
8CFC
8C7C
8C00
8C00
8C00
8C00
8C00
8C00
8C00
8C00
8CF8
8C8C
8F8C
800C
800C
800C
FFFC
7FFC
ENDCHAR
STARTCHAR U+0044
ENCODING 68
SWIDTH 583 0
DWIDTH 14 0
BBX 14 24 0 0
BITMAP
FFF0
8018
800C
800C
8F8C
8F8C
8C8C
8C8C
8C8C
8C8C
8C8C
8C8C
8C8C
8C8C
8C8C
8C8C
8C8C
8C8C
8F8C
800C
800C
801C
FFFC
7FF8
ENDCHAR
STARTCHAR U+0045
ENCODING 69
SWIDTH 583 0
DWIDTH 14 0
BBX 14 24 0 0
BITMAP
FFF8
800C
800C
800C
8FFC
8FFC
8C00
8C00
8C00
8FC0
8060
8060
8060
8FE0
8FE0
8C00
8C00
8C00
8FF8
800C
800C
800C
FFFC
7FFC
ENDCHAR
STARTCHAR U+0046
ENCODING 70
SWIDTH 583 0
DWIDTH 14 0
BBX 14 24 0 0
BITMAP
FFF8
800C
800C
800C
8FFC
8FFC
8C00
8C00
8C00
8FC0
8060
8060
8060
8FE0
8FE0
8C00
8C00
8C00
8C00
8C00
8C00
8C00
FC00
7C00
ENDCHAR
STARTCHAR U+0047
ENCODING 71
SWIDTH 583 0
DWIDTH 14 0
BBX 14 24 0 0
BITMAP
FFF8
800C
800C
800C
8F8C
8FFC
8C7C
8C00
8C00
8FF8
8C0C
8C0C
8C0C
8F8C
8F8C
8C8C
8C8C
8C8C
8F8C
800C
800C
800C
FFFC
7FFC
ENDCHAR
STARTCHAR U+0048
ENCODING 72
SWIDTH 583 0
DWIDTH 14 0
BBX 14 24 0 0
BITMAP
F8F8
8C8C
8C8C
8C8C
8C8C
8C8C
8C8C
8C8C
8C8C
8F8C
800C
800C
800C
8F8C
8F8C
8C8C
8C8C
8C8C
8C8C
8C8C
8C8C
8C8C
FCFC
7C7C
ENDCHAR
STARTCHAR U+0049
ENCODING 73
SWIDTH 250 0
DWIDTH 6 0
BBX 6 24 0 0
BITMAP
F8
8C
8C
8C
8C
8C
8C
8C
8C
8C
8C
8C
8C
8C
8C
8C
8C
8C
8C
8C
8C
8C
FC
7C
ENDCHAR
STARTCHAR U+004A
ENCODING 74
SWIDTH 583 0
DWIDTH 14 0
BBX 14 24 0 0
BITMAP
00F8
008C
008C
008C
008C
008C
008C
008C
008C
008C
008C
008C
008C
F88C
8C8C
8C8C
8C8C
8C8C
8F8C
800C
800C
800C
FFFC
7FFC
ENDCHAR
STARTCHAR U+004B
ENCODING 75
SWIDTH 667 0
DWIDTH 16 0
BBX 16 24 0 0
BITMAP
F83E
8C23
8C23
8C23
8C63
8CC3
8D87
8F0F
8E1E
8C3C
8078
80F0
8060
8C30
8E18
8F0C
8D86
8CC3
8C63
8C23
8C23
8C23
FC3F
7C1F
ENDCHAR
STARTCHAR U+004C
ENCODING 76
SWIDTH 583 0
DWIDTH 14 0
BBX 14 24 0 0
BITMAP
F800
8C00
8C00
8C00
8C00
8C00
8C00
8C00
8C00
8C00
8C00
8C00
8C00
8C00
8C00
8C00
8C00
8C00
8FF8
800C
800C
800C
FFFC
7FFC
ENDCHAR
STARTCHAR U+004D
ENCODING 77
SWIDTH 667 0
DWIDTH 16 0
BBX 16 24 0 0
BITMAP
FFFE
8003
8003
8003
8C63
8C63
8C63
8C63
8C63
8C63
8C63
8C63
8C63
8FE3
8FE3
8C23
8C23
8C23
8C23
8C23
8C23
8C23
FC3F
7C1F
ENDCHAR
STARTCHAR U+004E
ENCODING 78
SWIDTH 583 0
DWIDTH 14 0
BBX 14 24 0 0
BITMAP
F8F8
8C8C
8C8C
8C8C
8C8C
8C8C
868C
838C
818C
808C
880C
8C0C
8E0C
8F0C
8D8C
8C8C
8C8C
8C8C
8C8C
8C8C
8C8C
8C8C
FCFC
7C7C
ENDCHAR
STARTCHAR U+004F
ENCODING 79
SWIDTH 583 0
DWIDTH 14 0
BBX 14 24 0 0
BITMAP
FFF8
800C
800C
800C
8F8C
8F8C
8C8C
8C8C
8C8C
8C8C
8C8C
8C8C
8C8C
8C8C
8C8C
8C8C
8C8C
8C8C
8F8C
800C
800C
800C
FFFC
7FFC
ENDCHAR
STARTCHAR U+0050
ENCODING 80
SWIDTH 583 0
DWIDTH 14 0
BBX 14 24 0 0
BITMAP
FFF8
800C
800C
800C
8F8C
8F8C
8C8C
8C8C
8C8C
8F8C
800C
800C
800C
8FFC
8FFC
8C00
8C00
8C00
8C00
8C00
8C00
8C00
FC00
7C00
ENDCHAR
STARTCHAR U+0051
ENCODING 81
SWIDTH 667 0
DWIDTH 16 0
BBX 16 24 0 0
BITMAP
FFFE
8003
8003
8003
8FE3
8FE3
8C23
8C23
8C23
8C23
8C23
8C23
8C23
8C23
8C23
8FE3
8E23
8E23
8E23
8003
8003
8003
FFFF
7FFF
ENDCHAR
STARTCHAR U+0052
ENCODING 82
SWIDTH 667 0
DWIDTH 16 0
BBX 16 24 0 0
BITMAP
FFFE
8003
8003
8003
8FE3
8FE3
8C23
8C23
8C23
8FE3
8003
8003
8003
80FF
807F
8830
8C18
8E0C
8F06
8D83
8CC3
8C63
FC3F
7C1F
ENDCHAR
STARTCHAR U+0053
ENCODING 83
SWIDTH 667 0
DWIDTH 16 0
BBX 16 24 0 0
BITMAP
FFFE
8003
8003
8003
8FFF
8FFF
8C00
8C00
8C00
8FFE
8003
8003
8003
FFE3
7FE3
0023
0023
0023
FFE3
8003
8003
8003
FFFF
7FFF
ENDCHAR
STARTCHAR U+0054
ENCODING 84
SWIDTH 667 0
DWIDTH 16 0
BBX 16 24 0 0
BITMAP
FFFE
8003
8003
8003
FC7F
7C7F
0460
0460
0460
0460
0460
0460
0460
0460
0460
0460
0460
0460
0460
0460
0460
0460
07E0
03E0
ENDCHAR
STARTCHAR U+0055
ENCODING 85
SWIDTH 667 0
DWIDTH 16 0
BBX 16 24 0 0
BITMAP
F83E
8C23
8C23
8C23
8C23
8C23
8C23
8C23
8C23
8C23
8C23
8C23
8C23
8C23
8C23
8C23
8C23
8C23
8FE3
8003
8003
8003
FFFF
7FFF
ENDCHAR
STARTCHAR U+0056
ENCODING 86
SWIDTH 667 0
DWIDTH 16 0
BBX 16 24 0 0
BITMAP
F83E
8C23
8C23
8C23
8C23
8C23
8C23
8C23
8C23
8C23
8C23
8C23
8C23
8C23
8C63
86C3
8383
C107
600F
301E
183C
0C78
07F0
03E0
ENDCHAR
STARTCHAR U+0057
ENCODING 87
SWIDTH 667 0
DWIDTH 16 0
BBX 16 24 0 0
BITMAP
F83E
8C23
8C23
8C23
8C23
8C23
8C23
8C23
8C23
8FE3
8C63
8C63
8C63
8C63
8C63
8C63
8C63
8C63
8C63
8003
8003
8003
FFFF
7FFF
ENDCHAR
STARTCHAR U+0058
ENCODING 88
SWIDTH 667 0
DWIDTH 16 0
BBX 16 24 0 0
BITMAP
F83E
8C23
8C23
8C23
8C23
8C23
8C63
86C3
C387
610F
301E
183C
3018
610C
C386
87C3
8F63
8E23
8C23
8C23
8C23
8C23
FC3F
7C1F
ENDCHAR
STARTCHAR U+0059
ENCODING 89
SWIDTH 667 0
DWIDTH 16 0
BBX 16 24 0 0
BITMAP
F83E
8C23
8C23
8C23
8C23
8C23
8C63
86C3
8383
C107
600F
301E
183C
0C78
0470
0460
0460
0460
0460
0460
0460
0460
07E0
03E0
ENDCHAR
STARTCHAR U+005A
ENCODING 90
SWIDTH 667 0
DWIDTH 16 0
BBX 16 24 0 0
BITMAP
FFFE
8003
8003
8003
FFE3
7FE3
00C3
0187
030F
061E
0C3C
1878
30F0
61E0
C3C0
8780
8F00
8E00
8FFE
8003
8003
8003
FFFF
7FFF
ENDCHAR
STARTCHAR U+005B
ENCODING 91
SWIDTH 333 0
DWIDTH 8 0
BBX 8 24 0 0
BITMAP
FE
83
83
83
8F
8F
8C
8C
8C
8C
8C
8C
8C
8C
8C
8C
8C
8C
8E
83
83
83
FF
7F
ENDCHAR
STARTCHAR U+005C
ENCODING 92
SWIDTH 417 0
DWIDTH 10 0
BBX 10 24 0 0
BITMAP
F800
8C00
8C00
8C00
8C00
C600
4600
4600
4600
6300
2300
2300
2300
2300
3180
1180
1180
1180
18C0
08C0
08C0
08C0
0FC0
07C0
ENDCHAR
STARTCHAR U+005D
ENCODING 93
SWIDTH 333 0
DWIDTH 8 0
BBX 8 24 0 0
BITMAP
FE
83
83
83
E3
63
23
23
23
23
23
23
23
23
23
23
23
23
E3
83
83
83
FF
7F
ENDCHAR
STARTCHAR U+005E
ENCODING 94
SWIDTH 667 0
DWIDTH 16 0
BBX 16 11 0 13
BITMAP
07C0
0C60
1830
3018
600C
C106
8383
87C3
8F63
FE3F
7C1F
ENDCHAR
STARTCHAR U+005F
ENCODING 95
SWIDTH 667 0
DWIDTH 16 0
BBX 16 6 0 0
BITMAP
FFFE
8003
8003
8003
FFFF
7FFF
ENDCHAR
STARTCHAR U+0060
ENCODING 96
SWIDTH 417 0
DWIDTH 10 0
BBX 10 10 0 14
BITMAP
F800
8C00
8600
8300
C180
60C0
30C0
18C0
0FC0
07C0
ENDCHAR
STARTCHAR U+0061
ENCODING 97
SWIDTH 583 0
DWIDTH 14 0
BBX 14 16 0 0
BITMAP
1FF8
100C
100C
100C
FF8C
800C
800C
800C
8F8C
8F8C
8F8C
800C
800C
800C
FFFC
7FFC
ENDCHAR
STARTCHAR U+0062
ENCODING 98
SWIDTH 583 0
DWIDTH 14 0
BBX 14 24 0 0
BITMAP
F800
8C00
8C00
8C00
8C00
8C00
8C00
8C00
8FF8
800C
800C
800C
8F8C
8F8C
8C8C
8C8C
8C8C
8C8C
8F8C
800C
800C
800C
FFFC
7FFC
ENDCHAR
STARTCHAR U+0063
ENCODING 99
SWIDTH 583 0
DWIDTH 14 0
BBX 14 16 0 0
BITMAP
FFF8
800C
800C
800C
8FFC
8FFC
8C00
8C00
8C00
8C00
8FF8
800C
800C
800C
FFFC
7FFC
ENDCHAR
STARTCHAR U+0064
ENCODING 100
SWIDTH 583 0
DWIDTH 14 0
BBX 14 24 0 0
BITMAP
00F8
008C
008C
008C
008C
008C
008C
008C
FF8C
800C
800C
800C
8F8C
8F8C
8C8C
8C8C
8C8C
8C8C
8F8C
800C
800C
800C
FFFC
7FFC
ENDCHAR
STARTCHAR U+0065
ENCODING 101
SWIDTH 583 0
DWIDTH 14 0
BBX 14 16 0 0
BITMAP
FFF8
800C
800C
800C
8F8C
800C
800C
800C
8FFC
8FFC
8FF8
800C
800C
800C
FFFC
7FFC
ENDCHAR
STARTCHAR U+0066
ENCODING 102
SWIDTH 417 0
DWIDTH 10 0
BBX 10 24 0 0
BITMAP
3F80
20C0
20C0
20C0
23C0
23C0
2300
2300
E380
80C0
80C0
80C0
E3C0
63C0
2300
2300
2300
2300
2300
2300
2300
2300
3F00
1F00
ENDCHAR
STARTCHAR U+0067
ENCODING 103
SWIDTH 583 0
DWIDTH 14 0
BBX 14 16 0 0
BITMAP
FFF8
800C
800C
800C
8F8C
800C
800C
800C
FF8C
7F8C
FF8C
800C
800C
800C
FFFC
7FFC
ENDCHAR
STARTCHAR U+0068
ENCODING 104
SWIDTH 583 0
DWIDTH 14 0
BBX 14 24 0 0
BITMAP
F800
8C00
8C00
8C00
8C00
8C00
8C00
8C00
8FF8
800C
800C
800C
8F8C
8F8C
8C8C
8C8C
8C8C
8C8C
8C8C
8C8C
8C8C
8C8C
FCFC
7C7C
ENDCHAR
STARTCHAR U+0069
ENCODING 105
SWIDTH 250 0
DWIDTH 6 0
BBX 6 22 0 0
BITMAP
F8
8C
8C
8C
FC
7C
F8
8C
8C
8C
8C
8C
8C
8C
8C
8C
8C
8C
8C
8C
FC
7C
ENDCHAR
STARTCHAR U+006A
ENCODING 106
SWIDTH 417 0
DWIDTH 10 0
BBX 10 22 0 0
BITMAP
0F80
08C0
08C0
08C0
0FC0
07C0
0F80
08C0
08C0
08C0
08C0
08C0
08C0
08C0
F8C0
88C0
88C0
80C0
80C0
80C0
FFC0
7FC0
ENDCHAR
STARTCHAR U+006B
ENCODING 107
SWIDTH 583 0
DWIDTH 14 0
BBX 14 24 0 0
BITMAP
F800
8C00
8C00
8C00
8C00
8C00
8C00
8C00
8CF8
8C8C
8C8C
8F8C
8E0C
880C
803C
81FC
8038
880C
8E0C
8F8C
8D8C
8C8C
FCFC
7C7C
ENDCHAR
STARTCHAR U+006C
ENCODING 108
SWIDTH 250 0
DWIDTH 6 0
BBX 6 24 0 0
BITMAP
F8
8C
8C
8C
8C
8C
8C
8C
8C
8C
8C
8C
8C
8C
8C
8C
8C
8C
8C
8C
8C
8C
FC
7C
ENDCHAR
STARTCHAR U+006D
ENCODING 109
SWIDTH 667 0
DWIDTH 16 0
BBX 16 16 0 0
BITMAP
FFFE
8003
8003
8003
8C63
8C63
8C63
8C63
8C63
8C63
8C63
8C63
8C63
8C63
FFFF
7FFF
ENDCHAR
STARTCHAR U+006E
ENCODING 110
SWIDTH 583 0
DWIDTH 14 0
BBX 14 16 0 0
BITMAP
FFF0
8018
800C
800C
8F8C
8F8C
8C8C
8C8C
8C8C
8C8C
8C8C
8C8C
8C8C
8C8C
FCFC
7C7C
ENDCHAR
STARTCHAR U+006F
ENCODING 111
SWIDTH 583 0
DWIDTH 14 0
BBX 14 16 0 0
BITMAP
FFF8
800C
800C
800C
8F8C
8F8C
8C8C
8C8C
8C8C
8C8C
8F8C
800C
800C
800C
FFFC
7FFC
ENDCHAR
STARTCHAR U+0070
ENCODING 112
SWIDTH 583 0
DWIDTH 14 0
BBX 14 16 0 0
BITMAP
FFF8
800C
800C
800C
8F8C
800C
800C
800C
8FFC
8FFC
8C00
8C00
8C00
8C00
FC00
7C00
ENDCHAR
STARTCHAR U+0071
ENCODING 113
SWIDTH 583 0
DWIDTH 14 0
BBX 14 16 0 0
BITMAP
FFF8
800C
800C
800C
8F8C
800C
800C
800C
FF8C
7F8C
008C
008C
008C
008C
00FC
007C
ENDCHAR
STARTCHAR U+0072
ENCODING 114
SWIDTH 417 0
DWIDTH 10 0
BBX 10 16 0 0
BITMAP
FF80
80C0
80C0
80C0
8FC0
8FC0
8C00
8C00
8C00
8C00
8C00
8C00
8C00
8C00
FC00
7C00
ENDCHAR
STARTCHAR U+0073
ENCODING 115
SWIDTH 583 0
DWIDTH 14 0
BBX 14 16 0 0
BITMAP
FFF8
800C
800C
800C
8FFC
800C
800C
800C
FF8C
7F8C
FF8C
800C
800C
800C
FFFC
7FFC
ENDCHAR
STARTCHAR U+0074
ENCODING 116
SWIDTH 417 0
DWIDTH 10 0
BBX 10 24 0 0
BITMAP
3E00
2300
2300
2300
2300
2300
2300
2300
E380
80C0
80C0
80C0
E3C0
63C0
2300
2300
2300
2300
2380
20C0
20C0
20C0
3FC0
1FC0
ENDCHAR
STARTCHAR U+0075
ENCODING 117
SWIDTH 583 0
DWIDTH 14 0
BBX 14 16 0 0
BITMAP
F8F8
8C8C
8C8C
8C8C
8C8C
8C8C
8C8C
8C8C
8C8C
8C8C
8F8C
800C
800C
800C
FFFC
7FFC
ENDCHAR
STARTCHAR U+0076
ENCODING 118
SWIDTH 583 0
DWIDTH 14 0
BBX 14 16 0 0
BITMAP
F8F8
8C8C
8C8C
8C8C
8C8C
8C8C
8C8C
868C
838C
C18C
608C
300C
180C
0C0C
07FC
03FC
ENDCHAR
STARTCHAR U+0077
ENCODING 119
SWIDTH 667 0
DWIDTH 16 0
BBX 16 16 0 0
BITMAP
F83E
8C23
8C23
8C23
8FE3
8C63
8C63
8C63
8C63
8C63
8C63
8003
8003
8003
FFFF
7FFF
ENDCHAR
STARTCHAR U+0078
ENCODING 120
SWIDTH 667 0
DWIDTH 16 0
BBX 16 16 0 0
BITMAP
F83E
8C23
8C63
86C3
C387
610F
301E
183C
3018
610C
C386
87C3
8F63
8E23
FC3F
7C1F
ENDCHAR
STARTCHAR U+0079
ENCODING 121
SWIDTH 583 0
DWIDTH 14 0
BBX 14 16 0 0
BITMAP
F8F8
8C8C
8C8C
8C8C
8F8C
800C
800C
800C
FF8C
7F8C
FF8C
800C
800C
800C
FFFC
7FFC
ENDCHAR
STARTCHAR U+007A
ENCODING 122
SWIDTH 583 0
DWIDTH 14 0
BBX 14 16 0 0
BITMAP
FFF8
800C
800C
800C
FE1C
7C3C
1878
30F0
61E0
C3C0
87F8
800C
800C
800C
FFFC
7FFC
ENDCHAR
STARTCHAR U+007B
ENCODING 123
SWIDTH 375 0
DWIDTH 9 0
BBX 9 24 0 0
BITMAP
3F00
6180
4180
4180
4780
4780
4600
C600
8600
8600
8600
8E00
8600
8600
8600
C600
4600
4600
4700
4180
4180
6180
3F80
1F80
ENDCHAR
STARTCHAR U+007C
ENCODING 124
SWIDTH 250 0
DWIDTH 6 0
BBX 6 24 0 0
BITMAP
F8
8C
8C
8C
8C
8C
8C
8C
8C
8C
8C
8C
8C
8C
8C
8C
8C
8C
8C
8C
8C
8C
FC
7C
ENDCHAR
STARTCHAR U+007D
ENCODING 125
SWIDTH 375 0
DWIDTH 9 0
BBX 9 24 0 0
BITMAP
FC00
8600
8300
8300
E300
6300
2300
2300
2300
2180
2180
3180
2180
2180
2380
2380
2300
2300
E300
8300
8300
8700
FF00
7E00
ENDCHAR
STARTCHAR U+007E
ENCODING 126
SWIDTH 750 0
DWIDTH 18 0
BBX 18 9 0 6
BITMAP
7FCF80
C068C0
8038C0
8010C0
8400C0
8E00C0
8F01C0
FDFFC0
7CFF80
ENDCHAR
STARTCHAR U+00A1
ENCODING 161
SWIDTH 250 0
DWIDTH 6 0
BBX 6 24 0 0
BITMAP
F8
8C
8C
8C
FC
7C
F8
8C
8C
8C
8C
8C
8C
8C
8C
8C
8C
8C
8C
8C
8C
8C
FC
7C
ENDCHAR
STARTCHAR U+00AA
ENCODING 170
SWIDTH 458 0
DWIDTH 11 0
BBX 11 18 0 6
BITMAP
1FC0
1060
1060
F060
8C60
8C60
8C60
8C60
8C60
8060
8060
8060
FFE0
8060
8060
8060
FFE0
7FE0
ENDCHAR
STARTCHAR U+00AB
ENCODING 171
SWIDTH 625 0
DWIDTH 15 0
BBX 15 12 0 2
BITMAP
1F7C
31C6
6186
C106
820E
861E
820C
C106
6186
31C6
1FFE
0FBE
ENDCHAR
STARTCHAR U+00B0
ENCODING 176
SWIDTH 458 0
DWIDTH 11 0
BBX 11 14 0 10
BITMAP
FFC0
8060
8060
8060
8C60
8C60
8C60
8C60
8C60
8060
8060
8060
FFE0
7FE0
ENDCHAR
STARTCHAR U+00BA
ENCODING 186
SWIDTH 458 0
DWIDTH 11 0
BBX 11 18 0 6
BITMAP
FFC0
8060
8060
8060
8C60
8C60
8C60
8C60
8C60
8060
8060
8060
FFE0
8060
8060
8060
FFE0
7FE0
ENDCHAR
STARTCHAR U+00BB
ENCODING 187
SWIDTH 625 0
DWIDTH 15 0
BBX 15 12 0 2
BITMAP
FBE0
8E30
8618
820C
C106
6186
C106
820E
861E
8E3C
FFF8
7DF0
ENDCHAR
STARTCHAR U+00BF
ENCODING 191
SWIDTH 667 0
DWIDTH 16 0
BBX 16 24 0 0
BITMAP
07C0
0460
0460
0460
07E0
03E0
07C0
0460
0460
FC60
8060
8060
8060
8FE0
8FE0
8C00
8C3E
8C23
8FE3
8003
8003
8003
FFFF
7FFF
ENDCHAR
STARTCHAR U+00DF
ENCODING 223
SWIDTH 583 0
DWIDTH 14 0
BBX 14 24 0 0
BITMAP
FFF0
8018
800C
800C
8F8C
8F8C
8C8C
8C8C
8C8C
8F8C
880C
880C
880C
8F8C
8F8C
8C8C
8C8C
8C8C
8F8C
880C
880C
881C
FFFC
7FF8
ENDCHAR
STARTCHAR U+00E0
ENCODING 224
SWIDTH 583 0
DWIDTH 14 0
BBX 14 20 0 0
BITMAP
1FF0
1018
180C
0FFC
1FFC
100C
100C
100C
FF8C
800C
800C
800C
8F8C
8F8C
8F8C
800C
800C
800C
FFFC
7FFC
ENDCHAR
STARTCHAR U+00E1
ENCODING 225
SWIDTH 583 0
DWIDTH 14 0
BBX 14 20 0 0
BITMAP
1FF0
1018
1018
1FF8
1FF8
100C
100C
100C
FF8C
800C
800C
800C
8F8C
8F8C
8F8C
800C
800C
800C
FFFC
7FFC
ENDCHAR
STARTCHAR U+00E2
ENCODING 226
SWIDTH 583 0
DWIDTH 14 0
BBX 14 22 0 0
BITMAP
0FC0
1860
3030
2318
2798
3FF8
1FF8
100C
100C
100C
FF8C
800C
800C
800C
8F8C
8F8C
8F8C
800C
800C
800C
FFFC
7FFC
ENDCHAR
STARTCHAR U+00E4
ENCODING 228
SWIDTH 583 0
DWIDTH 14 0
BBX 14 22 0 0
BITMAP
F8F8
8C8C
8C8C
8C8C
FCFC
7C7C
1FF8
100C
100C
100C
FF8C
800C
800C
800C
8F8C
8F8C
8F8C
800C
800C
800C
FFFC
7FFC
ENDCHAR
STARTCHAR U+00E6
ENCODING 230
SWIDTH 917 0
DWIDTH 22 0
BBX 22 16 0 0
BITMAP
1FFFF8
10000C
10000C
10000C
FF8F8C
80000C
80000C
80000C
8F8FFC
8F8FFC
8F8FF8
80000C
80000C
80000C
FFFFFC
7FFFFC
ENDCHAR
STARTCHAR U+00E7
ENCODING 231
SWIDTH 583 0
DWIDTH 14 0
BBX 14 16 0 0
BITMAP
FFF8
800C
800C
800C
8FFC
8FFC
8C00
8FF8
800C
800C
800C
F8FC
78FC
08C0
0FC0
07C0
ENDCHAR
STARTCHAR U+00E8
ENCODING 232
SWIDTH 583 0
DWIDTH 14 0
BBX 14 20 0 0
BITMAP
1FF0
1018
180C
0FFC
FFFC
800C
800C
800C
8F8C
800C
800C
800C
8FFC
8FFC
8FF8
800C
800C
800C
FFFC
7FFC
ENDCHAR
STARTCHAR U+00E9
ENCODING 233
SWIDTH 583 0
DWIDTH 14 0
BBX 14 20 0 0
BITMAP
1FF0
1018
1018
1FF8
FFF8
800C
800C
800C
8F8C
800C
800C
800C
8FFC
8FFC
8FF8
800C
800C
800C
FFFC
7FFC
ENDCHAR
STARTCHAR U+00EA
ENCODING 234
SWIDTH 583 0
DWIDTH 14 0
BBX 14 22 0 0
BITMAP
0FC0
1860
3030
2318
2798
3FF8
FFF8
800C
800C
800C
8F8C
800C
800C
800C
8FFC
8FFC
8FF8
800C
800C
800C
FFFC
7FFC
ENDCHAR
STARTCHAR U+00EB
ENCODING 235
SWIDTH 583 0
DWIDTH 14 0
BBX 14 22 0 0
BITMAP
F8F8
8C8C
8C8C
8C8C
FCFC
7C7C
FFF8
800C
800C
800C
8F8C
800C
800C
800C
8FFC
8FFC
8FF8
800C
800C
800C
FFFC
7FFC
ENDCHAR
STARTCHAR U+00EC
ENCODING 236
SWIDTH 458 0
DWIDTH 11 0
BBX 11 20 0 0
BITMAP
FF80
80C0
C060
7FE0
7FE0
4600
4600
4600
4600
4600
4600
4600
4600
4600
4600
4600
4600
4600
7E00
3E00
ENDCHAR
STARTCHAR U+00ED
ENCODING 237
SWIDTH 333 0
DWIDTH 8 0
BBX 8 20 0 0
BITMAP
FE
83
83
FF
FF
8C
8C
8C
8C
8C
8C
8C
8C
8C
8C
8C
8C
8C
FC
7C
ENDCHAR
STARTCHAR U+00EE
ENCODING 238
SWIDTH 458 0
DWIDTH 11 0
BBX 11 22 0 0
BITMAP
3F00
6180
C0C0
8C60
9E60
FFE0
7FE0
2300
2300
2300
2300
2300
2300
2300
2300
2300
2300
2300
2300
2300
3F00
1F00
ENDCHAR
STARTCHAR U+00EF
ENCODING 239
SWIDTH 583 0
DWIDTH 14 0
BBX 14 22 0 0
BITMAP
F8F8
8C8C
8C8C
8C8C
FCFC
7C7C
0F80
08C0
08C0
08C0
08C0
08C0
08C0
08C0
08C0
08C0
08C0
08C0
08C0
08C0
0FC0
07C0
ENDCHAR
STARTCHAR U+00F1
ENCODING 241
SWIDTH 583 0
DWIDTH 14 0
BBX 14 22 0 0
BITMAP
0FC0
F860
8060
8060
87E0
FFE0
FFF0
8018
800C
800C
8F8C
8F8C
8C8C
8C8C
8C8C
8C8C
8C8C
8C8C
8C8C
8C8C
FCFC
7C7C
ENDCHAR
STARTCHAR U+00F2
ENCODING 242
SWIDTH 583 0
DWIDTH 14 0
BBX 14 20 0 0
BITMAP
1FF0
1018
180C
0FFC
FFFC
800C
800C
800C
8F8C
8F8C
8C8C
8C8C
8C8C
8C8C
8F8C
800C
800C
800C
FFFC
7FFC
ENDCHAR
STARTCHAR U+00F3
ENCODING 243
SWIDTH 583 0
DWIDTH 14 0
BBX 14 20 0 0
BITMAP
1FF0
1018
1018
1FF8
FFF8
800C
800C
800C
8F8C
8F8C
8C8C
8C8C
8C8C
8C8C
8F8C
800C
800C
800C
FFFC
7FFC
ENDCHAR
STARTCHAR U+00F4
ENCODING 244
SWIDTH 583 0
DWIDTH 14 0
BBX 14 22 0 0
BITMAP
0FC0
1860
3030
2318
2798
3FF8
FFF8
800C
800C
800C
8F8C
8F8C
8C8C
8C8C
8C8C
8C8C
8F8C
800C
800C
800C
FFFC
7FFC
ENDCHAR
STARTCHAR U+00F6
ENCODING 246
SWIDTH 583 0
DWIDTH 14 0
BBX 14 22 0 0
BITMAP
F8F8
8C8C
8C8C
8C8C
FCFC
7C7C
FFF8
800C
800C
800C
8F8C
8F8C
8C8C
8C8C
8C8C
8C8C
8F8C
800C
800C
800C
FFFC
7FFC
ENDCHAR
STARTCHAR U+00F9
ENCODING 249
SWIDTH 583 0
DWIDTH 14 0
BBX 14 20 0 0
BITMAP
1FF0
1018
180C
0FFC
FFFC
8C8C
8C8C
8C8C
8C8C
8C8C
8C8C
8C8C
8C8C
8C8C
8F8C
800C
800C
800C
FFFC
7FFC
ENDCHAR
STARTCHAR U+00FA
ENCODING 250
SWIDTH 583 0
DWIDTH 14 0
BBX 14 20 0 0
BITMAP
1FF0
1018
1018
1FF8
FFF8
8C8C
8C8C
8C8C
8C8C
8C8C
8C8C
8C8C
8C8C
8C8C
8F8C
800C
800C
800C
FFFC
7FFC
ENDCHAR
STARTCHAR U+00FB
ENCODING 251
SWIDTH 583 0
DWIDTH 14 0
BBX 14 22 0 0
BITMAP
0FC0
1860
3030
2318
2798
3FF8
FEF8
8C8C
8C8C
8C8C
8C8C
8C8C
8C8C
8C8C
8C8C
8C8C
8F8C
800C
800C
800C
FFFC
7FFC
ENDCHAR
STARTCHAR U+00FC
ENCODING 252
SWIDTH 583 0
DWIDTH 14 0
BBX 14 22 0 0
BITMAP
F8F8
8C8C
8C8C
8C8C
FCFC
7C7C
F8F8
8C8C
8C8C
8C8C
8C8C
8C8C
8C8C
8C8C
8C8C
8C8C
8F8C
800C
800C
800C
FFFC
7FFC
ENDCHAR
STARTCHAR U+00FD
ENCODING 253
SWIDTH 583 0
DWIDTH 14 0
BBX 14 20 0 0
BITMAP
0FF0
0818
0818
0FF8
FFF8
8C8C
8C8C
8C8C
8F8C
800C
800C
800C
FF8C
7F8C
FF8C
800C
800C
800C
FFFC
7FFC
ENDCHAR
STARTCHAR U+00FF
ENCODING 255
SWIDTH 583 0
DWIDTH 14 0
BBX 14 22 0 0
BITMAP
F8F8
8C8C
8C8C
8C8C
FCFC
7C7C
F8F8
8C8C
8C8C
8C8C
8F8C
800C
800C
800C
FF8C
7F8C
FF8C
800C
800C
800C
FFFC
7FFC
ENDCHAR
STARTCHAR U+010D
ENCODING 269
SWIDTH 583 0
DWIDTH 14 0
BBX 14 22 0 0
BITMAP
3CF0
2798
2318
3038
1878
0FF0
FFF8
800C
800C
800C
8FFC
8FFC
8C00
8C00
8C00
8C00
8FF8
800C
800C
800C
FFFC
7FFC
ENDCHAR
STARTCHAR U+010F
ENCODING 271
SWIDTH 583 0
DWIDTH 14 0
BBX 14 24 0 0
BITMAP
F0F8
988C
988C
988C
988C
F88C
788C
008C
FF8C
800C
800C
800C
8F8C
8F8C
8C8C
8C8C
8C8C
8C8C
8F8C
800C
800C
800C
FFFC
7FFC
ENDCHAR
STARTCHAR U+011B
ENCODING 283
SWIDTH 583 0
DWIDTH 14 0
BBX 14 22 0 0
BITMAP
3CF0
2798
2318
3038
1878
0FF0
FFF8
800C
800C
800C
8F8C
800C
800C
800C
8FFC
8FFC
8FF8
800C
800C
800C
FFFC
7FFC
ENDCHAR
STARTCHAR U+0148
ENCODING 328
SWIDTH 583 0
DWIDTH 14 0
BBX 14 22 0 0
BITMAP
3DE0
2730
2230
3070
18F0
0FE0
FFF0
8018
800C
800C
8F8C
8F8C
8C8C
8C8C
8C8C
8C8C
8C8C
8C8C
8C8C
8C8C
FCFC
7C7C
ENDCHAR
STARTCHAR U+0153
ENCODING 339
SWIDTH 917 0
DWIDTH 22 0
BBX 22 16 0 0
BITMAP
FFFFF8
80000C
80000C
80000C
8F8F8C
8F800C
8C800C
8C800C
8C8FFC
8C8FFC
8F8FF8
80000C
80000C
80000C
FFFFFC
7FFFFC
ENDCHAR
STARTCHAR U+0159
ENCODING 345
SWIDTH 417 0
DWIDTH 10 0
BBX 10 22 0 0
BITMAP
F780
9CC0
88C0
C1C0
63C0
3F80
FF80
80C0
80C0
80C0
8FC0
8FC0
8C00
8C00
8C00
8C00
8C00
8C00
8C00
8C00
FC00
7C00
ENDCHAR
STARTCHAR U+0161
ENCODING 353
SWIDTH 583 0
DWIDTH 14 0
BBX 14 22 0 0
BITMAP
3CF0
2798
2318
3038
1878
0FF0
FFF8
800C
800C
800C
8FFC
800C
800C
800C
FF8C
7F8C
FF8C
800C
800C
800C
FFFC
7FFC
ENDCHAR
STARTCHAR U+0165
ENCODING 357
SWIDTH 458 0
DWIDTH 11 0
BBX 11 24 0 0
BITMAP
3FC0
2260
2260
2260
2260
23E0
23E0
2300
E380
80C0
80C0
80C0
E3C0
63C0
2300
2300
2300
2300
2380
20C0
20C0
20C0
3FC0
1FC0
ENDCHAR
STARTCHAR U+016F
ENCODING 367
SWIDTH 583 0
DWIDTH 14 0
BBX 14 22 0 0
BITMAP
0F80
18C0
1060
1260
1060
18E0
FFF8
8F8C
8C8C
8C8C
8C8C
8C8C
8C8C
8C8C
8C8C
8C8C
8F8C
800C
800C
800C
FFFC
7FFC
ENDCHAR
STARTCHAR U+017E
ENCODING 382
SWIDTH 583 0
DWIDTH 14 0
BBX 14 22 0 0
BITMAP
3CF0
2798
2318
3038
1878
0FF0
FFF8
800C
800C
800C
FE1C
7C3C
3078
21F0
21E0
E180
87F8
800C
800C
800C
FFFC
7FFC
ENDCHAR
STARTCHAR U+2018
ENCODING 8216
SWIDTH 250 0
DWIDTH 6 0
BBX 6 12 0 12
BITMAP
F8
8C
8C
8C
8C
8C
8C
8C
8C
8C
FC
7C
ENDCHAR
STARTCHAR U+2019
ENCODING 8217
SWIDTH 250 0
DWIDTH 6 0
BBX 6 12 0 12
BITMAP
F8
8C
8C
8C
8C
8C
8C
8C
8C
8C
FC
7C
ENDCHAR
STARTCHAR U+201A
ENCODING 8218
SWIDTH 250 0
DWIDTH 6 0
BBX 6 12 0 0
BITMAP
F8
8C
8C
8C
8C
8C
8C
8C
8C
8C
FC
7C
ENDCHAR
STARTCHAR U+201C
ENCODING 8220
SWIDTH 417 0
DWIDTH 10 0
BBX 10 12 0 12
BITMAP
FF80
88C0
88C0
88C0
88C0
88C0
88C0
88C0
88C0
88C0
FFC0
7FC0
ENDCHAR
STARTCHAR U+201D
ENCODING 8221
SWIDTH 417 0
DWIDTH 10 0
BBX 10 12 0 12
BITMAP
FF80
88C0
88C0
88C0
88C0
88C0
88C0
88C0
88C0
88C0
FFC0
7FC0
ENDCHAR
STARTCHAR U+201E
ENCODING 8222
SWIDTH 417 0
DWIDTH 10 0
BBX 10 12 0 0
BITMAP
FF80
88C0
88C0
88C0
88C0
88C0
88C0
88C0
88C0
88C0
FFC0
7FC0
ENDCHAR
STARTCHAR U+20AC
ENCODING 8364
SWIDTH 708 0
DWIDTH 17 0
BBX 17 24 0 0
BITMAP
1FFF00
100180
100180
100180
11F180
11F180
F1FF80
803F80
803000
803000
F1F000
71F000
F1E000
803000
803000
803000
F1FF00
71F180
11F180
100180
100180
100180
1FFF80
0FFF80
ENDCHAR
ENDFONT
