STARTFONT 2.1
FONT -PixelFonts-pixelfont_17x7_thin-Thin-R-Normal--19-190-75-75-P-0-ISO10646-1
SIZE 19 75 75
FONTBOUNDINGBOX 7 17 0 0
STARTPROPERTIES 7
FOUNDRY "PixelFonts"
FAMILY_NAME "pixelfont_17x7_thin"
WEIGHT_NAME "Thin"
PIXEL_SIZE 19
FONT_ASCENT 17
FONT_DESCENT 2
DEFAULT_CHAR 32
ENDPROPERTIES
CHARS 95
STARTCHAR U+0020
ENCODING 32
SWIDTH 263 0
DWIDTH 5 0
BBX 1 1 0 0
BITMAP
00
ENDCHAR
STARTCHAR U+0021
ENCODING 33
SWIDTH 158 0
DWIDTH 3 0
BBX 1 17 0 0
BITMAP
80
80
80
80
80
80
80
80
80
80
80
80
80
80
00
00
80
ENDCHAR
STARTCHAR U+0022
ENCODING 34
SWIDTH 263 0
DWIDTH 5 0
BBX 3 4 0 13
BITMAP
A0
A0
A0
A0
ENDCHAR
STARTCHAR U+0023
ENCODING 35
SWIDTH 474 0
DWIDTH 9 0
BBX 7 14 0 2
BITMAP
44
44
44
44
FE
44
44
44
44
FE
44
44
44
44
ENDCHAR
STARTCHAR U+0024
ENCODING 36
SWIDTH 474 0
DWIDTH 9 0
BBX 7 17 0 0
BITMAP
10
10
10
FE
90
90
90
90
FE
12
12
12
12
FE
10
10
10
ENDCHAR
STARTCHAR U+0025
ENCODING 37
SWIDTH 474 0
DWIDTH 9 0
BBX 7 17 0 0
BITMAP
E0
A4
E4
04
08
08
08
10
10
10
20
20
20
40
4E
8A
0E
ENDCHAR
STARTCHAR U+0026
ENCODING 38
SWIDTH 474 0
DWIDTH 9 0
BBX 7 17 0 0
BITMAP
70
88
88
88
88
50
20
20
52
8A
84
84
84
84
8A
8A
70
ENDCHAR
STARTCHAR U+0027
ENCODING 39
SWIDTH 158 0
DWIDTH 3 0
BBX 1 5 0 12
BITMAP
80
80
80
80
80
ENDCHAR
STARTCHAR U+0028
ENCODING 40
SWIDTH 211 0
DWIDTH 4 0
BBX 2 17 0 0
BITMAP
40
80
80
80
80
80
80
80
80
80
80
80
80
80
80
40
40
ENDCHAR
STARTCHAR U+0029
ENCODING 41
SWIDTH 211 0
DWIDTH 4 0
BBX 2 17 0 0
BITMAP
80
40
40
40
40
40
40
40
40
40
40
40
40
40
40
80
80
ENDCHAR
STARTCHAR U+002A
ENCODING 42
SWIDTH 474 0
DWIDTH 9 0
BBX 7 7 0 5
BITMAP
10
92
54
38
54
92
10
ENDCHAR
STARTCHAR U+002B
ENCODING 43
SWIDTH 368 0
DWIDTH 7 0
BBX 5 6 0 6
BITMAP
20
20
20
F8
20
20
ENDCHAR
STARTCHAR U+002C
ENCODING 44
SWIDTH 158 0
DWIDTH 3 0
BBX 1 4 0 0
BITMAP
80
80
80
80
ENDCHAR
STARTCHAR U+002D
ENCODING 45
SWIDTH 474 0
DWIDTH 9 0
BBX 7 1 0 8
BITMAP
FE
ENDCHAR
STARTCHAR U+002E
ENCODING 46
SWIDTH 158 0
DWIDTH 3 0
BBX 1 1 0 0
BITMAP
80
ENDCHAR
STARTCHAR U+002F
ENCODING 47
SWIDTH 368 0
DWIDTH 7 0
BBX 5 17 0 0
BITMAP
08
08
08
08
10
10
10
20
20
20
40
40
40
80
80
80
80
ENDCHAR
STARTCHAR U+0030
ENCODING 48
SWIDTH 421 0
DWIDTH 8 0
BBX 6 17 0 0
BITMAP
FC
84
84
84
84
84
84
84
84
84
84
84
84
84
84
84
FC
ENDCHAR
STARTCHAR U+0031
ENCODING 49
SWIDTH 158 0
DWIDTH 3 0
BBX 1 17 0 0
BITMAP
80
80
80
80
80
80
80
80
80
80
80
80
80
80
80
80
80
ENDCHAR
STARTCHAR U+0032
ENCODING 50
SWIDTH 421 0
DWIDTH 8 0
BBX 6 17 0 0
BITMAP
FC
84
84
04
04
04
04
04
FC
80
80
80
80
80
80
80
FC
ENDCHAR
STARTCHAR U+0033
ENCODING 51
SWIDTH 421 0
DWIDTH 8 0
BBX 6 17 0 0
BITMAP
FC
04
04
04
04
04
04
04
3C
04
04
04
04
04
04
04
FC
ENDCHAR
STARTCHAR U+0034
ENCODING 52
SWIDTH 421 0
DWIDTH 8 0
BBX 6 17 0 0
BITMAP
84
84
84
84
84
84
84
84
FC
04
04
04
04
04
04
04
04
ENDCHAR
STARTCHAR U+0035
ENCODING 53
SWIDTH 421 0
DWIDTH 8 0
BBX 6 17 0 0
BITMAP
FC
80
80
80
80
80
80
80
FC
04
04
04
04
04
84
84
FC
ENDCHAR
STARTCHAR U+0036
ENCODING 54
SWIDTH 421 0
DWIDTH 8 0
BBX 6 17 0 0
BITMAP
FC
84
80
80
80
80
80
80
FC
84
84
84
84
84
84
84
FC
ENDCHAR
STARTCHAR U+0037
ENCODING 55
SWIDTH 421 0
DWIDTH 8 0
BBX 6 17 0 0
BITMAP
FC
84
04
04
04
04
04
04
04
04
04
04
04
04
04
04
04
ENDCHAR
STARTCHAR U+0038
ENCODING 56
SWIDTH 421 0
DWIDTH 8 0
BBX 6 17 0 0
BITMAP
FC
84
84
84
84
84
84
84
FC
84
84
84
84
84
84
84
FC
ENDCHAR
STARTCHAR U+0039
ENCODING 57
SWIDTH 421 0
DWIDTH 8 0
BBX 6 17 0 0
BITMAP
FC
84
84
84
84
84
84
84
FC
04
04
04
04
04
84
84
FC
ENDCHAR
STARTCHAR U+003A
ENCODING 58
SWIDTH 158 0
DWIDTH 3 0
BBX 1 8 0 5
BITMAP
80
80
00
00
00
00
80
80
ENDCHAR
STARTCHAR U+003B
ENCODING 59
SWIDTH 211 0
DWIDTH 4 0
BBX 1 13 0 0
BITMAP
80
80
00
00
00
00
80
80
80
80
80
80
80
ENDCHAR
STARTCHAR U+003C
ENCODING 60
SWIDTH 316 0
DWIDTH 6 0
BBX 4 7 0 5
BITMAP
10
20
40
80
40
20
10
ENDCHAR
STARTCHAR U+003D
ENCODING 61
SWIDTH 474 0
DWIDTH 9 0
BBX 7 6 0 6
BITMAP
FE
00
00
00
00
FE
ENDCHAR
STARTCHAR U+003E
ENCODING 62
SWIDTH 316 0
DWIDTH 6 0
BBX 4 7 0 5
BITMAP
80
40
20
10
20
40
80
ENDCHAR
STARTCHAR U+003F
ENCODING 63
SWIDTH 474 0
DWIDTH 9 0
BBX 7 17 0 0
BITMAP
FE
82
02
02
02
02
02
02
1E
10
10
10
10
00
00
00
10
ENDCHAR
STARTCHAR U+0040
ENCODING 64
SWIDTH 474 0
DWIDTH 9 0
BBX 7 14 0 2
BITMAP
FE
82
82
82
BA
AA
AA
AA
BE
80
80
80
80
FE
ENDCHAR
STARTCHAR U+0041
ENCODING 65
SWIDTH 421 0
DWIDTH 8 0
BBX 6 17 0 0
BITMAP
FC
84
84
84
84
84
84
84
FC
84
84
84
84
84
84
84
84
ENDCHAR
STARTCHAR U+0042
ENCODING 66
SWIDTH 421 0
DWIDTH 8 0
BBX 6 17 0 0
BITMAP
F8
84
84
84
84
84
84
84
FC
84
84
84
84
84
84
84
F8
ENDCHAR
STARTCHAR U+0043
ENCODING 67
SWIDTH 421 0
DWIDTH 8 0
BBX 6 17 0 0
BITMAP
FC
84
80
80
80
80
80
80
80
80
80
80
80
80
84
84
FC
ENDCHAR
STARTCHAR U+0044
ENCODING 68
SWIDTH 421 0
DWIDTH 8 0
BBX 6 17 0 0
BITMAP
F8
84
84
84
84
84
84
84
84
84
84
84
84
84
84
84
F8
ENDCHAR
STARTCHAR U+0045
ENCODING 69
SWIDTH 421 0
DWIDTH 8 0
BBX 6 17 0 0
BITMAP
FC
80
80
80
80
80
80
80
F8
80
80
80
80
80
80
80
FC
ENDCHAR
STARTCHAR U+0046
ENCODING 70
SWIDTH 421 0
DWIDTH 8 0
BBX 6 17 0 0
BITMAP
FC
80
80
80
80
80
80
80
F8
80
80
80
80
80
80
80
80
ENDCHAR
STARTCHAR U+0047
ENCODING 71
SWIDTH 421 0
DWIDTH 8 0
BBX 6 17 0 0
BITMAP
FC
84
80
80
80
80
80
80
9C
84
84
84
84
84
84
84
FC
ENDCHAR
STARTCHAR U+0048
ENCODING 72
SWIDTH 421 0
DWIDTH 8 0
BBX 6 17 0 0
BITMAP
84
84
84
84
84
84
84
84
FC
84
84
84
84
84
84
84
84
ENDCHAR
STARTCHAR U+0049
ENCODING 73
SWIDTH 158 0
DWIDTH 3 0
BBX 1 17 0 0
BITMAP
80
80
80
80
80
80
80
80
80
80
80
80
80
80
80
80
80
ENDCHAR
STARTCHAR U+004A
ENCODING 74
SWIDTH 421 0
DWIDTH 8 0
BBX 6 17 0 0
BITMAP
04
04
04
04
04
04
04
04
04
04
04
84
84
84
84
84
FC
ENDCHAR
STARTCHAR U+004B
ENCODING 75
SWIDTH 474 0
DWIDTH 9 0
BBX 7 17 0 0
BITMAP
82
82
84
84
84
88
88
88
F0
88
88
84
84
84
82
82
82
ENDCHAR
STARTCHAR U+004C
ENCODING 76
SWIDTH 421 0
DWIDTH 8 0
BBX 6 17 0 0
BITMAP
80
80
80
80
80
80
80
80
80
80
80
80
80
80
80
80
FC
ENDCHAR
STARTCHAR U+004D
ENCODING 77
SWIDTH 474 0
DWIDTH 9 0
BBX 7 17 0 0
BITMAP
FE
92
92
92
92
92
92
92
92
82
82
82
82
82
82
82
82
ENDCHAR
STARTCHAR U+004E
ENCODING 78
SWIDTH 421 0
DWIDTH 8 0
BBX 6 17 0 0
BITMAP
84
84
84
84
84
C4
A4
94
94
8C
84
84
84
84
84
84
84
ENDCHAR
STARTCHAR U+004F
ENCODING 79
SWIDTH 421 0
DWIDTH 8 0
BBX 6 17 0 0
BITMAP
FC
84
84
84
84
84
84
84
84
84
84
84
84
84
84
84
FC
ENDCHAR
STARTCHAR U+0050
ENCODING 80
SWIDTH 421 0
DWIDTH 8 0
BBX 6 17 0 0
BITMAP
FC
84
84
84
84
84
84
84
FC
80
80
80
80
80
80
80
80
ENDCHAR
STARTCHAR U+0051
ENCODING 81
SWIDTH 421 0
DWIDTH 8 0
BBX 6 17 0 0
BITMAP
FC
84
84
84
84
84
84
84
84
84
84
84
84
A4
94
8C
FC
ENDCHAR
STARTCHAR U+0052
ENCODING 82
SWIDTH 474 0
DWIDTH 9 0
BBX 7 17 0 0
BITMAP
FE
82
82
82
82
82
82
82
FE
A0
90
88
84
84
82
82
82
ENDCHAR
STARTCHAR U+0053
ENCODING 83
SWIDTH 421 0
DWIDTH 8 0
BBX 6 17 0 0
BITMAP
FC
84
84
80
80
80
80
80
FC
04
04
04
04
04
84
84
FC
ENDCHAR
STARTCHAR U+0054
ENCODING 84
SWIDTH 474 0
DWIDTH 9 0
BBX 7 17 0 0
BITMAP
FE
10
10
10
10
10
10
10
10
10
10
10
10
10
10
10
10
ENDCHAR
STARTCHAR U+0055
ENCODING 85
SWIDTH 474 0
DWIDTH 9 0
BBX 7 17 0 0
BITMAP
82
82
82
82
82
82
82
82
82
82
82
82
82
82
82
82
FE
ENDCHAR
STARTCHAR U+0056
ENCODING 86
SWIDTH 474 0
DWIDTH 9 0
BBX 7 17 0 0
BITMAP
82
82
82
82
82
82
82
82
82
82
82
82
44
44
28
10
10
ENDCHAR
STARTCHAR U+0057
ENCODING 87
SWIDTH 474 0
DWIDTH 9 0
BBX 7 17 0 0
BITMAP
82
82
82
82
82
82
82
82
82
92
92
92
92
92
92
92
FE
ENDCHAR
STARTCHAR U+0058
ENCODING 88
SWIDTH 474 0
DWIDTH 9 0
BBX 7 17 0 0
BITMAP
82
82
82
82
82
82
44
28
10
28
44
82
82
82
82
82
82
ENDCHAR
STARTCHAR U+0059
ENCODING 89
SWIDTH 474 0
DWIDTH 9 0
BBX 7 17 0 0
BITMAP
82
82
82
82
44
44
28
10
10
10
10
10
10
10
10
10
10
ENDCHAR
STARTCHAR U+005A
ENCODING 90
SWIDTH 474 0
DWIDTH 9 0
BBX 7 17 0 0
BITMAP
FE
02
02
02
04
04
08
08
10
10
20
20
40
40
80
80
FE
ENDCHAR
STARTCHAR U+005B
ENCODING 91
SWIDTH 316 0
DWIDTH 6 0
BBX 4 17 0 0
BITMAP
F0
80
80
80
80
80
80
80
80
80
80
80
80
80
80
80
F0
ENDCHAR
STARTCHAR U+005C
ENCODING 92
SWIDTH 368 0
DWIDTH 7 0
BBX 5 17 0 0
BITMAP
80
80
80
80
40
40
40
20
20
20
10
10
10
08
08
08
08
ENDCHAR
STARTCHAR U+005D
ENCODING 93
SWIDTH 316 0
DWIDTH 6 0
BBX 4 17 0 0
BITMAP
F0
10
10
10
10
10
10
10
10
10
10
10
10
10
10
10
F0
ENDCHAR
STARTCHAR U+005E
ENCODING 94
SWIDTH 474 0
DWIDTH 9 0
BBX 7 5 0 12
BITMAP
10
28
44
44
82
ENDCHAR
STARTCHAR U+005F
ENCODING 95
SWIDTH 474 0
DWIDTH 9 0
BBX 7 1 0 0
BITMAP
FE
ENDCHAR
STARTCHAR U+0060
ENCODING 96
SWIDTH 316 0
DWIDTH 6 0
BBX 4 5 0 12
BITMAP
80
40
20
20
10
ENDCHAR
STARTCHAR U+0061
ENCODING 97
SWIDTH 421 0
DWIDTH 8 0
BBX 6 11 0 0
BITMAP
7C
04
04
04
04
FC
84
84
84
84
FC
ENDCHAR
STARTCHAR U+0062
ENCODING 98
SWIDTH 421 0
DWIDTH 8 0
BBX 6 17 0 0
BITMAP
80
80
80
80
80
80
FC
84
84
84
84
84
84
84
84
84
FC
ENDCHAR
STARTCHAR U+0063
ENCODING 99
SWIDTH 421 0
DWIDTH 8 0
BBX 6 11 0 0
BITMAP
FC
80
80
80
80
80
80
80
80
80
FC
ENDCHAR
STARTCHAR U+0064
ENCODING 100
SWIDTH 421 0
DWIDTH 8 0
BBX 6 17 0 0
BITMAP
04
04
04
04
04
04
FC
84
84
84
84
84
84
84
84
84
FC
ENDCHAR
STARTCHAR U+0065
ENCODING 101
SWIDTH 421 0
DWIDTH 8 0
BBX 6 11 0 0
BITMAP
FC
84
84
84
84
FC
80
80
80
80
FC
ENDCHAR
STARTCHAR U+0066
ENCODING 102
SWIDTH 316 0
DWIDTH 6 0
BBX 4 17 0 0
BITMAP
70
40
40
40
40
40
F0
40
40
40
40
40
40
40
40
40
40
ENDCHAR
STARTCHAR U+0067
ENCODING 103
SWIDTH 421 0
DWIDTH 8 0
BBX 6 11 0 0
BITMAP
FC
84
84
84
84
FC
04
04
04
04
FC
ENDCHAR
STARTCHAR U+0068
ENCODING 104
SWIDTH 421 0
DWIDTH 8 0
BBX 6 17 0 0
BITMAP
80
80
80
80
80
80
FC
84
84
84
84
84
84
84
84
84
84
ENDCHAR
STARTCHAR U+0069
ENCODING 105
SWIDTH 158 0
DWIDTH 3 0
BBX 1 13 0 0
BITMAP
80
00
80
80
80
80
80
80
80
80
80
80
80
ENDCHAR
STARTCHAR U+006A
ENCODING 106
SWIDTH 316 0
DWIDTH 6 0
BBX 4 13 0 0
BITMAP
10
00
10
10
10
10
10
10
10
10
90
90
F0
ENDCHAR
STARTCHAR U+006B
ENCODING 107
SWIDTH 368 0
DWIDTH 7 0
BBX 5 17 0 0
BITMAP
80
80
80
80
80
80
88
88
88
90
A0
C0
A0
90
88
88
88
ENDCHAR
STARTCHAR U+006C
ENCODING 108
SWIDTH 158 0
DWIDTH 3 0
BBX 1 17 0 0
BITMAP
80
80
80
80
80
80
80
80
80
80
80
80
80
80
80
80
80
ENDCHAR
STARTCHAR U+006D
ENCODING 109
SWIDTH 474 0
DWIDTH 9 0
BBX 7 11 0 0
BITMAP
FE
92
92
92
92
92
92
92
92
92
92
ENDCHAR
STARTCHAR U+006E
ENCODING 110
SWIDTH 421 0
DWIDTH 8 0
BBX 6 11 0 0
BITMAP
F8
84
84
84
84
84
84
84
84
84
84
ENDCHAR
STARTCHAR U+006F
ENCODING 111
SWIDTH 421 0
DWIDTH 8 0
BBX 6 11 0 0
BITMAP
FC
84
84
84
84
84
84
84
84
84
FC
ENDCHAR
STARTCHAR U+0070
ENCODING 112
SWIDTH 421 0
DWIDTH 8 0
BBX 6 11 0 0
BITMAP
FC
84
84
84
84
FC
80
80
80
80
80
ENDCHAR
STARTCHAR U+0071
ENCODING 113
SWIDTH 421 0
DWIDTH 8 0
BBX 6 11 0 0
BITMAP
FC
84
84
84
84
FC
04
04
04
04
04
ENDCHAR
STARTCHAR U+0072
ENCODING 114
SWIDTH 316 0
DWIDTH 6 0
BBX 4 11 0 0
BITMAP
F0
80
80
80
80
80
80
80
80
80
80
ENDCHAR
STARTCHAR U+0073
ENCODING 115
SWIDTH 421 0
DWIDTH 8 0
BBX 6 11 0 0
BITMAP
FC
80
80
80
80
FC
04
04
04
04
FC
ENDCHAR
STARTCHAR U+0074
ENCODING 116
SWIDTH 316 0
DWIDTH 6 0
BBX 4 17 0 0
BITMAP
40
40
40
40
40
40
F0
40
40
40
40
40
40
40
40
40
70
ENDCHAR
STARTCHAR U+0075
ENCODING 117
SWIDTH 421 0
DWIDTH 8 0
BBX 6 11 0 0
BITMAP
84
84
84
84
84
84
84
84
84
84
FC
ENDCHAR
STARTCHAR U+0076
ENCODING 118
SWIDTH 421 0
DWIDTH 8 0
BBX 6 11 0 0
BITMAP
84
84
84
84
84
84
84
44
24
14
0C
ENDCHAR
STARTCHAR U+0077
ENCODING 119
SWIDTH 474 0
DWIDTH 9 0
BBX 7 11 0 0
BITMAP
82
82
82
82
82
92
92
92
92
92
FE
ENDCHAR
STARTCHAR U+0078
ENCODING 120
SWIDTH 474 0
DWIDTH 9 0
BBX 7 11 0 0
BITMAP
82
82
82
44
28
10
28
44
82
82
82
ENDCHAR
STARTCHAR U+0079
ENCODING 121
SWIDTH 421 0
DWIDTH 8 0
BBX 6 11 0 0
BITMAP
84
84
84
84
84
FC
04
04
04
04
FC
ENDCHAR
STARTCHAR U+007A
ENCODING 122
SWIDTH 421 0
DWIDTH 8 0
BBX 6 11 0 0
BITMAP
FC
04
04
04
08
10
20
40
80
80
FC
ENDCHAR
STARTCHAR U+007B
ENCODING 123
SWIDTH 263 0
DWIDTH 5 0
BBX 3 17 0 0
BITMAP
60
40
40
40
40
40
C0
80
80
C0
40
40
40
40
40
40
60
ENDCHAR
STARTCHAR U+007C
ENCODING 124
SWIDTH 158 0
DWIDTH 3 0
BBX 1 17 0 0
BITMAP
80
80
80
80
80
80
80
80
80
80
80
80
80
80
80
80
80
ENDCHAR
STARTCHAR U+007D
ENCODING 125
SWIDTH 263 0
DWIDTH 5 0
BBX 3 17 0 0
BITMAP
C0
40
40
40
40
40
60
20
20
60
40
40
40
40
40
40
C0
ENDCHAR
STARTCHAR U+007E
ENCODING 126
SWIDTH 474 0
DWIDTH 9 0
BBX 7 3 0 8
BITMAP
F2
92
9E
ENDCHAR
ENDFONT
