STARTFONT 2.1
FONT -PixelFonts-pixelfont_3d_extended_latin_17x7_semibold-SemiBold-R-Normal--21-210-75-75-P-0-ISO10646-1
SIZE 21 75 75
FONTBOUNDINGBOX 13 20 0 0
STARTPROPERTIES 7
FOUNDRY "PixelFonts"
FAMILY_NAME "pixelfont_3d_extended_latin_17x7_semibold"
WEIGHT_NAME "SemiBold"
PIXEL_SIZE 21
FONT_ASCENT 20
FONT_DESCENT 1
DEFAULT_CHAR 32
ENDPROPERTIES
CHARS 145
STARTCHAR U+0020
ENCODING 32
SWIDTH 381 0
DWIDTH 8 0
BBX 1 1 0 0
BITMAP
00
ENDCHAR
STARTCHAR U+0021
ENCODING 33
SWIDTH 286 0
DWIDTH 6 0
BBX 5 20 0 0
BITMAP
F0
98
98
98
98
98
98
98
98
98
98
98
F8
78
00
F0
98
98
F8
78
ENDCHAR
STARTCHAR U+0022
ENCODING 34
SWIDTH 429 0
DWIDTH 9 0
BBX 8 7 0 13
BITMAP
FE
93
93
93
93
FF
7F
ENDCHAR
STARTCHAR U+0023
ENCODING 35
SWIDTH 571 0
DWIDTH 12 0
BBX 11 18 0 1
BITMAP
7F80
4CC0
4CC0
4CC0
CCC0
8060
8060
CCE0
4CE0
4CC0
4CC0
CCC0
8060
8060
CCE0
4CE0
7FC0
3FC0
ENDCHAR
STARTCHAR U+0024
ENCODING 36
SWIDTH 524 0
DWIDTH 11 0
BBX 10 20 0 0
BITMAP
1C00
F780
80C0
80C0
97C0
97C0
9600
9780
80C0
80C0
F4C0
74C0
14C0
14C0
F4C0
80C0
80C0
F7C0
7FC0
0E00
ENDCHAR
STARTCHAR U+0025
ENCODING 37
SWIDTH 524 0
DWIDTH 11 0
BBX 10 20 0 0
BITMAP
F800
8C00
8C00
8F80
FCC0
7CC0
08C0
18C0
31C0
63C0
C780
8F00
8E00
9C00
9F80
F8C0
78C0
08C0
0FC0
07C0
ENDCHAR
STARTCHAR U+0026
ENCODING 38
SWIDTH 524 0
DWIDTH 11 0
BBX 10 20 0 0
BITMAP
7E00
C300
8180
9980
9980
9980
9980
C380
C380
92C0
90C0
99C0
99C0
9980
9980
98C0
80C0
C2C0
7FC0
3FC0
ENDCHAR
STARTCHAR U+0027
ENCODING 39
SWIDTH 286 0
DWIDTH 6 0
BBX 5 7 0 13
BITMAP
F0
98
98
98
98
F8
78
ENDCHAR
STARTCHAR U+0028
ENCODING 40
SWIDTH 333 0
DWIDTH 7 0
BBX 6 20 0 0
BITMAP
78
CC
8C
9C
9C
98
98
98
98
98
98
98
98
98
98
98
8C
CC
7C
3C
ENDCHAR
STARTCHAR U+0029
ENCODING 41
SWIDTH 333 0
DWIDTH 7 0
BBX 6 20 0 0
BITMAP
F0
98
8C
CC
4C
4C
4C
4C
4C
4C
4C
4C
4C
4C
4C
CC
8C
9C
FC
78
ENDCHAR
STARTCHAR U+002A
ENCODING 42
SWIDTH 571 0
DWIDTH 12 0
BBX 11 11 0 5
BITMAP
FFC0
9260
9260
9260
C0E0
C0E0
8060
9260
9260
FFE0
7FE0
ENDCHAR
STARTCHAR U+002B
ENCODING 43
SWIDTH 476 0
DWIDTH 10 0
BBX 9 9 0 6
BITMAP
3C00
2600
E700
8180
8180
E780
6780
3E00
1E00
ENDCHAR
STARTCHAR U+002C
ENCODING 44
SWIDTH 286 0
DWIDTH 6 0
BBX 5 7 0 0
BITMAP
F0
98
98
98
98
F8
78
ENDCHAR
STARTCHAR U+002D
ENCODING 45
SWIDTH 476 0
DWIDTH 10 0
BBX 9 5 0 8
BITMAP
FF00
8180
8180
FF80
7F80
ENDCHAR
STARTCHAR U+002E
ENCODING 46
SWIDTH 286 0
DWIDTH 6 0
BBX 5 5 0 0
BITMAP
F0
98
98
F8
78
ENDCHAR
STARTCHAR U+002F
ENCODING 47
SWIDTH 476 0
DWIDTH 10 0
BBX 9 20 0 0
BITMAP
0F00
0980
0980
0980
1980
1380
1380
3300
2700
2700
6600
4E00
4E00
CC00
9C00
9C00
9800
9800
F800
7800
ENDCHAR
STARTCHAR U+0030
ENCODING 48
SWIDTH 476 0
DWIDTH 10 0
BBX 9 20 0 0
BITMAP
FF00
8180
8180
9980
9980
9980
9980
9980
9980
9980
9980
9980
9980
9980
9980
9980
8180
8180
FF80
7F80
ENDCHAR
STARTCHAR U+0031
ENCODING 49
SWIDTH 286 0
DWIDTH 6 0
BBX 5 20 0 0
BITMAP
F0
98
98
98
98
98
98
98
98
98
98
98
98
98
98
98
98
98
F8
78
ENDCHAR
STARTCHAR U+0032
ENCODING 50
SWIDTH 476 0
DWIDTH 10 0
BBX 9 20 0 0
BITMAP
FF00
8180
8180
9980
F980
7980
0980
F980
8180
8180
9F80
9F80
9800
9800
9800
9F00
8180
8180
FF80
7F80
ENDCHAR
STARTCHAR U+0033
ENCODING 51
SWIDTH 476 0
DWIDTH 10 0
BBX 9 20 0 0
BITMAP
FF00
8180
8180
F980
7980
0980
0980
3980
2180
2180
3980
1980
0980
0980
0980
F980
8180
8180
FF80
7F80
ENDCHAR
STARTCHAR U+0034
ENCODING 52
SWIDTH 476 0
DWIDTH 10 0
BBX 9 20 0 0
BITMAP
FF00
9980
9980
9980
9980
9980
9980
9980
8180
8180
F980
7980
0980
0980
0980
0980
0980
0980
0F80
0780
ENDCHAR
STARTCHAR U+0035
ENCODING 53
SWIDTH 476 0
DWIDTH 10 0
BBX 9 20 0 0
BITMAP
FF00
8180
8180
9F80
9F80
9800
9800
9F00
8180
8180
F980
7980
0980
0980
F980
9980
8180
8180
FF80
7F80
ENDCHAR
STARTCHAR U+0036
ENCODING 54
SWIDTH 476 0
DWIDTH 10 0
BBX 9 20 0 0
BITMAP
FF00
8180
8180
9980
9F80
9F80
9800
9F00
8180
8180
9980
9980
9980
9980
9980
9980
8180
8180
FF80
7F80
ENDCHAR
STARTCHAR U+0037
ENCODING 55
SWIDTH 476 0
DWIDTH 10 0
BBX 9 20 0 0
BITMAP
FF00
8180
8180
9980
F980
7980
0980
0980
0980
0980
0980
0980
0980
0980
0980
0980
0980
0980
0F80
0780
ENDCHAR
STARTCHAR U+0038
ENCODING 56
SWIDTH 476 0
DWIDTH 10 0
BBX 9 20 0 0
BITMAP
FF00
8180
8180
9980
9980
9980
9980
9980
8180
8180
9980
9980
9980
9980
9980
9980
8180
8180
FF80
7F80
ENDCHAR
STARTCHAR U+0039
ENCODING 57
SWIDTH 476 0
DWIDTH 10 0
BBX 9 20 0 0
BITMAP
FF00
8180
8180
9980
9980
9980
9980
9980
8180
8180
F980
7980
0980
0980
F980
9980
8180
8180
FF80
7F80
ENDCHAR
STARTCHAR U+003A
ENCODING 58
SWIDTH 286 0
DWIDTH 6 0
BBX 5 12 0 1
BITMAP
F0
98
98
F8
78
00
00
F0
98
98
F8
78
ENDCHAR
STARTCHAR U+003B
ENCODING 59
SWIDTH 286 0
DWIDTH 6 0
BBX 5 13 0 0
BITMAP
F0
98
98
F8
78
00
F0
98
98
98
98
F8
78
ENDCHAR
STARTCHAR U+003C
ENCODING 60
SWIDTH 429 0
DWIDTH 9 0
BBX 8 13 0 4
BITMAP
1E
33
63
C7
8F
9E
9C
8C
C6
63
33
1F
0F
ENDCHAR
STARTCHAR U+003D
ENCODING 61
SWIDTH 476 0
DWIDTH 10 0
BBX 9 9 0 6
BITMAP
FF00
8180
8180
FF80
FF80
8180
8180
FF80
7F80
ENDCHAR
STARTCHAR U+003E
ENCODING 62
SWIDTH 429 0
DWIDTH 9 0
BBX 8 13 0 4
BITMAP
F0
98
8C
C6
63
33
33
63
C7
8F
9E
FC
78
ENDCHAR
STARTCHAR U+003F
ENCODING 63
SWIDTH 476 0
DWIDTH 10 0
BBX 9 20 0 0
BITMAP
FF00
8180
8180
9980
F980
7980
0980
3980
2180
2180
2780
2780
3E00
1E00
0000
3C00
2600
2600
3E00
1E00
ENDCHAR
STARTCHAR U+0040
ENCODING 64
SWIDTH 571 0
DWIDTH 12 0
BBX 11 18 0 2
BITMAP
FFC0
8060
8060
9E60
9060
9260
9260
9260
9260
9060
9FE0
9FE0
9800
9FC0
8060
8060
FFE0
7FE0
ENDCHAR
STARTCHAR U+0041
ENCODING 65
SWIDTH 476 0
DWIDTH 10 0
BBX 9 20 0 0
BITMAP
FF00
8180
8180
9980
9980
9980
9980
9980
8180
8180
9980
9980
9980
9980
9980
9980
9980
9980
FF80
7F80
ENDCHAR
STARTCHAR U+0042
ENCODING 66
SWIDTH 476 0
DWIDTH 10 0
BBX 9 20 0 0
BITMAP
FE00
8300
8180
9980
9980
9980
9980
9980
8180
8180
9980
9980
9980
9980
9980
9980
8180
8380
FF80
7F00
ENDCHAR
STARTCHAR U+0043
ENCODING 67
SWIDTH 476 0
DWIDTH 10 0
BBX 9 20 0 0
BITMAP
FF00
8180
8180
9980
9F80
9F80
9800
9800
9800
9800
9800
9800
9800
9800
9F00
9980
8180
8180
FF80
7F80
ENDCHAR
STARTCHAR U+0044
ENCODING 68
SWIDTH 476 0
DWIDTH 10 0
BBX 9 20 0 0
BITMAP
FE00
8300
8180
9980
9980
9980
9980
9980
9980
9980
9980
9980
9980
9980
9980
9980
8180
8380
FF80
7F00
ENDCHAR
STARTCHAR U+0045
ENCODING 69
SWIDTH 476 0
DWIDTH 10 0
BBX 9 20 0 0
BITMAP
FF00
8180
8180
9F80
9F80
9800
9800
9E00
8300
8300
9F00
9F00
9800
9800
9800
9F00
8180
8180
FF80
7F80
ENDCHAR
STARTCHAR U+0046
ENCODING 70
SWIDTH 476 0
DWIDTH 10 0
BBX 9 20 0 0
BITMAP
FF00
8180
8180
9F80
9F80
9800
9800
9E00
8300
8300
9F00
9F00
9800
9800
9800
9800
9800
9800
F800
7800
ENDCHAR
STARTCHAR U+0047
ENCODING 71
SWIDTH 476 0
DWIDTH 10 0
BBX 9 20 0 0
BITMAP
FF00
8180
8180
9980
9F80
9F80
9800
9F00
9180
9180
9980
9980
9980
9980
9980
9980
8180
8180
FF80
7F80
ENDCHAR
STARTCHAR U+0048
ENCODING 72
SWIDTH 476 0
DWIDTH 10 0
BBX 9 20 0 0
BITMAP
FF00
9980
9980
9980
9980
9980
9980
9980
8180
8180
9980
9980
9980
9980
9980
9980
9980
9980
FF80
7F80
ENDCHAR
STARTCHAR U+0049
ENCODING 73
SWIDTH 286 0
DWIDTH 6 0
BBX 5 20 0 0
BITMAP
F0
98
98
98
98
98
98
98
98
98
98
98
98
98
98
98
98
98
F8
78
ENDCHAR
STARTCHAR U+004A
ENCODING 74
SWIDTH 476 0
DWIDTH 10 0
BBX 9 20 0 0
BITMAP
0F00
0980
0980
0980
0980
0980
0980
0980
0980
0980
0980
0980
0980
F980
9980
9980
8180
8180
FF80
7F80
ENDCHAR
STARTCHAR U+004B
ENCODING 75
SWIDTH 524 0
DWIDTH 11 0
BBX 10 20 0 0
BITMAP
F780
9CC0
9CC0
9CC0
9CC0
9CC0
98C0
91C0
83C0
8380
9180
98C0
9CC0
9CC0
9CC0
9CC0
9CC0
9CC0
FFC0
7BC0
ENDCHAR
STARTCHAR U+004C
ENCODING 76
SWIDTH 476 0
DWIDTH 10 0
BBX 9 20 0 0
BITMAP
F000
9800
9800
9800
9800
9800
9800
9800
9800
9800
9800
9800
9800
9800
9800
9F00
8180
8180
FF80
7F80
ENDCHAR
STARTCHAR U+004D
ENCODING 77
SWIDTH 571 0
DWIDTH 12 0
BBX 11 20 0 0
BITMAP
FFC0
8060
8060
9260
9260
9260
9260
9260
9260
9E60
9E60
9A60
9A60
9A60
9A60
9A60
9A60
9A60
FBE0
79E0
ENDCHAR
STARTCHAR U+004E
ENCODING 78
SWIDTH 524 0
DWIDTH 11 0
BBX 10 20 0 0
BITMAP
F780
9CC0
9CC0
8CC0
8CC0
8CC0
84C0
84C0
94C0
94C0
90C0
90C0
98C0
98C0
98C0
9CC0
9CC0
9CC0
FFC0
7BC0
ENDCHAR
STARTCHAR U+004F
ENCODING 79
SWIDTH 476 0
DWIDTH 10 0
BBX 9 20 0 0
BITMAP
FF00
8180
8180
9980
9980
9980
9980
9980
9980
9980
9980
9980
9980
9980
9980
9980
8180
8180
FF80
7F80
ENDCHAR
STARTCHAR U+0050
ENCODING 80
SWIDTH 476 0
DWIDTH 10 0
BBX 9 20 0 0
BITMAP
FF00
8180
8180
9980
9980
9980
9980
9980
8180
8180
9F80
9F80
9800
9800
9800
9800
9800
9800
F800
7800
ENDCHAR
STARTCHAR U+0051
ENCODING 81
SWIDTH 476 0
DWIDTH 10 0
BBX 9 20 0 0
BITMAP
FF00
8180
8180
9980
9980
9980
9980
9980
9980
9980
9980
9980
9980
9180
9180
9180
8180
8180
FF80
7F80
ENDCHAR
STARTCHAR U+0052
ENCODING 82
SWIDTH 524 0
DWIDTH 11 0
BBX 10 20 0 0
BITMAP
FF80
80C0
80C0
9CC0
9CC0
9CC0
9CC0
9CC0
80C0
80C0
83C0
93C0
9980
9980
9980
9980
9CC0
9CC0
FFC0
7BC0
ENDCHAR
STARTCHAR U+0053
ENCODING 83
SWIDTH 476 0
DWIDTH 10 0
BBX 9 20 0 0
BITMAP
FF00
8180
8180
9F80
9F80
9800
9800
9F00
8180
8180
F980
7980
0980
0980
0980
F980
8180
8180
FF80
7F80
ENDCHAR
STARTCHAR U+0054
ENCODING 84
SWIDTH 571 0
DWIDTH 12 0
BBX 11 20 0 0
BITMAP
FFC0
8060
8060
F3E0
73E0
1300
1300
1300
1300
1300
1300
1300
1300
1300
1300
1300
1300
1300
1F00
0F00
ENDCHAR
STARTCHAR U+0055
ENCODING 85
SWIDTH 476 0
DWIDTH 10 0
BBX 9 20 0 0
BITMAP
FF00
9980
9980
9980
9980
9980
9980
9980
9980
9980
9980
9980
9980
9980
9980
9980
8180
8180
FF80
7F80
ENDCHAR
STARTCHAR U+0056
ENCODING 86
SWIDTH 524 0
DWIDTH 11 0
BBX 10 20 0 0
BITMAP
F780
9CC0
9CC0
9CC0
9CC0
9CC0
9CC0
9CC0
9CC0
9CC0
9CC0
9CC0
9CC0
9CC0
88C0
C1C0
63C0
3780
1F00
0E00
ENDCHAR
STARTCHAR U+0057
ENCODING 87
SWIDTH 571 0
DWIDTH 12 0
BBX 11 20 0 0
BITMAP
F3C0
9A60
9A60
9A60
9A60
9A60
9A60
9A60
9A60
9E60
9260
9260
9260
9260
9260
9260
8060
8060
FFE0
7FE0
ENDCHAR
STARTCHAR U+0058
ENCODING 88
SWIDTH 524 0
DWIDTH 11 0
BBX 10 20 0 0
BITMAP
F780
9CC0
9CC0
9CC0
9CC0
9CC0
9CC0
88C0
C1C0
63C0
C180
88C0
9CC0
9CC0
9CC0
9CC0
9CC0
9CC0
FFC0
7BC0
ENDCHAR
STARTCHAR U+0059
ENCODING 89
SWIDTH 571 0
DWIDTH 12 0
BBX 11 20 0 0
BITMAP
F3C0
9A60
9A60
9A60
9A60
9A60
9E60
8C60
C0E0
61E0
33C0
1380
1300
1300
1300
1300
1300
1300
1F00
0F00
ENDCHAR
STARTCHAR U+005A
ENCODING 90
SWIDTH 476 0
DWIDTH 10 0
BBX 9 20 0 0
BITMAP
FF00
8180
8180
F980
7980
0980
1980
3180
6380
C780
8F00
9E00
9C00
9800
9800
9F00
8180
8180
FF80
7F80
ENDCHAR
STARTCHAR U+005B
ENCODING 91
SWIDTH 381 0
DWIDTH 8 0
BBX 7 20 0 0
BITMAP
FC
86
86
9E
9E
98
98
98
98
98
98
98
98
98
98
9C
86
86
FE
7E
ENDCHAR
STARTCHAR U+005C
ENCODING 92
SWIDTH 476 0
DWIDTH 10 0
BBX 9 20 0 0
BITMAP
F000
9800
9800
9800
9800
CC00
4C00
4C00
6600
2600
2600
3300
1300
1300
1980
0980
0980
0980
0F80
0780
ENDCHAR
STARTCHAR U+005D
ENCODING 93
SWIDTH 381 0
DWIDTH 8 0
BBX 7 20 0 0
BITMAP
FC
86
86
E6
66
26
26
26
26
26
26
26
26
26
26
E6
86
86
FE
7E
ENDCHAR
STARTCHAR U+005E
ENCODING 94
SWIDTH 476 0
DWIDTH 10 0
BBX 9 7 0 13
BITMAP
3C00
6600
C300
8180
9980
FF80
7F80
ENDCHAR
STARTCHAR U+005F
ENCODING 95
SWIDTH 476 0
DWIDTH 10 0
BBX 9 5 0 0
BITMAP
7F00
C180
8180
FF80
7F80
ENDCHAR
STARTCHAR U+0060
ENCODING 96
SWIDTH 333 0
DWIDTH 7 0
BBX 6 7 0 13
BITMAP
F0
98
98
CC
4C
7C
3C
ENDCHAR
STARTCHAR U+0061
ENCODING 97
SWIDTH 476 0
DWIDTH 10 0
BBX 9 15 0 0
BITMAP
3F00
2180
2180
3980
1980
F980
8180
8180
9980
9980
9980
8180
8180
FF80
7F80
ENDCHAR
STARTCHAR U+0062
ENCODING 98
SWIDTH 476 0
DWIDTH 10 0
BBX 9 20 0 0
BITMAP
F000
9800
9800
9800
9800
9F00
8180
8180
9980
9980
9980
9980
9980
9980
9980
9980
8180
8180
FF80
7F80
ENDCHAR
STARTCHAR U+0063
ENCODING 99
SWIDTH 476 0
DWIDTH 10 0
BBX 9 15 0 0
BITMAP
FF00
8180
8180
9F80
9F80
9800
9800
9800
9800
9800
9F00
8180
8180
FF80
7F80
ENDCHAR
STARTCHAR U+0064
ENCODING 100
SWIDTH 476 0
DWIDTH 10 0
BBX 9 20 0 0
BITMAP
0F00
0980
0980
0980
0980
F980
8180
8180
9980
9980
9980
9980
9980
9980
9980
9980
8180
8180
FF80
7F80
ENDCHAR
STARTCHAR U+0065
ENCODING 101
SWIDTH 476 0
DWIDTH 10 0
BBX 9 15 0 0
BITMAP
FF00
8180
8180
9980
9980
9980
8180
8180
9F80
9F80
9F00
8180
8180
FF80
7F80
ENDCHAR
STARTCHAR U+0066
ENCODING 102
SWIDTH 429 0
DWIDTH 9 0
BBX 8 20 0 0
BITMAP
7E
43
43
4F
4F
CE
83
83
CF
4F
4C
4C
4C
4C
4C
4C
4C
4C
7C
3C
ENDCHAR
STARTCHAR U+0067
ENCODING 103
SWIDTH 476 0
DWIDTH 10 0
BBX 9 15 0 0
BITMAP
FF00
8180
8180
9980
9980
9980
8180
8180
F980
7980
F980
8180
8180
FF80
7F80
ENDCHAR
STARTCHAR U+0068
ENCODING 104
SWIDTH 476 0
DWIDTH 10 0
BBX 9 20 0 0
BITMAP
F000
9800
9800
9800
9800
9F00
8180
8180
9980
9980
9980
9980
9980
9980
9980
9980
9980
9980
FF80
7F80
ENDCHAR
STARTCHAR U+0069
ENCODING 105
SWIDTH 286 0
DWIDTH 6 0
BBX 5 18 0 0
BITMAP
F0
98
98
F8
98
98
98
98
98
98
98
98
98
98
98
98
F8
78
ENDCHAR
STARTCHAR U+006A
ENCODING 106
SWIDTH 429 0
DWIDTH 9 0
BBX 8 18 0 0
BITMAP
1E
13
13
1F
13
13
13
13
13
13
F3
93
93
93
83
83
FF
7F
ENDCHAR
STARTCHAR U+006B
ENCODING 107
SWIDTH 476 0
DWIDTH 10 0
BBX 9 20 0 0
BITMAP
F000
9800
9800
9800
9F00
9980
9980
9980
9980
9980
8180
8780
8180
9980
9980
9980
9980
9980
FF80
7F80
ENDCHAR
STARTCHAR U+006C
ENCODING 108
SWIDTH 286 0
DWIDTH 6 0
BBX 5 20 0 0
BITMAP
F0
98
98
98
98
98
98
98
98
98
98
98
98
98
98
98
98
98
F8
78
ENDCHAR
STARTCHAR U+006D
ENCODING 109
SWIDTH 571 0
DWIDTH 12 0
BBX 11 15 0 0
BITMAP
FFC0
8060
8060
9260
9260
9260
9260
9260
9260
9260
9260
9260
9260
FFE0
7FE0
ENDCHAR
STARTCHAR U+006E
ENCODING 110
SWIDTH 476 0
DWIDTH 10 0
BBX 9 15 0 0
BITMAP
FE00
8300
8300
9980
9980
9980
9980
9980
9980
9980
9980
9980
9980
FF80
7F80
ENDCHAR
STARTCHAR U+006F
ENCODING 111
SWIDTH 476 0
DWIDTH 10 0
BBX 9 15 0 0
BITMAP
FF00
8180
8180
9980
9980
9980
9980
9980
9980
9980
9980
8180
8180
FF80
7F80
ENDCHAR
STARTCHAR U+0070
ENCODING 112
SWIDTH 476 0
DWIDTH 10 0
BBX 9 15 0 0
BITMAP
FF00
8180
8180
9980
9980
9980
8180
8180
9F80
9F80
9800
9800
9800
F800
7800
ENDCHAR
STARTCHAR U+0071
ENCODING 113
SWIDTH 476 0
DWIDTH 10 0
BBX 9 15 0 0
BITMAP
FF00
8180
8180
9980
9980
9980
8180
8180
F980
7980
0980
0980
0980
0F80
0780
ENDCHAR
STARTCHAR U+0072
ENCODING 114
SWIDTH 381 0
DWIDTH 8 0
BBX 7 15 0 0
BITMAP
FC
86
86
9E
9E
98
98
98
98
98
98
98
98
F8
78
ENDCHAR
STARTCHAR U+0073
ENCODING 115
SWIDTH 476 0
DWIDTH 10 0
BBX 9 15 0 0
BITMAP
FF00
8180
8180
9F80
9F80
9F00
8180
8180
F980
7980
F980
8180
8180
FF80
7F80
ENDCHAR
STARTCHAR U+0074
ENCODING 116
SWIDTH 429 0
DWIDTH 9 0
BBX 8 20 0 0
BITMAP
78
4C
4C
4C
4C
CE
83
83
CF
4F
4C
4C
4C
4C
4C
4E
43
43
7F
3F
ENDCHAR
STARTCHAR U+0075
ENCODING 117
SWIDTH 476 0
DWIDTH 10 0
BBX 9 15 0 0
BITMAP
FF00
9980
9980
9980
9980
9980
9980
9980
9980
9980
9980
8180
8180
FF80
7F80
ENDCHAR
STARTCHAR U+0076
ENCODING 118
SWIDTH 476 0
DWIDTH 10 0
BBX 9 15 0 0
BITMAP
FF00
9980
9980
9980
9980
9980
9980
9980
9980
8980
C180
6180
3180
1F80
0F80
ENDCHAR
STARTCHAR U+0077
ENCODING 119
SWIDTH 571 0
DWIDTH 12 0
BBX 11 15 0 0
BITMAP
FFC0
9260
9260
9260
9260
9260
9260
9260
9260
9260
9260
8060
8060
FFE0
7FE0
ENDCHAR
STARTCHAR U+0078
ENCODING 120
SWIDTH 524 0
DWIDTH 11 0
BBX 10 15 0 0
BITMAP
F780
9CC0
9CC0
9CC0
88C0
C1C0
63C0
6380
C180
88C0
9CC0
9CC0
9CC0
FFC0
7BC0
ENDCHAR
STARTCHAR U+0079
ENCODING 121
SWIDTH 476 0
DWIDTH 10 0
BBX 9 15 0 0
BITMAP
FF00
9980
9980
9980
9980
9980
8180
8180
F980
7980
F980
8180
8180
FF80
7F80
ENDCHAR
STARTCHAR U+007A
ENCODING 122
SWIDTH 476 0
DWIDTH 10 0
BBX 9 15 0 0
BITMAP
FF00
8180
8180
F980
7980
3180
6380
C780
8F00
9E00
9F00
8180
8180
FF80
7F80
ENDCHAR
STARTCHAR U+007B
ENCODING 123
SWIDTH 381 0
DWIDTH 8 0
BBX 7 20 0 0
BITMAP
3C
66
46
4E
4E
4C
4C
CC
8C
9C
8C
CC
4C
4C
4C
4C
46
66
3E
1E
ENDCHAR
STARTCHAR U+007C
ENCODING 124
SWIDTH 286 0
DWIDTH 6 0
BBX 5 20 0 0
BITMAP
F0
98
98
98
98
98
98
98
98
98
98
98
98
98
98
98
98
98
F8
78
ENDCHAR
STARTCHAR U+007D
ENCODING 125
SWIDTH 381 0
DWIDTH 8 0
BBX 7 20 0 0
BITMAP
F0
98
8C
CC
4C
4C
4C
4C
46
76
46
4E
4E
4C
4C
CC
8C
9C
FC
78
ENDCHAR
STARTCHAR U+007E
ENCODING 126
SWIDTH 571 0
DWIDTH 12 0
BBX 11 7 0 7
BITMAP
03C0
FE60
8060
8060
9FE0
FFE0
7800
ENDCHAR
STARTCHAR U+00A1
ENCODING 161
SWIDTH 286 0
DWIDTH 6 0
BBX 5 20 0 0
BITMAP
F0
98
98
F8
78
00
F0
98
98
98
98
98
98
98
98
98
98
98
F8
78
ENDCHAR
STARTCHAR U+00AA
ENCODING 170
SWIDTH 429 0
DWIDTH 9 0
BBX 8 13 0 7
BITMAP
3E
23
E3
93
83
83
83
83
FF
83
83
FF
7F
ENDCHAR
STARTCHAR U+00AB
ENCODING 171
SWIDTH 571 0
DWIDTH 12 0
BBX 11 11 0 1
BITMAP
3FC0
6660
C460
88E0
88E0
88C0
88C0
C460
6660
3FE0
1FE0
ENDCHAR
STARTCHAR U+00B0
ENCODING 176
SWIDTH 429 0
DWIDTH 9 0
BBX 8 10 0 10
BITMAP
FE
83
83
93
83
83
83
83
FF
7F
ENDCHAR
STARTCHAR U+00BA
ENCODING 186
SWIDTH 429 0
DWIDTH 9 0
BBX 8 13 0 7
BITMAP
FE
83
83
93
83
83
83
83
FF
83
83
FF
7F
ENDCHAR
STARTCHAR U+00BB
ENCODING 187
SWIDTH 571 0
DWIDTH 12 0
BBX 11 11 0 1
BITMAP
FF00
9980
88C0
C460
4460
4460
C460
88E0
99E0
FFC0
7F80
ENDCHAR
STARTCHAR U+00BF
ENCODING 191
SWIDTH 476 0
DWIDTH 10 0
BBX 9 20 0 0
BITMAP
3C00
2600
2600
3E00
1E00
0000
3C00
2600
E600
8600
8600
9E00
9E00
9800
9F00
9980
8180
8180
FF80
7F80
ENDCHAR
STARTCHAR U+00DF
ENCODING 223
SWIDTH 476 0
DWIDTH 10 0
BBX 9 20 0 0
BITMAP
FE00
8300
8180
9980
9980
9980
9980
9980
9180
9180
9980
9980
9980
9980
9980
9980
9180
9380
FF80
7F00
ENDCHAR
STARTCHAR U+00E0
ENCODING 224
SWIDTH 476 0
DWIDTH 10 0
BBX 9 18 0 0
BITMAP
FC00
8600
8600
FF00
6180
2180
3980
1980
F980
8180
8180
9980
9980
9980
8180
8180
FF80
7F80
ENDCHAR
STARTCHAR U+00E1
ENCODING 225
SWIDTH 476 0
DWIDTH 10 0
BBX 9 18 0 0
BITMAP
3F00
2180
2180
3F80
2180
2180
3980
1980
F980
8180
8180
9980
9980
9980
8180
8180
FF80
7F80
ENDCHAR
STARTCHAR U+00E2
ENCODING 226
SWIDTH 476 0
DWIDTH 10 0
BBX 9 18 0 0
BITMAP
7E00
C300
9980
FF80
6180
2180
3980
1980
F980
8180
8180
9980
9980
9980
8180
8180
FF80
7F80
ENDCHAR
STARTCHAR U+00E4
ENCODING 228
SWIDTH 476 0
DWIDTH 10 0
BBX 9 18 0 0
BITMAP
FF00
9980
9980
FF80
6180
2180
3980
1980
F980
8180
8180
9980
9980
9980
8180
8180
FF80
7F80
ENDCHAR
STARTCHAR U+00E6
ENCODING 230
SWIDTH 667 0
DWIDTH 14 0
BBX 13 15 0 0
BITMAP
3FF0
2018
2018
3998
1998
F998
8018
8018
99F8
99F8
99F0
8018
8018
FFF8
7FF8
ENDCHAR
STARTCHAR U+00E7
ENCODING 231
SWIDTH 476 0
DWIDTH 10 0
BBX 9 15 0 0
BITMAP
FF00
8180
8180
9F80
9F80
9800
9F00
8180
8180
8180
8180
E780
6780
3E00
1E00
ENDCHAR
STARTCHAR U+00E8
ENCODING 232
SWIDTH 476 0
DWIDTH 10 0
BBX 9 18 0 0
BITMAP
FC00
8600
8600
FF00
8180
8180
9980
9980
9980
8180
8180
9F80
9F80
9F00
8180
8180
FF80
7F80
ENDCHAR
STARTCHAR U+00E9
ENCODING 233
SWIDTH 476 0
DWIDTH 10 0
BBX 9 18 0 0
BITMAP
3F00
2180
2180
FF80
8180
8180
9980
9980
9980
8180
8180
9F80
9F80
9F00
8180
8180
FF80
7F80
ENDCHAR
STARTCHAR U+00EA
ENCODING 234
SWIDTH 476 0
DWIDTH 10 0
BBX 9 18 0 0
BITMAP
7E00
C300
9980
FF80
8180
8180
9980
9980
9980
8180
8180
9F80
9F80
9F00
8180
8180
FF80
7F80
ENDCHAR
STARTCHAR U+00EB
ENCODING 235
SWIDTH 476 0
DWIDTH 10 0
BBX 9 18 0 0
BITMAP
FF00
9980
9980
FF80
8180
8180
9980
9980
9980
8180
8180
9F80
9F80
9F00
8180
8180
FF80
7F80
ENDCHAR
STARTCHAR U+00EC
ENCODING 236
SWIDTH 381 0
DWIDTH 8 0
BBX 7 18 0 0
BITMAP
FC
86
86
FE
4E
4C
4C
4C
4C
4C
4C
4C
4C
4C
4C
4C
7C
3C
ENDCHAR
STARTCHAR U+00ED
ENCODING 237
SWIDTH 381 0
DWIDTH 8 0
BBX 7 18 0 0
BITMAP
FC
86
86
FE
9E
98
98
98
98
98
98
98
98
98
98
98
F8
78
ENDCHAR
STARTCHAR U+00EE
ENCODING 238
SWIDTH 476 0
DWIDTH 10 0
BBX 9 18 0 0
BITMAP
7E00
C300
9980
FF80
6780
2600
2600
2600
2600
2600
2600
2600
2600
2600
2600
2600
3E00
1E00
ENDCHAR
STARTCHAR U+00EF
ENCODING 239
SWIDTH 476 0
DWIDTH 10 0
BBX 9 18 0 0
BITMAP
FF00
9980
9980
FF80
6780
2600
2600
2600
2600
2600
2600
2600
2600
2600
2600
2600
3E00
1E00
ENDCHAR
STARTCHAR U+00F1
ENCODING 241
SWIDTH 476 0
DWIDTH 10 0
BBX 9 19 0 0
BITMAP
0F00
F980
8180
9F80
FF80
8300
8300
9980
9980
9980
9980
9980
9980
9980
9980
9980
9980
FF80
7F80
ENDCHAR
STARTCHAR U+00F2
ENCODING 242
SWIDTH 476 0
DWIDTH 10 0
BBX 9 18 0 0
BITMAP
FC00
8600
8600
FF00
8180
8180
9980
9980
9980
9980
9980
9980
9980
9980
8180
8180
FF80
7F80
ENDCHAR
STARTCHAR U+00F3
ENCODING 243
SWIDTH 476 0
DWIDTH 10 0
BBX 9 18 0 0
BITMAP
3F00
2180
2180
FF80
8180
8180
9980
9980
9980
9980
9980
9980
9980
9980
8180
8180
FF80
7F80
ENDCHAR
STARTCHAR U+00F4
ENCODING 244
SWIDTH 476 0
DWIDTH 10 0
BBX 9 18 0 0
BITMAP
7E00
C300
9980
FF80
8180
8180
9980
9980
9980
9980
9980
9980
9980
9980
8180
8180
FF80
7F80
ENDCHAR
STARTCHAR U+00F6
ENCODING 246
SWIDTH 476 0
DWIDTH 10 0
BBX 9 18 0 0
BITMAP
FF00
9980
9980
FF80
8180
8180
9980
9980
9980
9980
9980
9980
9980
9980
8180
8180
FF80
7F80
ENDCHAR
STARTCHAR U+00F9
ENCODING 249
SWIDTH 476 0
DWIDTH 10 0
BBX 9 18 0 0
BITMAP
FC00
8600
8600
FF00
9980
9980
9980
9980
9980
9980
9980
9980
9980
9980
8180
8180
FF80
7F80
ENDCHAR
STARTCHAR U+00FA
ENCODING 250
SWIDTH 476 0
DWIDTH 10 0
BBX 9 18 0 0
BITMAP
3F00
2180
2180
FF80
9980
9980
9980
9980
9980
9980
9980
9980
9980
9980
8180
8180
FF80
7F80
ENDCHAR
STARTCHAR U+00FB
ENCODING 251
SWIDTH 476 0
DWIDTH 10 0
BBX 9 18 0 0
BITMAP
7E00
C300
9980
FF80
9980
9980
9980
9980
9980
9980
9980
9980
9980
9980
8180
8180
FF80
7F80
ENDCHAR
STARTCHAR U+00FC
ENCODING 252
SWIDTH 476 0
DWIDTH 10 0
BBX 9 18 0 0
BITMAP
FF00
9980
9980
FF80
9980
9980
9980
9980
9980
9980
9980
9980
9980
9980
8180
8180
FF80
7F80
ENDCHAR
STARTCHAR U+00FD
ENCODING 253
SWIDTH 476 0
DWIDTH 10 0
BBX 9 18 0 0
BITMAP
3F00
2180
2180
FF80
9980
9980
9980
9980
9980
8180
8180
F980
7980
F980
8180
8180
FF80
7F80
ENDCHAR
STARTCHAR U+00FF
ENCODING 255
SWIDTH 476 0
DWIDTH 10 0
BBX 9 18 0 0
BITMAP
FF00
9980
9980
FF80
9980
9980
9980
9980
9980
8180
8180
F980
7980
F980
8180
8180
FF80
7F80
ENDCHAR
STARTCHAR U+010D
ENCODING 269
SWIDTH 476 0
DWIDTH 10 0
BBX 9 18 0 0
BITMAP
FF00
9980
C380
FF80
8180
8180
9F80
9F80
9800
9800
9800
9800
9800
9F00
8180
8180
FF80
7F80
ENDCHAR
STARTCHAR U+010F
ENCODING 271
SWIDTH 476 0
DWIDTH 10 0
BBX 9 20 0 0
BITMAP
FF00
9980
9980
9980
F980
F980
8180
8180
9980
9980
9980
9980
9980
9980
9980
9980
8180
8180
FF80
7F80
ENDCHAR
STARTCHAR U+011B
ENCODING 283
SWIDTH 476 0
DWIDTH 10 0
BBX 9 18 0 0
BITMAP
FF00
9980
C380
FF80
8180
8180
9980
9980
9980
8180
8180
9F80
9F80
9F00
8180
8180
FF80
7F80
ENDCHAR
STARTCHAR U+0148
ENCODING 328
SWIDTH 476 0
DWIDTH 10 0
BBX 9 18 0 0
BITMAP
FF00
9980
C380
FF80
8300
8180
9980
9980
9980
9980
9980
9980
9980
9980
9980
9980
FF80
7F80
ENDCHAR
STARTCHAR U+0153
ENCODING 339
SWIDTH 667 0
DWIDTH 14 0
BBX 13 15 0 0
BITMAP
FFF0
8018
8018
9998
9998
9998
9818
9818
99F8
99F8
99F0
8018
8018
FFF8
7FF8
ENDCHAR
STARTCHAR U+0159
ENCODING 345
SWIDTH 381 0
DWIDTH 8 0
BBX 7 18 0 0
BITMAP
FC
B6
86
FE
86
86
9E
9E
98
98
98
98
98
98
98
98
F8
78
ENDCHAR
STARTCHAR U+0161
ENCODING 353
SWIDTH 476 0
DWIDTH 10 0
BBX 9 18 0 0
BITMAP
FF00
9980
C380
FF80
8180
8180
9F80
9F80
9F00
8180
8180
F980
7980
F980
8180
8180
FF80
7F80
ENDCHAR
STARTCHAR U+0165
ENCODING 357
SWIDTH 476 0
DWIDTH 10 0
BBX 9 20 0 0
BITMAP
7F00
4980
4980
4980
4F80
CF80
8300
8300
CF00
4F00
4C00
4C00
4C00
4C00
4C00
4E00
4300
4300
7F00
3F00
ENDCHAR
STARTCHAR U+016F
ENCODING 367
SWIDTH 476 0
DWIDTH 10 0
BBX 9 18 0 0
BITMAP
3C00
2600
2600
FF00
9980
9980
9980
9980
9980
9980
9980
9980
9980
9980
8180
8180
FF80
7F80
ENDCHAR
STARTCHAR U+017E
ENCODING 382
SWIDTH 476 0
DWIDTH 10 0
BBX 9 18 0 0
BITMAP
FF00
9980
C380
FF80
8180
8180
F180
7180
3180
6380
C780
8F00
8E00
8F00
8180
8180
FF80
7F80
ENDCHAR
STARTCHAR U+2018
ENCODING 8216
SWIDTH 286 0
DWIDTH 6 0
BBX 5 7 0 13
BITMAP
F0
98
98
98
98
F8
78
ENDCHAR
STARTCHAR U+2019
ENCODING 8217
SWIDTH 286 0
DWIDTH 6 0
BBX 5 7 0 13
BITMAP
F0
98
98
98
98
F8
78
ENDCHAR
STARTCHAR U+201A
ENCODING 8218
SWIDTH 286 0
DWIDTH 6 0
BBX 5 7 0 0
BITMAP
F0
98
98
98
98
F8
78
ENDCHAR
STARTCHAR U+201C
ENCODING 8220
SWIDTH 429 0
DWIDTH 9 0
BBX 8 7 0 13
BITMAP
FE
93
93
93
93
FF
7F
ENDCHAR
STARTCHAR U+201D
ENCODING 8221
SWIDTH 429 0
DWIDTH 9 0
BBX 8 7 0 13
BITMAP
FE
93
93
93
93
FF
7F
ENDCHAR
STARTCHAR U+201E
ENCODING 8222
SWIDTH 429 0
DWIDTH 9 0
BBX 8 7 0 0
BITMAP
FE
93
93
93
93
FF
7F
ENDCHAR
STARTCHAR U+20AC
ENCODING 8364
SWIDTH 524 0
DWIDTH 11 0
BBX 10 20 0 0
BITMAP
7F80
40C0
40C0
4FC0
4FC0
4C00
4C00
CF00
8180
CF80
8180
CF80
4F80
4C00
4C00
4F80
40C0
40C0
7FC0
3FC0
ENDCHAR
ENDFONT
