STARTFONT 2.1
FONT -PixelFonts-pixelfont_3d_condensed_extended_latin_17x5_semibold-SemiBold-R-Normal--20-200-75-75-P-0-ISO10646-1
SIZE 20 75 75
FONTBOUNDINGBOX 12 20 0 0
STARTPROPERTIES 7
FOUNDRY "PixelFonts"
FAMILY_NAME "pixelfont_3d_condensed_extended_latin_17x5_semibold"
WEIGHT_NAME "SemiBold"
PIXEL_SIZE 20
FONT_ASCENT 20
FONT_DESCENT 0
DEFAULT_CHAR 32
ENDPROPERTIES
CHARS 145
STARTCHAR U+0020
ENCODING 32
SWIDTH 350 0
DWIDTH 7 0
BBX 1 1 0 0
BITMAP
00
ENDCHAR
STARTCHAR U+0021
ENCODING 33
SWIDTH 250 0
DWIDTH 5 0
BBX 5 20 0 0
BITMAP
F0
98
98
98
98
98
98
98
98
98
98
98
98
F8
78
F0
98
98
F8
78
ENDCHAR
STARTCHAR U+0022
ENCODING 34
SWIDTH 400 0
DWIDTH 8 0
BBX 8 7 0 13
BITMAP
FE
93
93
93
93
FF
7F
ENDCHAR
STARTCHAR U+0023
ENCODING 35
SWIDTH 500 0
DWIDTH 10 0
BBX 10 14 0 3
BITMAP
7F00
4980
C980
80C0
80C0
C9C0
49C0
C980
80C0
80C0
C9C0
49C0
7F80
3F80
ENDCHAR
STARTCHAR U+0024
ENCODING 36
SWIDTH 550 0
DWIDTH 11 0
BBX 11 20 0 0
BITMAP
1E00
1300
F3C0
8060
8060
93E0
93E0
93C0
8060
8060
F260
7260
F260
8060
8060
F3E0
73E0
1300
1F00
0F00
ENDCHAR
STARTCHAR U+0025
ENCODING 37
SWIDTH 550 0
DWIDTH 11 0
BBX 11 19 0 0
BITMAP
7C00
C7C0
8260
9260
8260
C660
7C60
38E0
31E0
63C0
C780
8F80
98C0
9060
9260
9060
F8E0
7FE0
07C0
ENDCHAR
STARTCHAR U+0026
ENCODING 38
SWIDTH 550 0
DWIDTH 11 0
BBX 11 20 0 0
BITMAP
7E00
C300
8180
9980
9980
9980
9980
9380
8380
CF00
83C0
9260
9060
98E0
99E0
98C0
8060
C260
7FE0
3FE0
ENDCHAR
STARTCHAR U+0027
ENCODING 39
SWIDTH 250 0
DWIDTH 5 0
BBX 5 8 0 12
BITMAP
F0
98
98
98
98
98
F8
78
ENDCHAR
STARTCHAR U+0028
ENCODING 40
SWIDTH 300 0
DWIDTH 6 0
BBX 6 20 0 0
BITMAP
78
CC
8C
9C
9C
98
98
98
98
98
98
98
98
98
98
98
8C
CC
7C
3C
ENDCHAR
STARTCHAR U+0029
ENCODING 41
SWIDTH 300 0
DWIDTH 6 0
BBX 6 20 0 0
BITMAP
F0
98
8C
CC
4C
4C
4C
4C
4C
4C
4C
4C
4C
4C
4C
CC
8C
9C
FC
78
ENDCHAR
STARTCHAR U+002A
ENCODING 42
SWIDTH 550 0
DWIDTH 11 0
BBX 11 11 0 5
BITMAP
1E00
F3C0
9260
9260
C0E0
C0E0
9260
9260
F3E0
7FE0
0F00
ENDCHAR
STARTCHAR U+002B
ENCODING 43
SWIDTH 450 0
DWIDTH 9 0
BBX 9 9 0 6
BITMAP
3C00
2600
E700
8180
8180
E780
6780
3E00
1E00
ENDCHAR
STARTCHAR U+002C
ENCODING 44
SWIDTH 250 0
DWIDTH 5 0
BBX 5 10 0 0
BITMAP
F0
98
98
98
98
98
98
98
F8
78
ENDCHAR
STARTCHAR U+002D
ENCODING 45
SWIDTH 450 0
DWIDTH 9 0
BBX 9 5 0 8
BITMAP
FF00
8180
8180
FF80
7F80
ENDCHAR
STARTCHAR U+002E
ENCODING 46
SWIDTH 250 0
DWIDTH 5 0
BBX 5 5 0 0
BITMAP
F0
98
98
F8
78
ENDCHAR
STARTCHAR U+002F
ENCODING 47
SWIDTH 350 0
DWIDTH 7 0
BBX 7 20 0 0
BITMAP
3C
26
26
26
26
66
46
46
4E
4E
4C
CC
8C
9C
9C
98
98
98
F8
78
ENDCHAR
STARTCHAR U+0030
ENCODING 48
SWIDTH 400 0
DWIDTH 8 0
BBX 8 20 0 0
BITMAP
FE
83
83
93
93
93
93
93
93
93
93
93
93
93
93
93
83
83
FF
7F
ENDCHAR
STARTCHAR U+0031
ENCODING 49
SWIDTH 250 0
DWIDTH 5 0
BBX 5 20 0 0
BITMAP
F0
98
98
98
98
98
98
98
98
98
98
98
98
98
98
98
98
98
F8
78
ENDCHAR
STARTCHAR U+0032
ENCODING 50
SWIDTH 400 0
DWIDTH 8 0
BBX 8 20 0 0
BITMAP
FE
83
83
93
F3
73
13
F3
83
83
9F
9F
98
98
98
9E
83
83
FF
7F
ENDCHAR
STARTCHAR U+0033
ENCODING 51
SWIDTH 400 0
DWIDTH 8 0
BBX 8 20 0 0
BITMAP
FE
83
83
F3
73
13
13
73
43
43
73
33
13
13
13
F3
83
83
FF
7F
ENDCHAR
STARTCHAR U+0034
ENCODING 52
SWIDTH 400 0
DWIDTH 8 0
BBX 8 20 0 0
BITMAP
FE
93
93
93
93
93
93
93
83
83
F3
73
13
13
13
13
13
13
1F
0F
ENDCHAR
STARTCHAR U+0035
ENCODING 53
SWIDTH 400 0
DWIDTH 8 0
BBX 8 20 0 0
BITMAP
FE
83
83
9F
9F
98
98
9E
83
83
F3
73
13
13
F3
93
83
83
FF
7F
ENDCHAR
STARTCHAR U+0036
ENCODING 54
SWIDTH 400 0
DWIDTH 8 0
BBX 8 20 0 0
BITMAP
FE
83
83
93
9F
9F
98
9E
83
83
93
93
93
93
93
93
83
83
FF
7F
ENDCHAR
STARTCHAR U+0037
ENCODING 55
SWIDTH 400 0
DWIDTH 8 0
BBX 8 20 0 0
BITMAP
FE
83
83
93
F3
73
13
13
13
13
13
13
13
13
13
13
13
13
1F
0F
ENDCHAR
STARTCHAR U+0038
ENCODING 56
SWIDTH 400 0
DWIDTH 8 0
BBX 8 20 0 0
BITMAP
FE
83
83
93
93
93
93
93
83
83
93
93
93
93
93
93
83
83
FF
7F
ENDCHAR
STARTCHAR U+0039
ENCODING 57
SWIDTH 400 0
DWIDTH 8 0
BBX 8 20 0 0
BITMAP
FE
83
83
93
93
93
93
93
83
83
F3
73
13
13
F3
93
83
83
FF
7F
ENDCHAR
STARTCHAR U+003A
ENCODING 58
SWIDTH 250 0
DWIDTH 5 0
BBX 5 12 0 4
BITMAP
F0
98
98
98
F8
78
F0
98
98
98
F8
78
ENDCHAR
STARTCHAR U+003B
ENCODING 59
SWIDTH 250 0
DWIDTH 5 0
BBX 5 16 0 0
BITMAP
F0
98
98
98
F8
78
F0
98
98
98
98
98
98
98
F8
78
ENDCHAR
STARTCHAR U+003C
ENCODING 60
SWIDTH 400 0
DWIDTH 8 0
BBX 8 10 0 5
BITMAP
1E
33
63
C7
8F
C6
63
33
1F
0F
ENDCHAR
STARTCHAR U+003D
ENCODING 61
SWIDTH 450 0
DWIDTH 9 0
BBX 9 8 0 6
BITMAP
FF00
8180
8180
FF80
8180
8180
FF80
7F80
ENDCHAR
STARTCHAR U+003E
ENCODING 62
SWIDTH 400 0
DWIDTH 8 0
BBX 8 10 0 5
BITMAP
F0
98
8C
C6
63
C7
8F
9E
FC
78
ENDCHAR
STARTCHAR U+003F
ENCODING 63
SWIDTH 450 0
DWIDTH 9 0
BBX 9 20 0 0
BITMAP
FF00
8180
8180
9980
9980
F980
7980
3980
2180
2180
2780
2780
2600
3E00
1E00
3C00
2600
2600
3E00
1E00
ENDCHAR
STARTCHAR U+0040
ENCODING 64
SWIDTH 550 0
DWIDTH 11 0
BBX 11 20 0 0
BITMAP
FFC0
8060
8060
9E60
9E60
9E60
9260
9260
9260
9260
9260
9060
9060
9FE0
9FE0
9FC0
8060
8060
FFE0
7FE0
ENDCHAR
STARTCHAR U+0041
ENCODING 65
SWIDTH 400 0
DWIDTH 8 0
BBX 8 20 0 0
BITMAP
FE
83
83
93
93
93
93
93
83
83
93
93
93
93
93
93
93
93
FF
7F
ENDCHAR
STARTCHAR U+0042
ENCODING 66
SWIDTH 400 0
DWIDTH 8 0
BBX 8 20 0 0
BITMAP
FC
86
83
93
93
93
93
93
83
83
93
93
93
93
93
93
83
87
FF
7E
ENDCHAR
STARTCHAR U+0043
ENCODING 67
SWIDTH 400 0
DWIDTH 8 0
BBX 8 20 0 0
BITMAP
FE
83
83
93
93
9F
9F
98
98
98
98
98
98
9E
93
93
83
83
FF
7F
ENDCHAR
STARTCHAR U+0044
ENCODING 68
SWIDTH 400 0
DWIDTH 8 0
BBX 8 20 0 0
BITMAP
FC
86
83
93
93
93
93
93
93
93
93
93
93
93
93
93
83
87
FF
7E
ENDCHAR
STARTCHAR U+0045
ENCODING 69
SWIDTH 400 0
DWIDTH 8 0
BBX 8 20 0 0
BITMAP
FE
83
83
9F
9F
98
98
9C
86
86
9E
9E
98
98
98
9E
83
83
FF
7F
ENDCHAR
STARTCHAR U+0046
ENCODING 70
SWIDTH 400 0
DWIDTH 8 0
BBX 8 20 0 0
BITMAP
FE
83
83
9F
9F
98
98
9C
86
86
9E
9E
98
98
98
98
98
98
F8
78
ENDCHAR
STARTCHAR U+0047
ENCODING 71
SWIDTH 450 0
DWIDTH 9 0
BBX 9 20 0 0
BITMAP
FF00
8180
8180
9980
9980
9F80
9F80
9F00
9180
9180
9980
9980
9980
9980
9980
9980
8180
8180
FF80
7F80
ENDCHAR
STARTCHAR U+0048
ENCODING 72
SWIDTH 400 0
DWIDTH 8 0
BBX 8 20 0 0
BITMAP
FE
93
93
93
93
93
93
93
83
83
93
93
93
93
93
93
93
93
FF
7F
ENDCHAR
STARTCHAR U+0049
ENCODING 73
SWIDTH 250 0
DWIDTH 5 0
BBX 5 20 0 0
BITMAP
F0
98
98
98
98
98
98
98
98
98
98
98
98
98
98
98
98
98
F8
78
ENDCHAR
STARTCHAR U+004A
ENCODING 74
SWIDTH 400 0
DWIDTH 8 0
BBX 8 20 0 0
BITMAP
1E
13
13
13
13
13
13
13
13
13
13
F3
93
93
93
93
83
83
FF
7F
ENDCHAR
STARTCHAR U+004B
ENCODING 75
SWIDTH 400 0
DWIDTH 8 0
BBX 8 20 0 0
BITMAP
FE
93
93
93
93
93
93
93
93
87
87
93
93
93
93
93
93
93
FF
7F
ENDCHAR
STARTCHAR U+004C
ENCODING 76
SWIDTH 400 0
DWIDTH 8 0
BBX 8 20 0 0
BITMAP
F0
98
98
98
98
98
98
98
98
98
98
98
98
98
98
9E
83
83
FF
7F
ENDCHAR
STARTCHAR U+004D
ENCODING 77
SWIDTH 550 0
DWIDTH 11 0
BBX 11 20 0 0
BITMAP
FFC0
8060
8060
9260
9260
9260
9260
9260
9260
9E60
9E60
9A60
9A60
9A60
9A60
9A60
9A60
9A60
FBE0
79E0
ENDCHAR
STARTCHAR U+004E
ENCODING 78
SWIDTH 450 0
DWIDTH 9 0
BBX 9 20 0 0
BITMAP
FF00
9980
9980
9980
9980
8980
8180
9180
9980
9980
9980
9980
9980
9980
9980
9980
9980
9980
FF80
7F80
ENDCHAR
STARTCHAR U+004F
ENCODING 79
SWIDTH 400 0
DWIDTH 8 0
BBX 8 20 0 0
BITMAP
FE
83
83
93
93
93
93
93
93
93
93
93
93
93
93
93
83
83
FF
7F
ENDCHAR
STARTCHAR U+0050
ENCODING 80
SWIDTH 400 0
DWIDTH 8 0
BBX 8 20 0 0
BITMAP
FE
83
83
93
93
93
93
93
83
83
9F
9F
98
98
98
98
98
98
F8
78
ENDCHAR
STARTCHAR U+0051
ENCODING 81
SWIDTH 450 0
DWIDTH 9 0
BBX 9 20 0 0
BITMAP
FF00
8180
8180
9980
9980
9980
9980
9980
9980
9980
9980
9980
9980
9180
9180
9180
8180
8180
FF80
7F80
ENDCHAR
STARTCHAR U+0052
ENCODING 82
SWIDTH 400 0
DWIDTH 8 0
BBX 8 20 0 0
BITMAP
FE
83
83
93
93
93
93
93
87
87
93
93
93
93
93
93
93
93
FF
7F
ENDCHAR
STARTCHAR U+0053
ENCODING 83
SWIDTH 400 0
DWIDTH 8 0
BBX 8 20 0 0
BITMAP
FE
83
83
93
93
9F
9F
9E
83
83
F3
73
13
F3
93
93
83
83
FF
7F
ENDCHAR
STARTCHAR U+0054
ENCODING 84
SWIDTH 450 0
DWIDTH 9 0
BBX 9 20 0 0
BITMAP
FF00
8180
8180
E780
6780
2600
2600
2600
2600
2600
2600
2600
2600
2600
2600
2600
2600
2600
3E00
1E00
ENDCHAR
STARTCHAR U+0055
ENCODING 85
SWIDTH 400 0
DWIDTH 8 0
BBX 8 20 0 0
BITMAP
FE
93
93
93
93
93
93
93
93
93
93
93
93
93
93
93
83
83
FF
7F
ENDCHAR
STARTCHAR U+0056
ENCODING 86
SWIDTH 450 0
DWIDTH 9 0
BBX 9 20 0 0
BITMAP
FF00
9980
9980
9980
9980
9980
9980
9980
9980
9980
9980
9980
9980
8980
C180
6180
3180
1980
0F80
0780
ENDCHAR
STARTCHAR U+0057
ENCODING 87
SWIDTH 550 0
DWIDTH 11 0
BBX 11 20 0 0
BITMAP
F3C0
9A60
9A60
9A60
9A60
9A60
9A60
9A60
9A60
9E60
9260
9260
9260
9260
9260
9260
8060
8060
FFE0
7FE0
ENDCHAR
STARTCHAR U+0058
ENCODING 88
SWIDTH 500 0
DWIDTH 10 0
BBX 10 20 0 0
BITMAP
F780
9CC0
9CC0
9CC0
9CC0
9CC0
9CC0
88C0
C1C0
63C0
C180
88C0
9CC0
9CC0
9CC0
9CC0
9CC0
9CC0
FFC0
7BC0
ENDCHAR
STARTCHAR U+0059
ENCODING 89
SWIDTH 450 0
DWIDTH 9 0
BBX 9 20 0 0
BITMAP
FF00
9980
9980
9980
9980
9980
9980
8180
C380
6780
2700
2600
2600
2600
2600
2600
2600
2600
3E00
1E00
ENDCHAR
STARTCHAR U+005A
ENCODING 90
SWIDTH 400 0
DWIDTH 8 0
BBX 8 20 0 0
BITMAP
FE
83
83
F3
73
33
27
27
66
4E
4E
CC
9C
9C
98
9E
83
83
FF
7F
ENDCHAR
STARTCHAR U+005B
ENCODING 91
SWIDTH 350 0
DWIDTH 7 0
BBX 7 20 0 0
BITMAP
FC
86
86
9E
9E
98
98
98
98
98
98
98
98
98
98
9C
86
86
FE
7E
ENDCHAR
STARTCHAR U+005C
ENCODING 92
SWIDTH 350 0
DWIDTH 7 0
BBX 7 20 0 0
BITMAP
F0
98
98
98
98
8C
CC
4C
4C
4C
4C
4C
46
66
26
26
26
26
3E
1E
ENDCHAR
STARTCHAR U+005D
ENCODING 93
SWIDTH 350 0
DWIDTH 7 0
BBX 7 20 0 0
BITMAP
FC
86
86
E6
66
26
26
26
26
26
26
26
26
26
26
E6
86
86
FE
7E
ENDCHAR
STARTCHAR U+005E
ENCODING 94
SWIDTH 500 0
DWIDTH 10 0
BBX 10 8 0 12
BITMAP
1C00
3600
6300
C180
88C0
9CC0
FFC0
7BC0
ENDCHAR
STARTCHAR U+005F
ENCODING 95
SWIDTH 450 0
DWIDTH 9 0
BBX 9 5 0 0
BITMAP
FF00
8180
8180
FF80
7F80
ENDCHAR
STARTCHAR U+0060
ENCODING 96
SWIDTH 350 0
DWIDTH 7 0
BBX 7 7 0 12
BITMAP
F0
98
8C
C6
66
3E
1E
ENDCHAR
STARTCHAR U+0061
ENCODING 97
SWIDTH 400 0
DWIDTH 8 0
BBX 8 15 0 0
BITMAP
7E
43
43
73
33
F3
83
83
93
93
93
83
83
FF
7F
ENDCHAR
STARTCHAR U+0062
ENCODING 98
SWIDTH 400 0
DWIDTH 8 0
BBX 8 20 0 0
BITMAP
F0
98
98
98
98
9E
83
83
93
93
93
93
93
93
93
93
83
83
FF
7F
ENDCHAR
STARTCHAR U+0063
ENCODING 99
SWIDTH 400 0
DWIDTH 8 0
BBX 8 15 0 0
BITMAP
FE
83
83
9F
9F
98
98
98
98
98
9E
83
83
FF
7F
ENDCHAR
STARTCHAR U+0064
ENCODING 100
SWIDTH 400 0
DWIDTH 8 0
BBX 8 20 0 0
BITMAP
1E
13
13
13
13
F3
83
83
93
93
93
93
93
93
93
93
83
83
FF
7F
ENDCHAR
STARTCHAR U+0065
ENCODING 101
SWIDTH 400 0
DWIDTH 8 0
BBX 8 15 0 0
BITMAP
FE
83
83
93
93
93
83
83
9F
9F
9E
83
83
FF
7F
ENDCHAR
STARTCHAR U+0066
ENCODING 102
SWIDTH 350 0
DWIDTH 7 0
BBX 7 20 0 0
BITMAP
7C
46
46
4E
4E
CC
86
86
CE
4E
4C
4C
4C
4C
4C
4C
4C
4C
7C
3C
ENDCHAR
STARTCHAR U+0067
ENCODING 103
SWIDTH 400 0
DWIDTH 8 0
BBX 8 15 0 0
BITMAP
FE
83
83
93
93
93
83
83
F3
73
F3
83
83
FF
7F
ENDCHAR
STARTCHAR U+0068
ENCODING 104
SWIDTH 400 0
DWIDTH 8 0
BBX 8 20 0 0
BITMAP
F0
98
98
98
98
9E
83
83
93
93
93
93
93
93
93
93
93
93
FF
7F
ENDCHAR
STARTCHAR U+0069
ENCODING 105
SWIDTH 250 0
DWIDTH 5 0
BBX 5 20 0 0
BITMAP
F0
98
98
F8
78
F0
98
98
98
98
98
98
98
98
98
98
98
98
F8
78
ENDCHAR
STARTCHAR U+006A
ENCODING 106
SWIDTH 400 0
DWIDTH 8 0
BBX 8 20 0 0
BITMAP
1E
13
13
1F
0F
1E
13
13
13
13
13
13
F3
93
93
93
83
83
FF
7F
ENDCHAR
STARTCHAR U+006B
ENCODING 107
SWIDTH 450 0
DWIDTH 9 0
BBX 9 20 0 0
BITMAP
F000
9800
9800
9800
9800
9F00
9980
9980
9980
9980
9180
8380
8380
9180
9980
9980
9980
9980
FF80
7F80
ENDCHAR
STARTCHAR U+006C
ENCODING 108
SWIDTH 250 0
DWIDTH 5 0
BBX 5 20 0 0
BITMAP
F0
98
98
98
98
98
98
98
98
98
98
98
98
98
98
98
98
98
F8
78
ENDCHAR
STARTCHAR U+006D
ENCODING 109
SWIDTH 550 0
DWIDTH 11 0
BBX 11 15 0 0
BITMAP
FFC0
8060
8060
9260
9260
9260
9260
9260
9260
9260
9260
9260
9260
FFE0
7FE0
ENDCHAR
STARTCHAR U+006E
ENCODING 110
SWIDTH 400 0
DWIDTH 8 0
BBX 8 15 0 0
BITMAP
FC
86
83
93
93
93
93
93
93
93
93
93
93
FF
7F
ENDCHAR
STARTCHAR U+006F
ENCODING 111
SWIDTH 400 0
DWIDTH 8 0
BBX 8 15 0 0
BITMAP
FE
83
83
93
93
93
93
93
93
93
93
83
83
FF
7F
ENDCHAR
STARTCHAR U+0070
ENCODING 112
SWIDTH 400 0
DWIDTH 8 0
BBX 8 15 0 0
BITMAP
FE
83
83
93
93
93
83
83
9F
9F
98
98
98
F8
78
ENDCHAR
STARTCHAR U+0071
ENCODING 113
SWIDTH 400 0
DWIDTH 8 0
BBX 8 15 0 0
BITMAP
FE
83
83
93
93
93
83
83
F3
73
13
13
13
1F
0F
ENDCHAR
STARTCHAR U+0072
ENCODING 114
SWIDTH 350 0
DWIDTH 7 0
BBX 7 15 0 0
BITMAP
FC
86
86
9E
9E
98
98
98
98
98
98
98
98
F8
78
ENDCHAR
STARTCHAR U+0073
ENCODING 115
SWIDTH 400 0
DWIDTH 8 0
BBX 8 15 0 0
BITMAP
FE
83
83
9F
9F
9E
83
83
F3
73
F3
83
83
FF
7F
ENDCHAR
STARTCHAR U+0074
ENCODING 116
SWIDTH 350 0
DWIDTH 7 0
BBX 7 20 0 0
BITMAP
78
4C
4C
4C
4C
CC
86
86
CE
4E
4C
4C
4C
4C
4C
4C
46
46
7E
3E
ENDCHAR
STARTCHAR U+0075
ENCODING 117
SWIDTH 400 0
DWIDTH 8 0
BBX 8 15 0 0
BITMAP
FE
93
93
93
93
93
93
93
93
93
93
83
83
FF
7F
ENDCHAR
STARTCHAR U+0076
ENCODING 118
SWIDTH 450 0
DWIDTH 9 0
BBX 9 15 0 0
BITMAP
FF00
9980
9980
9980
9980
9980
9980
9980
9980
8980
C180
6180
3180
1F80
0F80
ENDCHAR
STARTCHAR U+0077
ENCODING 119
SWIDTH 550 0
DWIDTH 11 0
BBX 11 15 0 0
BITMAP
F3C0
9A60
9A60
9A60
9A60
9E60
9260
9260
9260
9260
9260
8060
8060
FFE0
7FE0
ENDCHAR
STARTCHAR U+0078
ENCODING 120
SWIDTH 500 0
DWIDTH 10 0
BBX 10 15 0 0
BITMAP
F780
9CC0
9CC0
9CC0
88C0
C1C0
63C0
C180
88C0
9CC0
9CC0
9CC0
9CC0
FFC0
7BC0
ENDCHAR
STARTCHAR U+0079
ENCODING 121
SWIDTH 400 0
DWIDTH 8 0
BBX 8 15 0 0
BITMAP
FE
93
93
93
93
93
83
83
F3
73
F3
83
83
FF
7F
ENDCHAR
STARTCHAR U+007A
ENCODING 122
SWIDTH 400 0
DWIDTH 8 0
BBX 8 15 0 0
BITMAP
FE
83
83
F3
73
63
C7
8F
9E
9C
9E
83
83
FF
7F
ENDCHAR
STARTCHAR U+007B
ENCODING 123
SWIDTH 350 0
DWIDTH 7 0
BBX 7 20 0 0
BITMAP
3C
66
46
46
4E
4E
4C
CC
8C
9C
8C
CC
4C
4C
4C
46
66
26
3E
1E
ENDCHAR
STARTCHAR U+007C
ENCODING 124
SWIDTH 250 0
DWIDTH 5 0
BBX 5 20 0 0
BITMAP
F0
98
98
98
98
98
98
98
98
98
98
98
98
98
98
98
98
98
F8
78
ENDCHAR
STARTCHAR U+007D
ENCODING 125
SWIDTH 350 0
DWIDTH 7 0
BBX 7 20 0 0
BITMAP
F0
98
8C
8C
CC
4C
4C
4C
46
66
46
4E
4E
4C
CC
8C
9C
9C
F8
78
ENDCHAR
STARTCHAR U+007E
ENCODING 126
SWIDTH 550 0
DWIDTH 11 0
BBX 11 7 0 6
BITMAP
FFC0
8260
8260
9060
9060
FFE0
7FE0
ENDCHAR
STARTCHAR U+00A1
ENCODING 161
SWIDTH 250 0
DWIDTH 5 0
BBX 5 20 0 0
BITMAP
F0
98
98
F8
78
F0
98
98
98
98
98
98
98
98
98
98
98
98
F8
78
ENDCHAR
STARTCHAR U+00AA
ENCODING 170
SWIDTH 400 0
DWIDTH 8 0
BBX 8 13 0 7
BITMAP
3E
23
E3
93
93
93
83
83
FF
83
83
FF
7F
ENDCHAR
STARTCHAR U+00AB
ENCODING 171
SWIDTH 600 0
DWIDTH 12 0
BBX 12 11 0 2
BITMAP
1FE0
3330
6230
C470
88F0
88E0
C460
6230
3330
1FF0
0FF0
ENDCHAR
STARTCHAR U+00B0
ENCODING 176
SWIDTH 400 0
DWIDTH 8 0
BBX 8 10 0 10
BITMAP
FE
83
83
93
93
93
83
83
FF
7F
ENDCHAR
STARTCHAR U+00BA
ENCODING 186
SWIDTH 400 0
DWIDTH 8 0
BBX 8 13 0 7
BITMAP
FE
83
83
93
93
93
83
83
FF
83
83
FF
7F
ENDCHAR
STARTCHAR U+00BB
ENCODING 187
SWIDTH 600 0
DWIDTH 12 0
BBX 12 11 0 2
BITMAP
FF00
9980
88C0
C460
6230
6230
C470
88F0
99E0
FFC0
7F80
ENDCHAR
STARTCHAR U+00BF
ENCODING 191
SWIDTH 450 0
DWIDTH 9 0
BBX 9 20 0 0
BITMAP
3C00
2600
2600
3E00
1E00
3C00
2600
2600
E600
8600
8600
9E00
9E00
9F00
9980
9980
8180
8180
FF80
7F80
ENDCHAR
STARTCHAR U+00DF
ENCODING 223
SWIDTH 400 0
DWIDTH 8 0
BBX 8 20 0 0
BITMAP
7C
C6
83
93
93
93
93
93
97
87
96
93
93
93
93
93
93
97
FF
7E
ENDCHAR
STARTCHAR U+00E0
ENCODING 224
SWIDTH 400 0
DWIDTH 8 0
BBX 8 18 0 0
BITMAP
FC
86
86
FE
43
43
73
33
F3
83
83
93
93
93
83
83
FF
7F
ENDCHAR
STARTCHAR U+00E1
ENCODING 225
SWIDTH 400 0
DWIDTH 8 0
BBX 8 18 0 0
BITMAP
7E
43
43
7F
43
43
73
33
F3
83
83
93
93
93
83
83
FF
7F
ENDCHAR
STARTCHAR U+00E2
ENCODING 226
SWIDTH 400 0
DWIDTH 8 0
BBX 8 19 0 0
BITMAP
7C
C6
83
93
FF
43
43
73
33
F3
83
83
93
93
93
83
83
FF
7F
ENDCHAR
STARTCHAR U+00E4
ENCODING 228
SWIDTH 400 0
DWIDTH 8 0
BBX 8 18 0 0
BITMAP
FE
93
93
FF
43
43
73
33
F3
83
83
93
93
93
83
83
FF
7F
ENDCHAR
STARTCHAR U+00E6
ENCODING 230
SWIDTH 550 0
DWIDTH 11 0
BBX 11 15 0 0
BITMAP
7FC0
4060
4060
7260
3260
F260
8060
8060
93E0
93E0
93C0
8060
8060
FFE0
7FE0
ENDCHAR
STARTCHAR U+00E7
ENCODING 231
SWIDTH 400 0
DWIDTH 8 0
BBX 8 15 0 0
BITMAP
FE
83
83
9F
9F
98
98
98
9E
83
83
E7
67
3E
1E
ENDCHAR
STARTCHAR U+00E8
ENCODING 232
SWIDTH 400 0
DWIDTH 8 0
BBX 8 18 0 0
BITMAP
FC
86
86
FE
83
83
93
93
93
83
83
9F
9F
9E
83
83
FF
7F
ENDCHAR
STARTCHAR U+00E9
ENCODING 233
SWIDTH 400 0
DWIDTH 8 0
BBX 8 18 0 0
BITMAP
7E
43
43
FF
83
83
93
93
93
83
83
9F
9F
9E
83
83
FF
7F
ENDCHAR
STARTCHAR U+00EA
ENCODING 234
SWIDTH 400 0
DWIDTH 8 0
BBX 8 19 0 0
BITMAP
7C
C6
83
93
FF
83
83
93
93
93
83
83
9F
9F
9E
83
83
FF
7F
ENDCHAR
STARTCHAR U+00EB
ENCODING 235
SWIDTH 400 0
DWIDTH 8 0
BBX 8 18 0 0
BITMAP
FE
93
93
FF
83
83
93
93
93
83
83
9F
9F
9E
83
83
FF
7F
ENDCHAR
STARTCHAR U+00EC
ENCODING 236
SWIDTH 350 0
DWIDTH 7 0
BBX 7 18 0 0
BITMAP
FC
86
86
FE
66
26
26
26
26
26
26
26
26
26
26
26
3E
1E
ENDCHAR
STARTCHAR U+00ED
ENCODING 237
SWIDTH 350 0
DWIDTH 7 0
BBX 7 18 0 0
BITMAP
FC
86
86
FE
9E
98
98
98
98
98
98
98
98
98
98
98
F8
78
ENDCHAR
STARTCHAR U+00EE
ENCODING 238
SWIDTH 450 0
DWIDTH 9 0
BBX 9 19 0 0
BITMAP
3C00
6600
C300
9980
FF80
6780
2600
2600
2600
2600
2600
2600
2600
2600
2600
2600
2600
3E00
1E00
ENDCHAR
STARTCHAR U+00EF
ENCODING 239
SWIDTH 450 0
DWIDTH 9 0
BBX 9 18 0 0
BITMAP
FF00
9980
9980
FF80
6780
2600
2600
2600
2600
2600
2600
2600
2600
2600
2600
2600
3E00
1E00
ENDCHAR
STARTCHAR U+00F1
ENCODING 241
SWIDTH 400 0
DWIDTH 8 0
BBX 8 19 0 0
BITMAP
1E
F3
83
9F
FF
86
83
93
93
93
93
93
93
93
93
93
93
FF
7F
ENDCHAR
STARTCHAR U+00F2
ENCODING 242
SWIDTH 400 0
DWIDTH 8 0
BBX 8 18 0 0
BITMAP
FC
86
86
FE
83
83
93
93
93
93
93
93
93
93
83
83
FF
7F
ENDCHAR
STARTCHAR U+00F3
ENCODING 243
SWIDTH 400 0
DWIDTH 8 0
BBX 8 18 0 0
BITMAP
7E
43
43
FF
83
83
93
93
93
93
93
93
93
93
83
83
FF
7F
ENDCHAR
STARTCHAR U+00F4
ENCODING 244
SWIDTH 400 0
DWIDTH 8 0
BBX 8 19 0 0
BITMAP
7C
C6
83
93
FF
83
83
93
93
93
93
93
93
93
93
83
83
FF
7F
ENDCHAR
STARTCHAR U+00F6
ENCODING 246
SWIDTH 400 0
DWIDTH 8 0
BBX 8 18 0 0
BITMAP
FE
93
93
FF
83
83
93
93
93
93
93
93
93
93
83
83
FF
7F
ENDCHAR
STARTCHAR U+00F9
ENCODING 249
SWIDTH 400 0
DWIDTH 8 0
BBX 8 18 0 0
BITMAP
FC
86
86
FE
93
93
93
93
93
93
93
93
93
93
83
83
FF
7F
ENDCHAR
STARTCHAR U+00FA
ENCODING 250
SWIDTH 400 0
DWIDTH 8 0
BBX 8 18 0 0
BITMAP
7E
43
43
FF
93
93
93
93
93
93
93
93
93
93
83
83
FF
7F
ENDCHAR
STARTCHAR U+00FB
ENCODING 251
SWIDTH 400 0
DWIDTH 8 0
BBX 8 19 0 0
BITMAP
7C
C6
83
93
FF
93
93
93
93
93
93
93
93
93
93
83
83
FF
7F
ENDCHAR
STARTCHAR U+00FC
ENCODING 252
SWIDTH 400 0
DWIDTH 8 0
BBX 8 18 0 0
BITMAP
FE
93
93
FF
93
93
93
93
93
93
93
93
93
93
83
83
FF
7F
ENDCHAR
STARTCHAR U+00FD
ENCODING 253
SWIDTH 400 0
DWIDTH 8 0
BBX 8 18 0 0
BITMAP
7E
43
43
FF
93
93
93
93
93
83
83
F3
73
F3
83
83
FF
7F
ENDCHAR
STARTCHAR U+00FF
ENCODING 255
SWIDTH 400 0
DWIDTH 8 0
BBX 8 18 0 0
BITMAP
FE
93
93
FF
93
93
93
93
93
83
83
F3
73
F3
83
83
FF
7F
ENDCHAR
STARTCHAR U+010D
ENCODING 269
SWIDTH 400 0
DWIDTH 8 0
BBX 8 19 0 0
BITMAP
FE
93
83
C7
FF
83
83
9F
9F
98
98
98
98
98
9E
83
83
FF
7F
ENDCHAR
STARTCHAR U+010F
ENCODING 271
SWIDTH 450 0
DWIDTH 9 0
BBX 9 20 0 0
BITMAP
FF00
9980
9980
9980
9980
F980
8180
8180
9980
9980
9980
9980
9980
9980
9980
9980
8180
8180
FF80
7F80
ENDCHAR
STARTCHAR U+011B
ENCODING 283
SWIDTH 400 0
DWIDTH 8 0
BBX 8 19 0 0
BITMAP
FE
93
83
C7
FF
83
83
93
93
93
83
83
9F
9F
9E
83
83
FF
7F
ENDCHAR
STARTCHAR U+0148
ENCODING 328
SWIDTH 400 0
DWIDTH 8 0
BBX 8 19 0 0
BITMAP
FE
93
83
C7
FF
86
83
93
93
93
93
93
93
93
93
93
93
FF
7F
ENDCHAR
STARTCHAR U+0153
ENCODING 339
SWIDTH 550 0
DWIDTH 11 0
BBX 11 15 0 0
BITMAP
FFC0
8060
8060
9260
9260
9260
9060
9060
93E0
93E0
93C0
8060
8060
FFE0
7FE0
ENDCHAR
STARTCHAR U+0159
ENCODING 345
SWIDTH 400 0
DWIDTH 8 0
BBX 8 19 0 0
BITMAP
FE
93
83
C7
FF
86
86
9E
9E
98
98
98
98
98
98
98
98
F8
78
ENDCHAR
STARTCHAR U+0161
ENCODING 353
SWIDTH 400 0
DWIDTH 8 0
BBX 8 19 0 0
BITMAP
FE
93
83
C7
FF
83
83
9F
9F
9E
83
83
F3
73
F3
83
83
FF
7F
ENDCHAR
STARTCHAR U+0165
ENCODING 357
SWIDTH 450 0
DWIDTH 9 0
BBX 9 20 0 0
BITMAP
7F00
4980
4980
4980
4980
CF80
8780
8600
CE00
4E00
4C00
4C00
4C00
4C00
4C00
4C00
4600
4600
7E00
3E00
ENDCHAR
STARTCHAR U+016F
ENCODING 367
SWIDTH 400 0
DWIDTH 8 0
BBX 8 19 0 0
BITMAP
7C
46
56
46
FE
93
93
93
93
93
93
93
93
93
93
83
83
FF
7F
ENDCHAR
STARTCHAR U+017E
ENCODING 382
SWIDTH 400 0
DWIDTH 8 0
BBX 8 19 0 0
BITMAP
FE
93
83
C7
FF
83
83
F3
73
63
C7
8F
9E
9C
9E
83
83
FF
7F
ENDCHAR
STARTCHAR U+2018
ENCODING 8216
SWIDTH 250 0
DWIDTH 5 0
BBX 5 10 0 10
BITMAP
F0
98
98
98
98
98
98
98
F8
78
ENDCHAR
STARTCHAR U+2019
ENCODING 8217
SWIDTH 250 0
DWIDTH 5 0
BBX 5 10 0 10
BITMAP
F0
98
98
98
98
98
98
98
F8
78
ENDCHAR
STARTCHAR U+201A
ENCODING 8218
SWIDTH 250 0
DWIDTH 5 0
BBX 5 10 0 0
BITMAP
F0
98
98
98
98
98
98
98
F8
78
ENDCHAR
STARTCHAR U+201C
ENCODING 8220
SWIDTH 400 0
DWIDTH 8 0
BBX 8 10 0 10
BITMAP
FE
93
93
93
93
93
93
93
FF
7F
ENDCHAR
STARTCHAR U+201D
ENCODING 8221
SWIDTH 400 0
DWIDTH 8 0
BBX 8 10 0 10
BITMAP
FE
93
93
93
93
93
93
93
FF
7F
ENDCHAR
STARTCHAR U+201E
ENCODING 8222
SWIDTH 400 0
DWIDTH 8 0
BBX 8 10 0 0
BITMAP
FE
93
93
93
93
93
93
93
FF
7F
ENDCHAR
STARTCHAR U+20AC
ENCODING 8364
SWIDTH 450 0
DWIDTH 9 0
BBX 9 20 0 0
BITMAP
7F00
4180
4180
4F80
4F80
4C00
4C00
CE00
8300
CF00
8300
CF00
4F00
4C00
4C00
4F00
4180
4180
7F80
3F80
ENDCHAR
ENDFONT
