STARTFONT 2.1
FONT -PixelFonts-pixelfont_3d_7x5_thin-Thin-R-Normal--11-110-75-75-P-0-ISO10646-1
SIZE 11 75 75
FONTBOUNDINGBOX 9 10 0 1
STARTPROPERTIES 7
FOUNDRY "PixelFonts"
FAMILY_NAME "pixelfont_3d_7x5_thin"
WEIGHT_NAME "Thin"
PIXEL_SIZE 11
FONT_ASCENT 11
FONT_DESCENT 0
DEFAULT_CHAR 32
ENDPROPERTIES
CHARS 95
STARTCHAR U+0020
ENCODING 32
SWIDTH 364 0
DWIDTH 4 0
BBX 1 1 0 0
BITMAP
00
ENDCHAR
STARTCHAR U+0021
ENCODING 33
SWIDTH 455 0
DWIDTH 5 0
BBX 4 10 0 1
BITMAP
E0
B0
B0
B0
B0
B0
F0
B0
F0
70
ENDCHAR
STARTCHAR U+0022
ENCODING 34
SWIDTH 636 0
DWIDTH 7 0
BBX 6 5 0 6
BITMAP
F8
AC
AC
FC
7C
ENDCHAR
STARTCHAR U+0023
ENCODING 35
SWIDTH 818 0
DWIDTH 9 0
BBX 8 10 0 1
BITMAP
7C
56
D6
83
D7
83
D7
57
7E
3E
ENDCHAR
STARTCHAR U+0024
ENCODING 36
SWIDTH 818 0
DWIDTH 9 0
BBX 8 10 0 1
BITMAP
38
EE
83
AF
83
EB
83
EF
7F
1C
ENDCHAR
STARTCHAR U+0025
ENCODING 37
SWIDTH 818 0
DWIDTH 9 0
BBX 8 10 0 1
BITMAP
F0
9E
9B
F7
6F
DE
B3
F3
7F
0F
ENDCHAR
STARTCHAR U+0026
ENCODING 38
SWIDTH 818 0
DWIDTH 9 0
BBX 8 10 0 1
BITMAP
78
CC
B6
AE
DE
AB
B7
CB
7F
3F
ENDCHAR
STARTCHAR U+0027
ENCODING 39
SWIDTH 455 0
DWIDTH 5 0
BBX 4 6 0 5
BITMAP
E0
B0
B0
B0
F0
70
ENDCHAR
STARTCHAR U+0028
ENCODING 40
SWIDTH 545 0
DWIDTH 6 0
BBX 5 10 0 1
BITMAP
70
D8
B8
B8
B0
B0
B0
D8
78
38
ENDCHAR
STARTCHAR U+0029
ENCODING 41
SWIDTH 545 0
DWIDTH 6 0
BBX 5 10 0 1
BITMAP
E0
B0
D8
58
58
58
D8
B8
F8
70
ENDCHAR
STARTCHAR U+002A
ENCODING 42
SWIDTH 818 0
DWIDTH 9 0
BBX 8 8 0 2
BITMAP
FE
AB
C7
93
C7
AB
FF
7F
ENDCHAR
STARTCHAR U+002B
ENCODING 43
SWIDTH 818 0
DWIDTH 9 0
BBX 8 8 0 2
BITMAP
38
2C
EE
83
EF
6F
3C
1C
ENDCHAR
STARTCHAR U+002C
ENCODING 44
SWIDTH 545 0
DWIDTH 6 0
BBX 5 6 0 1
BITMAP
70
58
D8
B8
F8
70
ENDCHAR
STARTCHAR U+002D
ENCODING 45
SWIDTH 818 0
DWIDTH 9 0
BBX 8 4 0 4
BITMAP
FE
83
FF
7F
ENDCHAR
STARTCHAR U+002E
ENCODING 46
SWIDTH 455 0
DWIDTH 5 0
BBX 4 4 0 1
BITMAP
E0
B0
F0
70
ENDCHAR
STARTCHAR U+002F
ENCODING 47
SWIDTH 636 0
DWIDTH 7 0
BBX 6 10 0 1
BITMAP
38
2C
6C
5C
5C
D8
B8
B8
F0
70
ENDCHAR
STARTCHAR U+0030
ENCODING 48
SWIDTH 727 0
DWIDTH 8 0
BBX 7 10 0 1
BITMAP
FC
86
B6
B6
B6
B6
B6
86
FE
7E
ENDCHAR
STARTCHAR U+0031
ENCODING 49
SWIDTH 455 0
DWIDTH 5 0
BBX 4 10 0 1
BITMAP
E0
B0
B0
B0
B0
B0
B0
B0
F0
70
ENDCHAR
STARTCHAR U+0032
ENCODING 50
SWIDTH 727 0
DWIDTH 8 0
BBX 7 10 0 1
BITMAP
FC
86
B6
F6
86
BE
BE
86
FE
7E
ENDCHAR
STARTCHAR U+0033
ENCODING 51
SWIDTH 727 0
DWIDTH 8 0
BBX 7 10 0 1
BITMAP
FC
86
F6
76
46
76
F6
86
FE
7E
ENDCHAR
STARTCHAR U+0034
ENCODING 52
SWIDTH 727 0
DWIDTH 8 0
BBX 7 10 0 1
BITMAP
FC
B6
B6
B6
86
F6
76
16
1E
0E
ENDCHAR
STARTCHAR U+0035
ENCODING 53
SWIDTH 727 0
DWIDTH 8 0
BBX 7 10 0 1
BITMAP
FC
86
BE
BE
86
F6
F6
86
FE
7E
ENDCHAR
STARTCHAR U+0036
ENCODING 54
SWIDTH 727 0
DWIDTH 8 0
BBX 7 10 0 1
BITMAP
FC
86
B6
BE
86
B6
B6
86
FE
7E
ENDCHAR
STARTCHAR U+0037
ENCODING 55
SWIDTH 727 0
DWIDTH 8 0
BBX 7 10 0 1
BITMAP
FC
86
B6
F6
76
16
16
16
1E
0E
ENDCHAR
STARTCHAR U+0038
ENCODING 56
SWIDTH 727 0
DWIDTH 8 0
BBX 7 10 0 1
BITMAP
FC
86
B6
B6
86
B6
B6
86
FE
7E
ENDCHAR
STARTCHAR U+0039
ENCODING 57
SWIDTH 727 0
DWIDTH 8 0
BBX 7 10 0 1
BITMAP
FC
86
B6
B6
86
F6
B6
86
FE
7E
ENDCHAR
STARTCHAR U+003A
ENCODING 58
SWIDTH 455 0
DWIDTH 5 0
BBX 4 8 0 2
BITMAP
E0
B0
B0
F0
B0
B0
F0
70
ENDCHAR
STARTCHAR U+003B
ENCODING 59
SWIDTH 455 0
DWIDTH 5 0
BBX 4 9 0 1
BITMAP
E0
B0
B0
F0
B0
B0
B0
F0
70
ENDCHAR
STARTCHAR U+003C
ENCODING 60
SWIDTH 636 0
DWIDTH 7 0
BBX 6 8 0 2
BITMAP
38
6C
DC
BC
D8
6C
3C
1C
ENDCHAR
STARTCHAR U+003D
ENCODING 61
SWIDTH 818 0
DWIDTH 9 0
BBX 8 6 0 3
BITMAP
FE
83
FF
83
FF
7F
ENDCHAR
STARTCHAR U+003E
ENCODING 62
SWIDTH 636 0
DWIDTH 7 0
BBX 6 8 0 2
BITMAP
E0
B0
D8
6C
DC
BC
F8
70
ENDCHAR
STARTCHAR U+003F
ENCODING 63
SWIDTH 818 0
DWIDTH 9 0
BBX 8 10 0 1
BITMAP
FE
83
BB
FB
63
2F
3F
2C
3C
1C
ENDCHAR
STARTCHAR U+0040
ENCODING 64
SWIDTH 818 0
DWIDTH 9 0
BBX 8 10 0 1
BITMAP
FE
83
BB
AB
AB
A3
BF
83
FF
7F
ENDCHAR
STARTCHAR U+0041
ENCODING 65
SWIDTH 727 0
DWIDTH 8 0
BBX 7 10 0 1
BITMAP
FC
86
B6
B6
B6
86
B6
B6
FE
7E
ENDCHAR
STARTCHAR U+0042
ENCODING 66
SWIDTH 727 0
DWIDTH 8 0
BBX 7 10 0 1
BITMAP
F8
8C
B6
B6
86
B6
B6
8E
FE
7C
ENDCHAR
STARTCHAR U+0043
ENCODING 67
SWIDTH 727 0
DWIDTH 8 0
BBX 7 10 0 1
BITMAP
FC
86
B6
BE
BE
BC
B6
86
FE
7E
ENDCHAR
STARTCHAR U+0044
ENCODING 68
SWIDTH 727 0
DWIDTH 8 0
BBX 7 10 0 1
BITMAP
F8
8C
B6
B6
B6
B6
B6
8E
FE
7C
ENDCHAR
STARTCHAR U+0045
ENCODING 69
SWIDTH 727 0
DWIDTH 8 0
BBX 7 10 0 1
BITMAP
FC
86
BE
BE
8C
BC
BC
86
FE
7E
ENDCHAR
STARTCHAR U+0046
ENCODING 70
SWIDTH 727 0
DWIDTH 8 0
BBX 7 10 0 1
BITMAP
FC
86
BE
BE
8C
BC
BC
B0
F0
70
ENDCHAR
STARTCHAR U+0047
ENCODING 71
SWIDTH 727 0
DWIDTH 8 0
BBX 7 10 0 1
BITMAP
FC
86
B6
BE
A6
B6
B6
86
FE
7E
ENDCHAR
STARTCHAR U+0048
ENCODING 72
SWIDTH 727 0
DWIDTH 8 0
BBX 7 10 0 1
BITMAP
FC
B6
B6
B6
86
B6
B6
B6
FE
7E
ENDCHAR
STARTCHAR U+0049
ENCODING 73
SWIDTH 455 0
DWIDTH 5 0
BBX 4 10 0 1
BITMAP
E0
B0
B0
B0
B0
B0
B0
B0
F0
70
ENDCHAR
STARTCHAR U+004A
ENCODING 74
SWIDTH 727 0
DWIDTH 8 0
BBX 7 10 0 1
BITMAP
1C
16
16
16
F6
B6
B6
86
FE
7E
ENDCHAR
STARTCHAR U+004B
ENCODING 75
SWIDTH 727 0
DWIDTH 8 0
BBX 7 10 0 1
BITMAP
FC
B6
B6
AE
9E
AC
B6
B6
FE
7E
ENDCHAR
STARTCHAR U+004C
ENCODING 76
SWIDTH 727 0
DWIDTH 8 0
BBX 7 10 0 1
BITMAP
E0
B0
B0
B0
B0
B0
BC
86
FE
7E
ENDCHAR
STARTCHAR U+004D
ENCODING 77
SWIDTH 818 0
DWIDTH 9 0
BBX 8 10 0 1
BITMAP
FE
83
AB
AB
AB
BB
BB
BB
FF
77
ENDCHAR
STARTCHAR U+004E
ENCODING 78
SWIDTH 727 0
DWIDTH 8 0
BBX 7 10 0 1
BITMAP
FC
B6
B6
96
A6
B6
B6
B6
FE
7E
ENDCHAR
STARTCHAR U+004F
ENCODING 79
SWIDTH 727 0
DWIDTH 8 0
BBX 7 10 0 1
BITMAP
FC
86
B6
B6
B6
B6
B6
86
FE
7E
ENDCHAR
STARTCHAR U+0050
ENCODING 80
SWIDTH 727 0
DWIDTH 8 0
BBX 7 10 0 1
BITMAP
FC
86
B6
B6
86
BE
BE
B0
F0
70
ENDCHAR
STARTCHAR U+0051
ENCODING 81
SWIDTH 727 0
DWIDTH 8 0
BBX 7 10 0 1
BITMAP
FC
86
B6
B6
B6
A6
A6
86
FE
7E
ENDCHAR
STARTCHAR U+0052
ENCODING 82
SWIDTH 727 0
DWIDTH 8 0
BBX 7 10 0 1
BITMAP
FC
86
B6
B6
86
AE
B6
B6
FE
7E
ENDCHAR
STARTCHAR U+0053
ENCODING 83
SWIDTH 727 0
DWIDTH 8 0
BBX 7 10 0 1
BITMAP
FC
86
BE
BE
86
F6
F6
86
FE
7E
ENDCHAR
STARTCHAR U+0054
ENCODING 84
SWIDTH 818 0
DWIDTH 9 0
BBX 8 10 0 1
BITMAP
FE
83
EF
6F
2C
2C
2C
2C
3C
1C
ENDCHAR
STARTCHAR U+0055
ENCODING 85
SWIDTH 727 0
DWIDTH 8 0
BBX 7 10 0 1
BITMAP
FC
B6
B6
B6
B6
B6
B6
86
FE
7E
ENDCHAR
STARTCHAR U+0056
ENCODING 86
SWIDTH 818 0
DWIDTH 9 0
BBX 8 10 0 1
BITMAP
EE
BB
BB
BB
BB
BB
D7
6F
3E
1C
ENDCHAR
STARTCHAR U+0057
ENCODING 87
SWIDTH 818 0
DWIDTH 9 0
BBX 8 10 0 1
BITMAP
EE
BB
BB
BB
AB
AB
AB
83
FF
7F
ENDCHAR
STARTCHAR U+0058
ENCODING 88
SWIDTH 818 0
DWIDTH 9 0
BBX 8 10 0 1
BITMAP
EE
BB
BB
D7
6F
D6
BB
BB
FF
77
ENDCHAR
STARTCHAR U+0059
ENCODING 89
SWIDTH 818 0
DWIDTH 9 0
BBX 8 10 0 1
BITMAP
EE
BB
BB
D7
6F
2E
2C
2C
3C
1C
ENDCHAR
STARTCHAR U+005A
ENCODING 90
SWIDTH 818 0
DWIDTH 9 0
BBX 8 10 0 1
BITMAP
FE
83
FB
77
6F
DE
BE
83
FF
7F
ENDCHAR
STARTCHAR U+005B
ENCODING 91
SWIDTH 545 0
DWIDTH 6 0
BBX 5 10 0 1
BITMAP
F0
98
B8
B8
B0
B0
B0
98
F8
78
ENDCHAR
STARTCHAR U+005C
ENCODING 92
SWIDTH 636 0
DWIDTH 7 0
BBX 6 10 0 1
BITMAP
E0
B0
B0
D8
58
58
6C
2C
3C
1C
ENDCHAR
STARTCHAR U+005D
ENCODING 93
SWIDTH 545 0
DWIDTH 6 0
BBX 5 10 0 1
BITMAP
F0
98
D8
58
58
58
D8
98
F8
78
ENDCHAR
STARTCHAR U+005E
ENCODING 94
SWIDTH 818 0
DWIDTH 9 0
BBX 8 6 0 5
BITMAP
38
6C
D6
BB
FF
77
ENDCHAR
STARTCHAR U+005F
ENCODING 95
SWIDTH 818 0
DWIDTH 9 0
BBX 8 4 0 1
BITMAP
FE
83
FF
7F
ENDCHAR
STARTCHAR U+0060
ENCODING 96
SWIDTH 636 0
DWIDTH 7 0
BBX 6 6 0 5
BITMAP
E0
B0
D8
6C
3C
1C
ENDCHAR
STARTCHAR U+0061
ENCODING 97
SWIDTH 727 0
DWIDTH 8 0
BBX 7 8 0 1
BITMAP
7C
46
F6
86
B6
86
FE
7E
ENDCHAR
STARTCHAR U+0062
ENCODING 98
SWIDTH 727 0
DWIDTH 8 0
BBX 7 10 0 1
BITMAP
E0
B0
BC
86
B6
B6
B6
86
FE
7E
ENDCHAR
STARTCHAR U+0063
ENCODING 99
SWIDTH 727 0
DWIDTH 8 0
BBX 7 8 0 1
BITMAP
FC
86
BE
BE
BC
86
FE
7E
ENDCHAR
STARTCHAR U+0064
ENCODING 100
SWIDTH 727 0
DWIDTH 8 0
BBX 7 10 0 1
BITMAP
1C
16
F6
86
B6
B6
B6
86
FE
7E
ENDCHAR
STARTCHAR U+0065
ENCODING 101
SWIDTH 727 0
DWIDTH 8 0
BBX 7 8 0 1
BITMAP
FC
86
B6
86
BE
86
FE
7E
ENDCHAR
STARTCHAR U+0066
ENCODING 102
SWIDTH 636 0
DWIDTH 7 0
BBX 6 10 0 1
BITMAP
78
4C
DC
8C
DC
5C
58
58
78
38
ENDCHAR
STARTCHAR U+0067
ENCODING 103
SWIDTH 727 0
DWIDTH 8 0
BBX 7 8 0 1
BITMAP
FC
86
B6
86
F6
86
FE
7E
ENDCHAR
STARTCHAR U+0068
ENCODING 104
SWIDTH 727 0
DWIDTH 8 0
BBX 7 10 0 1
BITMAP
E0
B0
BC
86
B6
B6
B6
B6
FE
7E
ENDCHAR
STARTCHAR U+0069
ENCODING 105
SWIDTH 455 0
DWIDTH 5 0
BBX 4 10 0 1
BITMAP
E0
B0
F0
B0
B0
B0
B0
B0
F0
70
ENDCHAR
STARTCHAR U+006A
ENCODING 106
SWIDTH 636 0
DWIDTH 7 0
BBX 6 10 0 1
BITMAP
38
2C
3C
2C
2C
EC
AC
8C
FC
7C
ENDCHAR
STARTCHAR U+006B
ENCODING 107
SWIDTH 727 0
DWIDTH 8 0
BBX 7 10 0 1
BITMAP
E0
B0
BC
B6
AE
9E
AC
B6
FE
7E
ENDCHAR
STARTCHAR U+006C
ENCODING 108
SWIDTH 455 0
DWIDTH 5 0
BBX 4 10 0 1
BITMAP
E0
B0
B0
B0
B0
B0
B0
B0
F0
70
ENDCHAR
STARTCHAR U+006D
ENCODING 109
SWIDTH 818 0
DWIDTH 9 0
BBX 8 8 0 1
BITMAP
FE
83
AB
AB
AB
AB
FF
7F
ENDCHAR
STARTCHAR U+006E
ENCODING 110
SWIDTH 727 0
DWIDTH 8 0
BBX 7 8 0 1
BITMAP
F8
8C
B6
B6
B6
B6
FE
7E
ENDCHAR
STARTCHAR U+006F
ENCODING 111
SWIDTH 727 0
DWIDTH 8 0
BBX 7 8 0 1
BITMAP
FC
86
B6
B6
B6
86
FE
7E
ENDCHAR
STARTCHAR U+0070
ENCODING 112
SWIDTH 727 0
DWIDTH 8 0
BBX 7 8 0 1
BITMAP
FC
86
B6
86
BE
BE
F0
70
ENDCHAR
STARTCHAR U+0071
ENCODING 113
SWIDTH 727 0
DWIDTH 8 0
BBX 7 8 0 1
BITMAP
FC
86
B6
86
F6
76
1E
0E
ENDCHAR
STARTCHAR U+0072
ENCODING 114
SWIDTH 636 0
DWIDTH 7 0
BBX 6 8 0 1
BITMAP
F8
8C
BC
BC
B0
B0
F0
70
ENDCHAR
STARTCHAR U+0073
ENCODING 115
SWIDTH 727 0
DWIDTH 8 0
BBX 7 8 0 1
BITMAP
FC
86
BE
86
F6
86
FE
7E
ENDCHAR
STARTCHAR U+0074
ENCODING 116
SWIDTH 636 0
DWIDTH 7 0
BBX 6 10 0 1
BITMAP
70
58
D8
8C
DC
5C
58
4C
7C
3C
ENDCHAR
STARTCHAR U+0075
ENCODING 117
SWIDTH 727 0
DWIDTH 8 0
BBX 7 8 0 1
BITMAP
FC
B6
B6
B6
B6
86
FE
7E
ENDCHAR
STARTCHAR U+0076
ENCODING 118
SWIDTH 727 0
DWIDTH 8 0
BBX 7 8 0 1
BITMAP
FC
B6
B6
B6
D6
66
3E
1E
ENDCHAR
STARTCHAR U+0077
ENCODING 119
SWIDTH 818 0
DWIDTH 9 0
BBX 8 8 0 1
BITMAP
EE
BB
BB
AB
AB
83
FF
7F
ENDCHAR
STARTCHAR U+0078
ENCODING 120
SWIDTH 818 0
DWIDTH 9 0
BBX 8 8 0 1
BITMAP
EE
BB
D7
6F
D6
BB
FF
77
ENDCHAR
STARTCHAR U+0079
ENCODING 121
SWIDTH 727 0
DWIDTH 8 0
BBX 7 8 0 1
BITMAP
FC
B6
B6
86
F6
86
FE
7E
ENDCHAR
STARTCHAR U+007A
ENCODING 122
SWIDTH 727 0
DWIDTH 8 0
BBX 7 8 0 1
BITMAP
FC
86
EE
DE
BC
86
FE
7E
ENDCHAR
STARTCHAR U+007B
ENCODING 123
SWIDTH 636 0
DWIDTH 7 0
BBX 6 10 0 1
BITMAP
78
4C
DC
9C
B8
98
D8
4C
7C
3C
ENDCHAR
STARTCHAR U+007C
ENCODING 124
SWIDTH 455 0
DWIDTH 5 0
BBX 4 10 0 1
BITMAP
E0
B0
B0
B0
B0
B0
B0
B0
F0
70
ENDCHAR
STARTCHAR U+007D
ENCODING 125
SWIDTH 636 0
DWIDTH 7 0
BBX 6 10 0 1
BITMAP
F0
98
D8
4C
6C
4C
DC
9C
F8
78
ENDCHAR
STARTCHAR U+007E
ENCODING 126
SWIDTH 909 0
DWIDTH 10 0
BBX 9 5 0 3
BITMAP
7F00
CD80
B380
FF80
7F00
ENDCHAR
ENDFONT
