STARTFONT 2.1
FONT -PixelFonts-pixelfont_3d_condensed_15x7_semibold-SemiBold-R-Normal--18-180-75-75-P-0-ISO10646-1
SIZE 18 75 75
FONTBOUNDINGBOX 11 18 0 0
STARTPROPERTIES 7
FOUNDRY "PixelFonts"
FAMILY_NAME "pixelfont_3d_condensed_15x7_semibold"
WEIGHT_NAME "SemiBold"
PIXEL_SIZE 18
FONT_ASCENT 18
FONT_DESCENT 0
DEFAULT_CHAR 32
ENDPROPERTIES
CHARS 95
STARTCHAR U+0020
ENCODING 32
SWIDTH 389 0
DWIDTH 7 0
BBX 1 1 0 0
BITMAP
00
ENDCHAR
STARTCHAR U+0021
ENCODING 33
SWIDTH 278 0
DWIDTH 5 0
BBX 5 18 0 0
BITMAP
F0
98
98
98
98
98
98
98
98
98
98
F8
78
F0
98
98
F8
78
ENDCHAR
STARTCHAR U+0022
ENCODING 34
SWIDTH 444 0
DWIDTH 8 0
BBX 8 7 0 11
BITMAP
FE
93
93
93
93
FF
7F
ENDCHAR
STARTCHAR U+0023
ENCODING 35
SWIDTH 611 0
DWIDTH 11 0
BBX 11 16 0 1
BITMAP
7F80
4CC0
4CC0
CCC0
8060
8060
CCE0
4CE0
4CC0
CCC0
8060
8060
CCE0
4CE0
7FC0
3FC0
ENDCHAR
STARTCHAR U+0024
ENCODING 36
SWIDTH 556 0
DWIDTH 10 0
BBX 10 18 0 0
BITMAP
1C00
F780
80C0
80C0
97C0
97C0
9780
80C0
80C0
F4C0
74C0
14C0
F4C0
80C0
80C0
F7C0
7FC0
0E00
ENDCHAR
STARTCHAR U+0025
ENCODING 37
SWIDTH 556 0
DWIDTH 10 0
BBX 10 18 0 0
BITMAP
F800
8C00
8C00
8F80
FCC0
78C0
18C0
31C0
63C0
C780
8F00
8E00
9F80
F8C0
78C0
08C0
0FC0
07C0
ENDCHAR
STARTCHAR U+0026
ENCODING 38
SWIDTH 556 0
DWIDTH 10 0
BBX 10 18 0 0
BITMAP
7E00
C300
8180
9980
9980
9980
C380
C380
92C0
90C0
99C0
99C0
9980
98C0
80C0
C2C0
7FC0
3FC0
ENDCHAR
STARTCHAR U+0027
ENCODING 39
SWIDTH 278 0
DWIDTH 5 0
BBX 5 7 0 11
BITMAP
F0
98
98
98
98
F8
78
ENDCHAR
STARTCHAR U+0028
ENCODING 40
SWIDTH 333 0
DWIDTH 6 0
BBX 6 18 0 0
BITMAP
78
CC
8C
9C
9C
98
98
98
98
98
98
98
98
98
8C
CC
7C
3C
ENDCHAR
STARTCHAR U+0029
ENCODING 41
SWIDTH 333 0
DWIDTH 6 0
BBX 6 18 0 0
BITMAP
F0
98
8C
CC
4C
4C
4C
4C
4C
4C
4C
4C
4C
CC
8C
9C
FC
78
ENDCHAR
STARTCHAR U+002A
ENCODING 42
SWIDTH 611 0
DWIDTH 11 0
BBX 11 11 0 4
BITMAP
FFC0
9260
9260
9260
C0E0
C0E0
8060
9260
9260
FFE0
7FE0
ENDCHAR
STARTCHAR U+002B
ENCODING 43
SWIDTH 500 0
DWIDTH 9 0
BBX 9 9 0 5
BITMAP
3C00
2600
E700
8180
8180
E780
6780
3E00
1E00
ENDCHAR
STARTCHAR U+002C
ENCODING 44
SWIDTH 278 0
DWIDTH 5 0
BBX 5 7 0 0
BITMAP
F0
98
98
98
98
F8
78
ENDCHAR
STARTCHAR U+002D
ENCODING 45
SWIDTH 500 0
DWIDTH 9 0
BBX 9 5 0 7
BITMAP
FF00
8180
8180
FF80
7F80
ENDCHAR
STARTCHAR U+002E
ENCODING 46
SWIDTH 278 0
DWIDTH 5 0
BBX 5 5 0 0
BITMAP
F0
98
98
F8
78
ENDCHAR
STARTCHAR U+002F
ENCODING 47
SWIDTH 500 0
DWIDTH 9 0
BBX 9 18 0 0
BITMAP
0F00
0980
0980
0980
1980
1380
3380
2700
2700
6600
4E00
CE00
9C00
9C00
9800
9800
F800
7800
ENDCHAR
STARTCHAR U+0030
ENCODING 48
SWIDTH 500 0
DWIDTH 9 0
BBX 9 18 0 0
BITMAP
FF00
8180
8180
9980
9980
9980
9980
9980
9980
9980
9980
9980
9980
9980
8180
8180
FF80
7F80
ENDCHAR
STARTCHAR U+0031
ENCODING 49
SWIDTH 278 0
DWIDTH 5 0
BBX 5 18 0 0
BITMAP
F0
98
98
98
98
98
98
98
98
98
98
98
98
98
98
98
F8
78
ENDCHAR
STARTCHAR U+0032
ENCODING 50
SWIDTH 500 0
DWIDTH 9 0
BBX 9 18 0 0
BITMAP
FF00
8180
8180
9980
F980
7980
F980
8180
8180
9F80
9F80
9800
9800
9F00
8180
8180
FF80
7F80
ENDCHAR
STARTCHAR U+0033
ENCODING 51
SWIDTH 500 0
DWIDTH 9 0
BBX 9 18 0 0
BITMAP
FF00
8180
8180
F980
7980
0980
3980
2180
2180
3980
1980
0980
0980
F980
8180
8180
FF80
7F80
ENDCHAR
STARTCHAR U+0034
ENCODING 52
SWIDTH 500 0
DWIDTH 9 0
BBX 9 18 0 0
BITMAP
FF00
9980
9980
9980
9980
9980
9980
8180
8180
F980
7980
0980
0980
0980
0980
0980
0F80
0780
ENDCHAR
STARTCHAR U+0035
ENCODING 53
SWIDTH 500 0
DWIDTH 9 0
BBX 9 18 0 0
BITMAP
FF00
8180
8180
9F80
9F80
9800
9F00
8180
8180
F980
7980
0980
F980
9980
8180
8180
FF80
7F80
ENDCHAR
STARTCHAR U+0036
ENCODING 54
SWIDTH 500 0
DWIDTH 9 0
BBX 9 18 0 0
BITMAP
FF00
8180
8180
9980
9F80
9F80
9F00
8180
8180
9980
9980
9980
9980
9980
8180
8180
FF80
7F80
ENDCHAR
STARTCHAR U+0037
ENCODING 55
SWIDTH 500 0
DWIDTH 9 0
BBX 9 18 0 0
BITMAP
FF00
8180
8180
9980
F980
7980
0980
0980
0980
0980
0980
0980
0980
0980
0980
0980
0F80
0780
ENDCHAR
STARTCHAR U+0038
ENCODING 56
SWIDTH 500 0
DWIDTH 9 0
BBX 9 18 0 0
BITMAP
FF00
8180
8180
9980
9980
9980
9980
8180
8180
9980
9980
9980
9980
9980
8180
8180
FF80
7F80
ENDCHAR
STARTCHAR U+0039
ENCODING 57
SWIDTH 500 0
DWIDTH 9 0
BBX 9 18 0 0
BITMAP
FF00
8180
8180
9980
9980
9980
9980
8180
8180
F980
7980
0980
F980
9980
8180
8180
FF80
7F80
ENDCHAR
STARTCHAR U+003A
ENCODING 58
SWIDTH 278 0
DWIDTH 5 0
BBX 5 11 0 1
BITMAP
F0
98
98
F8
78
00
F0
98
98
F8
78
ENDCHAR
STARTCHAR U+003B
ENCODING 59
SWIDTH 278 0
DWIDTH 5 0
BBX 5 12 0 0
BITMAP
F0
98
98
F8
78
F0
98
98
98
98
F8
78
ENDCHAR
STARTCHAR U+003C
ENCODING 60
SWIDTH 444 0
DWIDTH 8 0
BBX 8 13 0 3
BITMAP
1E
33
63
C7
8F
9E
9C
8C
C6
63
33
1F
0F
ENDCHAR
STARTCHAR U+003D
ENCODING 61
SWIDTH 500 0
DWIDTH 9 0
BBX 9 9 0 5
BITMAP
FF00
8180
8180
FF80
FF80
8180
8180
FF80
7F80
ENDCHAR
STARTCHAR U+003E
ENCODING 62
SWIDTH 444 0
DWIDTH 8 0
BBX 8 13 0 3
BITMAP
F0
98
8C
C6
63
33
33
63
C7
8F
9E
FC
78
ENDCHAR
STARTCHAR U+003F
ENCODING 63
SWIDTH 500 0
DWIDTH 9 0
BBX 9 18 0 0
BITMAP
FF00
8180
8180
9980
F980
7980
3980
2180
2180
2780
2780
3E00
1E00
3C00
2600
2600
3E00
1E00
ENDCHAR
STARTCHAR U+0040
ENCODING 64
SWIDTH 611 0
DWIDTH 11 0
BBX 11 16 0 2
BITMAP
FFC0
8060
8060
9E60
9060
9260
9260
9260
9060
9FE0
9FE0
9FC0
8060
8060
FFE0
7FE0
ENDCHAR
STARTCHAR U+0041
ENCODING 65
SWIDTH 500 0
DWIDTH 9 0
BBX 9 18 0 0
BITMAP
FF00
8180
8180
9980
9980
9980
9980
8180
8180
9980
9980
9980
9980
9980
9980
9980
FF80
7F80
ENDCHAR
STARTCHAR U+0042
ENCODING 66
SWIDTH 500 0
DWIDTH 9 0
BBX 9 18 0 0
BITMAP
FE00
8300
8180
9980
9980
9980
9980
8180
8180
9980
9980
9980
9980
9980
8180
8380
FF80
7F00
ENDCHAR
STARTCHAR U+0043
ENCODING 67
SWIDTH 500 0
DWIDTH 9 0
BBX 9 18 0 0
BITMAP
FF00
8180
8180
9980
9F80
9F80
9800
9800
9800
9800
9800
9800
9F00
9980
8180
8180
FF80
7F80
ENDCHAR
STARTCHAR U+0044
ENCODING 68
SWIDTH 500 0
DWIDTH 9 0
BBX 9 18 0 0
BITMAP
FE00
8300
8180
9980
9980
9980
9980
9980
9980
9980
9980
9980
9980
9980
8180
8380
FF80
7F00
ENDCHAR
STARTCHAR U+0045
ENCODING 69
SWIDTH 500 0
DWIDTH 9 0
BBX 9 18 0 0
BITMAP
FF00
8180
8180
9F80
9F80
9800
9E00
8300
8300
9F00
9F00
9800
9800
9F00
8180
8180
FF80
7F80
ENDCHAR
STARTCHAR U+0046
ENCODING 70
SWIDTH 500 0
DWIDTH 9 0
BBX 9 18 0 0
BITMAP
FF00
8180
8180
9F80
9F80
9800
9E00
8300
8300
9F00
9F00
9800
9800
9800
9800
9800
F800
7800
ENDCHAR
STARTCHAR U+0047
ENCODING 71
SWIDTH 500 0
DWIDTH 9 0
BBX 9 18 0 0
BITMAP
FF00
8180
8180
9980
9F80
9F80
9F00
9180
9180
9980
9980
9980
9980
9980
8180
8180
FF80
7F80
ENDCHAR
STARTCHAR U+0048
ENCODING 72
SWIDTH 500 0
DWIDTH 9 0
BBX 9 18 0 0
BITMAP
FF00
9980
9980
9980
9980
9980
9980
8180
8180
9980
9980
9980
9980
9980
9980
9980
FF80
7F80
ENDCHAR
STARTCHAR U+0049
ENCODING 73
SWIDTH 278 0
DWIDTH 5 0
BBX 5 18 0 0
BITMAP
F0
98
98
98
98
98
98
98
98
98
98
98
98
98
98
98
F8
78
ENDCHAR
STARTCHAR U+004A
ENCODING 74
SWIDTH 500 0
DWIDTH 9 0
BBX 9 18 0 0
BITMAP
0F00
0980
0980
0980
0980
0980
0980
0980
0980
0980
0980
F980
9980
9980
8180
8180
FF80
7F80
ENDCHAR
STARTCHAR U+004B
ENCODING 75
SWIDTH 556 0
DWIDTH 10 0
BBX 10 18 0 0
BITMAP
F780
9CC0
9CC0
9CC0
9CC0
98C0
91C0
83C0
8380
9180
98C0
9CC0
9CC0
9CC0
9CC0
9CC0
FFC0
7BC0
ENDCHAR
STARTCHAR U+004C
ENCODING 76
SWIDTH 500 0
DWIDTH 9 0
BBX 9 18 0 0
BITMAP
F000
9800
9800
9800
9800
9800
9800
9800
9800
9800
9800
9800
9800
9F00
8180
8180
FF80
7F80
ENDCHAR
STARTCHAR U+004D
ENCODING 77
SWIDTH 611 0
DWIDTH 11 0
BBX 11 18 0 0
BITMAP
FFC0
8060
8060
9260
9260
9260
9260
9260
9E60
9E60
9A60
9A60
9A60
9A60
9A60
9A60
FBE0
79E0
ENDCHAR
STARTCHAR U+004E
ENCODING 78
SWIDTH 556 0
DWIDTH 10 0
BBX 10 18 0 0
BITMAP
F780
9CC0
9CC0
8CC0
8CC0
84C0
84C0
94C0
94C0
90C0
90C0
98C0
98C0
9CC0
9CC0
9CC0
FFC0
7BC0
ENDCHAR
STARTCHAR U+004F
ENCODING 79
SWIDTH 500 0
DWIDTH 9 0
BBX 9 18 0 0
BITMAP
FF00
8180
8180
9980
9980
9980
9980
9980
9980
9980
9980
9980
9980
9980
8180
8180
FF80
7F80
ENDCHAR
STARTCHAR U+0050
ENCODING 80
SWIDTH 500 0
DWIDTH 9 0
BBX 9 18 0 0
BITMAP
FF00
8180
8180
9980
9980
9980
9980
8180
8180
9F80
9F80
9800
9800
9800
9800
9800
F800
7800
ENDCHAR
STARTCHAR U+0051
ENCODING 81
SWIDTH 500 0
DWIDTH 9 0
BBX 9 18 0 0
BITMAP
FF00
8180
8180
9980
9980
9980
9980
9980
9980
9980
9980
9180
9180
9180
8180
8180
FF80
7F80
ENDCHAR
STARTCHAR U+0052
ENCODING 82
SWIDTH 556 0
DWIDTH 10 0
BBX 10 18 0 0
BITMAP
FF80
80C0
80C0
9CC0
9CC0
9CC0
9CC0
80C0
80C0
83C0
93C0
9980
9980
9980
9CC0
9CC0
FFC0
7BC0
ENDCHAR
STARTCHAR U+0053
ENCODING 83
SWIDTH 500 0
DWIDTH 9 0
BBX 9 18 0 0
BITMAP
FF00
8180
8180
9980
9980
9F80
9F80
8180
8180
F980
7980
F980
9980
9980
8180
8180
FF80
7F80
ENDCHAR
STARTCHAR U+0054
ENCODING 84
SWIDTH 611 0
DWIDTH 11 0
BBX 11 18 0 0
BITMAP
FFC0
8060
8060
F3E0
73E0
1300
1300
1300
1300
1300
1300
1300
1300
1300
1300
1300
1F00
0F00
ENDCHAR
STARTCHAR U+0055
ENCODING 85
SWIDTH 500 0
DWIDTH 9 0
BBX 9 18 0 0
BITMAP
FF00
9980
9980
9980
9980
9980
9980
9980
9980
9980
9980
9980
9980
9980
8180
8180
FF80
7F80
ENDCHAR
STARTCHAR U+0056
ENCODING 86
SWIDTH 556 0
DWIDTH 10 0
BBX 10 18 0 0
BITMAP
F780
9CC0
9CC0
9CC0
9CC0
9CC0
9CC0
9CC0
9CC0
9CC0
9CC0
9CC0
88C0
C1C0
63C0
3780
1F00
0E00
ENDCHAR
STARTCHAR U+0057
ENCODING 87
SWIDTH 611 0
DWIDTH 11 0
BBX 11 18 0 0
BITMAP
F3C0
9A60
9A60
9A60
9A60
9A60
9A60
9A60
9E60
9260
9260
9260
9260
9260
8060
8060
FFE0
7FE0
ENDCHAR
STARTCHAR U+0058
ENCODING 88
SWIDTH 556 0
DWIDTH 10 0
BBX 10 18 0 0
BITMAP
F780
9CC0
9CC0
9CC0
9CC0
9CC0
88C0
C1C0
63C0
C180
88C0
9CC0
9CC0
9CC0
9CC0
9CC0
FFC0
7BC0
ENDCHAR
STARTCHAR U+0059
ENCODING 89
SWIDTH 611 0
DWIDTH 11 0
BBX 11 18 0 0
BITMAP
F3C0
9A60
9A60
9A60
9A60
9E60
8C60
C0E0
61E0
33C0
1380
1300
1300
1300
1300
1300
1F00
0F00
ENDCHAR
STARTCHAR U+005A
ENCODING 90
SWIDTH 500 0
DWIDTH 9 0
BBX 9 18 0 0
BITMAP
FF00
8180
8180
F980
7980
1980
3180
6380
C780
8F00
9E00
9C00
9800
9F00
8180
8180
FF80
7F80
ENDCHAR
STARTCHAR U+005B
ENCODING 91
SWIDTH 389 0
DWIDTH 7 0
BBX 7 18 0 0
BITMAP
FC
86
86
9E
9E
98
98
98
98
98
98
98
98
9C
86
86
FE
7E
ENDCHAR
STARTCHAR U+005C
ENCODING 92
SWIDTH 500 0
DWIDTH 9 0
BBX 9 18 0 0
BITMAP
F000
9800
9800
9800
9800
CC00
4C00
6600
2600
2600
3300
1300
1980
0980
0980
0980
0F80
0780
ENDCHAR
STARTCHAR U+005D
ENCODING 93
SWIDTH 389 0
DWIDTH 7 0
BBX 7 18 0 0
BITMAP
FC
86
86
E6
66
26
26
26
26
26
26
26
26
E6
86
86
FE
7E
ENDCHAR
STARTCHAR U+005E
ENCODING 94
SWIDTH 500 0
DWIDTH 9 0
BBX 9 7 0 11
BITMAP
3C00
6600
C300
8180
9980
FF80
7F80
ENDCHAR
STARTCHAR U+005F
ENCODING 95
SWIDTH 500 0
DWIDTH 9 0
BBX 9 5 0 0
BITMAP
FF00
8180
8180
FF80
7F80
ENDCHAR
STARTCHAR U+0060
ENCODING 96
SWIDTH 333 0
DWIDTH 6 0
BBX 6 7 0 11
BITMAP
F0
98
98
CC
4C
7C
3C
ENDCHAR
STARTCHAR U+0061
ENCODING 97
SWIDTH 500 0
DWIDTH 9 0
BBX 9 13 0 0
BITMAP
3F00
2180
2180
3980
F980
8180
8180
9980
9980
8180
8180
FF80
7F80
ENDCHAR
STARTCHAR U+0062
ENCODING 98
SWIDTH 500 0
DWIDTH 9 0
BBX 9 18 0 0
BITMAP
F000
9800
9800
9800
9800
9F00
8180
8180
9980
9980
9980
9980
9980
9980
8180
8180
FF80
7F80
ENDCHAR
STARTCHAR U+0063
ENCODING 99
SWIDTH 500 0
DWIDTH 9 0
BBX 9 13 0 0
BITMAP
FF00
8180
8180
9F80
9F80
9800
9800
9800
9F00
8180
8180
FF80
7F80
ENDCHAR
STARTCHAR U+0064
ENCODING 100
SWIDTH 500 0
DWIDTH 9 0
BBX 9 18 0 0
BITMAP
0F00
0980
0980
0980
0980
F980
8180
8180
9980
9980
9980
9980
9980
9980
8180
8180
FF80
7F80
ENDCHAR
STARTCHAR U+0065
ENCODING 101
SWIDTH 500 0
DWIDTH 9 0
BBX 9 13 0 0
BITMAP
FF00
8180
8180
9980
9980
8180
8180
9F80
9F80
8180
8180
FF80
7F80
ENDCHAR
STARTCHAR U+0066
ENCODING 102
SWIDTH 444 0
DWIDTH 8 0
BBX 8 18 0 0
BITMAP
7E
43
43
4F
4F
CE
83
83
CF
4F
4C
4C
4C
4C
4C
4C
7C
3C
ENDCHAR
STARTCHAR U+0067
ENCODING 103
SWIDTH 500 0
DWIDTH 9 0
BBX 9 13 0 0
BITMAP
FF00
8180
8180
9980
9980
8180
8180
F980
F980
8180
8180
FF80
7F80
ENDCHAR
STARTCHAR U+0068
ENCODING 104
SWIDTH 500 0
DWIDTH 9 0
BBX 9 18 0 0
BITMAP
F000
9800
9800
9800
9800
9F00
8180
8180
9980
9980
9980
9980
9980
9980
9980
9980
FF80
7F80
ENDCHAR
STARTCHAR U+0069
ENCODING 105
SWIDTH 278 0
DWIDTH 5 0
BBX 5 16 0 0
BITMAP
F0
98
98
F8
98
98
98
98
98
98
98
98
98
98
F8
78
ENDCHAR
STARTCHAR U+006A
ENCODING 106
SWIDTH 444 0
DWIDTH 8 0
BBX 8 16 0 0
BITMAP
1E
13
13
1F
13
13
13
13
13
F3
93
93
83
83
FF
7F
ENDCHAR
STARTCHAR U+006B
ENCODING 107
SWIDTH 500 0
DWIDTH 9 0
BBX 9 18 0 0
BITMAP
F000
9800
9800
9800
9F00
9980
9980
9980
9980
8180
8780
8180
9980
9980
9980
9980
FF80
7F80
ENDCHAR
STARTCHAR U+006C
ENCODING 108
SWIDTH 278 0
DWIDTH 5 0
BBX 5 18 0 0
BITMAP
F0
98
98
98
98
98
98
98
98
98
98
98
98
98
98
98
F8
78
ENDCHAR
STARTCHAR U+006D
ENCODING 109
SWIDTH 611 0
DWIDTH 11 0
BBX 11 13 0 0
BITMAP
FFC0
8060
8060
9260
9260
9260
9260
9260
9260
9260
9260
FFE0
7FE0
ENDCHAR
STARTCHAR U+006E
ENCODING 110
SWIDTH 500 0
DWIDTH 9 0
BBX 9 13 0 0
BITMAP
FE00
8300
8300
9980
9980
9980
9980
9980
9980
9980
9980
FF80
7F80
ENDCHAR
STARTCHAR U+006F
ENCODING 111
SWIDTH 500 0
DWIDTH 9 0
BBX 9 13 0 0
BITMAP
FF00
8180
8180
9980
9980
9980
9980
9980
9980
8180
8180
FF80
7F80
ENDCHAR
STARTCHAR U+0070
ENCODING 112
SWIDTH 500 0
DWIDTH 9 0
BBX 9 13 0 0
BITMAP
FF00
8180
8180
9980
9980
8180
8180
9F80
9F80
9800
9800
F800
7800
ENDCHAR
STARTCHAR U+0071
ENCODING 113
SWIDTH 500 0
DWIDTH 9 0
BBX 9 13 0 0
BITMAP
FF00
8180
8180
9980
9980
8180
8180
F980
7980
0980
0980
0F80
0780
ENDCHAR
STARTCHAR U+0072
ENCODING 114
SWIDTH 389 0
DWIDTH 7 0
BBX 7 13 0 0
BITMAP
FC
86
86
9E
9E
98
98
98
98
98
98
F8
78
ENDCHAR
STARTCHAR U+0073
ENCODING 115
SWIDTH 500 0
DWIDTH 9 0
BBX 9 13 0 0
BITMAP
FF00
8180
8180
9F80
9F80
8180
8180
F980
F980
8180
8180
FF80
7F80
ENDCHAR
STARTCHAR U+0074
ENCODING 116
SWIDTH 444 0
DWIDTH 8 0
BBX 8 18 0 0
BITMAP
78
4C
4C
4C
4C
CE
83
83
CF
4F
4C
4C
4C
4E
43
43
7F
3F
ENDCHAR
STARTCHAR U+0075
ENCODING 117
SWIDTH 500 0
DWIDTH 9 0
BBX 9 13 0 0
BITMAP
FF00
9980
9980
9980
9980
9980
9980
9980
9980
8180
8180
FF80
7F80
ENDCHAR
STARTCHAR U+0076
ENCODING 118
SWIDTH 500 0
DWIDTH 9 0
BBX 9 13 0 0
BITMAP
FF00
9980
9980
9980
9980
9980
9980
8980
C180
6180
3180
1F80
0F80
ENDCHAR
STARTCHAR U+0077
ENCODING 119
SWIDTH 611 0
DWIDTH 11 0
BBX 11 13 0 0
BITMAP
FFC0
9260
9260
9260
9260
9260
9260
9260
9260
8060
8060
FFE0
7FE0
ENDCHAR
STARTCHAR U+0078
ENCODING 120
SWIDTH 556 0
DWIDTH 10 0
BBX 10 13 0 0
BITMAP
F780
9CC0
9CC0
88C0
C1C0
63C0
6380
C180
88C0
9CC0
9CC0
FFC0
7BC0
ENDCHAR
STARTCHAR U+0079
ENCODING 121
SWIDTH 500 0
DWIDTH 9 0
BBX 9 13 0 0
BITMAP
FF00
9980
9980
9980
9980
8180
8180
F980
F980
8180
8180
FF80
7F80
ENDCHAR
STARTCHAR U+007A
ENCODING 122
SWIDTH 500 0
DWIDTH 9 0
BBX 9 13 0 0
BITMAP
FF00
8180
8180
F980
7180
6380
C780
8F00
9F00
8180
8180
FF80
7F80
ENDCHAR
STARTCHAR U+007B
ENCODING 123
SWIDTH 389 0
DWIDTH 7 0
BBX 7 18 0 0
BITMAP
3C
66
46
4E
4E
4C
CC
8C
9C
8C
CC
4C
4C
4C
46
66
3E
1E
ENDCHAR
STARTCHAR U+007C
ENCODING 124
SWIDTH 278 0
DWIDTH 5 0
BBX 5 18 0 0
BITMAP
F0
98
98
98
98
98
98
98
98
98
98
98
98
98
98
98
F8
78
ENDCHAR
STARTCHAR U+007D
ENCODING 125
SWIDTH 389 0
DWIDTH 7 0
BBX 7 18 0 0
BITMAP
F0
98
8C
CC
4C
4C
4C
46
76
46
4E
4E
4C
CC
8C
9C
FC
78
ENDCHAR
STARTCHAR U+007E
ENCODING 126
SWIDTH 611 0
DWIDTH 11 0
BBX 11 7 0 6
BITMAP
03C0
FE60
8060
8060
9FE0
FFE0
7800
ENDCHAR
ENDFONT
