STARTFONT 2.1
FONT -PixelFonts-pixelfont_15x5_thin-Thin-R-Normal--17-170-75-75-P-0-ISO10646-1
SIZE 17 75 75
FONTBOUNDINGBOX 7 15 0 0
STARTPROPERTIES 7
FOUNDRY "PixelFonts"
FAMILY_NAME "pixelfont_15x5_thin"
WEIGHT_NAME "Thin"
PIXEL_SIZE 17
FONT_ASCENT 15
FONT_DESCENT 2
DEFAULT_CHAR 32
ENDPROPERTIES
CHARS 95
STARTCHAR U+0020
ENCODING 32
SWIDTH 176 0
DWIDTH 3 0
BBX 1 1 0 0
BITMAP
00
ENDCHAR
STARTCHAR U+0021
ENCODING 33
SWIDTH 118 0
DWIDTH 2 0
BBX 1 15 0 0
BITMAP
80
80
80
80
80
80
80
80
80
80
80
00
00
80
80
ENDCHAR
STARTCHAR U+0022
ENCODING 34
SWIDTH 235 0
DWIDTH 4 0
BBX 3 4 0 11
BITMAP
A0
A0
A0
A0
ENDCHAR
STARTCHAR U+0023
ENCODING 35
SWIDTH 353 0
DWIDTH 6 0
BBX 5 8 0 3
BITMAP
50
50
F8
50
50
F8
50
50
ENDCHAR
STARTCHAR U+0024
ENCODING 36
SWIDTH 353 0
DWIDTH 6 0
BBX 5 13 0 1
BITMAP
20
20
F8
A0
A0
A0
F8
28
28
28
F8
20
20
ENDCHAR
STARTCHAR U+0025
ENCODING 37
SWIDTH 412 0
DWIDTH 7 0
BBX 6 14 0 0
BITMAP
E0
A0
E4
04
08
08
10
20
40
40
80
9C
14
1C
ENDCHAR
STARTCHAR U+0026
ENCODING 38
SWIDTH 353 0
DWIDTH 6 0
BBX 5 15 0 0
BITMAP
60
90
90
90
A0
A0
A0
40
40
A0
A8
90
90
98
68
ENDCHAR
STARTCHAR U+0027
ENCODING 39
SWIDTH 118 0
DWIDTH 2 0
BBX 1 4 0 11
BITMAP
80
80
80
80
ENDCHAR
STARTCHAR U+0028
ENCODING 40
SWIDTH 176 0
DWIDTH 3 0
BBX 2 15 0 0
BITMAP
40
80
80
80
80
80
80
80
80
80
80
80
80
80
40
ENDCHAR
STARTCHAR U+0029
ENCODING 41
SWIDTH 176 0
DWIDTH 3 0
BBX 2 15 0 0
BITMAP
80
40
40
40
40
40
40
40
40
40
40
40
40
40
80
ENDCHAR
STARTCHAR U+002A
ENCODING 42
SWIDTH 353 0
DWIDTH 6 0
BBX 5 7 0 4
BITMAP
A8
50
20
F8
20
50
A8
ENDCHAR
STARTCHAR U+002B
ENCODING 43
SWIDTH 353 0
DWIDTH 6 0
BBX 5 4 0 5
BITMAP
20
F8
20
20
ENDCHAR
STARTCHAR U+002C
ENCODING 44
SWIDTH 118 0
DWIDTH 2 0
BBX 1 4 0 0
BITMAP
80
80
80
80
ENDCHAR
STARTCHAR U+002D
ENCODING 45
SWIDTH 294 0
DWIDTH 5 0
BBX 4 1 0 7
BITMAP
F0
ENDCHAR
STARTCHAR U+002E
ENCODING 46
SWIDTH 118 0
DWIDTH 2 0
BBX 1 1 0 0
BITMAP
80
ENDCHAR
STARTCHAR U+002F
ENCODING 47
SWIDTH 235 0
DWIDTH 4 0
BBX 3 15 0 0
BITMAP
20
20
20
20
20
40
40
40
40
40
80
80
80
80
80
ENDCHAR
STARTCHAR U+0030
ENCODING 48
SWIDTH 294 0
DWIDTH 5 0
BBX 4 15 0 0
BITMAP
F0
90
90
90
90
90
90
90
90
90
90
90
90
90
F0
ENDCHAR
STARTCHAR U+0031
ENCODING 49
SWIDTH 118 0
DWIDTH 2 0
BBX 1 15 0 0
BITMAP
80
80
80
80
80
80
80
80
80
80
80
80
80
80
80
ENDCHAR
STARTCHAR U+0032
ENCODING 50
SWIDTH 294 0
DWIDTH 5 0
BBX 4 15 0 0
BITMAP
F0
90
90
10
10
10
10
F0
80
80
80
80
80
80
F0
ENDCHAR
STARTCHAR U+0033
ENCODING 51
SWIDTH 294 0
DWIDTH 5 0
BBX 4 15 0 0
BITMAP
F0
10
10
10
10
10
10
70
10
10
10
10
10
10
F0
ENDCHAR
STARTCHAR U+0034
ENCODING 52
SWIDTH 294 0
DWIDTH 5 0
BBX 4 15 0 0
BITMAP
90
90
90
90
90
90
90
F0
10
10
10
10
10
10
10
ENDCHAR
STARTCHAR U+0035
ENCODING 53
SWIDTH 294 0
DWIDTH 5 0
BBX 4 15 0 0
BITMAP
F0
80
80
80
80
80
80
F0
10
10
10
10
10
90
F0
ENDCHAR
STARTCHAR U+0036
ENCODING 54
SWIDTH 294 0
DWIDTH 5 0
BBX 4 15 0 0
BITMAP
F0
90
90
80
80
80
80
F0
90
90
90
90
90
90
F0
ENDCHAR
STARTCHAR U+0037
ENCODING 55
SWIDTH 294 0
DWIDTH 5 0
BBX 4 15 0 0
BITMAP
F0
90
90
10
10
10
10
10
10
10
10
10
10
10
10
ENDCHAR
STARTCHAR U+0038
ENCODING 56
SWIDTH 294 0
DWIDTH 5 0
BBX 4 15 0 0
BITMAP
F0
90
90
90
90
90
90
F0
90
90
90
90
90
90
F0
ENDCHAR
STARTCHAR U+0039
ENCODING 57
SWIDTH 294 0
DWIDTH 5 0
BBX 4 15 0 0
BITMAP
F0
90
90
90
90
90
90
F0
10
10
10
10
90
90
F0
ENDCHAR
STARTCHAR U+003A
ENCODING 58
SWIDTH 118 0
DWIDTH 2 0
BBX 1 6 0 4
BITMAP
80
80
00
00
80
80
ENDCHAR
STARTCHAR U+003B
ENCODING 59
SWIDTH 176 0
DWIDTH 3 0
BBX 1 6 0 0
BITMAP
80
80
00
80
80
80
ENDCHAR
STARTCHAR U+003C
ENCODING 60
SWIDTH 294 0
DWIDTH 5 0
BBX 4 7 0 4
BITMAP
10
20
40
80
40
20
10
ENDCHAR
STARTCHAR U+003D
ENCODING 61
SWIDTH 353 0
DWIDTH 6 0
BBX 5 4 0 5
BITMAP
F8
00
00
F8
ENDCHAR
STARTCHAR U+003E
ENCODING 62
SWIDTH 294 0
DWIDTH 5 0
BBX 4 7 0 4
BITMAP
80
40
20
10
20
40
80
ENDCHAR
STARTCHAR U+003F
ENCODING 63
SWIDTH 353 0
DWIDTH 6 0
BBX 5 15 0 0
BITMAP
F8
88
88
08
08
08
08
38
20
20
20
00
00
20
20
ENDCHAR
STARTCHAR U+0040
ENCODING 64
SWIDTH 353 0
DWIDTH 6 0
BBX 5 15 0 0
BITMAP
F8
88
88
88
88
A8
A8
A8
A8
A8
B8
80
80
80
F8
ENDCHAR
STARTCHAR U+0041
ENCODING 65
SWIDTH 294 0
DWIDTH 5 0
BBX 4 15 0 0
BITMAP
F0
90
90
90
90
90
90
90
90
90
F0
90
90
90
90
ENDCHAR
STARTCHAR U+0042
ENCODING 66
SWIDTH 294 0
DWIDTH 5 0
BBX 4 15 0 0
BITMAP
E0
90
90
90
90
90
90
F0
90
90
90
90
90
90
E0
ENDCHAR
STARTCHAR U+0043
ENCODING 67
SWIDTH 294 0
DWIDTH 5 0
BBX 4 15 0 0
BITMAP
F0
90
90
80
80
80
80
80
80
80
80
80
90
90
F0
ENDCHAR
STARTCHAR U+0044
ENCODING 68
SWIDTH 294 0
DWIDTH 5 0
BBX 4 15 0 0
BITMAP
E0
90
90
90
90
90
90
90
90
90
90
90
90
90
E0
ENDCHAR
STARTCHAR U+0045
ENCODING 69
SWIDTH 294 0
DWIDTH 5 0
BBX 4 15 0 0
BITMAP
F0
80
80
80
80
80
80
E0
80
80
80
80
80
80
F0
ENDCHAR
STARTCHAR U+0046
ENCODING 70
SWIDTH 294 0
DWIDTH 5 0
BBX 4 15 0 0
BITMAP
F0
80
80
80
80
80
80
E0
80
80
80
80
80
80
80
ENDCHAR
STARTCHAR U+0047
ENCODING 71
SWIDTH 294 0
DWIDTH 5 0
BBX 4 15 0 0
BITMAP
F0
90
90
80
80
80
80
B0
90
90
90
90
90
90
F0
ENDCHAR
STARTCHAR U+0048
ENCODING 72
SWIDTH 294 0
DWIDTH 5 0
BBX 4 15 0 0
BITMAP
90
90
90
90
90
90
90
F0
90
90
90
90
90
90
90
ENDCHAR
STARTCHAR U+0049
ENCODING 73
SWIDTH 118 0
DWIDTH 2 0
BBX 1 15 0 0
BITMAP
80
80
80
80
80
80
80
80
80
80
80
80
80
80
80
ENDCHAR
STARTCHAR U+004A
ENCODING 74
SWIDTH 294 0
DWIDTH 5 0
BBX 4 15 0 0
BITMAP
10
10
10
10
10
10
10
10
10
10
90
90
90
90
F0
ENDCHAR
STARTCHAR U+004B
ENCODING 75
SWIDTH 353 0
DWIDTH 6 0
BBX 5 15 0 0
BITMAP
88
88
88
88
88
90
A0
C0
A0
90
88
88
88
88
88
ENDCHAR
STARTCHAR U+004C
ENCODING 76
SWIDTH 294 0
DWIDTH 5 0
BBX 4 15 0 0
BITMAP
80
80
80
80
80
80
80
80
80
80
80
80
80
80
F0
ENDCHAR
STARTCHAR U+004D
ENCODING 77
SWIDTH 353 0
DWIDTH 6 0
BBX 5 15 0 0
BITMAP
F8
A8
A8
A8
A8
A8
88
88
88
88
88
88
88
88
88
ENDCHAR
STARTCHAR U+004E
ENCODING 78
SWIDTH 294 0
DWIDTH 5 0
BBX 4 15 0 0
BITMAP
90
90
90
90
D0
B0
90
90
90
90
90
90
90
90
90
ENDCHAR
STARTCHAR U+004F
ENCODING 79
SWIDTH 294 0
DWIDTH 5 0
BBX 4 15 0 0
BITMAP
F0
90
90
90
90
90
90
90
90
90
90
90
90
90
F0
ENDCHAR
STARTCHAR U+0050
ENCODING 80
SWIDTH 294 0
DWIDTH 5 0
BBX 4 15 0 0
BITMAP
F0
90
90
90
90
90
90
F0
80
80
80
80
80
80
80
ENDCHAR
STARTCHAR U+0051
ENCODING 81
SWIDTH 294 0
DWIDTH 5 0
BBX 4 15 0 0
BITMAP
F0
90
90
90
90
90
90
90
90
90
90
90
B0
B0
F0
ENDCHAR
STARTCHAR U+0052
ENCODING 82
SWIDTH 353 0
DWIDTH 6 0
BBX 5 15 0 0
BITMAP
F8
88
88
88
88
88
88
F8
A0
A0
90
90
88
88
88
ENDCHAR
STARTCHAR U+0053
ENCODING 83
SWIDTH 294 0
DWIDTH 5 0
BBX 4 15 0 0
BITMAP
F0
90
90
80
80
80
80
F0
10
10
10
10
90
90
F0
ENDCHAR
STARTCHAR U+0054
ENCODING 84
SWIDTH 353 0
DWIDTH 6 0
BBX 5 15 0 0
BITMAP
F8
20
20
20
20
20
20
20
20
20
20
20
20
20
20
ENDCHAR
STARTCHAR U+0055
ENCODING 85
SWIDTH 294 0
DWIDTH 5 0
BBX 4 15 0 0
BITMAP
90
90
90
90
90
90
90
90
90
90
90
90
90
90
F0
ENDCHAR
STARTCHAR U+0056
ENCODING 86
SWIDTH 353 0
DWIDTH 6 0
BBX 5 15 0 0
BITMAP
88
88
88
88
88
88
88
88
88
88
88
88
88
50
20
ENDCHAR
STARTCHAR U+0057
ENCODING 87
SWIDTH 353 0
DWIDTH 6 0
BBX 5 15 0 0
BITMAP
88
88
88
88
88
88
88
A8
A8
A8
A8
A8
A8
A8
F8
ENDCHAR
STARTCHAR U+0058
ENCODING 88
SWIDTH 353 0
DWIDTH 6 0
BBX 5 15 0 0
BITMAP
88
88
88
88
88
88
50
20
50
88
88
88
88
88
88
ENDCHAR
STARTCHAR U+0059
ENCODING 89
SWIDTH 353 0
DWIDTH 6 0
BBX 5 15 0 0
BITMAP
88
88
88
88
88
88
50
20
20
20
20
20
20
20
20
ENDCHAR
STARTCHAR U+005A
ENCODING 90
SWIDTH 353 0
DWIDTH 6 0
BBX 5 15 0 0
BITMAP
F8
08
08
08
10
10
20
20
20
40
40
40
80
80
F8
ENDCHAR
STARTCHAR U+005B
ENCODING 91
SWIDTH 176 0
DWIDTH 3 0
BBX 2 15 0 0
BITMAP
C0
80
80
80
80
80
80
80
80
80
80
80
80
80
C0
ENDCHAR
STARTCHAR U+005C
ENCODING 92
SWIDTH 235 0
DWIDTH 4 0
BBX 3 15 0 0
BITMAP
80
80
80
80
80
40
40
40
40
40
40
20
20
20
20
ENDCHAR
STARTCHAR U+005D
ENCODING 93
SWIDTH 176 0
DWIDTH 3 0
BBX 2 15 0 0
BITMAP
C0
40
40
40
40
40
40
40
40
40
40
40
40
40
C0
ENDCHAR
STARTCHAR U+005E
ENCODING 94
SWIDTH 353 0
DWIDTH 6 0
BBX 5 3 0 12
BITMAP
20
50
88
ENDCHAR
STARTCHAR U+005F
ENCODING 95
SWIDTH 353 0
DWIDTH 6 0
BBX 5 1 0 0
BITMAP
F8
ENDCHAR
STARTCHAR U+0060
ENCODING 96
SWIDTH 235 0
DWIDTH 4 0
BBX 3 6 0 9
BITMAP
80
80
40
40
20
20
ENDCHAR
STARTCHAR U+0061
ENCODING 97
SWIDTH 294 0
DWIDTH 5 0
BBX 4 11 0 0
BITMAP
70
10
10
10
10
F0
90
90
90
90
F0
ENDCHAR
STARTCHAR U+0062
ENCODING 98
SWIDTH 294 0
DWIDTH 5 0
BBX 4 15 0 0
BITMAP
80
80
80
80
F0
90
90
90
90
90
90
90
90
90
F0
ENDCHAR
STARTCHAR U+0063
ENCODING 99
SWIDTH 294 0
DWIDTH 5 0
BBX 4 11 0 0
BITMAP
F0
80
80
80
80
80
80
80
80
80
F0
ENDCHAR
STARTCHAR U+0064
ENCODING 100
SWIDTH 294 0
DWIDTH 5 0
BBX 4 15 0 0
BITMAP
10
10
10
10
F0
90
90
90
90
90
90
90
90
90
F0
ENDCHAR
STARTCHAR U+0065
ENCODING 101
SWIDTH 294 0
DWIDTH 5 0
BBX 4 11 0 0
BITMAP
F0
90
90
90
90
90
F0
80
80
80
F0
ENDCHAR
STARTCHAR U+0066
ENCODING 102
SWIDTH 235 0
DWIDTH 4 0
BBX 3 15 0 0
BITMAP
60
40
40
40
E0
40
40
40
40
40
40
40
40
40
40
ENDCHAR
STARTCHAR U+0067
ENCODING 103
SWIDTH 294 0
DWIDTH 5 0
BBX 4 11 0 0
BITMAP
F0
90
90
90
90
90
F0
10
10
10
F0
ENDCHAR
STARTCHAR U+0068
ENCODING 104
SWIDTH 294 0
DWIDTH 5 0
BBX 4 15 0 0
BITMAP
80
80
80
80
F0
90
90
90
90
90
90
90
90
90
90
ENDCHAR
STARTCHAR U+0069
ENCODING 105
SWIDTH 118 0
DWIDTH 2 0
BBX 1 15 0 0
BITMAP
80
80
00
00
80
80
80
80
80
80
80
80
80
80
80
ENDCHAR
STARTCHAR U+006A
ENCODING 106
SWIDTH 235 0
DWIDTH 4 0
BBX 3 15 0 0
BITMAP
20
20
00
00
20
20
20
20
20
20
20
A0
A0
A0
E0
ENDCHAR
STARTCHAR U+006B
ENCODING 107
SWIDTH 353 0
DWIDTH 6 0
BBX 5 15 0 0
BITMAP
80
80
80
80
88
88
88
88
90
A0
C0
A0
90
88
88
ENDCHAR
STARTCHAR U+006C
ENCODING 108
SWIDTH 118 0
DWIDTH 2 0
BBX 1 15 0 0
BITMAP
80
80
80
80
80
80
80
80
80
80
80
80
80
80
80
ENDCHAR
STARTCHAR U+006D
ENCODING 109
SWIDTH 353 0
DWIDTH 6 0
BBX 5 11 0 0
BITMAP
F8
A8
A8
A8
A8
A8
A8
A8
A8
A8
A8
ENDCHAR
STARTCHAR U+006E
ENCODING 110
SWIDTH 294 0
DWIDTH 5 0
BBX 4 11 0 0
BITMAP
E0
90
90
90
90
90
90
90
90
90
90
ENDCHAR
STARTCHAR U+006F
ENCODING 111
SWIDTH 294 0
DWIDTH 5 0
BBX 4 11 0 0
BITMAP
F0
90
90
90
90
90
90
90
90
90
F0
ENDCHAR
STARTCHAR U+0070
ENCODING 112
SWIDTH 294 0
DWIDTH 5 0
BBX 4 11 0 0
BITMAP
F0
90
90
90
90
90
F0
80
80
80
80
ENDCHAR
STARTCHAR U+0071
ENCODING 113
SWIDTH 294 0
DWIDTH 5 0
BBX 4 11 0 0
BITMAP
F0
90
90
90
90
90
F0
10
10
10
10
ENDCHAR
STARTCHAR U+0072
ENCODING 114
SWIDTH 235 0
DWIDTH 4 0
BBX 3 11 0 0
BITMAP
E0
80
80
80
80
80
80
80
80
80
80
ENDCHAR
STARTCHAR U+0073
ENCODING 115
SWIDTH 294 0
DWIDTH 5 0
BBX 4 11 0 0
BITMAP
F0
80
80
80
80
F0
10
10
10
10
F0
ENDCHAR
STARTCHAR U+0074
ENCODING 116
SWIDTH 235 0
DWIDTH 4 0
BBX 3 15 0 0
BITMAP
40
40
40
40
E0
40
40
40
40
40
40
40
40
40
60
ENDCHAR
STARTCHAR U+0075
ENCODING 117
SWIDTH 294 0
DWIDTH 5 0
BBX 4 11 0 0
BITMAP
90
90
90
90
90
90
90
90
90
90
F0
ENDCHAR
STARTCHAR U+0076
ENCODING 118
SWIDTH 294 0
DWIDTH 5 0
BBX 4 11 0 0
BITMAP
90
90
90
90
90
90
90
90
90
50
30
ENDCHAR
STARTCHAR U+0077
ENCODING 119
SWIDTH 353 0
DWIDTH 6 0
BBX 5 11 0 0
BITMAP
88
88
88
88
88
88
A8
A8
A8
A8
F8
ENDCHAR
STARTCHAR U+0078
ENCODING 120
SWIDTH 353 0
DWIDTH 6 0
BBX 5 11 0 0
BITMAP
88
88
88
88
50
20
50
88
88
88
88
ENDCHAR
STARTCHAR U+0079
ENCODING 121
SWIDTH 294 0
DWIDTH 5 0
BBX 4 11 0 0
BITMAP
90
90
90
90
90
90
F0
10
10
10
F0
ENDCHAR
STARTCHAR U+007A
ENCODING 122
SWIDTH 294 0
DWIDTH 5 0
BBX 4 11 0 0
BITMAP
F0
10
10
10
20
20
40
40
80
80
F0
ENDCHAR
STARTCHAR U+007B
ENCODING 123
SWIDTH 235 0
DWIDTH 4 0
BBX 3 15 0 0
BITMAP
20
40
40
40
40
40
C0
80
C0
40
40
40
40
40
20
ENDCHAR
STARTCHAR U+007C
ENCODING 124
SWIDTH 118 0
DWIDTH 2 0
BBX 1 15 0 0
BITMAP
80
80
80
80
80
80
80
80
80
80
80
80
80
80
80
ENDCHAR
STARTCHAR U+007D
ENCODING 125
SWIDTH 235 0
DWIDTH 4 0
BBX 3 15 0 0
BITMAP
80
40
40
40
40
40
60
20
60
40
40
40
40
40
80
ENDCHAR
STARTCHAR U+007E
ENCODING 126
SWIDTH 412 0
DWIDTH 7 0
BBX 7 3 0 6
BITMAP
F2
92
9E
ENDCHAR
ENDFONT
