STARTFONT 2.1
FONT -PixelFonts-pixelfont_3d_condensed_extended_latin_9x5_thin-Thin-R-Normal--12-120-75-75-P-0-ISO10646-1
SIZE 12 75 75
FONTBOUNDINGBOX 10 12 0 0
STARTPROPERTIES 7
FOUNDRY "PixelFonts"
FAMILY_NAME "pixelfont_3d_condensed_extended_latin_9x5_thin"
WEIGHT_NAME "Thin"
PIXEL_SIZE 12
FONT_ASCENT 12
FONT_DESCENT 0
DEFAULT_CHAR 32
ENDPROPERTIES
CHARS 145
STARTCHAR U+0020
ENCODING 32
SWIDTH 250 0
DWIDTH 3 0
BBX 1 1 0 0
BITMAP
00
ENDCHAR
STARTCHAR U+0021
ENCODING 33
SWIDTH 333 0
DWIDTH 4 0
BBX 4 12 0 0
BITMAP
E0
B0
B0
B0
B0
B0
B0
B0
F0
B0
F0
70
ENDCHAR
STARTCHAR U+0022
ENCODING 34
SWIDTH 500 0
DWIDTH 6 0
BBX 6 5 0 7
BITMAP
F8
AC
AC
FC
7C
ENDCHAR
STARTCHAR U+0023
ENCODING 35
SWIDTH 667 0
DWIDTH 8 0
BBX 8 10 0 2
BITMAP
7C
56
D6
83
D7
83
D7
57
7E
3E
ENDCHAR
STARTCHAR U+0024
ENCODING 36
SWIDTH 667 0
DWIDTH 8 0
BBX 8 10 0 2
BITMAP
38
EE
83
AF
83
EB
83
EF
7F
1C
ENDCHAR
STARTCHAR U+0025
ENCODING 37
SWIDTH 667 0
DWIDTH 8 0
BBX 8 12 0 0
BITMAP
F0
98
9E
FB
77
6F
DE
BE
F3
73
1F
0F
ENDCHAR
STARTCHAR U+0026
ENCODING 38
SWIDTH 667 0
DWIDTH 8 0
BBX 8 12 0 0
BITMAP
78
CC
B6
B6
B6
AE
DE
AB
B7
8B
FF
7F
ENDCHAR
STARTCHAR U+0027
ENCODING 39
SWIDTH 333 0
DWIDTH 4 0
BBX 4 6 0 6
BITMAP
E0
B0
B0
B0
F0
70
ENDCHAR
STARTCHAR U+0028
ENCODING 40
SWIDTH 417 0
DWIDTH 5 0
BBX 5 12 0 0
BITMAP
70
D8
B8
B8
B0
B0
B0
B0
B0
D8
78
38
ENDCHAR
STARTCHAR U+0029
ENCODING 41
SWIDTH 417 0
DWIDTH 5 0
BBX 5 12 0 0
BITMAP
E0
B0
D8
58
58
58
58
58
D8
B8
F8
70
ENDCHAR
STARTCHAR U+002A
ENCODING 42
SWIDTH 667 0
DWIDTH 8 0
BBX 8 8 0 2
BITMAP
38
EE
AB
C7
AB
EF
7F
1C
ENDCHAR
STARTCHAR U+002B
ENCODING 43
SWIDTH 667 0
DWIDTH 8 0
BBX 8 8 0 2
BITMAP
38
2C
EE
83
EF
6F
3C
1C
ENDCHAR
STARTCHAR U+002C
ENCODING 44
SWIDTH 333 0
DWIDTH 4 0
BBX 4 7 0 0
BITMAP
E0
B0
B0
B0
B0
F0
70
ENDCHAR
STARTCHAR U+002D
ENCODING 45
SWIDTH 667 0
DWIDTH 8 0
BBX 8 4 0 4
BITMAP
FE
83
FF
7F
ENDCHAR
STARTCHAR U+002E
ENCODING 46
SWIDTH 333 0
DWIDTH 4 0
BBX 4 4 0 0
BITMAP
E0
B0
F0
70
ENDCHAR
STARTCHAR U+002F
ENCODING 47
SWIDTH 500 0
DWIDTH 6 0
BBX 6 12 0 0
BITMAP
38
2C
2C
6C
5C
5C
D8
B8
B8
B0
F0
70
ENDCHAR
STARTCHAR U+0030
ENCODING 48
SWIDTH 583 0
DWIDTH 7 0
BBX 7 12 0 0
BITMAP
FC
86
B6
B6
B6
B6
B6
B6
B6
86
FE
7E
ENDCHAR
STARTCHAR U+0031
ENCODING 49
SWIDTH 333 0
DWIDTH 4 0
BBX 4 12 0 0
BITMAP
E0
B0
B0
B0
B0
B0
B0
B0
B0
B0
F0
70
ENDCHAR
STARTCHAR U+0032
ENCODING 50
SWIDTH 583 0
DWIDTH 7 0
BBX 7 12 0 0
BITMAP
FC
86
B6
F6
F6
86
BE
BE
BC
86
FE
7E
ENDCHAR
STARTCHAR U+0033
ENCODING 51
SWIDTH 583 0
DWIDTH 7 0
BBX 7 12 0 0
BITMAP
FC
86
F6
76
76
46
76
36
F6
86
FE
7E
ENDCHAR
STARTCHAR U+0034
ENCODING 52
SWIDTH 583 0
DWIDTH 7 0
BBX 7 12 0 0
BITMAP
FC
B6
B6
B6
B6
86
F6
76
16
16
1E
0E
ENDCHAR
STARTCHAR U+0035
ENCODING 53
SWIDTH 583 0
DWIDTH 7 0
BBX 7 12 0 0
BITMAP
FC
86
BE
BE
BC
86
F6
F6
B6
86
FE
7E
ENDCHAR
STARTCHAR U+0036
ENCODING 54
SWIDTH 583 0
DWIDTH 7 0
BBX 7 12 0 0
BITMAP
FC
86
B6
BE
BE
86
B6
B6
B6
86
FE
7E
ENDCHAR
STARTCHAR U+0037
ENCODING 55
SWIDTH 583 0
DWIDTH 7 0
BBX 7 12 0 0
BITMAP
FC
86
B6
F6
76
16
16
16
16
16
1E
0E
ENDCHAR
STARTCHAR U+0038
ENCODING 56
SWIDTH 583 0
DWIDTH 7 0
BBX 7 12 0 0
BITMAP
FC
86
B6
B6
B6
86
B6
B6
B6
86
FE
7E
ENDCHAR
STARTCHAR U+0039
ENCODING 57
SWIDTH 583 0
DWIDTH 7 0
BBX 7 12 0 0
BITMAP
FC
86
B6
B6
B6
86
F6
F6
B6
86
FE
7E
ENDCHAR
STARTCHAR U+003A
ENCODING 58
SWIDTH 333 0
DWIDTH 4 0
BBX 4 8 0 2
BITMAP
E0
B0
B0
F0
B0
B0
F0
70
ENDCHAR
STARTCHAR U+003B
ENCODING 59
SWIDTH 333 0
DWIDTH 4 0
BBX 4 9 0 0
BITMAP
E0
B0
B0
F0
B0
B0
B0
F0
70
ENDCHAR
STARTCHAR U+003C
ENCODING 60
SWIDTH 500 0
DWIDTH 6 0
BBX 6 8 0 2
BITMAP
38
6C
DC
BC
D8
6C
3C
1C
ENDCHAR
STARTCHAR U+003D
ENCODING 61
SWIDTH 667 0
DWIDTH 8 0
BBX 8 6 0 3
BITMAP
FE
83
FF
83
FF
7F
ENDCHAR
STARTCHAR U+003E
ENCODING 62
SWIDTH 500 0
DWIDTH 6 0
BBX 6 8 0 2
BITMAP
E0
B0
D8
6C
DC
BC
F8
70
ENDCHAR
STARTCHAR U+003F
ENCODING 63
SWIDTH 667 0
DWIDTH 8 0
BBX 8 12 0 0
BITMAP
FE
83
BB
FB
7B
23
2F
2F
3C
2C
3C
1C
ENDCHAR
STARTCHAR U+0040
ENCODING 64
SWIDTH 667 0
DWIDTH 8 0
BBX 8 10 0 1
BITMAP
FE
83
BB
AB
AB
A3
BF
83
FF
7F
ENDCHAR
STARTCHAR U+0041
ENCODING 65
SWIDTH 583 0
DWIDTH 7 0
BBX 7 12 0 0
BITMAP
FC
86
B6
B6
B6
86
B6
B6
B6
B6
FE
7E
ENDCHAR
STARTCHAR U+0042
ENCODING 66
SWIDTH 583 0
DWIDTH 7 0
BBX 7 12 0 0
BITMAP
F8
8C
B6
B6
B6
86
B6
B6
B6
8E
FE
7C
ENDCHAR
STARTCHAR U+0043
ENCODING 67
SWIDTH 583 0
DWIDTH 7 0
BBX 7 12 0 0
BITMAP
FC
86
B6
BE
BE
B0
B0
BC
B6
86
FE
7E
ENDCHAR
STARTCHAR U+0044
ENCODING 68
SWIDTH 583 0
DWIDTH 7 0
BBX 7 12 0 0
BITMAP
F8
8C
B6
B6
B6
B6
B6
B6
B6
8E
FE
7C
ENDCHAR
STARTCHAR U+0045
ENCODING 69
SWIDTH 583 0
DWIDTH 7 0
BBX 7 12 0 0
BITMAP
FC
86
BE
BE
B8
8C
BC
BC
BC
86
FE
7E
ENDCHAR
STARTCHAR U+0046
ENCODING 70
SWIDTH 583 0
DWIDTH 7 0
BBX 7 12 0 0
BITMAP
FC
86
BE
BE
B8
8C
BC
BC
B0
B0
F0
70
ENDCHAR
STARTCHAR U+0047
ENCODING 71
SWIDTH 583 0
DWIDTH 7 0
BBX 7 12 0 0
BITMAP
FC
86
B6
BE
BE
A6
B6
B6
B6
86
FE
7E
ENDCHAR
STARTCHAR U+0048
ENCODING 72
SWIDTH 583 0
DWIDTH 7 0
BBX 7 12 0 0
BITMAP
FC
B6
B6
B6
B6
86
B6
B6
B6
B6
FE
7E
ENDCHAR
STARTCHAR U+0049
ENCODING 73
SWIDTH 333 0
DWIDTH 4 0
BBX 4 12 0 0
BITMAP
E0
B0
B0
B0
B0
B0
B0
B0
B0
B0
F0
70
ENDCHAR
STARTCHAR U+004A
ENCODING 74
SWIDTH 583 0
DWIDTH 7 0
BBX 7 12 0 0
BITMAP
1C
16
16
16
16
16
F6
B6
B6
86
FE
7E
ENDCHAR
STARTCHAR U+004B
ENCODING 75
SWIDTH 583 0
DWIDTH 7 0
BBX 7 12 0 0
BITMAP
FC
B6
B6
B6
AE
9E
AC
B6
B6
B6
FE
7E
ENDCHAR
STARTCHAR U+004C
ENCODING 76
SWIDTH 583 0
DWIDTH 7 0
BBX 7 12 0 0
BITMAP
E0
B0
B0
B0
B0
B0
B0
B0
BC
86
FE
7E
ENDCHAR
STARTCHAR U+004D
ENCODING 77
SWIDTH 667 0
DWIDTH 8 0
BBX 8 12 0 0
BITMAP
FE
83
AB
AB
AB
AB
BB
BB
BB
BB
FF
77
ENDCHAR
STARTCHAR U+004E
ENCODING 78
SWIDTH 583 0
DWIDTH 7 0
BBX 7 12 0 0
BITMAP
FC
B6
B6
B6
96
A6
B6
B6
B6
B6
FE
7E
ENDCHAR
STARTCHAR U+004F
ENCODING 79
SWIDTH 583 0
DWIDTH 7 0
BBX 7 12 0 0
BITMAP
FC
86
B6
B6
B6
B6
B6
B6
B6
86
FE
7E
ENDCHAR
STARTCHAR U+0050
ENCODING 80
SWIDTH 583 0
DWIDTH 7 0
BBX 7 12 0 0
BITMAP
FC
86
B6
B6
B6
86
BE
BE
B0
B0
F0
70
ENDCHAR
STARTCHAR U+0051
ENCODING 81
SWIDTH 583 0
DWIDTH 7 0
BBX 7 12 0 0
BITMAP
FC
86
B6
B6
B6
B6
B6
B6
A6
86
FE
7E
ENDCHAR
STARTCHAR U+0052
ENCODING 82
SWIDTH 583 0
DWIDTH 7 0
BBX 7 12 0 0
BITMAP
FC
86
B6
B6
B6
86
9E
AE
B6
B6
FE
7E
ENDCHAR
STARTCHAR U+0053
ENCODING 83
SWIDTH 583 0
DWIDTH 7 0
BBX 7 12 0 0
BITMAP
FC
86
BE
BE
BC
86
F6
76
F6
86
FE
7E
ENDCHAR
STARTCHAR U+0054
ENCODING 84
SWIDTH 667 0
DWIDTH 8 0
BBX 8 12 0 0
BITMAP
FE
83
EF
6F
2C
2C
2C
2C
2C
2C
3C
1C
ENDCHAR
STARTCHAR U+0055
ENCODING 85
SWIDTH 583 0
DWIDTH 7 0
BBX 7 12 0 0
BITMAP
FC
B6
B6
B6
B6
B6
B6
B6
B6
86
FE
7E
ENDCHAR
STARTCHAR U+0056
ENCODING 86
SWIDTH 667 0
DWIDTH 8 0
BBX 8 12 0 0
BITMAP
EE
BB
BB
BB
BB
BB
BB
BB
D7
6F
3E
1C
ENDCHAR
STARTCHAR U+0057
ENCODING 87
SWIDTH 667 0
DWIDTH 8 0
BBX 8 12 0 0
BITMAP
EE
BB
BB
BB
BB
BB
AB
AB
AB
83
FF
7F
ENDCHAR
STARTCHAR U+0058
ENCODING 88
SWIDTH 667 0
DWIDTH 8 0
BBX 8 12 0 0
BITMAP
EE
BB
BB
BB
D7
6F
D6
BB
BB
BB
FF
77
ENDCHAR
STARTCHAR U+0059
ENCODING 89
SWIDTH 667 0
DWIDTH 8 0
BBX 8 12 0 0
BITMAP
EE
BB
BB
BB
BB
D7
6F
2E
2C
2C
3C
1C
ENDCHAR
STARTCHAR U+005A
ENCODING 90
SWIDTH 667 0
DWIDTH 8 0
BBX 8 12 0 0
BITMAP
FE
83
FB
7B
37
6F
DE
BC
BE
83
FF
7F
ENDCHAR
STARTCHAR U+005B
ENCODING 91
SWIDTH 417 0
DWIDTH 5 0
BBX 5 12 0 0
BITMAP
F0
98
B8
B8
B0
B0
B0
B0
B0
98
F8
78
ENDCHAR
STARTCHAR U+005C
ENCODING 92
SWIDTH 500 0
DWIDTH 6 0
BBX 6 12 0 0
BITMAP
E0
B0
B0
B0
D8
58
58
6C
2C
2C
3C
1C
ENDCHAR
STARTCHAR U+005D
ENCODING 93
SWIDTH 417 0
DWIDTH 5 0
BBX 5 12 0 0
BITMAP
F0
98
D8
58
58
58
58
58
D8
98
F8
78
ENDCHAR
STARTCHAR U+005E
ENCODING 94
SWIDTH 667 0
DWIDTH 8 0
BBX 8 6 0 6
BITMAP
38
6C
D6
BB
FF
77
ENDCHAR
STARTCHAR U+005F
ENCODING 95
SWIDTH 667 0
DWIDTH 8 0
BBX 8 4 0 0
BITMAP
FE
83
FF
7F
ENDCHAR
STARTCHAR U+0060
ENCODING 96
SWIDTH 500 0
DWIDTH 6 0
BBX 6 6 0 6
BITMAP
E0
B0
D8
6C
3C
1C
ENDCHAR
STARTCHAR U+0061
ENCODING 97
SWIDTH 583 0
DWIDTH 7 0
BBX 7 8 0 0
BITMAP
7C
46
F6
86
B6
86
FE
7E
ENDCHAR
STARTCHAR U+0062
ENCODING 98
SWIDTH 583 0
DWIDTH 7 0
BBX 7 12 0 0
BITMAP
E0
B0
B0
B0
BC
86
B6
B6
B6
86
FE
7E
ENDCHAR
STARTCHAR U+0063
ENCODING 99
SWIDTH 583 0
DWIDTH 7 0
BBX 7 8 0 0
BITMAP
FC
86
BE
BE
BC
86
FE
7E
ENDCHAR
STARTCHAR U+0064
ENCODING 100
SWIDTH 583 0
DWIDTH 7 0
BBX 7 12 0 0
BITMAP
1C
16
16
16
F6
86
B6
B6
B6
86
FE
7E
ENDCHAR
STARTCHAR U+0065
ENCODING 101
SWIDTH 583 0
DWIDTH 7 0
BBX 7 8 0 0
BITMAP
FC
86
B6
86
BE
86
FE
7E
ENDCHAR
STARTCHAR U+0066
ENCODING 102
SWIDTH 500 0
DWIDTH 6 0
BBX 6 12 0 0
BITMAP
78
4C
5C
5C
D8
8C
DC
5C
58
58
78
38
ENDCHAR
STARTCHAR U+0067
ENCODING 103
SWIDTH 583 0
DWIDTH 7 0
BBX 7 8 0 0
BITMAP
FC
86
B6
86
F6
86
FE
7E
ENDCHAR
STARTCHAR U+0068
ENCODING 104
SWIDTH 583 0
DWIDTH 7 0
BBX 7 12 0 0
BITMAP
E0
B0
B0
B0
BC
86
B6
B6
B6
B6
FE
7E
ENDCHAR
STARTCHAR U+0069
ENCODING 105
SWIDTH 333 0
DWIDTH 4 0
BBX 4 10 0 0
BITMAP
E0
B0
F0
B0
B0
B0
B0
B0
F0
70
ENDCHAR
STARTCHAR U+006A
ENCODING 106
SWIDTH 500 0
DWIDTH 6 0
BBX 6 10 0 0
BITMAP
38
2C
3C
2C
2C
EC
AC
8C
FC
7C
ENDCHAR
STARTCHAR U+006B
ENCODING 107
SWIDTH 583 0
DWIDTH 7 0
BBX 7 12 0 0
BITMAP
E0
B0
B0
B0
BC
B6
AE
9E
AC
B6
FE
7E
ENDCHAR
STARTCHAR U+006C
ENCODING 108
SWIDTH 333 0
DWIDTH 4 0
BBX 4 12 0 0
BITMAP
E0
B0
B0
B0
B0
B0
B0
B0
B0
B0
F0
70
ENDCHAR
STARTCHAR U+006D
ENCODING 109
SWIDTH 667 0
DWIDTH 8 0
BBX 8 8 0 0
BITMAP
FE
83
AB
AB
AB
AB
FF
7F
ENDCHAR
STARTCHAR U+006E
ENCODING 110
SWIDTH 583 0
DWIDTH 7 0
BBX 7 8 0 0
BITMAP
F8
8C
B6
B6
B6
B6
FE
7E
ENDCHAR
STARTCHAR U+006F
ENCODING 111
SWIDTH 583 0
DWIDTH 7 0
BBX 7 8 0 0
BITMAP
FC
86
B6
B6
B6
86
FE
7E
ENDCHAR
STARTCHAR U+0070
ENCODING 112
SWIDTH 583 0
DWIDTH 7 0
BBX 7 8 0 0
BITMAP
FC
86
B6
86
BE
BE
F0
70
ENDCHAR
STARTCHAR U+0071
ENCODING 113
SWIDTH 583 0
DWIDTH 7 0
BBX 7 8 0 0
BITMAP
FC
86
B6
86
F6
76
1E
0E
ENDCHAR
STARTCHAR U+0072
ENCODING 114
SWIDTH 500 0
DWIDTH 6 0
BBX 6 8 0 0
BITMAP
F8
8C
BC
BC
B0
B0
F0
70
ENDCHAR
STARTCHAR U+0073
ENCODING 115
SWIDTH 583 0
DWIDTH 7 0
BBX 7 8 0 0
BITMAP
FC
86
BE
86
F6
86
FE
7E
ENDCHAR
STARTCHAR U+0074
ENCODING 116
SWIDTH 500 0
DWIDTH 6 0
BBX 6 12 0 0
BITMAP
70
58
58
58
D8
8C
DC
5C
58
4C
7C
3C
ENDCHAR
STARTCHAR U+0075
ENCODING 117
SWIDTH 583 0
DWIDTH 7 0
BBX 7 8 0 0
BITMAP
FC
B6
B6
B6
B6
86
FE
7E
ENDCHAR
STARTCHAR U+0076
ENCODING 118
SWIDTH 583 0
DWIDTH 7 0
BBX 7 8 0 0
BITMAP
FC
B6
B6
B6
D6
66
3E
1E
ENDCHAR
STARTCHAR U+0077
ENCODING 119
SWIDTH 667 0
DWIDTH 8 0
BBX 8 8 0 0
BITMAP
EE
BB
BB
AB
AB
83
FF
7F
ENDCHAR
STARTCHAR U+0078
ENCODING 120
SWIDTH 667 0
DWIDTH 8 0
BBX 8 8 0 0
BITMAP
EE
BB
D7
6F
D6
BB
FF
77
ENDCHAR
STARTCHAR U+0079
ENCODING 121
SWIDTH 583 0
DWIDTH 7 0
BBX 7 8 0 0
BITMAP
FC
B6
B6
86
F6
86
FE
7E
ENDCHAR
STARTCHAR U+007A
ENCODING 122
SWIDTH 583 0
DWIDTH 7 0
BBX 7 8 0 0
BITMAP
FC
86
EE
DE
BC
86
FE
7E
ENDCHAR
STARTCHAR U+007B
ENCODING 123
SWIDTH 500 0
DWIDTH 6 0
BBX 6 12 0 0
BITMAP
38
6C
5C
DC
98
B8
98
D8
58
6C
3C
1C
ENDCHAR
STARTCHAR U+007C
ENCODING 124
SWIDTH 333 0
DWIDTH 4 0
BBX 4 12 0 0
BITMAP
E0
B0
B0
B0
B0
B0
B0
B0
B0
B0
F0
70
ENDCHAR
STARTCHAR U+007D
ENCODING 125
SWIDTH 500 0
DWIDTH 6 0
BBX 6 12 0 0
BITMAP
E0
B0
D8
58
4C
6C
4C
5C
DC
B8
F8
70
ENDCHAR
STARTCHAR U+007E
ENCODING 126
SWIDTH 750 0
DWIDTH 9 0
BBX 9 5 0 2
BITMAP
7F00
CD80
B380
FF80
7F00
ENDCHAR
STARTCHAR U+00A1
ENCODING 161
SWIDTH 333 0
DWIDTH 4 0
BBX 4 12 0 0
BITMAP
E0
B0
F0
B0
B0
B0
B0
B0
B0
B0
F0
70
ENDCHAR
STARTCHAR U+00AA
ENCODING 170
SWIDTH 500 0
DWIDTH 6 0
BBX 6 8 0 4
BITMAP
78
CC
AC
8C
FC
8C
FC
7C
ENDCHAR
STARTCHAR U+00AB
ENCODING 171
SWIDTH 667 0
DWIDTH 8 0
BBX 8 8 0 0
BITMAP
3E
6B
D7
AF
D6
6B
3F
1F
ENDCHAR
STARTCHAR U+00B0
ENCODING 176
SWIDTH 500 0
DWIDTH 6 0
BBX 6 6 0 6
BITMAP
F8
8C
AC
8C
FC
7C
ENDCHAR
STARTCHAR U+00BA
ENCODING 186
SWIDTH 500 0
DWIDTH 6 0
BBX 6 8 0 4
BITMAP
F8
8C
AC
8C
FC
8C
FC
7C
ENDCHAR
STARTCHAR U+00BB
ENCODING 187
SWIDTH 667 0
DWIDTH 8 0
BBX 8 8 0 0
BITMAP
F8
AC
D6
6B
D7
AF
FE
7C
ENDCHAR
STARTCHAR U+00BF
ENCODING 191
SWIDTH 667 0
DWIDTH 8 0
BBX 8 12 0 0
BITMAP
38
2C
3C
2C
EC
8C
BC
BE
BB
83
FF
7F
ENDCHAR
STARTCHAR U+00DF
ENCODING 223
SWIDTH 583 0
DWIDTH 7 0
BBX 7 12 0 0
BITMAP
F8
8C
B6
B6
B6
A6
B6
B6
B6
AE
FE
7C
ENDCHAR
STARTCHAR U+00E0
ENCODING 224
SWIDTH 583 0
DWIDTH 7 0
BBX 7 11 0 0
BITMAP
E0
B0
D8
7C
46
F6
86
B6
86
FE
7E
ENDCHAR
STARTCHAR U+00E1
ENCODING 225
SWIDTH 583 0
DWIDTH 7 0
BBX 7 11 0 0
BITMAP
1C
36
2E
7E
46
F6
86
B6
86
FE
7E
ENDCHAR
STARTCHAR U+00E2
ENCODING 226
SWIDTH 583 0
DWIDTH 7 0
BBX 7 11 0 0
BITMAP
38
6C
56
7E
46
F6
86
B6
86
FE
7E
ENDCHAR
STARTCHAR U+00E4
ENCODING 228
SWIDTH 583 0
DWIDTH 7 0
BBX 7 10 0 0
BITMAP
FC
B6
FE
46
F6
86
B6
86
FE
7E
ENDCHAR
STARTCHAR U+00E6
ENCODING 230
SWIDTH 833 0
DWIDTH 10 0
BBX 10 8 0 0
BITMAP
7F80
40C0
F6C0
80C0
B7C0
80C0
FFC0
7FC0
ENDCHAR
STARTCHAR U+00E7
ENCODING 231
SWIDTH 583 0
DWIDTH 7 0
BBX 7 8 0 0
BITMAP
FC
86
BE
BE
86
EE
7E
1C
ENDCHAR
STARTCHAR U+00E8
ENCODING 232
SWIDTH 583 0
DWIDTH 7 0
BBX 7 11 0 0
BITMAP
E0
B0
D8
FC
86
B6
86
BE
86
FE
7E
ENDCHAR
STARTCHAR U+00E9
ENCODING 233
SWIDTH 583 0
DWIDTH 7 0
BBX 7 11 0 0
BITMAP
1C
36
2E
FE
86
B6
86
BE
86
FE
7E
ENDCHAR
STARTCHAR U+00EA
ENCODING 234
SWIDTH 583 0
DWIDTH 7 0
BBX 7 11 0 0
BITMAP
38
6C
56
FE
86
B6
86
BE
86
FE
7E
ENDCHAR
STARTCHAR U+00EB
ENCODING 235
SWIDTH 583 0
DWIDTH 7 0
BBX 7 10 0 0
BITMAP
FC
B6
FE
86
B6
86
BE
86
FE
7E
ENDCHAR
STARTCHAR U+00EC
ENCODING 236
SWIDTH 417 0
DWIDTH 5 0
BBX 5 11 0 0
BITMAP
E0
B0
D8
78
58
58
58
58
58
78
38
ENDCHAR
STARTCHAR U+00ED
ENCODING 237
SWIDTH 417 0
DWIDTH 5 0
BBX 5 11 0 0
BITMAP
70
D8
B8
F8
B0
B0
B0
B0
B0
F0
70
ENDCHAR
STARTCHAR U+00EE
ENCODING 238
SWIDTH 500 0
DWIDTH 6 0
BBX 6 11 0 0
BITMAP
70
D8
AC
FC
5C
58
58
58
58
78
38
ENDCHAR
STARTCHAR U+00EF
ENCODING 239
SWIDTH 500 0
DWIDTH 6 0
BBX 6 10 0 0
BITMAP
F8
AC
FC
5C
58
58
58
58
78
38
ENDCHAR
STARTCHAR U+00F1
ENCODING 241
SWIDTH 583 0
DWIDTH 7 0
BBX 7 11 0 0
BITMAP
FC
96
A6
FE
8E
B6
B6
B6
B6
FE
7E
ENDCHAR
STARTCHAR U+00F2
ENCODING 242
SWIDTH 583 0
DWIDTH 7 0
BBX 7 11 0 0
BITMAP
E0
B0
D8
FC
86
B6
B6
B6
86
FE
7E
ENDCHAR
STARTCHAR U+00F3
ENCODING 243
SWIDTH 583 0
DWIDTH 7 0
BBX 7 11 0 0
BITMAP
1C
36
2E
FE
86
B6
B6
B6
86
FE
7E
ENDCHAR
STARTCHAR U+00F4
ENCODING 244
SWIDTH 583 0
DWIDTH 7 0
BBX 7 11 0 0
BITMAP
38
6C
56
FE
86
B6
B6
B6
86
FE
7E
ENDCHAR
STARTCHAR U+00F6
ENCODING 246
SWIDTH 583 0
DWIDTH 7 0
BBX 7 10 0 0
BITMAP
FC
B6
FE
86
B6
B6
B6
86
FE
7E
ENDCHAR
STARTCHAR U+00F9
ENCODING 249
SWIDTH 583 0
DWIDTH 7 0
BBX 7 11 0 0
BITMAP
E0
B0
D8
FC
B6
B6
B6
B6
86
FE
7E
ENDCHAR
STARTCHAR U+00FA
ENCODING 250
SWIDTH 583 0
DWIDTH 7 0
BBX 7 11 0 0
BITMAP
1C
36
2E
FE
B6
B6
B6
B6
86
FE
7E
ENDCHAR
STARTCHAR U+00FB
ENCODING 251
SWIDTH 583 0
DWIDTH 7 0
BBX 7 11 0 0
BITMAP
38
6C
56
FE
B6
B6
B6
B6
86
FE
7E
ENDCHAR
STARTCHAR U+00FC
ENCODING 252
SWIDTH 583 0
DWIDTH 7 0
BBX 7 10 0 0
BITMAP
FC
B6
FE
B6
B6
B6
B6
86
FE
7E
ENDCHAR
STARTCHAR U+00FD
ENCODING 253
SWIDTH 583 0
DWIDTH 7 0
BBX 7 11 0 0
BITMAP
1C
36
2E
FE
B6
B6
86
F6
86
FE
7E
ENDCHAR
STARTCHAR U+00FF
ENCODING 255
SWIDTH 583 0
DWIDTH 7 0
BBX 7 10 0 0
BITMAP
FC
B6
FE
B6
B6
86
F6
86
FE
7E
ENDCHAR
STARTCHAR U+010D
ENCODING 269
SWIDTH 583 0
DWIDTH 7 0
BBX 7 11 0 0
BITMAP
7C
56
6E
FE
86
BE
BE
BC
86
FE
7E
ENDCHAR
STARTCHAR U+010F
ENCODING 271
SWIDTH 583 0
DWIDTH 7 0
BBX 7 12 0 0
BITMAP
7C
56
56
76
F6
86
B6
B6
B6
86
FE
7E
ENDCHAR
STARTCHAR U+011B
ENCODING 283
SWIDTH 583 0
DWIDTH 7 0
BBX 7 11 0 0
BITMAP
7C
56
6E
FE
86
B6
86
BE
86
FE
7E
ENDCHAR
STARTCHAR U+0148
ENCODING 328
SWIDTH 583 0
DWIDTH 7 0
BBX 7 11 0 0
BITMAP
F8
AC
DC
FC
8C
B6
B6
B6
B6
FE
7E
ENDCHAR
STARTCHAR U+0153
ENCODING 339
SWIDTH 833 0
DWIDTH 10 0
BBX 10 8 0 0
BITMAP
FF80
80C0
B6C0
B0C0
B7C0
80C0
FFC0
7FC0
ENDCHAR
STARTCHAR U+0159
ENCODING 345
SWIDTH 500 0
DWIDTH 6 0
BBX 6 11 0 0
BITMAP
F8
AC
DC
FC
8C
BC
BC
B0
B0
F0
70
ENDCHAR
STARTCHAR U+0161
ENCODING 353
SWIDTH 583 0
DWIDTH 7 0
BBX 7 11 0 0
BITMAP
7C
56
6E
FE
86
BE
86
F6
86
FE
7E
ENDCHAR
STARTCHAR U+0165
ENCODING 357
SWIDTH 583 0
DWIDTH 7 0
BBX 7 12 0 0
BITMAP
7C
56
56
5E
DE
8C
DC
5C
58
4C
7C
3C
ENDCHAR
STARTCHAR U+016F
ENCODING 367
SWIDTH 583 0
DWIDTH 7 0
BBX 7 11 0 0
BITMAP
78
4C
4C
FC
B6
B6
B6
B6
86
FE
7E
ENDCHAR
STARTCHAR U+017E
ENCODING 382
SWIDTH 583 0
DWIDTH 7 0
BBX 7 11 0 0
BITMAP
7C
56
6E
FE
86
EE
DE
BC
86
FE
7E
ENDCHAR
STARTCHAR U+2018
ENCODING 8216
SWIDTH 333 0
DWIDTH 4 0
BBX 4 7 0 5
BITMAP
E0
B0
B0
B0
B0
F0
70
ENDCHAR
STARTCHAR U+2019
ENCODING 8217
SWIDTH 333 0
DWIDTH 4 0
BBX 4 7 0 5
BITMAP
E0
B0
B0
B0
B0
F0
70
ENDCHAR
STARTCHAR U+201A
ENCODING 8218
SWIDTH 333 0
DWIDTH 4 0
BBX 4 7 0 0
BITMAP
E0
B0
B0
B0
B0
F0
70
ENDCHAR
STARTCHAR U+201C
ENCODING 8220
SWIDTH 500 0
DWIDTH 6 0
BBX 6 7 0 5
BITMAP
F8
AC
AC
AC
AC
FC
7C
ENDCHAR
STARTCHAR U+201D
ENCODING 8221
SWIDTH 500 0
DWIDTH 6 0
BBX 6 7 0 5
BITMAP
F8
AC
AC
AC
AC
FC
7C
ENDCHAR
STARTCHAR U+201E
ENCODING 8222
SWIDTH 500 0
DWIDTH 6 0
BBX 6 7 0 0
BITMAP
F8
AC
AC
AC
AC
FC
7C
ENDCHAR
STARTCHAR U+20AC
ENCODING 8364
SWIDTH 667 0
DWIDTH 8 0
BBX 8 12 0 0
BITMAP
7E
43
5B
DF
8F
DC
8C
DE
5B
43
7F
3F
ENDCHAR
ENDFONT
