STARTFONT 2.1
FONT -PixelFonts-pixelfont_3d_extended_latin_17x7_thin-Thin-R-Normal--21-210-75-75-P-0-ISO10646-1
SIZE 21 75 75
FONTBOUNDINGBOX 14 20 0 0
STARTPROPERTIES 7
FOUNDRY "PixelFonts"
FAMILY_NAME "pixelfont_3d_extended_latin_17x7_thin"
WEIGHT_NAME "Thin"
PIXEL_SIZE 21
FONT_ASCENT 20
FONT_DESCENT 1
DEFAULT_CHAR 32
ENDPROPERTIES
CHARS 145
STARTCHAR U+0020
ENCODING 32
SWIDTH 333 0
DWIDTH 7 0
BBX 1 1 0 0
BITMAP
00
ENDCHAR
STARTCHAR U+0021
ENCODING 33
SWIDTH 238 0
DWIDTH 5 0
BBX 4 20 0 0
BITMAP
E0
B0
B0
B0
B0
B0
B0
B0
B0
B0
B0
B0
B0
B0
B0
F0
F0
B0
F0
70
ENDCHAR
STARTCHAR U+0022
ENCODING 34
SWIDTH 333 0
DWIDTH 7 0
BBX 6 7 0 13
BITMAP
F8
AC
AC
AC
AC
FC
7C
ENDCHAR
STARTCHAR U+0023
ENCODING 35
SWIDTH 524 0
DWIDTH 11 0
BBX 10 17 0 2
BITMAP
7700
5D80
5D80
5D80
DD80
80C0
DDC0
5DC0
5D80
DD80
80C0
DDC0
5DC0
5D80
5D80
7F80
3B80
ENDCHAR
STARTCHAR U+0024
ENCODING 36
SWIDTH 524 0
DWIDTH 11 0
BBX 10 20 0 0
BITMAP
1C00
1600
1600
F780
80C0
B7C0
B7C0
B600
B780
80C0
F6C0
76C0
16C0
F6C0
80C0
F7C0
77C0
1600
1E00
0E00
ENDCHAR
STARTCHAR U+0025
ENCODING 37
SWIDTH 524 0
DWIDTH 11 0
BBX 10 20 0 0
BITMAP
F800
8F00
AD80
8D80
FD80
7B80
0B80
1B00
1700
1700
3600
2E00
2E00
6C00
5F80
D8C0
BAC0
F8C0
7FC0
07C0
ENDCHAR
STARTCHAR U+0026
ENCODING 38
SWIDTH 524 0
DWIDTH 11 0
BBX 10 20 0 0
BITMAP
7C00
C600
BB00
BB00
BB00
BB00
D700
6F00
6F80
D6C0
BAC0
BDC0
BDC0
BD80
BD80
BAC0
BAC0
C7C0
7FC0
3E00
ENDCHAR
STARTCHAR U+0027
ENCODING 39
SWIDTH 238 0
DWIDTH 5 0
BBX 4 8 0 12
BITMAP
E0
B0
B0
B0
B0
B0
F0
70
ENDCHAR
STARTCHAR U+0028
ENCODING 40
SWIDTH 286 0
DWIDTH 6 0
BBX 5 20 0 0
BITMAP
70
D8
B8
B8
B0
B0
B0
B0
B0
B0
B0
B0
B0
B0
B0
B0
D8
58
78
38
ENDCHAR
STARTCHAR U+0029
ENCODING 41
SWIDTH 286 0
DWIDTH 6 0
BBX 5 20 0 0
BITMAP
E0
B0
D8
58
58
58
58
58
58
58
58
58
58
58
58
D8
B8
B8
F0
70
ENDCHAR
STARTCHAR U+002A
ENCODING 42
SWIDTH 524 0
DWIDTH 11 0
BBX 10 10 0 5
BITMAP
1C00
F780
B6C0
D5C0
63C0
D580
B6C0
F7C0
7FC0
0E00
ENDCHAR
STARTCHAR U+002B
ENCODING 43
SWIDTH 429 0
DWIDTH 9 0
BBX 8 9 0 6
BITMAP
38
2C
2C
EE
83
EF
6F
3C
1C
ENDCHAR
STARTCHAR U+002C
ENCODING 44
SWIDTH 238 0
DWIDTH 5 0
BBX 4 7 0 0
BITMAP
E0
B0
B0
B0
B0
F0
70
ENDCHAR
STARTCHAR U+002D
ENCODING 45
SWIDTH 524 0
DWIDTH 11 0
BBX 10 4 0 8
BITMAP
FF80
80C0
FFC0
7FC0
ENDCHAR
STARTCHAR U+002E
ENCODING 46
SWIDTH 238 0
DWIDTH 5 0
BBX 4 4 0 0
BITMAP
E0
B0
F0
70
ENDCHAR
STARTCHAR U+002F
ENCODING 47
SWIDTH 429 0
DWIDTH 9 0
BBX 8 20 0 0
BITMAP
0E
0B
0B
0B
1B
17
17
36
2E
2E
6C
5C
5C
D8
B8
B8
B0
B0
F0
70
ENDCHAR
STARTCHAR U+0030
ENCODING 48
SWIDTH 476 0
DWIDTH 10 0
BBX 9 20 0 0
BITMAP
FF00
8180
BD80
BD80
BD80
BD80
BD80
BD80
BD80
BD80
BD80
BD80
BD80
BD80
BD80
BD80
BD80
8180
FF80
7F80
ENDCHAR
STARTCHAR U+0031
ENCODING 49
SWIDTH 238 0
DWIDTH 5 0
BBX 4 20 0 0
BITMAP
E0
B0
B0
B0
B0
B0
B0
B0
B0
B0
B0
B0
B0
B0
B0
B0
B0
B0
F0
70
ENDCHAR
STARTCHAR U+0032
ENCODING 50
SWIDTH 476 0
DWIDTH 10 0
BBX 9 20 0 0
BITMAP
FF00
8180
BD80
FD80
7580
0580
0580
0580
FD80
8180
BF80
BF80
B000
B000
B000
B000
BF00
8180
FF80
7F80
ENDCHAR
STARTCHAR U+0033
ENCODING 51
SWIDTH 476 0
DWIDTH 10 0
BBX 9 20 0 0
BITMAP
FF00
8180
FD80
7D80
0580
0580
0580
0580
3D80
2180
3D80
1D80
0580
0580
0580
0580
FD80
8180
FF80
7F80
ENDCHAR
STARTCHAR U+0034
ENCODING 52
SWIDTH 476 0
DWIDTH 10 0
BBX 9 20 0 0
BITMAP
E700
B580
B580
B580
B580
B580
B580
B580
BD80
8180
FD80
7D80
0580
0580
0580
0580
0580
0580
0780
0380
ENDCHAR
STARTCHAR U+0035
ENCODING 53
SWIDTH 476 0
DWIDTH 10 0
BBX 9 20 0 0
BITMAP
FF00
8180
BF80
BF80
B000
B000
B000
B000
BF00
8180
FD80
7D80
0580
0580
E580
B580
BD80
8180
FF80
7F80
ENDCHAR
STARTCHAR U+0036
ENCODING 54
SWIDTH 476 0
DWIDTH 10 0
BBX 9 20 0 0
BITMAP
FF00
8180
BD80
BF80
B380
B000
B000
B000
BF00
8180
BD80
BD80
BD80
BD80
BD80
BD80
BD80
8180
FF80
7F80
ENDCHAR
STARTCHAR U+0037
ENCODING 55
SWIDTH 476 0
DWIDTH 10 0
BBX 9 20 0 0
BITMAP
FF00
8180
BD80
FD80
7580
0580
0580
0580
0580
0580
0580
0580
0580
0580
0580
0580
0580
0580
0780
0380
ENDCHAR
STARTCHAR U+0038
ENCODING 56
SWIDTH 476 0
DWIDTH 10 0
BBX 9 20 0 0
BITMAP
FF00
8180
BD80
BD80
BD80
BD80
BD80
BD80
BD80
8180
BD80
BD80
BD80
BD80
BD80
BD80
BD80
8180
FF80
7F80
ENDCHAR
STARTCHAR U+0039
ENCODING 57
SWIDTH 476 0
DWIDTH 10 0
BBX 9 20 0 0
BITMAP
FF00
8180
BD80
BD80
BD80
BD80
BD80
BD80
BD80
8180
FD80
7D80
0580
0580
E580
B580
BD80
8180
FF80
7F80
ENDCHAR
STARTCHAR U+003A
ENCODING 58
SWIDTH 238 0
DWIDTH 5 0
BBX 4 11 0 5
BITMAP
E0
B0
B0
F0
70
00
E0
B0
B0
F0
70
ENDCHAR
STARTCHAR U+003B
ENCODING 59
SWIDTH 238 0
DWIDTH 5 0
BBX 4 16 0 0
BITMAP
E0
B0
B0
F0
70
00
E0
B0
B0
B0
B0
B0
B0
B0
F0
70
ENDCHAR
STARTCHAR U+003C
ENCODING 60
SWIDTH 381 0
DWIDTH 8 0
BBX 7 10 0 5
BITMAP
1C
36
6E
DE
BC
D8
6C
36
1E
0E
ENDCHAR
STARTCHAR U+003D
ENCODING 61
SWIDTH 524 0
DWIDTH 11 0
BBX 10 9 0 6
BITMAP
FF80
80C0
FFC0
7FC0
0000
FF80
80C0
FFC0
7FC0
ENDCHAR
STARTCHAR U+003E
ENCODING 62
SWIDTH 381 0
DWIDTH 8 0
BBX 7 10 0 5
BITMAP
E0
B0
D8
6C
36
6E
DE
BC
F8
70
ENDCHAR
STARTCHAR U+003F
ENCODING 63
SWIDTH 524 0
DWIDTH 11 0
BBX 10 20 0 0
BITMAP
FF80
80C0
BEC0
FEC0
72C0
02C0
02C0
02C0
1EC0
10C0
17C0
17C0
1600
1600
1E00
0E00
1C00
1600
1E00
0E00
ENDCHAR
STARTCHAR U+0040
ENCODING 64
SWIDTH 524 0
DWIDTH 11 0
BBX 10 17 0 2
BITMAP
FF80
80C0
BEC0
BEC0
BEC0
A2C0
AAC0
AAC0
AAC0
A0C0
BFC0
BFC0
B000
BF80
80C0
FFC0
7FC0
ENDCHAR
STARTCHAR U+0041
ENCODING 65
SWIDTH 476 0
DWIDTH 10 0
BBX 9 20 0 0
BITMAP
FF00
8180
BD80
BD80
BD80
BD80
BD80
BD80
BD80
8180
BD80
BD80
B580
B580
B580
B580
B580
B580
F780
7380
ENDCHAR
STARTCHAR U+0042
ENCODING 66
SWIDTH 476 0
DWIDTH 10 0
BBX 9 20 0 0
BITMAP
FE00
8300
BD80
BD80
BD80
BD80
BD80
BD80
BD80
8180
BD80
BD80
BD80
BD80
BD80
BD80
BD80
8380
FF80
7F00
ENDCHAR
STARTCHAR U+0043
ENCODING 67
SWIDTH 476 0
DWIDTH 10 0
BBX 9 20 0 0
BITMAP
FF00
8180
BD80
BF80
B380
B000
B000
B000
B000
B000
B000
B000
B000
B000
B700
B580
BD80
8180
FF80
7F80
ENDCHAR
STARTCHAR U+0044
ENCODING 68
SWIDTH 476 0
DWIDTH 10 0
BBX 9 20 0 0
BITMAP
FE00
8300
BD80
BD80
BD80
BD80
BD80
BD80
BD80
BD80
BD80
BD80
BD80
BD80
BD80
BD80
BD80
8380
FF80
7F00
ENDCHAR
STARTCHAR U+0045
ENCODING 69
SWIDTH 476 0
DWIDTH 10 0
BBX 9 20 0 0
BITMAP
FF00
8180
BF80
BF80
B000
B000
B000
B000
BE00
8300
BF00
BF00
B000
B000
B000
B000
BF00
8180
FF80
7F80
ENDCHAR
STARTCHAR U+0046
ENCODING 70
SWIDTH 476 0
DWIDTH 10 0
BBX 9 20 0 0
BITMAP
FF00
8180
BF80
BF80
B000
B000
B000
B000
BE00
8300
BF00
BF00
B000
B000
B000
B000
B000
B000
F000
7000
ENDCHAR
STARTCHAR U+0047
ENCODING 71
SWIDTH 476 0
DWIDTH 10 0
BBX 9 20 0 0
BITMAP
FF00
8180
BD80
BF80
B380
B000
B000
B000
BF00
B180
BD80
BD80
BD80
BD80
BD80
BD80
BD80
8180
FF80
7F80
ENDCHAR
STARTCHAR U+0048
ENCODING 72
SWIDTH 476 0
DWIDTH 10 0
BBX 9 20 0 0
BITMAP
E700
B580
B580
B580
B580
B580
B580
B580
BD80
8180
BD80
BD80
B580
B580
B580
B580
B580
B580
F780
7380
ENDCHAR
STARTCHAR U+0049
ENCODING 73
SWIDTH 238 0
DWIDTH 5 0
BBX 4 20 0 0
BITMAP
E0
B0
B0
B0
B0
B0
B0
B0
B0
B0
B0
B0
B0
B0
B0
B0
B0
B0
F0
70
ENDCHAR
STARTCHAR U+004A
ENCODING 74
SWIDTH 476 0
DWIDTH 10 0
BBX 9 20 0 0
BITMAP
0700
0580
0580
0580
0580
0580
0580
0580
0580
0580
0580
E580
B580
B580
B580
B580
BD80
8180
FF80
7F80
ENDCHAR
STARTCHAR U+004B
ENCODING 75
SWIDTH 524 0
DWIDTH 11 0
BBX 10 20 0 0
BITMAP
E380
B2C0
B6C0
B5C0
B5C0
BD80
BB80
BB80
BB00
8700
BB00
BB00
BD80
B580
B580
B6C0
B2C0
B2C0
F3C0
71C0
ENDCHAR
STARTCHAR U+004C
ENCODING 76
SWIDTH 476 0
DWIDTH 10 0
BBX 9 20 0 0
BITMAP
E000
B000
B000
B000
B000
B000
B000
B000
B000
B000
B000
B000
B000
B000
B000
B000
BF00
8180
FF80
7F80
ENDCHAR
STARTCHAR U+004D
ENCODING 77
SWIDTH 524 0
DWIDTH 11 0
BBX 10 20 0 0
BITMAP
FF80
80C0
B6C0
B6C0
B6C0
B6C0
B6C0
B6C0
B6C0
B6C0
BEC0
BEC0
B2C0
B2C0
B2C0
B2C0
B2C0
B2C0
F3C0
71C0
ENDCHAR
STARTCHAR U+004E
ENCODING 78
SWIDTH 476 0
DWIDTH 10 0
BBX 9 20 0 0
BITMAP
E700
B580
B580
B580
B580
B580
9D80
AD80
B580
B580
B980
BD80
B580
B580
B580
B580
B580
B580
F780
7380
ENDCHAR
STARTCHAR U+004F
ENCODING 79
SWIDTH 476 0
DWIDTH 10 0
BBX 9 20 0 0
BITMAP
FF00
8180
BD80
BD80
BD80
BD80
BD80
BD80
BD80
BD80
BD80
BD80
BD80
BD80
BD80
BD80
BD80
8180
FF80
7F80
ENDCHAR
STARTCHAR U+0050
ENCODING 80
SWIDTH 476 0
DWIDTH 10 0
BBX 9 20 0 0
BITMAP
FF00
8180
BD80
BD80
BD80
BD80
BD80
BD80
BD80
8180
BF80
BF80
B000
B000
B000
B000
B000
B000
F000
7000
ENDCHAR
STARTCHAR U+0051
ENCODING 81
SWIDTH 524 0
DWIDTH 11 0
BBX 10 20 0 0
BITMAP
FF80
80C0
BEC0
BEC0
BEC0
BEC0
BEC0
BEC0
BEC0
BEC0
BEC0
BEC0
B6C0
BAC0
BAC0
BCC0
BCC0
80C0
FFC0
7FC0
ENDCHAR
STARTCHAR U+0052
ENCODING 82
SWIDTH 524 0
DWIDTH 11 0
BBX 10 20 0 0
BITMAP
FF80
80C0
BEC0
BEC0
BEC0
BEC0
BEC0
BEC0
BEC0
80C0
AFC0
B7C0
BB00
BD80
B580
B6C0
B2C0
B2C0
F3C0
71C0
ENDCHAR
STARTCHAR U+0053
ENCODING 83
SWIDTH 524 0
DWIDTH 11 0
BBX 10 20 0 0
BITMAP
FF80
80C0
BFC0
BFC0
B000
B000
B000
B000
BF80
80C0
FEC0
7EC0
02C0
02C0
02C0
02C0
FEC0
80C0
FFC0
7FC0
ENDCHAR
STARTCHAR U+0054
ENCODING 84
SWIDTH 524 0
DWIDTH 11 0
BBX 10 20 0 0
BITMAP
FF80
80C0
F7C0
77C0
1600
1600
1600
1600
1600
1600
1600
1600
1600
1600
1600
1600
1600
1600
1E00
0E00
ENDCHAR
STARTCHAR U+0055
ENCODING 85
SWIDTH 524 0
DWIDTH 11 0
BBX 10 20 0 0
BITMAP
E380
B2C0
B2C0
B2C0
B2C0
B2C0
B2C0
B2C0
B2C0
B2C0
B2C0
B2C0
B2C0
B2C0
B2C0
B2C0
BEC0
80C0
FFC0
7FC0
ENDCHAR
STARTCHAR U+0056
ENCODING 86
SWIDTH 524 0
DWIDTH 11 0
BBX 10 20 0 0
BITMAP
E380
B2C0
B2C0
B2C0
B2C0
B2C0
B2C0
B2C0
B2C0
B2C0
B2C0
B2C0
B6C0
DDC0
5DC0
6B80
3780
1700
1E00
0E00
ENDCHAR
STARTCHAR U+0057
ENCODING 87
SWIDTH 524 0
DWIDTH 11 0
BBX 10 20 0 0
BITMAP
E380
B2C0
B2C0
B2C0
B2C0
B2C0
B2C0
B2C0
B2C0
BEC0
B6C0
B6C0
B6C0
B6C0
B6C0
B6C0
B6C0
80C0
FFC0
7FC0
ENDCHAR
STARTCHAR U+0058
ENCODING 88
SWIDTH 524 0
DWIDTH 11 0
BBX 10 20 0 0
BITMAP
E380
B2C0
B2C0
B2C0
B2C0
B2C0
B6C0
DDC0
6BC0
3780
6B00
DD80
BEC0
BAC0
B2C0
B2C0
B2C0
B2C0
F3C0
71C0
ENDCHAR
STARTCHAR U+0059
ENCODING 89
SWIDTH 524 0
DWIDTH 11 0
BBX 10 20 0 0
BITMAP
E380
B2C0
B2C0
B2C0
B6C0
DDC0
5DC0
6B80
3780
1700
1600
1600
1600
1600
1600
1600
1600
1600
1E00
0E00
ENDCHAR
STARTCHAR U+005A
ENCODING 90
SWIDTH 524 0
DWIDTH 11 0
BBX 10 20 0 0
BITMAP
FF80
80C0
FEC0
7EC0
02C0
02C0
06C0
0DC0
1BC0
3780
6F00
DE00
BC00
B800
B000
B000
BF80
80C0
FFC0
7FC0
ENDCHAR
STARTCHAR U+005B
ENCODING 91
SWIDTH 381 0
DWIDTH 8 0
BBX 7 20 0 0
BITMAP
FC
86
BE
BE
B0
B0
B0
B0
B0
B0
B0
B0
B0
B0
B0
B0
BC
86
FE
7E
ENDCHAR
STARTCHAR U+005C
ENCODING 92
SWIDTH 429 0
DWIDTH 9 0
BBX 8 20 0 0
BITMAP
E0
B0
B0
B0
B0
D8
58
58
6C
2C
2C
36
16
16
1B
0B
0B
0B
0F
07
ENDCHAR
STARTCHAR U+005D
ENCODING 93
SWIDTH 381 0
DWIDTH 8 0
BBX 7 20 0 0
BITMAP
FC
86
F6
76
16
16
16
16
16
16
16
16
16
16
16
16
F6
86
FE
7E
ENDCHAR
STARTCHAR U+005E
ENCODING 94
SWIDTH 524 0
DWIDTH 11 0
BBX 10 8 0 12
BITMAP
1C00
3600
6B00
5D80
DD80
BEC0
FBC0
71C0
ENDCHAR
STARTCHAR U+005F
ENCODING 95
SWIDTH 524 0
DWIDTH 11 0
BBX 10 4 0 0
BITMAP
FF80
80C0
FFC0
7FC0
ENDCHAR
STARTCHAR U+0060
ENCODING 96
SWIDTH 381 0
DWIDTH 8 0
BBX 7 8 0 12
BITMAP
E0
B0
D8
6C
2C
36
1E
0E
ENDCHAR
STARTCHAR U+0061
ENCODING 97
SWIDTH 476 0
DWIDTH 10 0
BBX 9 14 0 0
BITMAP
7F00
4180
7D80
3D80
0580
FD80
8180
BD80
BD80
BD80
BD80
8180
FF80
7F80
ENDCHAR
STARTCHAR U+0062
ENCODING 98
SWIDTH 476 0
DWIDTH 10 0
BBX 9 20 0 0
BITMAP
E000
B000
B000
B000
B000
B000
BF00
8180
BD80
BD80
BD80
BD80
BD80
BD80
BD80
BD80
BD80
8180
FF80
7F80
ENDCHAR
STARTCHAR U+0063
ENCODING 99
SWIDTH 476 0
DWIDTH 10 0
BBX 9 14 0 0
BITMAP
FF00
8180
BF80
BF80
B000
B000
B000
B000
B000
B000
BF00
8180
FF80
7F80
ENDCHAR
STARTCHAR U+0064
ENCODING 100
SWIDTH 476 0
DWIDTH 10 0
BBX 9 20 0 0
BITMAP
0700
0580
0580
0580
0580
0580
FD80
8180
BD80
BD80
BD80
BD80
BD80
BD80
BD80
BD80
BD80
8180
FF80
7F80
ENDCHAR
STARTCHAR U+0065
ENCODING 101
SWIDTH 476 0
DWIDTH 10 0
BBX 9 14 0 0
BITMAP
FF00
8180
BD80
BD80
BD80
BD80
8180
BF80
BF80
B000
BF00
8180
FF80
7F80
ENDCHAR
STARTCHAR U+0066
ENCODING 102
SWIDTH 381 0
DWIDTH 8 0
BBX 7 20 0 0
BITMAP
7C
46
5E
5E
58
58
DC
86
DE
5E
58
58
58
58
58
58
58
58
78
38
ENDCHAR
STARTCHAR U+0067
ENCODING 103
SWIDTH 476 0
DWIDTH 10 0
BBX 9 14 0 0
BITMAP
FF00
8180
BD80
BD80
BD80
BD80
8180
FD80
7D80
0580
FD80
8180
FF80
7F80
ENDCHAR
STARTCHAR U+0068
ENCODING 104
SWIDTH 476 0
DWIDTH 10 0
BBX 9 20 0 0
BITMAP
E000
B000
B000
B000
B000
B000
BF00
8180
BD80
BD80
B580
B580
B580
B580
B580
B580
B580
B580
F780
7380
ENDCHAR
STARTCHAR U+0069
ENCODING 105
SWIDTH 238 0
DWIDTH 5 0
BBX 4 16 0 0
BITMAP
E0
B0
F0
B0
B0
B0
B0
B0
B0
B0
B0
B0
B0
B0
F0
70
ENDCHAR
STARTCHAR U+006A
ENCODING 106
SWIDTH 381 0
DWIDTH 8 0
BBX 7 16 0 0
BITMAP
1C
16
1E
16
16
16
16
16
16
16
F6
B6
B6
86
FE
7E
ENDCHAR
STARTCHAR U+006B
ENCODING 107
SWIDTH 429 0
DWIDTH 9 0
BBX 8 20 0 0
BITMAP
E0
B0
B0
B0
B0
B0
BE
BB
BB
BB
B7
AF
9E
AC
B6
BB
BB
BB
FF
77
ENDCHAR
STARTCHAR U+006C
ENCODING 108
SWIDTH 238 0
DWIDTH 5 0
BBX 4 20 0 0
BITMAP
E0
B0
B0
B0
B0
B0
B0
B0
B0
B0
B0
B0
B0
B0
B0
B0
B0
B0
F0
70
ENDCHAR
STARTCHAR U+006D
ENCODING 109
SWIDTH 524 0
DWIDTH 11 0
BBX 10 14 0 0
BITMAP
FF80
80C0
B6C0
B6C0
B6C0
B6C0
B6C0
B6C0
B6C0
B6C0
B6C0
B6C0
FFC0
7FC0
ENDCHAR
STARTCHAR U+006E
ENCODING 110
SWIDTH 476 0
DWIDTH 10 0
BBX 9 14 0 0
BITMAP
FE00
8300
BD80
BD80
B580
B580
B580
B580
B580
B580
B580
B580
F780
7380
ENDCHAR
STARTCHAR U+006F
ENCODING 111
SWIDTH 476 0
DWIDTH 10 0
BBX 9 14 0 0
BITMAP
FF00
8180
BD80
BD80
BD80
BD80
BD80
BD80
BD80
BD80
BD80
8180
FF80
7F80
ENDCHAR
STARTCHAR U+0070
ENCODING 112
SWIDTH 476 0
DWIDTH 10 0
BBX 9 14 0 0
BITMAP
FF00
8180
BD80
BD80
BD80
BD80
8180
BF80
BF80
B000
B000
B000
F000
7000
ENDCHAR
STARTCHAR U+0071
ENCODING 113
SWIDTH 476 0
DWIDTH 10 0
BBX 9 14 0 0
BITMAP
FF00
8180
BD80
BD80
BD80
BD80
8180
FD80
7D80
0580
0580
0580
0780
0380
ENDCHAR
STARTCHAR U+0072
ENCODING 114
SWIDTH 381 0
DWIDTH 8 0
BBX 7 14 0 0
BITMAP
FC
86
BE
BE
B0
B0
B0
B0
B0
B0
B0
B0
F0
70
ENDCHAR
STARTCHAR U+0073
ENCODING 115
SWIDTH 476 0
DWIDTH 10 0
BBX 9 14 0 0
BITMAP
FF00
8180
BF80
BF80
B000
BF00
8180
FD80
7D80
0580
FD80
8180
FF80
7F80
ENDCHAR
STARTCHAR U+0074
ENCODING 116
SWIDTH 381 0
DWIDTH 8 0
BBX 7 20 0 0
BITMAP
70
58
58
58
58
58
DC
86
DE
5E
58
58
58
58
58
58
5C
46
7E
3E
ENDCHAR
STARTCHAR U+0075
ENCODING 117
SWIDTH 476 0
DWIDTH 10 0
BBX 9 14 0 0
BITMAP
E700
B580
B580
B580
B580
B580
B580
B580
B580
B580
BD80
8180
FF80
7F80
ENDCHAR
STARTCHAR U+0076
ENCODING 118
SWIDTH 476 0
DWIDTH 10 0
BBX 9 14 0 0
BITMAP
E700
B580
B580
B580
B580
B580
B580
B580
DD80
6D80
3580
1980
0F80
0780
ENDCHAR
STARTCHAR U+0077
ENCODING 119
SWIDTH 524 0
DWIDTH 11 0
BBX 10 14 0 0
BITMAP
E380
B2C0
B2C0
B2C0
B2C0
BEC0
B6C0
B6C0
B6C0
B6C0
B6C0
80C0
FFC0
7FC0
ENDCHAR
STARTCHAR U+0078
ENCODING 120
SWIDTH 524 0
DWIDTH 11 0
BBX 10 14 0 0
BITMAP
E380
B2C0
B2C0
B6C0
DDC0
6BC0
3780
6B00
DD80
BEC0
BAC0
B2C0
F3C0
71C0
ENDCHAR
STARTCHAR U+0079
ENCODING 121
SWIDTH 476 0
DWIDTH 10 0
BBX 9 14 0 0
BITMAP
E700
B580
B580
B580
B580
BD80
8180
FD80
7D80
0580
FD80
8180
FF80
7F80
ENDCHAR
STARTCHAR U+007A
ENCODING 122
SWIDTH 476 0
DWIDTH 10 0
BBX 9 14 0 0
BITMAP
FF00
8180
FB80
7B80
1700
3700
6E00
5E00
DC00
B800
BF00
8180
FF80
7F80
ENDCHAR
STARTCHAR U+007B
ENCODING 123
SWIDTH 333 0
DWIDTH 7 0
BBX 6 20 0 0
BITMAP
78
4C
5C
5C
58
58
D8
98
B8
B8
98
D8
58
58
58
58
58
4C
7C
3C
ENDCHAR
STARTCHAR U+007C
ENCODING 124
SWIDTH 238 0
DWIDTH 5 0
BBX 4 20 0 0
BITMAP
E0
B0
B0
B0
B0
B0
B0
B0
B0
B0
B0
B0
B0
B0
B0
B0
B0
B0
F0
70
ENDCHAR
STARTCHAR U+007D
ENCODING 125
SWIDTH 333 0
DWIDTH 7 0
BBX 6 20 0 0
BITMAP
F0
98
D8
58
58
58
58
4C
6C
6C
4C
5C
5C
58
58
58
D8
98
F8
78
ENDCHAR
STARTCHAR U+007E
ENCODING 126
SWIDTH 524 0
DWIDTH 11 0
BBX 10 6 0 8
BITMAP
FF80
86C0
B6C0
B0C0
FFC0
7FC0
ENDCHAR
STARTCHAR U+00A1
ENCODING 161
SWIDTH 238 0
DWIDTH 5 0
BBX 4 20 0 0
BITMAP
E0
B0
F0
F0
B0
B0
B0
B0
B0
B0
B0
B0
B0
B0
B0
B0
B0
B0
F0
70
ENDCHAR
STARTCHAR U+00AA
ENCODING 170
SWIDTH 381 0
DWIDTH 8 0
BBX 7 10 0 10
BITMAP
7C
C6
B6
B6
B6
86
FE
86
FE
7E
ENDCHAR
STARTCHAR U+00AB
ENCODING 171
SWIDTH 429 0
DWIDTH 9 0
BBX 8 9 0 2
BITMAP
3E
6B
D7
AF
D6
56
6B
3F
1F
ENDCHAR
STARTCHAR U+00B0
ENCODING 176
SWIDTH 381 0
DWIDTH 8 0
BBX 7 8 0 12
BITMAP
FC
86
B6
B6
B6
86
FE
7E
ENDCHAR
STARTCHAR U+00BA
ENCODING 186
SWIDTH 381 0
DWIDTH 8 0
BBX 7 10 0 10
BITMAP
FC
86
B6
B6
B6
86
FE
86
FE
7E
ENDCHAR
STARTCHAR U+00BB
ENCODING 187
SWIDTH 429 0
DWIDTH 9 0
BBX 8 9 0 2
BITMAP
F8
AC
D6
6B
57
D7
AE
FE
7C
ENDCHAR
STARTCHAR U+00BF
ENCODING 191
SWIDTH 524 0
DWIDTH 11 0
BBX 10 20 0 0
BITMAP
1C00
1600
1E00
0E00
1C00
1600
1600
1600
F600
8600
BE00
BE00
B000
B000
B380
B2C0
BEC0
80C0
FFC0
7FC0
ENDCHAR
STARTCHAR U+00DF
ENCODING 223
SWIDTH 476 0
DWIDTH 10 0
BBX 9 20 0 0
BITMAP
FE00
8300
BD80
BD80
BD80
BD80
BD80
BD80
BD80
A180
BD80
BD80
BD80
BD80
BD80
BD80
BD80
A380
FF80
7F00
ENDCHAR
STARTCHAR U+00E0
ENCODING 224
SWIDTH 476 0
DWIDTH 10 0
BBX 9 17 0 0
BITMAP
7000
5800
6C00
7F00
4180
7D80
3D80
0580
FD80
8180
BD80
BD80
BD80
BD80
8180
FF80
7F80
ENDCHAR
STARTCHAR U+00E1
ENCODING 225
SWIDTH 476 0
DWIDTH 10 0
BBX 9 17 0 0
BITMAP
0E00
1B00
1700
7F00
4180
7D80
3D80
0580
FD80
8180
BD80
BD80
BD80
BD80
8180
FF80
7F80
ENDCHAR
STARTCHAR U+00E2
ENCODING 226
SWIDTH 476 0
DWIDTH 10 0
BBX 9 17 0 0
BITMAP
3C00
6600
5B00
7F00
4180
7D80
3D80
0580
FD80
8180
BD80
BD80
BD80
BD80
8180
FF80
7F80
ENDCHAR
STARTCHAR U+00E4
ENCODING 228
SWIDTH 476 0
DWIDTH 10 0
BBX 9 16 0 0
BITMAP
E700
B580
FF80
4180
7D80
3D80
0580
FD80
8180
BD80
BD80
BD80
BD80
8180
FF80
7F80
ENDCHAR
STARTCHAR U+00E6
ENCODING 230
SWIDTH 714 0
DWIDTH 15 0
BBX 14 14 0 0
BITMAP
7FF8
400C
7DEC
3DEC
05EC
FDEC
800C
BDFC
BDFC
BD80
BDF8
800C
FFFC
7FFC
ENDCHAR
STARTCHAR U+00E7
ENCODING 231
SWIDTH 476 0
DWIDTH 10 0
BBX 9 14 0 0
BITMAP
FF00
8180
BF80
BF80
B000
B000
B000
B000
BF00
8180
EF80
6F80
3C00
1C00
ENDCHAR
STARTCHAR U+00E8
ENCODING 232
SWIDTH 476 0
DWIDTH 10 0
BBX 9 17 0 0
BITMAP
7000
5800
6C00
FF00
8180
BD80
BD80
BD80
BD80
8180
BF80
BF80
B000
BF00
8180
FF80
7F80
ENDCHAR
STARTCHAR U+00E9
ENCODING 233
SWIDTH 476 0
DWIDTH 10 0
BBX 9 17 0 0
BITMAP
0E00
1B00
1700
FF00
8180
BD80
BD80
BD80
BD80
8180
BF80
BF80
B000
BF00
8180
FF80
7F80
ENDCHAR
STARTCHAR U+00EA
ENCODING 234
SWIDTH 476 0
DWIDTH 10 0
BBX 9 17 0 0
BITMAP
3C00
6600
5B00
FF00
8180
BD80
BD80
BD80
BD80
8180
BF80
BF80
B000
BF00
8180
FF80
7F80
ENDCHAR
STARTCHAR U+00EB
ENCODING 235
SWIDTH 476 0
DWIDTH 10 0
BBX 9 16 0 0
BITMAP
E700
B580
FF80
8180
BD80
BD80
BD80
BD80
8180
BF80
BF80
B000
BF00
8180
FF80
7F80
ENDCHAR
STARTCHAR U+00EC
ENCODING 236
SWIDTH 286 0
DWIDTH 6 0
BBX 5 17 0 0
BITMAP
E0
B0
D8
78
58
58
58
58
58
58
58
58
58
58
58
78
38
ENDCHAR
STARTCHAR U+00ED
ENCODING 237
SWIDTH 286 0
DWIDTH 6 0
BBX 5 17 0 0
BITMAP
70
D8
B8
F8
B0
B0
B0
B0
B0
B0
B0
B0
B0
B0
B0
F0
70
ENDCHAR
STARTCHAR U+00EE
ENCODING 238
SWIDTH 381 0
DWIDTH 8 0
BBX 7 17 0 0
BITMAP
78
CC
B6
FE
6E
2C
2C
2C
2C
2C
2C
2C
2C
2C
2C
3C
1C
ENDCHAR
STARTCHAR U+00EF
ENCODING 239
SWIDTH 429 0
DWIDTH 9 0
BBX 8 16 0 0
BITMAP
EE
BB
FF
6F
2C
2C
2C
2C
2C
2C
2C
2C
2C
2C
3C
1C
ENDCHAR
STARTCHAR U+00F1
ENCODING 241
SWIDTH 476 0
DWIDTH 10 0
BBX 9 17 0 0
BITMAP
7F00
CD80
B380
FF80
8300
BD80
BD80
B580
B580
B580
B580
B580
B580
B580
B580
F780
7380
ENDCHAR
STARTCHAR U+00F2
ENCODING 242
SWIDTH 476 0
DWIDTH 10 0
BBX 9 17 0 0
BITMAP
7000
5800
6C00
FF00
8180
BD80
BD80
BD80
BD80
BD80
BD80
BD80
BD80
BD80
8180
FF80
7F80
ENDCHAR
STARTCHAR U+00F3
ENCODING 243
SWIDTH 476 0
DWIDTH 10 0
BBX 9 17 0 0
BITMAP
0E00
1B00
1700
FF00
8180
BD80
BD80
BD80
BD80
BD80
BD80
BD80
BD80
BD80
8180
FF80
7F80
ENDCHAR
STARTCHAR U+00F4
ENCODING 244
SWIDTH 476 0
DWIDTH 10 0
BBX 9 17 0 0
BITMAP
3C00
6600
5B00
FF00
8180
BD80
BD80
BD80
BD80
BD80
BD80
BD80
BD80
BD80
8180
FF80
7F80
ENDCHAR
STARTCHAR U+00F6
ENCODING 246
SWIDTH 476 0
DWIDTH 10 0
BBX 9 16 0 0
BITMAP
E700
B580
FF80
8180
BD80
BD80
BD80
BD80
BD80
BD80
BD80
BD80
BD80
8180
FF80
7F80
ENDCHAR
STARTCHAR U+00F9
ENCODING 249
SWIDTH 476 0
DWIDTH 10 0
BBX 9 17 0 0
BITMAP
7000
5800
6C00
FF00
BD80
BD80
BD80
BD80
BD80
BD80
BD80
BD80
BD80
BD80
8180
FF80
7F80
ENDCHAR
STARTCHAR U+00FA
ENCODING 250
SWIDTH 476 0
DWIDTH 10 0
BBX 9 17 0 0
BITMAP
0E00
1B00
1700
FF00
BD80
BD80
BD80
BD80
BD80
BD80
BD80
BD80
BD80
BD80
8180
FF80
7F80
ENDCHAR
STARTCHAR U+00FB
ENCODING 251
SWIDTH 476 0
DWIDTH 10 0
BBX 9 17 0 0
BITMAP
3C00
6600
5B00
FF00
BD80
BD80
BD80
BD80
BD80
BD80
BD80
BD80
BD80
BD80
8180
FF80
7F80
ENDCHAR
STARTCHAR U+00FC
ENCODING 252
SWIDTH 476 0
DWIDTH 10 0
BBX 9 16 0 0
BITMAP
E700
B580
F780
B580
B580
B580
B580
B580
B580
B580
B580
B580
BD80
8180
FF80
7F80
ENDCHAR
STARTCHAR U+00FD
ENCODING 253
SWIDTH 476 0
DWIDTH 10 0
BBX 9 17 0 0
BITMAP
0E00
1B00
1700
FF00
BD80
BD80
BD80
BD80
BD80
8180
FD80
7D80
0580
FD80
8180
FF80
7F80
ENDCHAR
STARTCHAR U+00FF
ENCODING 255
SWIDTH 476 0
DWIDTH 10 0
BBX 9 16 0 0
BITMAP
E700
B580
F780
B580
B580
B580
B580
BD80
8180
FD80
7D80
0580
FD80
8180
FF80
7F80
ENDCHAR
STARTCHAR U+010D
ENCODING 269
SWIDTH 476 0
DWIDTH 10 0
BBX 9 17 0 0
BITMAP
7E00
5B00
6700
FF00
8180
BF80
BF80
B000
B000
B000
B000
B000
B000
BF00
8180
FF80
7F80
ENDCHAR
STARTCHAR U+010F
ENCODING 271
SWIDTH 476 0
DWIDTH 10 0
BBX 9 20 0 0
BITMAP
1F00
1580
1580
1580
1580
1D80
FD80
8180
BD80
BD80
BD80
BD80
BD80
BD80
BD80
BD80
BD80
8180
FF80
7F80
ENDCHAR
STARTCHAR U+011B
ENCODING 283
SWIDTH 476 0
DWIDTH 10 0
BBX 9 17 0 0
BITMAP
7E00
5B00
6700
FF00
8180
BD80
BD80
BD80
BD80
8180
BF80
BF80
B000
BF00
8180
FF80
7F80
ENDCHAR
STARTCHAR U+0148
ENCODING 328
SWIDTH 476 0
DWIDTH 10 0
BBX 9 17 0 0
BITMAP
7E00
5B00
6700
FF00
8300
BD80
BD80
B580
B580
B580
B580
B580
B580
B580
B580
F780
7380
ENDCHAR
STARTCHAR U+0153
ENCODING 339
SWIDTH 714 0
DWIDTH 15 0
BBX 14 14 0 0
BITMAP
FFF8
800C
BDEC
BDEC
BDEC
BDEC
BC0C
BDFC
BDFC
BD80
BDF8
800C
FFFC
7FFC
ENDCHAR
STARTCHAR U+0159
ENCODING 345
SWIDTH 381 0
DWIDTH 8 0
BBX 7 17 0 0
BITMAP
FC
B6
CE
FE
86
BE
BE
B0
B0
B0
B0
B0
B0
B0
B0
F0
70
ENDCHAR
STARTCHAR U+0161
ENCODING 353
SWIDTH 476 0
DWIDTH 10 0
BBX 9 17 0 0
BITMAP
7E00
5B00
6700
FF00
8180
BF80
BF80
B000
BF00
8180
FD80
7D80
0580
FD80
8180
FF80
7F80
ENDCHAR
STARTCHAR U+0165
ENCODING 357
SWIDTH 381 0
DWIDTH 8 0
BBX 7 20 0 0
BITMAP
7C
56
56
56
56
5E
DE
86
DE
5E
58
58
58
58
58
58
5C
46
7E
3E
ENDCHAR
STARTCHAR U+016F
ENCODING 367
SWIDTH 476 0
DWIDTH 10 0
BBX 9 17 0 0
BITMAP
3C00
2600
2600
FF00
BD80
BD80
BD80
BD80
BD80
BD80
BD80
BD80
BD80
BD80
8180
FF80
7F80
ENDCHAR
STARTCHAR U+017E
ENCODING 382
SWIDTH 476 0
DWIDTH 10 0
BBX 9 17 0 0
BITMAP
7E00
5B00
6700
FF00
8180
FB80
7B80
3700
2F00
6E00
5C00
DC00
B800
BF00
8180
FF80
7F80
ENDCHAR
STARTCHAR U+2018
ENCODING 8216
SWIDTH 238 0
DWIDTH 5 0
BBX 4 7 0 13
BITMAP
E0
B0
B0
B0
B0
F0
70
ENDCHAR
STARTCHAR U+2019
ENCODING 8217
SWIDTH 238 0
DWIDTH 5 0
BBX 4 7 0 13
BITMAP
E0
B0
B0
B0
B0
F0
70
ENDCHAR
STARTCHAR U+201A
ENCODING 8218
SWIDTH 238 0
DWIDTH 5 0
BBX 4 7 0 0
BITMAP
E0
B0
B0
B0
B0
F0
70
ENDCHAR
STARTCHAR U+201C
ENCODING 8220
SWIDTH 333 0
DWIDTH 7 0
BBX 6 7 0 13
BITMAP
F8
AC
AC
AC
AC
FC
7C
ENDCHAR
STARTCHAR U+201D
ENCODING 8221
SWIDTH 333 0
DWIDTH 7 0
BBX 6 7 0 13
BITMAP
F8
AC
AC
AC
AC
FC
7C
ENDCHAR
STARTCHAR U+201E
ENCODING 8222
SWIDTH 333 0
DWIDTH 7 0
BBX 6 7 0 0
BITMAP
F8
AC
AC
AC
AC
FC
7C
ENDCHAR
STARTCHAR U+20AC
ENCODING 8364
SWIDTH 524 0
DWIDTH 11 0
BBX 10 20 0 0
BITMAP
7F80
40C0
5EC0
5FC0
59C0
5800
5800
DE00
8300
DF00
8300
DF00
5F00
5800
5800
5B80
5EC0
40C0
7FC0
3FC0
ENDCHAR
ENDFONT
