STARTFONT 2.1
FONT -PixelFonts-pixelfont_extended_latin_9x5_thin-Thin-R-Normal--10-100-75-75-P-0-ISO10646-1
SIZE 10 75 75
FONTBOUNDINGBOX 7 9 0 0
STARTPROPERTIES 7
FOUNDRY "PixelFonts"
FAMILY_NAME "pixelfont_extended_latin_9x5_thin"
WEIGHT_NAME "Thin"
PIXEL_SIZE 10
FONT_ASCENT 9
FONT_DESCENT 1
DEFAULT_CHAR 32
ENDPROPERTIES
CHARS 145
STARTCHAR U+0020
ENCODING 32
SWIDTH 300 0
DWIDTH 3 0
BBX 1 1 0 0
BITMAP
00
ENDCHAR
STARTCHAR U+0021
ENCODING 33
SWIDTH 200 0
DWIDTH 2 0
BBX 1 9 0 0
BITMAP
80
80
80
80
80
80
80
00
80
ENDCHAR
STARTCHAR U+0022
ENCODING 34
SWIDTH 400 0
DWIDTH 4 0
BBX 3 2 0 7
BITMAP
A0
A0
ENDCHAR
STARTCHAR U+0023
ENCODING 35
SWIDTH 600 0
DWIDTH 6 0
BBX 5 7 0 2
BITMAP
50
50
F8
50
F8
50
50
ENDCHAR
STARTCHAR U+0024
ENCODING 36
SWIDTH 600 0
DWIDTH 6 0
BBX 5 7 0 2
BITMAP
20
F8
A0
F8
28
F8
20
ENDCHAR
STARTCHAR U+0025
ENCODING 37
SWIDTH 600 0
DWIDTH 6 0
BBX 5 9 0 0
BITMAP
C0
C0
08
10
20
40
80
18
18
ENDCHAR
STARTCHAR U+0026
ENCODING 38
SWIDTH 600 0
DWIDTH 6 0
BBX 5 9 0 0
BITMAP
60
90
90
90
A0
40
A8
90
E8
ENDCHAR
STARTCHAR U+0027
ENCODING 39
SWIDTH 200 0
DWIDTH 2 0
BBX 1 3 0 6
BITMAP
80
80
80
ENDCHAR
STARTCHAR U+0028
ENCODING 40
SWIDTH 300 0
DWIDTH 3 0
BBX 2 9 0 0
BITMAP
40
80
80
80
80
80
80
80
40
ENDCHAR
STARTCHAR U+0029
ENCODING 41
SWIDTH 300 0
DWIDTH 3 0
BBX 2 9 0 0
BITMAP
80
40
40
40
40
40
40
40
80
ENDCHAR
STARTCHAR U+002A
ENCODING 42
SWIDTH 600 0
DWIDTH 6 0
BBX 5 5 0 2
BITMAP
20
A8
70
A8
20
ENDCHAR
STARTCHAR U+002B
ENCODING 43
SWIDTH 600 0
DWIDTH 6 0
BBX 5 5 0 2
BITMAP
20
20
F8
20
20
ENDCHAR
STARTCHAR U+002C
ENCODING 44
SWIDTH 200 0
DWIDTH 2 0
BBX 1 4 0 0
BITMAP
80
80
80
80
ENDCHAR
STARTCHAR U+002D
ENCODING 45
SWIDTH 600 0
DWIDTH 6 0
BBX 5 1 0 4
BITMAP
F8
ENDCHAR
STARTCHAR U+002E
ENCODING 46
SWIDTH 200 0
DWIDTH 2 0
BBX 1 1 0 0
BITMAP
80
ENDCHAR
STARTCHAR U+002F
ENCODING 47
SWIDTH 400 0
DWIDTH 4 0
BBX 3 9 0 0
BITMAP
20
20
20
40
40
40
80
80
80
ENDCHAR
STARTCHAR U+0030
ENCODING 48
SWIDTH 500 0
DWIDTH 5 0
BBX 4 9 0 0
BITMAP
F0
90
90
90
90
90
90
90
F0
ENDCHAR
STARTCHAR U+0031
ENCODING 49
SWIDTH 200 0
DWIDTH 2 0
BBX 1 9 0 0
BITMAP
80
80
80
80
80
80
80
80
80
ENDCHAR
STARTCHAR U+0032
ENCODING 50
SWIDTH 500 0
DWIDTH 5 0
BBX 4 9 0 0
BITMAP
F0
90
10
10
F0
80
80
80
F0
ENDCHAR
STARTCHAR U+0033
ENCODING 51
SWIDTH 500 0
DWIDTH 5 0
BBX 4 9 0 0
BITMAP
F0
10
10
10
70
10
10
10
F0
ENDCHAR
STARTCHAR U+0034
ENCODING 52
SWIDTH 500 0
DWIDTH 5 0
BBX 4 9 0 0
BITMAP
90
90
90
90
F0
10
10
10
10
ENDCHAR
STARTCHAR U+0035
ENCODING 53
SWIDTH 500 0
DWIDTH 5 0
BBX 4 9 0 0
BITMAP
F0
80
80
80
F0
10
10
90
F0
ENDCHAR
STARTCHAR U+0036
ENCODING 54
SWIDTH 500 0
DWIDTH 5 0
BBX 4 9 0 0
BITMAP
F0
90
80
80
F0
90
90
90
F0
ENDCHAR
STARTCHAR U+0037
ENCODING 55
SWIDTH 500 0
DWIDTH 5 0
BBX 4 9 0 0
BITMAP
F0
90
10
10
10
10
10
10
10
ENDCHAR
STARTCHAR U+0038
ENCODING 56
SWIDTH 500 0
DWIDTH 5 0
BBX 4 9 0 0
BITMAP
F0
90
90
90
F0
90
90
90
F0
ENDCHAR
STARTCHAR U+0039
ENCODING 57
SWIDTH 500 0
DWIDTH 5 0
BBX 4 9 0 0
BITMAP
F0
90
90
90
F0
10
10
90
F0
ENDCHAR
STARTCHAR U+003A
ENCODING 58
SWIDTH 200 0
DWIDTH 2 0
BBX 1 5 0 2
BITMAP
80
80
00
80
80
ENDCHAR
STARTCHAR U+003B
ENCODING 59
SWIDTH 200 0
DWIDTH 2 0
BBX 1 6 0 0
BITMAP
80
80
00
80
80
80
ENDCHAR
STARTCHAR U+003C
ENCODING 60
SWIDTH 400 0
DWIDTH 4 0
BBX 3 5 0 2
BITMAP
20
40
80
40
20
ENDCHAR
STARTCHAR U+003D
ENCODING 61
SWIDTH 600 0
DWIDTH 6 0
BBX 5 3 0 3
BITMAP
F8
00
F8
ENDCHAR
STARTCHAR U+003E
ENCODING 62
SWIDTH 400 0
DWIDTH 4 0
BBX 3 5 0 2
BITMAP
80
40
20
40
80
ENDCHAR
STARTCHAR U+003F
ENCODING 63
SWIDTH 600 0
DWIDTH 6 0
BBX 5 9 0 0
BITMAP
F8
88
08
08
38
20
20
00
20
ENDCHAR
STARTCHAR U+0040
ENCODING 64
SWIDTH 600 0
DWIDTH 6 0
BBX 5 7 0 1
BITMAP
F8
88
A8
A8
B8
80
F8
ENDCHAR
STARTCHAR U+0041
ENCODING 65
SWIDTH 500 0
DWIDTH 5 0
BBX 4 9 0 0
BITMAP
F0
90
90
90
F0
90
90
90
90
ENDCHAR
STARTCHAR U+0042
ENCODING 66
SWIDTH 500 0
DWIDTH 5 0
BBX 4 9 0 0
BITMAP
E0
90
90
90
F0
90
90
90
E0
ENDCHAR
STARTCHAR U+0043
ENCODING 67
SWIDTH 500 0
DWIDTH 5 0
BBX 4 9 0 0
BITMAP
F0
90
80
80
80
80
80
90
F0
ENDCHAR
STARTCHAR U+0044
ENCODING 68
SWIDTH 500 0
DWIDTH 5 0
BBX 4 9 0 0
BITMAP
E0
90
90
90
90
90
90
90
E0
ENDCHAR
STARTCHAR U+0045
ENCODING 69
SWIDTH 500 0
DWIDTH 5 0
BBX 4 9 0 0
BITMAP
F0
80
80
80
E0
80
80
80
F0
ENDCHAR
STARTCHAR U+0046
ENCODING 70
SWIDTH 500 0
DWIDTH 5 0
BBX 4 9 0 0
BITMAP
F0
80
80
80
E0
80
80
80
80
ENDCHAR
STARTCHAR U+0047
ENCODING 71
SWIDTH 500 0
DWIDTH 5 0
BBX 4 9 0 0
BITMAP
F0
90
80
80
B0
90
90
90
F0
ENDCHAR
STARTCHAR U+0048
ENCODING 72
SWIDTH 500 0
DWIDTH 5 0
BBX 4 9 0 0
BITMAP
90
90
90
90
F0
90
90
90
90
ENDCHAR
STARTCHAR U+0049
ENCODING 73
SWIDTH 200 0
DWIDTH 2 0
BBX 1 9 0 0
BITMAP
80
80
80
80
80
80
80
80
80
ENDCHAR
STARTCHAR U+004A
ENCODING 74
SWIDTH 500 0
DWIDTH 5 0
BBX 4 9 0 0
BITMAP
10
10
10
10
10
10
90
90
F0
ENDCHAR
STARTCHAR U+004B
ENCODING 75
SWIDTH 500 0
DWIDTH 5 0
BBX 4 9 0 0
BITMAP
90
90
90
A0
C0
A0
90
90
90
ENDCHAR
STARTCHAR U+004C
ENCODING 76
SWIDTH 500 0
DWIDTH 5 0
BBX 4 9 0 0
BITMAP
80
80
80
80
80
80
80
80
F0
ENDCHAR
STARTCHAR U+004D
ENCODING 77
SWIDTH 600 0
DWIDTH 6 0
BBX 5 9 0 0
BITMAP
F8
A8
A8
A8
A8
88
88
88
88
ENDCHAR
STARTCHAR U+004E
ENCODING 78
SWIDTH 500 0
DWIDTH 5 0
BBX 4 9 0 0
BITMAP
90
90
90
D0
B0
90
90
90
90
ENDCHAR
STARTCHAR U+004F
ENCODING 79
SWIDTH 500 0
DWIDTH 5 0
BBX 4 9 0 0
BITMAP
F0
90
90
90
90
90
90
90
F0
ENDCHAR
STARTCHAR U+0050
ENCODING 80
SWIDTH 500 0
DWIDTH 5 0
BBX 4 9 0 0
BITMAP
F0
90
90
90
F0
80
80
80
80
ENDCHAR
STARTCHAR U+0051
ENCODING 81
SWIDTH 500 0
DWIDTH 5 0
BBX 4 9 0 0
BITMAP
F0
90
90
90
90
90
B0
B0
F0
ENDCHAR
STARTCHAR U+0052
ENCODING 82
SWIDTH 500 0
DWIDTH 5 0
BBX 4 9 0 0
BITMAP
F0
90
90
90
F0
C0
A0
90
90
ENDCHAR
STARTCHAR U+0053
ENCODING 83
SWIDTH 500 0
DWIDTH 5 0
BBX 4 9 0 0
BITMAP
F0
90
80
80
F0
10
10
90
F0
ENDCHAR
STARTCHAR U+0054
ENCODING 84
SWIDTH 600 0
DWIDTH 6 0
BBX 5 9 0 0
BITMAP
F8
20
20
20
20
20
20
20
20
ENDCHAR
STARTCHAR U+0055
ENCODING 85
SWIDTH 500 0
DWIDTH 5 0
BBX 4 9 0 0
BITMAP
90
90
90
90
90
90
90
90
F0
ENDCHAR
STARTCHAR U+0056
ENCODING 86
SWIDTH 600 0
DWIDTH 6 0
BBX 5 9 0 0
BITMAP
88
88
88
88
88
88
88
50
20
ENDCHAR
STARTCHAR U+0057
ENCODING 87
SWIDTH 600 0
DWIDTH 6 0
BBX 5 9 0 0
BITMAP
88
88
88
88
88
A8
A8
A8
F8
ENDCHAR
STARTCHAR U+0058
ENCODING 88
SWIDTH 600 0
DWIDTH 6 0
BBX 5 9 0 0
BITMAP
88
88
88
50
20
50
88
88
88
ENDCHAR
STARTCHAR U+0059
ENCODING 89
SWIDTH 600 0
DWIDTH 6 0
BBX 5 9 0 0
BITMAP
88
88
88
88
50
20
20
20
20
ENDCHAR
STARTCHAR U+005A
ENCODING 90
SWIDTH 500 0
DWIDTH 5 0
BBX 5 9 0 0
BITMAP
F8
08
08
10
20
40
80
80
F8
ENDCHAR
STARTCHAR U+005B
ENCODING 91
SWIDTH 300 0
DWIDTH 3 0
BBX 2 9 0 0
BITMAP
C0
80
80
80
80
80
80
80
C0
ENDCHAR
STARTCHAR U+005C
ENCODING 92
SWIDTH 400 0
DWIDTH 4 0
BBX 3 9 0 0
BITMAP
80
80
80
40
40
40
20
20
20
ENDCHAR
STARTCHAR U+005D
ENCODING 93
SWIDTH 300 0
DWIDTH 3 0
BBX 2 9 0 0
BITMAP
C0
40
40
40
40
40
40
40
C0
ENDCHAR
STARTCHAR U+005E
ENCODING 94
SWIDTH 600 0
DWIDTH 6 0
BBX 5 3 0 6
BITMAP
20
50
88
ENDCHAR
STARTCHAR U+005F
ENCODING 95
SWIDTH 600 0
DWIDTH 6 0
BBX 5 1 0 0
BITMAP
F8
ENDCHAR
STARTCHAR U+0060
ENCODING 96
SWIDTH 400 0
DWIDTH 4 0
BBX 3 3 0 6
BITMAP
80
40
20
ENDCHAR
STARTCHAR U+0061
ENCODING 97
SWIDTH 500 0
DWIDTH 5 0
BBX 4 5 0 0
BITMAP
70
10
F0
90
F0
ENDCHAR
STARTCHAR U+0062
ENCODING 98
SWIDTH 500 0
DWIDTH 5 0
BBX 4 9 0 0
BITMAP
80
80
80
80
F0
90
90
90
F0
ENDCHAR
STARTCHAR U+0063
ENCODING 99
SWIDTH 500 0
DWIDTH 5 0
BBX 4 5 0 0
BITMAP
F0
80
80
80
F0
ENDCHAR
STARTCHAR U+0064
ENCODING 100
SWIDTH 500 0
DWIDTH 5 0
BBX 4 9 0 0
BITMAP
10
10
10
10
F0
90
90
90
F0
ENDCHAR
STARTCHAR U+0065
ENCODING 101
SWIDTH 500 0
DWIDTH 5 0
BBX 4 5 0 0
BITMAP
F0
90
F0
80
F0
ENDCHAR
STARTCHAR U+0066
ENCODING 102
SWIDTH 400 0
DWIDTH 4 0
BBX 3 9 0 0
BITMAP
60
40
40
40
E0
40
40
40
40
ENDCHAR
STARTCHAR U+0067
ENCODING 103
SWIDTH 500 0
DWIDTH 5 0
BBX 4 5 0 0
BITMAP
F0
90
F0
10
F0
ENDCHAR
STARTCHAR U+0068
ENCODING 104
SWIDTH 500 0
DWIDTH 5 0
BBX 4 9 0 0
BITMAP
80
80
80
80
F0
90
90
90
90
ENDCHAR
STARTCHAR U+0069
ENCODING 105
SWIDTH 200 0
DWIDTH 2 0
BBX 1 7 0 0
BITMAP
80
00
80
80
80
80
80
ENDCHAR
STARTCHAR U+006A
ENCODING 106
SWIDTH 400 0
DWIDTH 4 0
BBX 3 7 0 0
BITMAP
20
00
20
20
20
A0
E0
ENDCHAR
STARTCHAR U+006B
ENCODING 107
SWIDTH 500 0
DWIDTH 5 0
BBX 4 9 0 0
BITMAP
80
80
80
80
90
A0
C0
A0
90
ENDCHAR
STARTCHAR U+006C
ENCODING 108
SWIDTH 200 0
DWIDTH 2 0
BBX 1 9 0 0
BITMAP
80
80
80
80
80
80
80
80
80
ENDCHAR
STARTCHAR U+006D
ENCODING 109
SWIDTH 600 0
DWIDTH 6 0
BBX 5 5 0 0
BITMAP
F8
A8
A8
A8
A8
ENDCHAR
STARTCHAR U+006E
ENCODING 110
SWIDTH 500 0
DWIDTH 5 0
BBX 4 5 0 0
BITMAP
E0
90
90
90
90
ENDCHAR
STARTCHAR U+006F
ENCODING 111
SWIDTH 500 0
DWIDTH 5 0
BBX 4 5 0 0
BITMAP
F0
90
90
90
F0
ENDCHAR
STARTCHAR U+0070
ENCODING 112
SWIDTH 500 0
DWIDTH 5 0
BBX 4 5 0 0
BITMAP
F0
90
F0
80
80
ENDCHAR
STARTCHAR U+0071
ENCODING 113
SWIDTH 500 0
DWIDTH 5 0
BBX 4 5 0 0
BITMAP
F0
90
F0
10
10
ENDCHAR
STARTCHAR U+0072
ENCODING 114
SWIDTH 400 0
DWIDTH 4 0
BBX 3 5 0 0
BITMAP
E0
80
80
80
80
ENDCHAR
STARTCHAR U+0073
ENCODING 115
SWIDTH 500 0
DWIDTH 5 0
BBX 4 5 0 0
BITMAP
F0
80
F0
10
F0
ENDCHAR
STARTCHAR U+0074
ENCODING 116
SWIDTH 400 0
DWIDTH 4 0
BBX 3 9 0 0
BITMAP
40
40
40
40
E0
40
40
40
60
ENDCHAR
STARTCHAR U+0075
ENCODING 117
SWIDTH 500 0
DWIDTH 5 0
BBX 4 5 0 0
BITMAP
90
90
90
90
F0
ENDCHAR
STARTCHAR U+0076
ENCODING 118
SWIDTH 500 0
DWIDTH 5 0
BBX 4 5 0 0
BITMAP
90
90
90
50
30
ENDCHAR
STARTCHAR U+0077
ENCODING 119
SWIDTH 600 0
DWIDTH 6 0
BBX 5 5 0 0
BITMAP
88
88
A8
A8
F8
ENDCHAR
STARTCHAR U+0078
ENCODING 120
SWIDTH 600 0
DWIDTH 6 0
BBX 5 5 0 0
BITMAP
88
50
20
50
88
ENDCHAR
STARTCHAR U+0079
ENCODING 121
SWIDTH 500 0
DWIDTH 5 0
BBX 4 5 0 0
BITMAP
90
90
F0
10
F0
ENDCHAR
STARTCHAR U+007A
ENCODING 122
SWIDTH 500 0
DWIDTH 5 0
BBX 4 5 0 0
BITMAP
F0
20
40
80
F0
ENDCHAR
STARTCHAR U+007B
ENCODING 123
SWIDTH 400 0
DWIDTH 4 0
BBX 3 9 0 0
BITMAP
20
40
40
C0
80
C0
40
40
20
ENDCHAR
STARTCHAR U+007C
ENCODING 124
SWIDTH 200 0
DWIDTH 2 0
BBX 1 9 0 0
BITMAP
80
80
80
80
80
80
80
80
80
ENDCHAR
STARTCHAR U+007D
ENCODING 125
SWIDTH 400 0
DWIDTH 4 0
BBX 3 9 0 0
BITMAP
80
40
40
60
20
60
40
40
80
ENDCHAR
STARTCHAR U+007E
ENCODING 126
SWIDTH 700 0
DWIDTH 7 0
BBX 6 2 0 2
BITMAP
64
98
ENDCHAR
STARTCHAR U+00A1
ENCODING 161
SWIDTH 200 0
DWIDTH 2 0
BBX 1 9 0 0
BITMAP
80
00
80
80
80
80
80
80
80
ENDCHAR
STARTCHAR U+00AA
ENCODING 170
SWIDTH 400 0
DWIDTH 4 0
BBX 3 5 0 4
BITMAP
60
A0
E0
00
E0
ENDCHAR
STARTCHAR U+00AB
ENCODING 171
SWIDTH 600 0
DWIDTH 6 0
BBX 5 5 0 0
BITMAP
28
50
A0
50
28
ENDCHAR
STARTCHAR U+00B0
ENCODING 176
SWIDTH 400 0
DWIDTH 4 0
BBX 3 3 0 6
BITMAP
E0
A0
E0
ENDCHAR
STARTCHAR U+00BA
ENCODING 186
SWIDTH 400 0
DWIDTH 4 0
BBX 3 5 0 4
BITMAP
E0
A0
E0
00
E0
ENDCHAR
STARTCHAR U+00BB
ENCODING 187
SWIDTH 600 0
DWIDTH 6 0
BBX 5 5 0 0
BITMAP
A0
50
28
50
A0
ENDCHAR
STARTCHAR U+00BF
ENCODING 191
SWIDTH 600 0
DWIDTH 6 0
BBX 5 9 0 0
BITMAP
20
00
20
20
E0
80
80
88
F8
ENDCHAR
STARTCHAR U+00DF
ENCODING 223
SWIDTH 500 0
DWIDTH 5 0
BBX 4 9 0 0
BITMAP
E0
90
90
90
B0
90
90
90
A0
ENDCHAR
STARTCHAR U+00E0
ENCODING 224
SWIDTH 500 0
DWIDTH 5 0
BBX 4 8 0 0
BITMAP
80
40
00
70
10
F0
90
F0
ENDCHAR
STARTCHAR U+00E1
ENCODING 225
SWIDTH 500 0
DWIDTH 5 0
BBX 4 8 0 0
BITMAP
10
20
00
70
10
F0
90
F0
ENDCHAR
STARTCHAR U+00E2
ENCODING 226
SWIDTH 500 0
DWIDTH 5 0
BBX 4 8 0 0
BITMAP
20
50
00
70
10
F0
90
F0
ENDCHAR
STARTCHAR U+00E4
ENCODING 228
SWIDTH 500 0
DWIDTH 5 0
BBX 4 7 0 0
BITMAP
90
00
70
10
F0
90
F0
ENDCHAR
STARTCHAR U+00E6
ENCODING 230
SWIDTH 800 0
DWIDTH 8 0
BBX 7 5 0 0
BITMAP
7E
12
FE
90
FE
ENDCHAR
STARTCHAR U+00E7
ENCODING 231
SWIDTH 500 0
DWIDTH 5 0
BBX 4 5 0 0
BITMAP
F0
80
80
F0
20
ENDCHAR
STARTCHAR U+00E8
ENCODING 232
SWIDTH 500 0
DWIDTH 5 0
BBX 4 8 0 0
BITMAP
80
40
00
F0
90
F0
80
F0
ENDCHAR
STARTCHAR U+00E9
ENCODING 233
SWIDTH 500 0
DWIDTH 5 0
BBX 4 8 0 0
BITMAP
10
20
00
F0
90
F0
80
F0
ENDCHAR
STARTCHAR U+00EA
ENCODING 234
SWIDTH 500 0
DWIDTH 5 0
BBX 4 8 0 0
BITMAP
20
50
00
F0
90
F0
80
F0
ENDCHAR
STARTCHAR U+00EB
ENCODING 235
SWIDTH 500 0
DWIDTH 5 0
BBX 4 7 0 0
BITMAP
90
00
F0
90
F0
80
F0
ENDCHAR
STARTCHAR U+00EC
ENCODING 236
SWIDTH 300 0
DWIDTH 3 0
BBX 2 8 0 0
BITMAP
80
40
00
40
40
40
40
40
ENDCHAR
STARTCHAR U+00ED
ENCODING 237
SWIDTH 300 0
DWIDTH 3 0
BBX 2 8 0 0
BITMAP
40
80
00
80
80
80
80
80
ENDCHAR
STARTCHAR U+00EE
ENCODING 238
SWIDTH 400 0
DWIDTH 4 0
BBX 3 8 0 0
BITMAP
40
A0
00
40
40
40
40
40
ENDCHAR
STARTCHAR U+00EF
ENCODING 239
SWIDTH 400 0
DWIDTH 4 0
BBX 3 7 0 0
BITMAP
A0
00
40
40
40
40
40
ENDCHAR
STARTCHAR U+00F1
ENCODING 241
SWIDTH 500 0
DWIDTH 5 0
BBX 4 8 0 0
BITMAP
D0
B0
00
E0
90
90
90
90
ENDCHAR
STARTCHAR U+00F2
ENCODING 242
SWIDTH 500 0
DWIDTH 5 0
BBX 4 8 0 0
BITMAP
80
40
00
F0
90
90
90
F0
ENDCHAR
STARTCHAR U+00F3
ENCODING 243
SWIDTH 500 0
DWIDTH 5 0
BBX 4 8 0 0
BITMAP
10
20
00
F0
90
90
90
F0
ENDCHAR
STARTCHAR U+00F4
ENCODING 244
SWIDTH 500 0
DWIDTH 5 0
BBX 4 8 0 0
BITMAP
20
50
00
F0
90
90
90
F0
ENDCHAR
STARTCHAR U+00F6
ENCODING 246
SWIDTH 500 0
DWIDTH 5 0
BBX 4 7 0 0
BITMAP
90
00
F0
90
90
90
F0
ENDCHAR
STARTCHAR U+00F9
ENCODING 249
SWIDTH 500 0
DWIDTH 5 0
BBX 4 8 0 0
BITMAP
80
40
00
90
90
90
90
F0
ENDCHAR
STARTCHAR U+00FA
ENCODING 250
SWIDTH 500 0
DWIDTH 5 0
BBX 4 8 0 0
BITMAP
10
20
00
90
90
90
90
F0
ENDCHAR
STARTCHAR U+00FB
ENCODING 251
SWIDTH 500 0
DWIDTH 5 0
BBX 4 8 0 0
BITMAP
20
50
00
90
90
90
90
F0
ENDCHAR
STARTCHAR U+00FC
ENCODING 252
SWIDTH 500 0
DWIDTH 5 0
BBX 4 7 0 0
BITMAP
90
00
90
90
90
90
F0
ENDCHAR
STARTCHAR U+00FD
ENCODING 253
SWIDTH 500 0
DWIDTH 5 0
BBX 4 8 0 0
BITMAP
10
20
00
90
90
F0
10
F0
ENDCHAR
STARTCHAR U+00FF
ENCODING 255
SWIDTH 500 0
DWIDTH 5 0
BBX 4 7 0 0
BITMAP
90
00
90
90
F0
10
F0
ENDCHAR
STARTCHAR U+010D
ENCODING 269
SWIDTH 500 0
DWIDTH 5 0
BBX 4 8 0 0
BITMAP
50
20
00
F0
80
80
80
F0
ENDCHAR
STARTCHAR U+010F
ENCODING 271
SWIDTH 500 0
DWIDTH 5 0
BBX 4 9 0 0
BITMAP
50
50
10
10
F0
90
90
90
F0
ENDCHAR
STARTCHAR U+011B
ENCODING 283
SWIDTH 600 0
DWIDTH 6 0
BBX 4 8 0 0
BITMAP
50
20
00
F0
90
F0
80
F0
ENDCHAR
STARTCHAR U+0148
ENCODING 328
SWIDTH 500 0
DWIDTH 5 0
BBX 4 8 0 0
BITMAP
A0
40
00
E0
90
90
90
90
ENDCHAR
STARTCHAR U+0153
ENCODING 339
SWIDTH 800 0
DWIDTH 8 0
BBX 7 5 0 0
BITMAP
FE
92
9E
90
FE
ENDCHAR
STARTCHAR U+0159
ENCODING 345
SWIDTH 400 0
DWIDTH 4 0
BBX 3 8 0 0
BITMAP
A0
40
00
E0
80
80
80
80
ENDCHAR
STARTCHAR U+0161
ENCODING 353
SWIDTH 500 0
DWIDTH 5 0
BBX 4 8 0 0
BITMAP
50
20
00
F0
80
F0
10
F0
ENDCHAR
STARTCHAR U+0165
ENCODING 357
SWIDTH 500 0
DWIDTH 5 0
BBX 4 9 0 0
BITMAP
50
50
40
40
E0
40
40
40
60
ENDCHAR
STARTCHAR U+016F
ENCODING 367
SWIDTH 500 0
DWIDTH 5 0
BBX 4 8 0 0
BITMAP
60
60
00
90
90
90
90
F0
ENDCHAR
STARTCHAR U+017E
ENCODING 382
SWIDTH 500 0
DWIDTH 5 0
BBX 4 8 0 0
BITMAP
50
20
00
F0
20
40
80
F0
ENDCHAR
STARTCHAR U+2018
ENCODING 8216
SWIDTH 200 0
DWIDTH 2 0
BBX 1 4 0 5
BITMAP
80
80
80
80
ENDCHAR
STARTCHAR U+2019
ENCODING 8217
SWIDTH 200 0
DWIDTH 2 0
BBX 1 4 0 5
BITMAP
80
80
80
80
ENDCHAR
STARTCHAR U+201A
ENCODING 8218
SWIDTH 200 0
DWIDTH 2 0
BBX 1 4 0 0
BITMAP
80
80
80
80
ENDCHAR
STARTCHAR U+201C
ENCODING 8220
SWIDTH 400 0
DWIDTH 4 0
BBX 3 4 0 5
BITMAP
A0
A0
A0
A0
ENDCHAR
STARTCHAR U+201D
ENCODING 8221
SWIDTH 400 0
DWIDTH 4 0
BBX 3 4 0 5
BITMAP
A0
A0
A0
A0
ENDCHAR
STARTCHAR U+201E
ENCODING 8222
SWIDTH 400 0
DWIDTH 4 0
BBX 3 4 0 0
BITMAP
A0
A0
A0
A0
ENDCHAR
STARTCHAR U+20AC
ENCODING 8364
SWIDTH 600 0
DWIDTH 6 0
BBX 5 9 0 0
BITMAP
78
48
40
E0
40
E0
40
48
78
ENDCHAR
ENDFONT
