STARTFONT 2.1
FONT -PixelFonts-pixelfont_21x11_bold-Bold-R-Normal--23-230-75-75-P-0-ISO10646-1
SIZE 23 75 75
FONTBOUNDINGBOX 15 21 0 0
STARTPROPERTIES 7
FOUNDRY "PixelFonts"
FAMILY_NAME "pixelfont_21x11_bold"
WEIGHT_NAME "Bold"
PIXEL_SIZE 23
FONT_ASCENT 21
FONT_DESCENT 2
DEFAULT_CHAR 32
ENDPROPERTIES
CHARS 95
STARTCHAR U+0020
ENCODING 32
SWIDTH 304 0
DWIDTH 7 0
BBX 1 1 0 0
BITMAP
00
ENDCHAR
STARTCHAR U+0021
ENCODING 33
SWIDTH 217 0
DWIDTH 5 0
BBX 3 21 0 0
BITMAP
E0
E0
E0
E0
E0
E0
E0
E0
E0
E0
E0
E0
E0
E0
E0
00
00
00
E0
E0
E0
ENDCHAR
STARTCHAR U+0022
ENCODING 34
SWIDTH 391 0
DWIDTH 9 0
BBX 7 5 0 16
BITMAP
EE
EE
EE
EE
EE
ENDCHAR
STARTCHAR U+0023
ENCODING 35
SWIDTH 652 0
DWIDTH 15 0
BBX 13 14 0 3
BITMAP
38E0
38E0
38E0
FFF8
FFF8
FFF8
38E0
38E0
FFF8
FFF8
FFF8
38E0
38E0
38E0
ENDCHAR
STARTCHAR U+0024
ENCODING 36
SWIDTH 652 0
DWIDTH 15 0
BBX 13 21 0 0
BITMAP
0700
0700
FFF8
FFF8
FFF8
E700
E700
E700
E700
FFF8
FFF8
FFF8
0738
0738
0738
0738
FFF8
FFF8
FFF8
0700
0700
ENDCHAR
STARTCHAR U+0025
ENCODING 37
SWIDTH 652 0
DWIDTH 15 0
BBX 13 21 0 0
BITMAP
F838
F838
D838
F838
F838
0038
0078
00F0
01E0
03C0
0780
0F00
1E00
3C00
7800
F000
E0F8
E0F8
E0D8
E0F8
E0F8
ENDCHAR
STARTCHAR U+0026
ENCODING 38
SWIDTH 652 0
DWIDTH 15 0
BBX 13 21 0 0
BITMAP
7FC0
FFE0
FFE0
E0E0
E0E0
E0E0
E1E0
E3E0
E7C0
FF80
FF00
FFB8
FFF8
E3F8
E1F0
E0E0
E0E0
E1F0
FFF8
FFF8
7F38
ENDCHAR
STARTCHAR U+0027
ENCODING 39
SWIDTH 217 0
DWIDTH 5 0
BBX 3 9 0 12
BITMAP
E0
E0
E0
E0
E0
E0
E0
E0
E0
ENDCHAR
STARTCHAR U+0028
ENCODING 40
SWIDTH 304 0
DWIDTH 7 0
BBX 5 21 0 0
BITMAP
78
F8
F8
E0
E0
E0
E0
E0
E0
E0
E0
E0
E0
E0
E0
E0
E0
E0
F8
F8
78
ENDCHAR
STARTCHAR U+0029
ENCODING 41
SWIDTH 304 0
DWIDTH 7 0
BBX 5 21 0 0
BITMAP
F0
F8
F8
38
38
38
38
38
38
38
38
38
38
38
38
38
38
38
F8
F8
F0
ENDCHAR
STARTCHAR U+002A
ENCODING 42
SWIDTH 652 0
DWIDTH 15 0
BBX 13 17 0 2
BITMAP
E738
E738
E738
E738
E738
E738
E738
FFF8
FFF8
FFF8
E738
E738
E738
E738
E738
E738
E738
ENDCHAR
STARTCHAR U+002B
ENCODING 43
SWIDTH 478 0
DWIDTH 11 0
BBX 9 9 0 6
BITMAP
1C00
1C00
1C00
FF80
FF80
FF80
1C00
1C00
1C00
ENDCHAR
STARTCHAR U+002C
ENCODING 44
SWIDTH 217 0
DWIDTH 5 0
BBX 3 9 0 0
BITMAP
E0
E0
E0
E0
E0
E0
E0
E0
E0
ENDCHAR
STARTCHAR U+002D
ENCODING 45
SWIDTH 565 0
DWIDTH 13 0
BBX 9 3 0 9
BITMAP
FF80
FF80
FF80
ENDCHAR
STARTCHAR U+002E
ENCODING 46
SWIDTH 217 0
DWIDTH 5 0
BBX 3 3 0 0
BITMAP
E0
E0
E0
ENDCHAR
STARTCHAR U+002F
ENCODING 47
SWIDTH 391 0
DWIDTH 9 0
BBX 7 21 0 0
BITMAP
0E
0E
0E
0E
1C
1C
1C
1C
38
38
38
38
38
70
70
70
70
E0
E0
E0
E0
ENDCHAR
STARTCHAR U+0030
ENCODING 48
SWIDTH 565 0
DWIDTH 13 0
BBX 11 21 0 0
BITMAP
FFE0
FFE0
FFE0
E0E0
E0E0
E0E0
E0E0
E0E0
E0E0
E0E0
E0E0
E0E0
E0E0
E0E0
E0E0
E0E0
E0E0
E0E0
FFE0
FFE0
FFE0
ENDCHAR
STARTCHAR U+0031
ENCODING 49
SWIDTH 217 0
DWIDTH 5 0
BBX 3 21 0 0
BITMAP
E0
E0
E0
E0
E0
E0
E0
E0
E0
E0
E0
E0
E0
E0
E0
E0
E0
E0
E0
E0
E0
ENDCHAR
STARTCHAR U+0032
ENCODING 50
SWIDTH 565 0
DWIDTH 13 0
BBX 11 21 0 0
BITMAP
FFE0
FFE0
FFE0
E0E0
00E0
00E0
00E0
00E0
00E0
FFE0
FFE0
FFE0
E000
E000
E000
E000
E000
E000
FFE0
FFE0
FFE0
ENDCHAR
STARTCHAR U+0033
ENCODING 51
SWIDTH 565 0
DWIDTH 13 0
BBX 11 21 0 0
BITMAP
FFE0
FFE0
FFE0
00E0
00E0
00E0
00E0
00E0
00E0
1FE0
1FE0
1FE0
00E0
00E0
00E0
00E0
00E0
00E0
FFE0
FFE0
FFE0
ENDCHAR
STARTCHAR U+0034
ENCODING 52
SWIDTH 565 0
DWIDTH 13 0
BBX 11 21 0 0
BITMAP
E0E0
E0E0
E0E0
E0E0
E0E0
E0E0
E0E0
E0E0
E0E0
FFE0
FFE0
FFE0
00E0
00E0
00E0
00E0
00E0
00E0
00E0
00E0
00E0
ENDCHAR
STARTCHAR U+0035
ENCODING 53
SWIDTH 565 0
DWIDTH 13 0
BBX 11 21 0 0
BITMAP
FFE0
FFE0
FFE0
E000
E000
E000
E000
E000
E000
FFE0
FFE0
FFE0
00E0
00E0
00E0
00E0
00E0
E0E0
FFE0
FFE0
FFE0
ENDCHAR
STARTCHAR U+0036
ENCODING 54
SWIDTH 565 0
DWIDTH 13 0
BBX 11 21 0 0
BITMAP
FFE0
FFE0
FFE0
E0E0
E000
E000
E000
E000
E000
FFE0
FFE0
FFE0
E0E0
E0E0
E0E0
E0E0
E0E0
E0E0
FFE0
FFE0
FFE0
ENDCHAR
STARTCHAR U+0037
ENCODING 55
SWIDTH 565 0
DWIDTH 13 0
BBX 11 21 0 0
BITMAP
FFE0
FFE0
FFE0
E0E0
00E0
00E0
00E0
00E0
00E0
00E0
00E0
00E0
00E0
00E0
00E0
00E0
00E0
00E0
00E0
00E0
00E0
ENDCHAR
STARTCHAR U+0038
ENCODING 56
SWIDTH 565 0
DWIDTH 13 0
BBX 11 21 0 0
BITMAP
FFE0
FFE0
FFE0
E0E0
E0E0
E0E0
E0E0
E0E0
E0E0
FFE0
FFE0
FFE0
E0E0
E0E0
E0E0
E0E0
E0E0
E0E0
FFE0
FFE0
FFE0
ENDCHAR
STARTCHAR U+0039
ENCODING 57
SWIDTH 565 0
DWIDTH 13 0
BBX 11 21 0 0
BITMAP
FFE0
FFE0
FFE0
E0E0
E0E0
E0E0
E0E0
E0E0
E0E0
FFE0
FFE0
FFE0
00E0
00E0
00E0
00E0
00E0
E0E0
FFE0
FFE0
FFE0
ENDCHAR
STARTCHAR U+003A
ENCODING 58
SWIDTH 217 0
DWIDTH 5 0
BBX 3 13 0 2
BITMAP
E0
E0
E0
E0
00
00
00
00
00
E0
E0
E0
E0
ENDCHAR
STARTCHAR U+003B
ENCODING 59
SWIDTH 304 0
DWIDTH 7 0
BBX 3 15 2 0
BITMAP
E0
E0
E0
E0
00
00
00
00
00
E0
E0
E0
E0
E0
E0
ENDCHAR
STARTCHAR U+003C
ENCODING 60
SWIDTH 565 0
DWIDTH 13 0
BBX 11 17 0 2
BITMAP
00E0
01E0
03E0
07C0
0F80
1F00
3E00
7C00
F800
7C00
3E00
1F00
0F80
07C0
03E0
01E0
00E0
ENDCHAR
STARTCHAR U+003D
ENCODING 61
SWIDTH 478 0
DWIDTH 11 0
BBX 9 8 0 6
BITMAP
FF80
FF80
FF80
0000
0000
FF80
FF80
FF80
ENDCHAR
STARTCHAR U+003E
ENCODING 62
SWIDTH 565 0
DWIDTH 13 0
BBX 11 17 0 2
BITMAP
E000
F000
F800
7C00
3E00
1F00
0F80
07C0
03E0
07C0
0F80
1F00
3E00
7C00
F800
F000
E000
ENDCHAR
STARTCHAR U+003F
ENCODING 63
SWIDTH 652 0
DWIDTH 15 0
BBX 13 21 0 0
BITMAP
FFF8
FFF8
FFF8
E038
E038
0038
0038
0038
0038
07F8
07F8
07F8
0700
0700
0700
0000
0000
0000
0700
0700
0700
ENDCHAR
STARTCHAR U+0040
ENCODING 64
SWIDTH 652 0
DWIDTH 15 0
BBX 13 21 0 0
BITMAP
FFF8
FFF8
FFF8
E038
E038
E038
E038
E038
E738
E738
E738
E738
E7F8
E7F8
E7F8
E000
E000
E000
FFF8
FFF8
FFF8
ENDCHAR
STARTCHAR U+0041
ENCODING 65
SWIDTH 565 0
DWIDTH 13 0
BBX 11 21 0 0
BITMAP
FFE0
FFE0
FFE0
E0E0
E0E0
E0E0
E0E0
E0E0
E0E0
E0E0
E0E0
E0E0
FFE0
FFE0
FFE0
E0E0
E0E0
E0E0
E0E0
E0E0
E0E0
ENDCHAR
STARTCHAR U+0042
ENCODING 66
SWIDTH 565 0
DWIDTH 13 0
BBX 11 21 0 0
BITMAP
FFC0
FFE0
FFE0
E0E0
E0E0
E0E0
E0E0
E0E0
E0E0
FFE0
FFE0
FFE0
E0E0
E0E0
E0E0
E0E0
E0E0
E0E0
FFE0
FFE0
FFC0
ENDCHAR
STARTCHAR U+0043
ENCODING 67
SWIDTH 565 0
DWIDTH 13 0
BBX 11 21 0 0
BITMAP
FFE0
FFE0
FFE0
E0E0
E0E0
E000
E000
E000
E000
E000
E000
E000
E000
E000
E000
E000
E0E0
E0E0
FFE0
FFE0
FFE0
ENDCHAR
STARTCHAR U+0044
ENCODING 68
SWIDTH 565 0
DWIDTH 13 0
BBX 11 21 0 0
BITMAP
FFC0
FFE0
FFE0
E0E0
E0E0
E0E0
E0E0
E0E0
E0E0
E0E0
E0E0
E0E0
E0E0
E0E0
E0E0
E0E0
E0E0
E0E0
FFE0
FFE0
FFC0
ENDCHAR
STARTCHAR U+0045
ENCODING 69
SWIDTH 565 0
DWIDTH 13 0
BBX 11 21 0 0
BITMAP
FFE0
FFE0
FFE0
E000
E000
E000
E000
E000
E000
FF00
FF00
FF00
E000
E000
E000
E000
E000
E000
FFE0
FFE0
FFE0
ENDCHAR
STARTCHAR U+0046
ENCODING 70
SWIDTH 565 0
DWIDTH 13 0
BBX 11 21 0 0
BITMAP
FFE0
FFE0
FFE0
E000
E000
E000
E000
E000
E000
FF00
FF00
FF00
E000
E000
E000
E000
E000
E000
E000
E000
E000
ENDCHAR
STARTCHAR U+0047
ENCODING 71
SWIDTH 565 0
DWIDTH 13 0
BBX 11 21 0 0
BITMAP
FFE0
FFE0
FFE0
E0E0
E000
E000
E000
E000
E000
E7E0
E7E0
E7E0
E0E0
E0E0
E0E0
E0E0
E0E0
E0E0
FFE0
FFE0
FFE0
ENDCHAR
STARTCHAR U+0048
ENCODING 72
SWIDTH 565 0
DWIDTH 13 0
BBX 11 21 0 0
BITMAP
E0E0
E0E0
E0E0
E0E0
E0E0
E0E0
E0E0
E0E0
E0E0
FFE0
FFE0
FFE0
E0E0
E0E0
E0E0
E0E0
E0E0
E0E0
E0E0
E0E0
E0E0
ENDCHAR
STARTCHAR U+0049
ENCODING 73
SWIDTH 217 0
DWIDTH 5 0
BBX 3 21 0 0
BITMAP
E0
E0
E0
E0
E0
E0
E0
E0
E0
E0
E0
E0
E0
E0
E0
E0
E0
E0
E0
E0
E0
ENDCHAR
STARTCHAR U+004A
ENCODING 74
SWIDTH 565 0
DWIDTH 13 0
BBX 11 21 0 0
BITMAP
00E0
00E0
00E0
00E0
00E0
00E0
00E0
00E0
00E0
00E0
00E0
00E0
00E0
E0E0
E0E0
E0E0
E0E0
E0E0
FFE0
FFE0
FFE0
ENDCHAR
STARTCHAR U+004B
ENCODING 75
SWIDTH 652 0
DWIDTH 15 0
BBX 13 21 0 0
BITMAP
E038
E038
E038
E038
E078
E0F0
E1E0
E3C0
E780
FF00
FE00
FF00
E780
E3C0
E1E0
E0F0
E078
E038
E038
E038
E038
ENDCHAR
STARTCHAR U+004C
ENCODING 76
SWIDTH 565 0
DWIDTH 13 0
BBX 11 21 0 0
BITMAP
E000
E000
E000
E000
E000
E000
E000
E000
E000
E000
E000
E000
E000
E000
E000
E000
E000
E000
FFE0
FFE0
FFE0
ENDCHAR
STARTCHAR U+004D
ENCODING 77
SWIDTH 652 0
DWIDTH 15 0
BBX 13 21 0 0
BITMAP
FFF8
FFF8
FFF8
E738
E738
E738
E738
E738
E738
E738
E738
E738
E038
E038
E038
E038
E038
E038
E038
E038
E038
ENDCHAR
STARTCHAR U+004E
ENCODING 78
SWIDTH 565 0
DWIDTH 13 0
BBX 11 21 0 0
BITMAP
E0E0
E0E0
E0E0
E0E0
E0E0
F0E0
F8E0
FCE0
FEE0
EFE0
E7E0
E3E0
E1E0
E0E0
E0E0
E0E0
E0E0
E0E0
E0E0
E0E0
E0E0
ENDCHAR
STARTCHAR U+004F
ENCODING 79
SWIDTH 565 0
DWIDTH 13 0
BBX 11 21 0 0
BITMAP
FFE0
FFE0
FFE0
E0E0
E0E0
E0E0
E0E0
E0E0
E0E0
E0E0
E0E0
E0E0
E0E0
E0E0
E0E0
E0E0
E0E0
E0E0
FFE0
FFE0
FFE0
ENDCHAR
STARTCHAR U+0050
ENCODING 80
SWIDTH 565 0
DWIDTH 13 0
BBX 11 21 0 0
BITMAP
FFE0
FFE0
FFE0
E0E0
E0E0
E0E0
E0E0
E0E0
E0E0
FFE0
FFE0
FFE0
E000
E000
E000
E000
E000
E000
E000
E000
E000
ENDCHAR
STARTCHAR U+0051
ENCODING 81
SWIDTH 565 0
DWIDTH 13 0
BBX 11 21 0 0
BITMAP
FFE0
FFE0
FFE0
E0E0
E0E0
E0E0
E0E0
E0E0
E0E0
E0E0
E0E0
E0E0
E0E0
E0E0
E0E0
E7E0
E7E0
E7E0
FFE0
FFE0
FFE0
ENDCHAR
STARTCHAR U+0052
ENCODING 82
SWIDTH 652 0
DWIDTH 15 0
BBX 13 21 0 0
BITMAP
FFF8
FFF8
FFF8
E038
E038
E038
E038
E038
E038
FFF8
FFF8
FFF8
FE00
FF00
EF80
E7C0
E3E0
E1F0
E0F8
E078
E038
ENDCHAR
STARTCHAR U+0053
ENCODING 83
SWIDTH 565 0
DWIDTH 13 0
BBX 11 21 0 0
BITMAP
FFE0
FFE0
FFE0
E0E0
E0E0
E000
E000
E000
E000
FFE0
FFE0
FFE0
00E0
00E0
00E0
00E0
E0E0
E0E0
FFE0
FFE0
FFE0
ENDCHAR
STARTCHAR U+0054
ENCODING 84
SWIDTH 652 0
DWIDTH 15 0
BBX 13 21 0 0
BITMAP
FFF8
FFF8
FFF8
0700
0700
0700
0700
0700
0700
0700
0700
0700
0700
0700
0700
0700
0700
0700
0700
0700
0700
ENDCHAR
STARTCHAR U+0055
ENCODING 85
SWIDTH 652 0
DWIDTH 15 0
BBX 13 21 0 0
BITMAP
E038
E038
E038
E038
E038
E038
E038
E038
E038
E038
E038
E038
E038
E038
E038
E038
E038
E038
FFF8
FFF8
FFF8
ENDCHAR
STARTCHAR U+0056
ENCODING 86
SWIDTH 652 0
DWIDTH 15 0
BBX 13 21 0 0
BITMAP
E038
E038
E038
E038
E038
E038
E038
E038
E038
E038
E038
E038
E038
E038
F078
F8F8
7DF0
3FE0
1FC0
0F80
0700
ENDCHAR
STARTCHAR U+0057
ENCODING 87
SWIDTH 652 0
DWIDTH 15 0
BBX 13 21 0 0
BITMAP
E038
E038
E038
E038
E038
E038
E038
E038
E038
E738
E738
E738
E738
E738
E738
E738
E738
E738
FFF8
FFF8
FFF8
ENDCHAR
STARTCHAR U+0058
ENCODING 88
SWIDTH 652 0
DWIDTH 15 0
BBX 13 21 0 0
BITMAP
E038
E038
E038
E038
E038
E038
F078
78F0
3DE0
1FC0
0F80
1FC0
3DE0
78F0
F078
E038
E038
E038
E038
E038
E038
ENDCHAR
STARTCHAR U+0059
ENCODING 89
SWIDTH 652 0
DWIDTH 15 0
BBX 13 21 0 0
BITMAP
E038
E038
E038
E038
E038
E038
F078
F8F8
7DF0
3FE0
1FC0
0F80
0700
0700
0700
0700
0700
0700
0700
0700
0700
ENDCHAR
STARTCHAR U+005A
ENCODING 90
SWIDTH 652 0
DWIDTH 15 0
BBX 13 21 0 0
BITMAP
FFF8
FFF8
FFF8
0038
0038
0078
00F0
01E0
03C0
0780
0F00
1E00
3C00
7800
F000
E000
E000
E000
FFF8
FFF8
FFF8
ENDCHAR
STARTCHAR U+005B
ENCODING 91
SWIDTH 391 0
DWIDTH 9 0
BBX 5 21 0 0
BITMAP
F8
F8
F8
E0
E0
E0
E0
E0
E0
E0
E0
E0
E0
E0
E0
E0
E0
E0
F8
F8
F8
ENDCHAR
STARTCHAR U+005C
ENCODING 92
SWIDTH 391 0
DWIDTH 9 0
BBX 7 21 0 0
BITMAP
E0
E0
E0
E0
70
70
70
70
38
38
38
38
38
1C
1C
1C
1C
0E
0E
0E
0E
ENDCHAR
STARTCHAR U+005D
ENCODING 93
SWIDTH 304 0
DWIDTH 7 0
BBX 5 21 0 0
BITMAP
F8
F8
F8
38
38
38
38
38
38
38
38
38
38
38
38
38
38
38
F8
F8
F8
ENDCHAR
STARTCHAR U+005E
ENCODING 94
SWIDTH 652 0
DWIDTH 15 0
BBX 13 8 0 13
BITMAP
0700
0F80
1FC0
3FE0
7DF0
F8F8
F078
E038
ENDCHAR
STARTCHAR U+005F
ENCODING 95
SWIDTH 652 0
DWIDTH 15 0
BBX 13 3 0 0
BITMAP
FFF8
FFF8
FFF8
ENDCHAR
STARTCHAR U+0060
ENCODING 96
SWIDTH 391 0
DWIDTH 9 0
BBX 7 7 0 14
BITMAP
E0
F0
F8
7C
3E
1E
0E
ENDCHAR
STARTCHAR U+0061
ENCODING 97
SWIDTH 565 0
DWIDTH 13 0
BBX 11 14 0 0
BITMAP
1FE0
1FE0
1FE0
00E0
00E0
FFE0
FFE0
FFE0
E0E0
E0E0
E0E0
FFE0
FFE0
FFE0
ENDCHAR
STARTCHAR U+0062
ENCODING 98
SWIDTH 565 0
DWIDTH 13 0
BBX 11 21 0 0
BITMAP
E000
E000
E000
E000
E000
E000
E000
FFE0
FFE0
FFE0
E0E0
E0E0
E0E0
E0E0
E0E0
E0E0
E0E0
E0E0
FFE0
FFE0
FFE0
ENDCHAR
STARTCHAR U+0063
ENCODING 99
SWIDTH 565 0
DWIDTH 13 0
BBX 11 14 0 0
BITMAP
FFE0
FFE0
FFE0
E000
E000
E000
E000
E000
E000
E000
E000
FFE0
FFE0
FFE0
ENDCHAR
STARTCHAR U+0064
ENCODING 100
SWIDTH 565 0
DWIDTH 13 0
BBX 11 21 0 0
BITMAP
00E0
00E0
00E0
00E0
00E0
00E0
00E0
FFE0
FFE0
FFE0
E0E0
E0E0
E0E0
E0E0
E0E0
E0E0
E0E0
E0E0
FFE0
FFE0
FFE0
ENDCHAR
STARTCHAR U+0065
ENCODING 101
SWIDTH 565 0
DWIDTH 13 0
BBX 11 14 0 0
BITMAP
FFE0
FFE0
FFE0
E0E0
E0E0
FFE0
FFE0
FFE0
E000
E000
E000
FFE0
FFE0
FFE0
ENDCHAR
STARTCHAR U+0066
ENCODING 102
SWIDTH 391 0
DWIDTH 9 0
BBX 7 21 0 0
BITMAP
3E
3E
3E
38
38
38
38
FE
FE
FE
38
38
38
38
38
38
38
38
38
38
38
ENDCHAR
STARTCHAR U+0067
ENCODING 103
SWIDTH 565 0
DWIDTH 13 0
BBX 11 14 0 0
BITMAP
FFE0
FFE0
FFE0
E0E0
E0E0
FFE0
FFE0
FFE0
00E0
00E0
00E0
FFE0
FFE0
FFE0
ENDCHAR
STARTCHAR U+0068
ENCODING 104
SWIDTH 565 0
DWIDTH 13 0
BBX 11 21 0 0
BITMAP
E000
E000
E000
E000
E000
E000
E000
FFE0
FFE0
FFE0
E0E0
E0E0
E0E0
E0E0
E0E0
E0E0
E0E0
E0E0
E0E0
E0E0
E0E0
ENDCHAR
STARTCHAR U+0069
ENCODING 105
SWIDTH 217 0
DWIDTH 5 0
BBX 3 20 0 0
BITMAP
E0
E0
E0
00
00
00
E0
E0
E0
E0
E0
E0
E0
E0
E0
E0
E0
E0
E0
E0
ENDCHAR
STARTCHAR U+006A
ENCODING 106
SWIDTH 391 0
DWIDTH 9 0
BBX 7 20 0 0
BITMAP
0E
0E
0E
00
00
00
0E
0E
0E
0E
0E
0E
0E
0E
0E
EE
EE
FE
FE
FE
ENDCHAR
STARTCHAR U+006B
ENCODING 107
SWIDTH 565 0
DWIDTH 13 0
BBX 11 21 0 0
BITMAP
E000
E000
E000
E000
E000
E000
E000
E0E0
E0E0
E0E0
E0E0
E3E0
EFE0
FF80
FC00
FF80
EFE0
E3E0
E0E0
E0E0
E0E0
ENDCHAR
STARTCHAR U+006C
ENCODING 108
SWIDTH 217 0
DWIDTH 5 0
BBX 3 21 0 0
BITMAP
E0
E0
E0
E0
E0
E0
E0
E0
E0
E0
E0
E0
E0
E0
E0
E0
E0
E0
E0
E0
E0
ENDCHAR
STARTCHAR U+006D
ENCODING 109
SWIDTH 652 0
DWIDTH 15 0
BBX 13 14 0 0
BITMAP
FFF8
FFF8
FFF8
E738
E738
E738
E738
E738
E738
E738
E738
E738
E738
E738
ENDCHAR
STARTCHAR U+006E
ENCODING 110
SWIDTH 565 0
DWIDTH 13 0
BBX 11 14 0 0
BITMAP
FFC0
FFE0
FFE0
E0E0
E0E0
E0E0
E0E0
E0E0
E0E0
E0E0
E0E0
E0E0
E0E0
E0E0
ENDCHAR
STARTCHAR U+006F
ENCODING 111
SWIDTH 565 0
DWIDTH 13 0
BBX 11 14 0 0
BITMAP
FFE0
FFE0
FFE0
E0E0
E0E0
E0E0
E0E0
E0E0
E0E0
E0E0
E0E0
FFE0
FFE0
FFE0
ENDCHAR
STARTCHAR U+0070
ENCODING 112
SWIDTH 565 0
DWIDTH 13 0
BBX 11 14 0 0
BITMAP
FFE0
FFE0
FFE0
E0E0
E0E0
FFE0
FFE0
FFE0
E000
E000
E000
E000
E000
E000
ENDCHAR
STARTCHAR U+0071
ENCODING 113
SWIDTH 565 0
DWIDTH 13 0
BBX 11 14 0 0
BITMAP
FFE0
FFE0
FFE0
E0E0
E0E0
FFE0
FFE0
FFE0
00E0
00E0
00E0
00E0
00E0
00E0
ENDCHAR
STARTCHAR U+0072
ENCODING 114
SWIDTH 391 0
DWIDTH 9 0
BBX 7 14 0 0
BITMAP
FE
FE
FE
E0
E0
E0
E0
E0
E0
E0
E0
E0
E0
E0
ENDCHAR
STARTCHAR U+0073
ENCODING 115
SWIDTH 565 0
DWIDTH 13 0
BBX 11 14 0 0
BITMAP
FFE0
FFE0
FFE0
E000
E000
FFE0
FFE0
FFE0
00E0
00E0
00E0
FFE0
FFE0
FFE0
ENDCHAR
STARTCHAR U+0074
ENCODING 116
SWIDTH 391 0
DWIDTH 9 0
BBX 7 21 0 0
BITMAP
38
38
38
38
38
38
38
FE
FE
FE
38
38
38
38
38
38
38
38
3E
3E
3E
ENDCHAR
STARTCHAR U+0075
ENCODING 117
SWIDTH 565 0
DWIDTH 13 0
BBX 11 14 0 0
BITMAP
E0E0
E0E0
E0E0
E0E0
E0E0
E0E0
E0E0
E0E0
E0E0
E0E0
E0E0
FFE0
FFE0
FFE0
ENDCHAR
STARTCHAR U+0076
ENCODING 118
SWIDTH 565 0
DWIDTH 13 0
BBX 11 14 0 0
BITMAP
E0E0
E0E0
E0E0
E0E0
E0E0
E0E0
E0E0
F0E0
F8E0
7CE0
3EE0
1FE0
0FE0
07E0
ENDCHAR
STARTCHAR U+0077
ENCODING 119
SWIDTH 652 0
DWIDTH 15 0
BBX 13 14 0 0
BITMAP
E038
E038
E038
E038
E038
E738
E738
E738
E738
E738
E738
FFF8
FFF8
FFF8
ENDCHAR
STARTCHAR U+0078
ENCODING 120
SWIDTH 652 0
DWIDTH 15 0
BBX 13 14 0 0
BITMAP
E038
E038
E038
F078
78F0
3DE0
1FC0
0F80
1FC0
3DE0
78F0
F078
E038
E038
ENDCHAR
STARTCHAR U+0079
ENCODING 121
SWIDTH 565 0
DWIDTH 13 0
BBX 11 14 0 0
BITMAP
E0E0
E0E0
E0E0
E0E0
E0E0
FFE0
FFE0
FFE0
00E0
00E0
00E0
FFE0
FFE0
FFE0
ENDCHAR
STARTCHAR U+007A
ENCODING 122
SWIDTH 565 0
DWIDTH 13 0
BBX 11 14 0 0
BITMAP
FFE0
FFE0
FFE0
03C0
03C0
0780
0F00
1E00
3C00
7800
F000
FFE0
FFE0
FFE0
ENDCHAR
STARTCHAR U+007B
ENCODING 123
SWIDTH 348 0
DWIDTH 8 0
BBX 6 21 0 0
BITMAP
3C
7C
7C
70
70
70
70
F0
F0
F0
E0
F0
F0
F0
70
70
70
70
7C
7C
3C
ENDCHAR
STARTCHAR U+007C
ENCODING 124
SWIDTH 217 0
DWIDTH 5 0
BBX 3 21 0 0
BITMAP
E0
E0
E0
E0
E0
E0
E0
E0
E0
E0
E0
E0
E0
E0
E0
E0
E0
E0
E0
E0
E0
ENDCHAR
STARTCHAR U+007D
ENCODING 125
SWIDTH 348 0
DWIDTH 8 0
BBX 6 21 0 0
BITMAP
F0
F8
F8
38
38
38
38
38
3C
3C
1C
3C
3C
38
38
38
38
38
F8
F8
F0
ENDCHAR
STARTCHAR U+007E
ENCODING 126
SWIDTH 739 0
DWIDTH 17 0
BBX 15 6 0 6
BITMAP
7F0E
FF8E
FFDE
F7FE
E3FE
E1FC
ENDCHAR
ENDFONT
