STARTFONT 2.1
FONT -PixelFonts-pixelfont_21x11_thin-Thin-R-Normal--23-230-75-75-P-0-ISO10646-1
SIZE 23 75 75
FONTBOUNDINGBOX 15 21 0 0
STARTPROPERTIES 7
FOUNDRY "PixelFonts"
FAMILY_NAME "pixelfont_21x11_thin"
WEIGHT_NAME "Thin"
PIXEL_SIZE 23
FONT_ASCENT 21
FONT_DESCENT 2
DEFAULT_CHAR 32
ENDPROPERTIES
CHARS 95
STARTCHAR U+0020
ENCODING 32
SWIDTH 304 0
DWIDTH 7 0
BBX 1 1 0 0
BITMAP
00
ENDCHAR
STARTCHAR U+0021
ENCODING 33
SWIDTH 130 0
DWIDTH 3 0
BBX 1 21 0 0
BITMAP
80
80
80
80
80
80
80
80
80
80
80
80
80
80
80
00
00
00
00
80
80
ENDCHAR
STARTCHAR U+0022
ENCODING 34
SWIDTH 261 0
DWIDTH 6 0
BBX 4 5 0 16
BITMAP
90
90
90
90
90
ENDCHAR
STARTCHAR U+0023
ENCODING 35
SWIDTH 652 0
DWIDTH 15 0
BBX 13 21 0 0
BITMAP
1040
1040
1040
1040
1040
1040
FFF8
1040
1040
1040
1040
1040
1040
1040
FFF8
1040
1040
1040
1040
1040
1040
ENDCHAR
STARTCHAR U+0024
ENCODING 36
SWIDTH 652 0
DWIDTH 15 0
BBX 13 21 0 0
BITMAP
0200
0200
0200
0200
FFF8
8200
8200
8200
8200
8200
FFF8
0208
0208
0208
0208
0208
FFF8
0200
0200
0200
0200
ENDCHAR
STARTCHAR U+0025
ENCODING 37
SWIDTH 652 0
DWIDTH 15 0
BBX 13 19 0 1
BITMAP
F808
8808
8808
8808
F810
0020
0040
0080
0100
0200
0400
0800
1000
2000
40F8
8088
8088
8088
80F8
ENDCHAR
STARTCHAR U+0026
ENCODING 38
SWIDTH 652 0
DWIDTH 15 0
BBX 13 21 0 0
BITMAP
7F80
8040
8040
8040
8080
8100
8200
8400
8800
5000
2000
5800
8440
8240
8140
8080
8040
8060
8050
8048
7F80
ENDCHAR
STARTCHAR U+0027
ENCODING 39
SWIDTH 130 0
DWIDTH 3 0
BBX 1 5 0 16
BITMAP
80
80
80
80
80
ENDCHAR
STARTCHAR U+0028
ENCODING 40
SWIDTH 217 0
DWIDTH 5 0
BBX 2 21 0 0
BITMAP
40
80
80
80
80
80
80
80
80
80
80
80
80
80
80
80
80
80
80
80
40
ENDCHAR
STARTCHAR U+0029
ENCODING 41
SWIDTH 217 0
DWIDTH 5 0
BBX 2 21 0 0
BITMAP
80
40
40
40
40
40
40
40
40
40
40
40
40
40
40
40
40
40
40
40
80
ENDCHAR
STARTCHAR U+002A
ENCODING 42
SWIDTH 652 0
DWIDTH 15 0
BBX 7 7 3 7
BITMAP
44
28
10
FE
10
28
44
ENDCHAR
STARTCHAR U+002B
ENCODING 43
SWIDTH 391 0
DWIDTH 9 0
BBX 7 7 0 7
BITMAP
10
10
10
FE
10
10
10
ENDCHAR
STARTCHAR U+002C
ENCODING 44
SWIDTH 130 0
DWIDTH 3 0
BBX 1 5 0 0
BITMAP
80
80
80
80
80
ENDCHAR
STARTCHAR U+002D
ENCODING 45
SWIDTH 565 0
DWIDTH 13 0
BBX 7 1 0 10
BITMAP
FE
ENDCHAR
STARTCHAR U+002E
ENCODING 46
SWIDTH 130 0
DWIDTH 3 0
BBX 1 1 0 0
BITMAP
80
ENDCHAR
STARTCHAR U+002F
ENCODING 47
SWIDTH 304 0
DWIDTH 7 0
BBX 5 21 0 0
BITMAP
08
08
08
10
10
10
10
10
20
20
20
20
20
40
40
40
40
40
80
80
80
ENDCHAR
STARTCHAR U+0030
ENCODING 48
SWIDTH 565 0
DWIDTH 13 0
BBX 11 21 0 0
BITMAP
FFE0
8020
8020
8020
8020
8020
8020
8020
8020
8020
8020
8020
8020
8020
8020
8020
8020
8020
8020
8020
FFE0
ENDCHAR
STARTCHAR U+0031
ENCODING 49
SWIDTH 130 0
DWIDTH 3 0
BBX 1 21 0 0
BITMAP
80
80
80
80
80
80
80
80
80
80
80
80
80
80
80
80
80
80
80
80
80
ENDCHAR
STARTCHAR U+0032
ENCODING 50
SWIDTH 565 0
DWIDTH 13 0
BBX 11 21 0 0
BITMAP
FFE0
8020
8020
8020
0020
0020
0020
0020
0020
0020
FFE0
8000
8000
8000
8000
8000
8000
8000
8000
8000
FFE0
ENDCHAR
STARTCHAR U+0033
ENCODING 51
SWIDTH 565 0
DWIDTH 13 0
BBX 11 21 0 0
BITMAP
FFE0
0020
0020
0020
0020
0020
0020
0020
0020
0020
1FE0
0020
0020
0020
0020
0020
0020
0020
0020
0020
FFE0
ENDCHAR
STARTCHAR U+0034
ENCODING 52
SWIDTH 565 0
DWIDTH 13 0
BBX 11 21 0 0
BITMAP
8020
8020
8020
8020
8020
8020
8020
8020
8020
8020
FFE0
0020
0020
0020
0020
0020
0020
0020
0020
0020
0020
ENDCHAR
STARTCHAR U+0035
ENCODING 53
SWIDTH 565 0
DWIDTH 13 0
BBX 11 21 0 0
BITMAP
FFE0
8000
8000
8000
8000
8000
8000
8000
8000
8000
FFE0
0020
0020
0020
0020
0020
0020
8020
8020
8020
FFE0
ENDCHAR
STARTCHAR U+0036
ENCODING 54
SWIDTH 565 0
DWIDTH 13 0
BBX 11 21 0 0
BITMAP
FFE0
8020
8020
8020
8000
8000
8000
8000
8000
8000
FFE0
8020
8020
8020
8020
8020
8020
8020
8020
8020
FFE0
ENDCHAR
STARTCHAR U+0037
ENCODING 55
SWIDTH 565 0
DWIDTH 13 0
BBX 11 21 0 0
BITMAP
FFE0
8020
8020
8020
0020
0020
0020
0020
0020
0020
0020
0020
0020
0020
0020
0020
0020
0020
0020
0020
0020
ENDCHAR
STARTCHAR U+0038
ENCODING 56
SWIDTH 565 0
DWIDTH 13 0
BBX 11 21 0 0
BITMAP
FFE0
8020
8020
8020
8020
8020
8020
8020
8020
8020
FFE0
8020
8020
8020
8020
8020
8020
8020
8020
8020
FFE0
ENDCHAR
STARTCHAR U+0039
ENCODING 57
SWIDTH 565 0
DWIDTH 13 0
BBX 11 21 0 0
BITMAP
FFE0
8020
8020
8020
8020
8020
8020
8020
8020
8020
FFE0
0020
0020
0020
0020
0020
0020
8020
8020
8020
FFE0
ENDCHAR
STARTCHAR U+003A
ENCODING 58
SWIDTH 130 0
DWIDTH 3 0
BBX 1 13 0 2
BITMAP
80
80
80
00
00
00
00
00
00
00
80
80
80
ENDCHAR
STARTCHAR U+003B
ENCODING 59
SWIDTH 130 0
DWIDTH 3 0
BBX 1 9 0 0
BITMAP
80
80
80
00
00
80
80
80
80
ENDCHAR
STARTCHAR U+003C
ENCODING 60
SWIDTH 391 0
DWIDTH 9 0
BBX 7 13 0 4
BITMAP
02
04
08
10
20
40
80
40
20
10
08
04
02
ENDCHAR
STARTCHAR U+003D
ENCODING 61
SWIDTH 391 0
DWIDTH 9 0
BBX 7 5 0 8
BITMAP
FE
00
00
00
FE
ENDCHAR
STARTCHAR U+003E
ENCODING 62
SWIDTH 391 0
DWIDTH 9 0
BBX 7 13 0 4
BITMAP
80
40
20
10
08
04
02
04
08
10
20
40
80
ENDCHAR
STARTCHAR U+003F
ENCODING 63
SWIDTH 652 0
DWIDTH 15 0
BBX 13 21 0 0
BITMAP
FFF8
8008
8008
8008
8008
0008
0008
0008
0008
0008
03F8
0200
0200
0200
0200
0000
0000
0000
0000
0200
0200
ENDCHAR
STARTCHAR U+0040
ENCODING 64
SWIDTH 652 0
DWIDTH 15 0
BBX 13 21 0 0
BITMAP
FFF8
8008
8008
8008
8008
8008
8208
8208
8208
8208
8208
8208
8208
8208
83F8
8000
8000
8000
8000
8000
FFF8
ENDCHAR
STARTCHAR U+0041
ENCODING 65
SWIDTH 565 0
DWIDTH 13 0
BBX 11 21 0 0
BITMAP
FFE0
8020
8020
8020
8020
8020
8020
8020
8020
8020
8020
8020
8020
8020
FFE0
8020
8020
8020
8020
8020
8020
ENDCHAR
STARTCHAR U+0042
ENCODING 66
SWIDTH 565 0
DWIDTH 13 0
BBX 11 21 0 0
BITMAP
FFC0
8020
8020
8020
8020
8020
8020
8020
8020
8020
FFE0
8020
8020
8020
8020
8020
8020
8020
8020
8020
FFC0
ENDCHAR
STARTCHAR U+0043
ENCODING 67
SWIDTH 565 0
DWIDTH 13 0
BBX 11 21 0 0
BITMAP
FFE0
8020
8020
8020
8000
8000
8000
8000
8000
8000
8000
8000
8000
8000
8000
8000
8000
8020
8020
8020
FFE0
ENDCHAR
STARTCHAR U+0044
ENCODING 68
SWIDTH 565 0
DWIDTH 13 0
BBX 11 21 0 0
BITMAP
FFC0
8020
8020
8020
8020
8020
8020
8020
8020
8020
8020
8020
8020
8020
8020
8020
8020
8020
8020
8020
FFC0
ENDCHAR
STARTCHAR U+0045
ENCODING 69
SWIDTH 565 0
DWIDTH 13 0
BBX 11 21 0 0
BITMAP
FFE0
8000
8000
8000
8000
8000
8000
8000
8000
8000
FF00
8000
8000
8000
8000
8000
8000
8000
8000
8000
FFE0
ENDCHAR
STARTCHAR U+0046
ENCODING 70
SWIDTH 565 0
DWIDTH 13 0
BBX 11 21 0 0
BITMAP
FFE0
8000
8000
8000
8000
8000
8000
8000
8000
8000
FF00
8000
8000
8000
8000
8000
8000
8000
8000
8000
8000
ENDCHAR
STARTCHAR U+0047
ENCODING 71
SWIDTH 565 0
DWIDTH 13 0
BBX 11 21 0 0
BITMAP
FFE0
8020
8020
8020
8000
8000
8000
8000
8000
8000
81E0
8020
8020
8020
8020
8020
8020
8020
8020
8020
FFE0
ENDCHAR
STARTCHAR U+0048
ENCODING 72
SWIDTH 565 0
DWIDTH 13 0
BBX 11 21 0 0
BITMAP
8020
8020
8020
8020
8020
8020
8020
8020
8020
8020
FFE0
8020
8020
8020
8020
8020
8020
8020
8020
8020
8020
ENDCHAR
STARTCHAR U+0049
ENCODING 73
SWIDTH 130 0
DWIDTH 3 0
BBX 1 21 0 0
BITMAP
80
80
80
80
80
80
80
80
80
80
80
80
80
80
80
80
80
80
80
80
80
ENDCHAR
STARTCHAR U+004A
ENCODING 74
SWIDTH 565 0
DWIDTH 13 0
BBX 11 21 0 0
BITMAP
0020
0020
0020
0020
0020
0020
0020
0020
0020
0020
0020
0020
0020
0020
8020
8020
8020
8020
8020
8020
FFE0
ENDCHAR
STARTCHAR U+004B
ENCODING 75
SWIDTH 652 0
DWIDTH 15 0
BBX 13 21 0 0
BITMAP
8008
8008
8008
8008
8008
8030
80C0
8300
8C00
B000
C000
B000
8C00
8300
80C0
8030
8008
8008
8008
8008
8008
ENDCHAR
STARTCHAR U+004C
ENCODING 76
SWIDTH 565 0
DWIDTH 13 0
BBX 11 21 0 0
BITMAP
8000
8000
8000
8000
8000
8000
8000
8000
8000
8000
8000
8000
8000
8000
8000
8000
8000
8000
8000
8000
FFE0
ENDCHAR
STARTCHAR U+004D
ENCODING 77
SWIDTH 652 0
DWIDTH 15 0
BBX 13 21 0 0
BITMAP
FFF8
8208
8208
8208
8208
8208
8208
8008
8008
8008
8008
8008
8008
8008
8008
8008
8008
8008
8008
8008
8008
ENDCHAR
STARTCHAR U+004E
ENCODING 78
SWIDTH 565 0
DWIDTH 13 0
BBX 11 21 0 0
BITMAP
8020
8020
8020
8020
C020
A020
9020
8820
8420
8220
8120
80A0
8060
8020
8020
8020
8020
8020
8020
8020
8020
ENDCHAR
STARTCHAR U+004F
ENCODING 79
SWIDTH 565 0
DWIDTH 13 0
BBX 11 21 0 0
BITMAP
FFE0
8020
8020
8020
8020
8020
8020
8020
8020
8020
8020
8020
8020
8020
8020
8020
8020
8020
8020
8020
FFE0
ENDCHAR
STARTCHAR U+0050
ENCODING 80
SWIDTH 565 0
DWIDTH 13 0
BBX 11 21 0 0
BITMAP
FFE0
8020
8020
8020
8020
8020
8020
8020
8020
8020
FFE0
8000
8000
8000
8000
8000
8000
8000
8000
8000
8000
ENDCHAR
STARTCHAR U+0051
ENCODING 81
SWIDTH 565 0
DWIDTH 13 0
BBX 11 21 0 0
BITMAP
FFE0
8020
8020
8020
8020
8020
8020
8020
8020
8020
8020
8020
8020
8020
8020
8420
8220
8120
80A0
8060
FFE0
ENDCHAR
STARTCHAR U+0052
ENCODING 82
SWIDTH 652 0
DWIDTH 15 0
BBX 13 21 0 0
BITMAP
FFF8
8008
8008
8008
8008
8008
8008
8008
8008
8008
FFF8
9000
8800
8400
8200
8100
8080
8040
8020
8010
8008
ENDCHAR
STARTCHAR U+0053
ENCODING 83
SWIDTH 565 0
DWIDTH 13 0
BBX 11 21 0 0
BITMAP
FFE0
8020
8020
8020
8000
8000
8000
8000
8000
8000
FFE0
0020
0020
0020
0020
0020
0020
8020
8020
8020
FFE0
ENDCHAR
STARTCHAR U+0054
ENCODING 84
SWIDTH 652 0
DWIDTH 15 0
BBX 13 21 0 0
BITMAP
FFF8
0200
0200
0200
0200
0200
0200
0200
0200
0200
0200
0200
0200
0200
0200
0200
0200
0200
0200
0200
0200
ENDCHAR
STARTCHAR U+0055
ENCODING 85
SWIDTH 652 0
DWIDTH 15 0
BBX 13 21 0 0
BITMAP
8008
8008
8008
8008
8008
8008
8008
8008
8008
8008
8008
8008
8008
8008
8008
8008
8008
8008
8008
8008
FFF8
ENDCHAR
STARTCHAR U+0056
ENCODING 86
SWIDTH 652 0
DWIDTH 15 0
BBX 13 21 0 0
BITMAP
8008
8008
8008
8008
8008
8008
8008
8008
8008
8008
8008
8008
8008
8008
8008
4010
2020
1040
0880
0500
0200
ENDCHAR
STARTCHAR U+0057
ENCODING 87
SWIDTH 652 0
DWIDTH 15 0
BBX 13 21 0 0
BITMAP
8008
8008
8008
8008
8008
8008
8008
8008
8008
8008
8208
8208
8208
8208
8208
8208
8208
8208
8208
8208
FFF8
ENDCHAR
STARTCHAR U+0058
ENCODING 88
SWIDTH 652 0
DWIDTH 15 0
BBX 13 21 0 0
BITMAP
8008
8008
8008
8008
8008
4010
2020
1040
0880
0500
0200
0500
0880
1040
2020
4010
8008
8008
8008
8008
8008
ENDCHAR
STARTCHAR U+0059
ENCODING 89
SWIDTH 652 0
DWIDTH 15 0
BBX 13 21 0 0
BITMAP
8008
8008
8008
8008
8008
4010
2020
1040
0880
0500
0200
0200
0200
0200
0200
0200
0200
0200
0200
0200
0200
ENDCHAR
STARTCHAR U+005A
ENCODING 90
SWIDTH 652 0
DWIDTH 15 0
BBX 13 21 0 0
BITMAP
FFF8
0008
0008
0008
0008
0010
0020
0040
0080
0100
0200
0400
0800
1000
2000
4000
8000
8000
8000
8000
FFF8
ENDCHAR
STARTCHAR U+005B
ENCODING 91
SWIDTH 174 0
DWIDTH 4 0
BBX 2 21 0 0
BITMAP
C0
80
80
80
80
80
80
80
80
80
80
80
80
80
80
80
80
80
80
80
C0
ENDCHAR
STARTCHAR U+005C
ENCODING 92
SWIDTH 304 0
DWIDTH 7 0
BBX 5 21 0 0
BITMAP
80
80
80
40
40
40
40
40
20
20
20
20
20
10
10
10
10
10
08
08
08
ENDCHAR
STARTCHAR U+005D
ENCODING 93
SWIDTH 174 0
DWIDTH 4 0
BBX 2 21 0 0
BITMAP
C0
40
40
40
40
40
40
40
40
40
40
40
40
40
40
40
40
40
40
40
C0
ENDCHAR
STARTCHAR U+005E
ENCODING 94
SWIDTH 652 0
DWIDTH 15 0
BBX 13 7 0 14
BITMAP
0200
0500
0880
1040
2020
4010
8008
ENDCHAR
STARTCHAR U+005F
ENCODING 95
SWIDTH 565 0
DWIDTH 13 0
BBX 11 1 0 0
BITMAP
FFE0
ENDCHAR
STARTCHAR U+0060
ENCODING 96
SWIDTH 217 0
DWIDTH 5 0
BBX 3 6 0 15
BITMAP
80
80
40
40
20
20
ENDCHAR
STARTCHAR U+0061
ENCODING 97
SWIDTH 565 0
DWIDTH 13 0
BBX 11 15 0 0
BITMAP
1FE0
0020
0020
0020
0020
0020
0020
0020
FFE0
8020
8020
8020
8020
8020
FFE0
ENDCHAR
STARTCHAR U+0062
ENCODING 98
SWIDTH 565 0
DWIDTH 13 0
BBX 11 21 0 0
BITMAP
8000
8000
8000
8000
8000
8000
FFE0
8020
8020
8020
8020
8020
8020
8020
8020
8020
8020
8020
8020
8020
FFE0
ENDCHAR
STARTCHAR U+0063
ENCODING 99
SWIDTH 565 0
DWIDTH 13 0
BBX 11 15 0 0
BITMAP
FFE0
8000
8000
8000
8000
8000
8000
8000
8000
8000
8000
8000
8000
8000
FFE0
ENDCHAR
STARTCHAR U+0064
ENCODING 100
SWIDTH 565 0
DWIDTH 13 0
BBX 11 21 0 0
BITMAP
0020
0020
0020
0020
0020
0020
FFE0
8020
8020
8020
8020
8020
8020
8020
8020
8020
8020
8020
8020
8020
FFE0
ENDCHAR
STARTCHAR U+0065
ENCODING 101
SWIDTH 565 0
DWIDTH 13 0
BBX 11 15 0 0
BITMAP
FFE0
8020
8020
8020
8020
8020
8020
8020
FFE0
8000
8000
8000
8000
8000
FFE0
ENDCHAR
STARTCHAR U+0066
ENCODING 102
SWIDTH 304 0
DWIDTH 7 0
BBX 5 21 0 0
BITMAP
38
20
20
20
20
20
F8
20
20
20
20
20
20
20
20
20
20
20
20
20
20
ENDCHAR
STARTCHAR U+0067
ENCODING 103
SWIDTH 565 0
DWIDTH 13 0
BBX 11 15 0 0
BITMAP
FFE0
8020
8020
8020
8020
8020
8020
8020
FFE0
0020
0020
0020
0020
0020
FFE0
ENDCHAR
STARTCHAR U+0068
ENCODING 104
SWIDTH 565 0
DWIDTH 13 0
BBX 11 21 0 0
BITMAP
8000
8000
8000
8000
8000
8000
FFE0
8020
8020
8020
8020
8020
8020
8020
8020
8020
8020
8020
8020
8020
8020
ENDCHAR
STARTCHAR U+0069
ENCODING 105
SWIDTH 130 0
DWIDTH 3 0
BBX 1 19 0 0
BITMAP
80
80
00
00
80
80
80
80
80
80
80
80
80
80
80
80
80
80
80
ENDCHAR
STARTCHAR U+006A
ENCODING 106
SWIDTH 304 0
DWIDTH 7 0
BBX 5 19 0 0
BITMAP
08
08
00
00
08
08
08
08
08
08
08
08
08
08
88
88
88
88
F8
ENDCHAR
STARTCHAR U+006B
ENCODING 107
SWIDTH 565 0
DWIDTH 13 0
BBX 11 21 0 0
BITMAP
8000
8000
8000
8000
8000
8000
8020
8020
8020
8020
80C0
8300
8C00
B000
C000
B000
8C00
8300
80C0
8020
8020
ENDCHAR
STARTCHAR U+006C
ENCODING 108
SWIDTH 130 0
DWIDTH 3 0
BBX 1 21 0 0
BITMAP
80
80
80
80
80
80
80
80
80
80
80
80
80
80
80
80
80
80
80
80
80
ENDCHAR
STARTCHAR U+006D
ENCODING 109
SWIDTH 652 0
DWIDTH 15 0
BBX 13 15 0 0
BITMAP
FFF8
8208
8208
8208
8208
8208
8208
8208
8208
8208
8208
8208
8208
8208
8208
ENDCHAR
STARTCHAR U+006E
ENCODING 110
SWIDTH 565 0
DWIDTH 13 0
BBX 11 15 0 0
BITMAP
FFC0
8020
8020
8020
8020
8020
8020
8020
8020
8020
8020
8020
8020
8020
8020
ENDCHAR
STARTCHAR U+006F
ENCODING 111
SWIDTH 565 0
DWIDTH 13 0
BBX 11 15 0 0
BITMAP
FFE0
8020
8020
8020
8020
8020
8020
8020
8020
8020
8020
8020
8020
8020
FFE0
ENDCHAR
STARTCHAR U+0070
ENCODING 112
SWIDTH 565 0
DWIDTH 13 0
BBX 11 15 0 0
BITMAP
FFE0
8020
8020
8020
8020
8020
8020
8020
FFE0
8000
8000
8000
8000
8000
8000
ENDCHAR
STARTCHAR U+0071
ENCODING 113
SWIDTH 565 0
DWIDTH 13 0
BBX 11 15 0 0
BITMAP
FFE0
8020
8020
8020
8020
8020
8020
8020
FFE0
0020
0020
0020
0020
0020
0020
ENDCHAR
STARTCHAR U+0072
ENCODING 114
SWIDTH 304 0
DWIDTH 7 0
BBX 5 15 0 0
BITMAP
F8
80
80
80
80
80
80
80
80
80
80
80
80
80
80
ENDCHAR
STARTCHAR U+0073
ENCODING 115
SWIDTH 565 0
DWIDTH 13 0
BBX 11 15 0 0
BITMAP
FFE0
8000
8000
8000
8000
8000
8000
8000
FFE0
0020
0020
0020
0020
0020
FFE0
ENDCHAR
STARTCHAR U+0074
ENCODING 116
SWIDTH 304 0
DWIDTH 7 0
BBX 5 21 0 0
BITMAP
20
20
20
20
20
20
F8
20
20
20
20
20
20
20
20
20
20
20
20
20
38
ENDCHAR
STARTCHAR U+0075
ENCODING 117
SWIDTH 565 0
DWIDTH 13 0
BBX 11 15 0 0
BITMAP
8020
8020
8020
8020
8020
8020
8020
8020
8020
8020
8020
8020
8020
8020
FFE0
ENDCHAR
STARTCHAR U+0076
ENCODING 118
SWIDTH 565 0
DWIDTH 13 0
BBX 11 15 0 0
BITMAP
8020
8020
8020
8020
8020
8020
8020
4020
2020
1020
0820
0420
0220
0120
00E0
ENDCHAR
STARTCHAR U+0077
ENCODING 119
SWIDTH 652 0
DWIDTH 15 0
BBX 13 15 0 0
BITMAP
8008
8008
8008
8008
8008
8008
8008
8008
8208
8208
8208
8208
8208
8208
FFF8
ENDCHAR
STARTCHAR U+0078
ENCODING 120
SWIDTH 652 0
DWIDTH 15 0
BBX 13 15 0 0
BITMAP
8008
8008
4010
2020
1040
0880
0500
0200
0500
0880
1040
2020
4010
8008
8008
ENDCHAR
STARTCHAR U+0079
ENCODING 121
SWIDTH 565 0
DWIDTH 13 0
BBX 11 15 0 0
BITMAP
8020
8020
8020
8020
8020
8020
8020
8020
FFE0
0020
0020
0020
0020
0020
FFE0
ENDCHAR
STARTCHAR U+007A
ENCODING 122
SWIDTH 565 0
DWIDTH 13 0
BBX 11 15 0 0
BITMAP
FFE0
0020
0020
0040
0080
0100
0200
0400
0800
1000
2000
4000
8000
8000
FFE0
ENDCHAR
STARTCHAR U+007B
ENCODING 123
SWIDTH 261 0
DWIDTH 6 0
BBX 3 21 1 0
BITMAP
20
40
40
40
40
40
40
40
40
C0
80
C0
40
40
40
40
40
40
40
40
20
ENDCHAR
STARTCHAR U+007C
ENCODING 124
SWIDTH 130 0
DWIDTH 3 0
BBX 1 21 0 0
BITMAP
80
80
80
80
80
80
80
80
80
80
80
80
80
80
80
80
80
80
80
80
80
ENDCHAR
STARTCHAR U+007D
ENCODING 125
SWIDTH 217 0
DWIDTH 5 0
BBX 3 21 0 0
BITMAP
80
40
40
40
40
40
40
40
40
60
20
60
40
40
40
40
40
40
40
40
80
ENDCHAR
STARTCHAR U+007E
ENCODING 126
SWIDTH 739 0
DWIDTH 17 0
BBX 15 3 0 9
BITMAP
FF02
8102
81FE
ENDCHAR
ENDFONT
