STARTFONT 2.1
FONT -PixelFonts-pixelfont_3d_17x5_thin-Thin-R-Normal--21-210-75-75-P-0-ISO10646-1
SIZE 21 75 75
FONTBOUNDINGBOX 10 20 0 0
STARTPROPERTIES 7
FOUNDRY "PixelFonts"
FAMILY_NAME "pixelfont_3d_17x5_thin"
WEIGHT_NAME "Thin"
PIXEL_SIZE 21
FONT_ASCENT 20
FONT_DESCENT 1
DEFAULT_CHAR 32
ENDPROPERTIES
CHARS 95
STARTCHAR U+0020
ENCODING 32
SWIDTH 333 0
DWIDTH 7 0
BBX 1 1 0 0
BITMAP
00
ENDCHAR
STARTCHAR U+0021
ENCODING 33
SWIDTH 238 0
DWIDTH 5 0
BBX 4 20 0 0
BITMAP
E0
B0
B0
B0
B0
B0
B0
B0
B0
B0
B0
B0
B0
F0
70
E0
B0
B0
F0
70
ENDCHAR
STARTCHAR U+0022
ENCODING 34
SWIDTH 333 0
DWIDTH 7 0
BBX 6 7 0 13
BITMAP
F8
AC
AC
AC
AC
FC
7C
ENDCHAR
STARTCHAR U+0023
ENCODING 35
SWIDTH 429 0
DWIDTH 9 0
BBX 8 12 0 4
BITMAP
7C
56
D6
83
D7
57
D6
83
D7
57
7E
3E
ENDCHAR
STARTCHAR U+0024
ENCODING 36
SWIDTH 429 0
DWIDTH 9 0
BBX 8 18 0 1
BITMAP
38
2C
EE
83
AF
AF
AC
AE
83
EB
6B
2B
EB
83
EF
6F
3C
1C
ENDCHAR
STARTCHAR U+0025
ENCODING 37
SWIDTH 476 0
DWIDTH 10 0
BBX 9 19 0 0
BITMAP
F800
8C00
AF00
8D80
FD80
7B80
1B80
1700
3700
2E00
6E00
5C00
DC00
BF00
B180
F580
7180
1F80
0F80
ENDCHAR
STARTCHAR U+0026
ENCODING 38
SWIDTH 429 0
DWIDTH 9 0
BBX 8 20 0 0
BITMAP
78
CC
B6
B6
B6
AE
AE
AC
DC
5C
D8
AE
AB
B7
B7
B6
B3
CB
7F
3F
ENDCHAR
STARTCHAR U+0027
ENCODING 39
SWIDTH 238 0
DWIDTH 5 0
BBX 4 7 0 13
BITMAP
E0
B0
B0
B0
B0
F0
70
ENDCHAR
STARTCHAR U+0028
ENCODING 40
SWIDTH 286 0
DWIDTH 6 0
BBX 5 20 0 0
BITMAP
70
D8
B8
B8
B0
B0
B0
B0
B0
B0
B0
B0
B0
B0
B0
B0
B0
D8
78
38
ENDCHAR
STARTCHAR U+0029
ENCODING 41
SWIDTH 286 0
DWIDTH 6 0
BBX 5 20 0 0
BITMAP
E0
B0
D8
58
58
58
58
58
58
58
58
58
58
58
58
58
D8
B8
F8
70
ENDCHAR
STARTCHAR U+002A
ENCODING 42
SWIDTH 429 0
DWIDTH 9 0
BBX 8 10 0 5
BITMAP
FE
AB
D7
EF
83
EF
D7
AB
FF
7F
ENDCHAR
STARTCHAR U+002B
ENCODING 43
SWIDTH 429 0
DWIDTH 9 0
BBX 8 8 0 6
BITMAP
38
2C
EE
83
EF
6F
3C
1C
ENDCHAR
STARTCHAR U+002C
ENCODING 44
SWIDTH 238 0
DWIDTH 5 0
BBX 4 7 0 0
BITMAP
E0
B0
B0
B0
B0
F0
70
ENDCHAR
STARTCHAR U+002D
ENCODING 45
SWIDTH 381 0
DWIDTH 8 0
BBX 7 4 0 8
BITMAP
FC
86
FE
7E
ENDCHAR
STARTCHAR U+002E
ENCODING 46
SWIDTH 238 0
DWIDTH 5 0
BBX 4 4 0 0
BITMAP
E0
B0
F0
70
ENDCHAR
STARTCHAR U+002F
ENCODING 47
SWIDTH 333 0
DWIDTH 7 0
BBX 6 20 0 0
BITMAP
38
2C
2C
2C
2C
6C
5C
5C
58
58
58
D8
B8
B8
B0
B0
B0
B0
F0
70
ENDCHAR
STARTCHAR U+0030
ENCODING 48
SWIDTH 381 0
DWIDTH 8 0
BBX 7 20 0 0
BITMAP
FC
86
B6
B6
B6
B6
B6
B6
B6
B6
B6
B6
B6
B6
B6
B6
B6
86
FE
7E
ENDCHAR
STARTCHAR U+0031
ENCODING 49
SWIDTH 238 0
DWIDTH 5 0
BBX 4 20 0 0
BITMAP
E0
B0
B0
B0
B0
B0
B0
B0
B0
B0
B0
B0
B0
B0
B0
B0
B0
B0
F0
70
ENDCHAR
STARTCHAR U+0032
ENCODING 50
SWIDTH 381 0
DWIDTH 8 0
BBX 7 20 0 0
BITMAP
FC
86
B6
B6
F6
76
16
16
F6
86
BE
BE
B0
B0
B0
B0
BC
86
FE
7E
ENDCHAR
STARTCHAR U+0033
ENCODING 51
SWIDTH 381 0
DWIDTH 8 0
BBX 7 20 0 0
BITMAP
FC
86
F6
76
16
16
16
16
76
46
76
36
16
16
16
16
F6
86
FE
7E
ENDCHAR
STARTCHAR U+0034
ENCODING 52
SWIDTH 381 0
DWIDTH 8 0
BBX 7 20 0 0
BITMAP
FC
B6
B6
B6
B6
B6
B6
B6
B6
86
F6
76
16
16
16
16
16
16
1E
0E
ENDCHAR
STARTCHAR U+0035
ENCODING 53
SWIDTH 381 0
DWIDTH 8 0
BBX 7 20 0 0
BITMAP
FC
86
BE
BE
B0
B0
B0
B0
BC
86
F6
76
16
16
16
16
F6
86
FE
7E
ENDCHAR
STARTCHAR U+0036
ENCODING 54
SWIDTH 381 0
DWIDTH 8 0
BBX 7 20 0 0
BITMAP
FC
86
B6
B6
BE
BE
B0
B0
BC
86
B6
B6
B6
B6
B6
B6
B6
86
FE
7E
ENDCHAR
STARTCHAR U+0037
ENCODING 55
SWIDTH 381 0
DWIDTH 8 0
BBX 7 20 0 0
BITMAP
FC
86
B6
B6
F6
76
16
16
16
16
16
16
16
16
16
16
16
16
1E
0E
ENDCHAR
STARTCHAR U+0038
ENCODING 56
SWIDTH 381 0
DWIDTH 8 0
BBX 7 20 0 0
BITMAP
FC
86
B6
B6
B6
B6
B6
B6
B6
86
B6
B6
B6
B6
B6
B6
B6
86
FE
7E
ENDCHAR
STARTCHAR U+0039
ENCODING 57
SWIDTH 381 0
DWIDTH 8 0
BBX 7 20 0 0
BITMAP
FC
86
B6
B6
B6
B6
B6
B6
B6
86
F6
76
16
16
F6
B6
B6
86
FE
7E
ENDCHAR
STARTCHAR U+003A
ENCODING 58
SWIDTH 238 0
DWIDTH 5 0
BBX 4 10 0 5
BITMAP
E0
B0
B0
F0
70
E0
B0
B0
F0
70
ENDCHAR
STARTCHAR U+003B
ENCODING 59
SWIDTH 238 0
DWIDTH 5 0
BBX 4 10 0 0
BITMAP
E0
B0
B0
F0
F0
B0
B0
B0
F0
70
ENDCHAR
STARTCHAR U+003C
ENCODING 60
SWIDTH 381 0
DWIDTH 8 0
BBX 7 10 0 5
BITMAP
1C
36
6E
DE
BC
D8
6C
36
1E
0E
ENDCHAR
STARTCHAR U+003D
ENCODING 61
SWIDTH 429 0
DWIDTH 9 0
BBX 8 8 0 6
BITMAP
FE
83
FF
7F
FE
83
FF
7F
ENDCHAR
STARTCHAR U+003E
ENCODING 62
SWIDTH 381 0
DWIDTH 8 0
BBX 7 10 0 5
BITMAP
E0
B0
D8
6C
36
6E
DE
BC
F8
70
ENDCHAR
STARTCHAR U+003F
ENCODING 63
SWIDTH 429 0
DWIDTH 9 0
BBX 8 20 0 0
BITMAP
FE
83
BB
BB
FB
7B
0B
0B
3B
23
2F
2F
2C
3C
1C
38
2C
2C
3C
1C
ENDCHAR
STARTCHAR U+0040
ENCODING 64
SWIDTH 429 0
DWIDTH 9 0
BBX 8 20 0 0
BITMAP
FE
83
BB
BB
BB
BB
AB
AB
AB
AB
AB
AB
A3
BF
BF
B0
BE
83
FF
7F
ENDCHAR
STARTCHAR U+0041
ENCODING 65
SWIDTH 381 0
DWIDTH 8 0
BBX 7 20 0 0
BITMAP
FC
86
B6
B6
B6
B6
B6
B6
B6
B6
B6
B6
86
B6
B6
B6
B6
B6
FE
7E
ENDCHAR
STARTCHAR U+0042
ENCODING 66
SWIDTH 381 0
DWIDTH 8 0
BBX 7 20 0 0
BITMAP
F8
8C
B6
B6
B6
B6
B6
B6
B6
86
B6
B6
B6
B6
B6
B6
B6
8E
FE
7C
ENDCHAR
STARTCHAR U+0043
ENCODING 67
SWIDTH 381 0
DWIDTH 8 0
BBX 7 20 0 0
BITMAP
FC
86
B6
B6
BE
BE
B0
B0
B0
B0
B0
B0
B0
B0
BC
B6
B6
86
FE
7E
ENDCHAR
STARTCHAR U+0044
ENCODING 68
SWIDTH 381 0
DWIDTH 8 0
BBX 7 20 0 0
BITMAP
F8
8C
B6
B6
B6
B6
B6
B6
B6
B6
B6
B6
B6
B6
B6
B6
B6
8E
FE
7C
ENDCHAR
STARTCHAR U+0045
ENCODING 69
SWIDTH 381 0
DWIDTH 8 0
BBX 7 20 0 0
BITMAP
FC
86
BE
BE
B0
B0
B0
B0
B8
8C
BC
BC
B0
B0
B0
B0
BC
86
FE
7E
ENDCHAR
STARTCHAR U+0046
ENCODING 70
SWIDTH 381 0
DWIDTH 8 0
BBX 7 20 0 0
BITMAP
FC
86
BE
BE
B0
B0
B0
B0
B8
8C
BC
BC
B0
B0
B0
B0
B0
B0
F0
70
ENDCHAR
STARTCHAR U+0047
ENCODING 71
SWIDTH 381 0
DWIDTH 8 0
BBX 7 20 0 0
BITMAP
FC
86
B6
B6
BE
BE
B0
B0
BC
A6
B6
B6
B6
B6
B6
B6
B6
86
FE
7E
ENDCHAR
STARTCHAR U+0048
ENCODING 72
SWIDTH 381 0
DWIDTH 8 0
BBX 7 20 0 0
BITMAP
FC
B6
B6
B6
B6
B6
B6
B6
B6
86
B6
B6
B6
B6
B6
B6
B6
B6
FE
7E
ENDCHAR
STARTCHAR U+0049
ENCODING 73
SWIDTH 238 0
DWIDTH 5 0
BBX 4 20 0 0
BITMAP
E0
B0
B0
B0
B0
B0
B0
B0
B0
B0
B0
B0
B0
B0
B0
B0
B0
B0
F0
70
ENDCHAR
STARTCHAR U+004A
ENCODING 74
SWIDTH 381 0
DWIDTH 8 0
BBX 7 20 0 0
BITMAP
1C
16
16
16
16
16
16
16
16
16
16
F6
B6
B6
B6
B6
B6
86
FE
7E
ENDCHAR
STARTCHAR U+004B
ENCODING 75
SWIDTH 429 0
DWIDTH 9 0
BBX 8 20 0 0
BITMAP
EE
BB
BB
BB
BB
BB
BB
B7
AF
9E
AC
B6
BB
BB
BB
BB
BB
BB
FF
77
ENDCHAR
STARTCHAR U+004C
ENCODING 76
SWIDTH 381 0
DWIDTH 8 0
BBX 7 20 0 0
BITMAP
E0
B0
B0
B0
B0
B0
B0
B0
B0
B0
B0
B0
B0
B0
B0
B0
BC
86
FE
7E
ENDCHAR
STARTCHAR U+004D
ENCODING 77
SWIDTH 429 0
DWIDTH 9 0
BBX 8 20 0 0
BITMAP
FE
83
AB
AB
AB
AB
AB
BB
BB
BB
BB
BB
BB
BB
BB
BB
BB
BB
FF
77
ENDCHAR
STARTCHAR U+004E
ENCODING 78
SWIDTH 381 0
DWIDTH 8 0
BBX 7 20 0 0
BITMAP
FC
B6
B6
B6
B6
96
A6
B6
B6
B6
B6
B6
B6
B6
B6
B6
B6
B6
FE
7E
ENDCHAR
STARTCHAR U+004F
ENCODING 79
SWIDTH 381 0
DWIDTH 8 0
BBX 7 20 0 0
BITMAP
FC
86
B6
B6
B6
B6
B6
B6
B6
B6
B6
B6
B6
B6
B6
B6
B6
86
FE
7E
ENDCHAR
STARTCHAR U+0050
ENCODING 80
SWIDTH 381 0
DWIDTH 8 0
BBX 7 20 0 0
BITMAP
FC
86
B6
B6
B6
B6
B6
B6
B6
86
BE
BE
B0
B0
B0
B0
B0
B0
F0
70
ENDCHAR
STARTCHAR U+0051
ENCODING 81
SWIDTH 381 0
DWIDTH 8 0
BBX 7 20 0 0
BITMAP
FC
86
B6
B6
B6
B6
B6
B6
B6
B6
B6
B6
B6
B6
B6
A6
A6
86
FE
7E
ENDCHAR
STARTCHAR U+0052
ENCODING 82
SWIDTH 429 0
DWIDTH 9 0
BBX 8 20 0 0
BITMAP
FE
83
BB
BB
BB
BB
BB
BB
BB
83
AF
AF
B6
B6
B6
BB
BB
BB
FF
77
ENDCHAR
STARTCHAR U+0053
ENCODING 83
SWIDTH 381 0
DWIDTH 8 0
BBX 7 20 0 0
BITMAP
FC
86
BE
BE
B0
B0
B0
B0
BC
86
F6
76
16
16
16
16
F6
86
FE
7E
ENDCHAR
STARTCHAR U+0054
ENCODING 84
SWIDTH 429 0
DWIDTH 9 0
BBX 8 20 0 0
BITMAP
FE
83
EF
6F
2C
2C
2C
2C
2C
2C
2C
2C
2C
2C
2C
2C
2C
2C
3C
1C
ENDCHAR
STARTCHAR U+0055
ENCODING 85
SWIDTH 381 0
DWIDTH 8 0
BBX 7 20 0 0
BITMAP
FC
B6
B6
B6
B6
B6
B6
B6
B6
B6
B6
B6
B6
B6
B6
B6
B6
86
FE
7E
ENDCHAR
STARTCHAR U+0056
ENCODING 86
SWIDTH 429 0
DWIDTH 9 0
BBX 8 20 0 0
BITMAP
EE
BB
BB
BB
BB
BB
BB
BB
BB
BB
BB
BB
BB
BB
BB
BB
D7
6F
3E
1C
ENDCHAR
STARTCHAR U+0057
ENCODING 87
SWIDTH 429 0
DWIDTH 9 0
BBX 8 20 0 0
BITMAP
EE
BB
BB
BB
BB
BB
BB
BB
BB
AB
AB
AB
AB
AB
AB
AB
AB
83
FF
7F
ENDCHAR
STARTCHAR U+0058
ENCODING 88
SWIDTH 429 0
DWIDTH 9 0
BBX 8 20 0 0
BITMAP
EE
BB
BB
BB
BB
BB
BB
BB
D7
6F
D6
BB
BB
BB
BB
BB
BB
BB
FF
77
ENDCHAR
STARTCHAR U+0059
ENCODING 89
SWIDTH 429 0
DWIDTH 9 0
BBX 8 20 0 0
BITMAP
EE
BB
BB
BB
BB
BB
BB
BB
D7
6F
2E
2C
2C
2C
2C
2C
2C
2C
3C
1C
ENDCHAR
STARTCHAR U+005A
ENCODING 90
SWIDTH 429 0
DWIDTH 9 0
BBX 8 20 0 0
BITMAP
FE
83
FB
7B
1B
17
17
36
2E
2E
6C
5C
5C
D8
B8
B8
BE
83
FF
7F
ENDCHAR
STARTCHAR U+005B
ENCODING 91
SWIDTH 286 0
DWIDTH 6 0
BBX 5 20 0 0
BITMAP
F0
98
B8
B8
B0
B0
B0
B0
B0
B0
B0
B0
B0
B0
B0
B0
B0
98
F8
78
ENDCHAR
STARTCHAR U+005C
ENCODING 92
SWIDTH 333 0
DWIDTH 7 0
BBX 6 20 0 0
BITMAP
E0
B0
B0
B0
B0
B0
D8
58
58
58
58
58
58
6C
2C
2C
2C
2C
3C
1C
ENDCHAR
STARTCHAR U+005D
ENCODING 93
SWIDTH 286 0
DWIDTH 6 0
BBX 5 20 0 0
BITMAP
F0
98
D8
58
58
58
58
58
58
58
58
58
58
58
58
58
D8
98
F8
78
ENDCHAR
STARTCHAR U+005E
ENCODING 94
SWIDTH 429 0
DWIDTH 9 0
BBX 8 6 0 14
BITMAP
38
6C
D6
BB
FF
77
ENDCHAR
STARTCHAR U+005F
ENCODING 95
SWIDTH 429 0
DWIDTH 9 0
BBX 8 4 0 0
BITMAP
FE
83
FF
7F
ENDCHAR
STARTCHAR U+0060
ENCODING 96
SWIDTH 333 0
DWIDTH 7 0
BBX 6 9 0 11
BITMAP
E0
B0
B0
D8
58
6C
2C
3C
1C
ENDCHAR
STARTCHAR U+0061
ENCODING 97
SWIDTH 381 0
DWIDTH 8 0
BBX 7 15 0 0
BITMAP
7C
46
76
36
16
16
F6
86
B6
B6
B6
B6
86
FE
7E
ENDCHAR
STARTCHAR U+0062
ENCODING 98
SWIDTH 381 0
DWIDTH 8 0
BBX 7 20 0 0
BITMAP
E0
B0
B0
B0
B0
BC
86
B6
B6
B6
B6
B6
B6
B6
B6
B6
B6
86
FE
7E
ENDCHAR
STARTCHAR U+0063
ENCODING 99
SWIDTH 381 0
DWIDTH 8 0
BBX 7 15 0 0
BITMAP
FC
86
BE
BE
B0
B0
B0
B0
B0
B0
B0
BC
86
FE
7E
ENDCHAR
STARTCHAR U+0064
ENCODING 100
SWIDTH 381 0
DWIDTH 8 0
BBX 7 20 0 0
BITMAP
1C
16
16
16
16
F6
86
B6
B6
B6
B6
B6
B6
B6
B6
B6
B6
86
FE
7E
ENDCHAR
STARTCHAR U+0065
ENCODING 101
SWIDTH 381 0
DWIDTH 8 0
BBX 7 15 0 0
BITMAP
FC
86
B6
B6
B6
B6
B6
86
BE
BE
B0
BC
86
FE
7E
ENDCHAR
STARTCHAR U+0066
ENCODING 102
SWIDTH 333 0
DWIDTH 7 0
BBX 6 20 0 0
BITMAP
78
4C
5C
5C
58
D8
8C
DC
5C
58
58
58
58
58
58
58
58
58
78
38
ENDCHAR
STARTCHAR U+0067
ENCODING 103
SWIDTH 381 0
DWIDTH 8 0
BBX 7 15 0 0
BITMAP
FC
86
B6
B6
B6
B6
B6
86
F6
76
16
F6
86
FE
7E
ENDCHAR
STARTCHAR U+0068
ENCODING 104
SWIDTH 381 0
DWIDTH 8 0
BBX 7 20 0 0
BITMAP
E0
B0
B0
B0
B0
BC
86
B6
B6
B6
B6
B6
B6
B6
B6
B6
B6
B6
FE
7E
ENDCHAR
STARTCHAR U+0069
ENCODING 105
SWIDTH 238 0
DWIDTH 5 0
BBX 4 20 0 0
BITMAP
E0
B0
B0
F0
70
E0
B0
B0
B0
B0
B0
B0
B0
B0
B0
B0
B0
B0
F0
70
ENDCHAR
STARTCHAR U+006A
ENCODING 106
SWIDTH 333 0
DWIDTH 7 0
BBX 6 20 0 0
BITMAP
38
2C
2C
3C
1C
38
2C
2C
2C
2C
2C
2C
2C
EC
AC
AC
AC
8C
FC
7C
ENDCHAR
STARTCHAR U+006B
ENCODING 107
SWIDTH 429 0
DWIDTH 9 0
BBX 8 20 0 0
BITMAP
E0
B0
B0
B0
B0
BE
BB
BB
BB
BB
B7
AF
9E
AC
B6
BB
BB
BB
FF
77
ENDCHAR
STARTCHAR U+006C
ENCODING 108
SWIDTH 238 0
DWIDTH 5 0
BBX 4 20 0 0
BITMAP
E0
B0
B0
B0
B0
B0
B0
B0
B0
B0
B0
B0
B0
B0
B0
B0
B0
B0
F0
70
ENDCHAR
STARTCHAR U+006D
ENCODING 109
SWIDTH 429 0
DWIDTH 9 0
BBX 8 15 0 0
BITMAP
FE
83
AB
AB
AB
AB
AB
AB
AB
AB
AB
AB
AB
FF
7F
ENDCHAR
STARTCHAR U+006E
ENCODING 110
SWIDTH 381 0
DWIDTH 8 0
BBX 7 15 0 0
BITMAP
F8
8C
B6
B6
B6
B6
B6
B6
B6
B6
B6
B6
B6
FE
7E
ENDCHAR
STARTCHAR U+006F
ENCODING 111
SWIDTH 381 0
DWIDTH 8 0
BBX 7 15 0 0
BITMAP
FC
86
B6
B6
B6
B6
B6
B6
B6
B6
B6
B6
86
FE
7E
ENDCHAR
STARTCHAR U+0070
ENCODING 112
SWIDTH 381 0
DWIDTH 8 0
BBX 7 15 0 0
BITMAP
FC
86
B6
B6
B6
B6
B6
86
BE
BE
B0
B0
B0
F0
70
ENDCHAR
STARTCHAR U+0071
ENCODING 113
SWIDTH 381 0
DWIDTH 8 0
BBX 7 15 0 0
BITMAP
FC
86
B6
B6
B6
B6
B6
86
F6
76
16
16
16
1E
0E
ENDCHAR
STARTCHAR U+0072
ENCODING 114
SWIDTH 333 0
DWIDTH 7 0
BBX 6 15 0 0
BITMAP
F8
8C
BC
BC
B0
B0
B0
B0
B0
B0
B0
B0
B0
F0
70
ENDCHAR
STARTCHAR U+0073
ENCODING 115
SWIDTH 381 0
DWIDTH 8 0
BBX 7 15 0 0
BITMAP
FC
86
BE
BE
B0
B0
BC
86
F6
76
16
F6
86
FE
7E
ENDCHAR
STARTCHAR U+0074
ENCODING 116
SWIDTH 333 0
DWIDTH 7 0
BBX 6 20 0 0
BITMAP
70
58
58
58
58
D8
8C
DC
5C
58
58
58
58
58
58
58
58
4C
7C
3C
ENDCHAR
STARTCHAR U+0075
ENCODING 117
SWIDTH 381 0
DWIDTH 8 0
BBX 7 15 0 0
BITMAP
FC
B6
B6
B6
B6
B6
B6
B6
B6
B6
B6
B6
86
FE
7E
ENDCHAR
STARTCHAR U+0076
ENCODING 118
SWIDTH 381 0
DWIDTH 8 0
BBX 7 15 0 0
BITMAP
FC
B6
B6
B6
B6
B6
B6
B6
B6
B6
B6
D6
66
3E
1E
ENDCHAR
STARTCHAR U+0077
ENCODING 119
SWIDTH 429 0
DWIDTH 9 0
BBX 8 15 0 0
BITMAP
EE
BB
BB
BB
BB
BB
BB
AB
AB
AB
AB
AB
83
FF
7F
ENDCHAR
STARTCHAR U+0078
ENCODING 120
SWIDTH 429 0
DWIDTH 9 0
BBX 8 15 0 0
BITMAP
EE
BB
BB
BB
BB
D7
6F
D6
BB
BB
BB
BB
BB
FF
77
ENDCHAR
STARTCHAR U+0079
ENCODING 121
SWIDTH 381 0
DWIDTH 8 0
BBX 7 15 0 0
BITMAP
FC
B6
B6
B6
B6
B6
B6
86
F6
76
16
F6
86
FE
7E
ENDCHAR
STARTCHAR U+007A
ENCODING 122
SWIDTH 381 0
DWIDTH 8 0
BBX 7 15 0 0
BITMAP
FC
86
F6
76
36
2E
6E
5C
DC
B8
B8
BC
86
FE
7E
ENDCHAR
STARTCHAR U+007B
ENCODING 123
SWIDTH 333 0
DWIDTH 7 0
BBX 6 20 0 0
BITMAP
38
6C
5C
5C
58
58
58
D8
98
B8
98
D8
58
58
58
58
58
6C
3C
1C
ENDCHAR
STARTCHAR U+007C
ENCODING 124
SWIDTH 238 0
DWIDTH 5 0
BBX 4 20 0 0
BITMAP
E0
B0
B0
B0
B0
B0
B0
B0
B0
B0
B0
B0
B0
B0
B0
B0
B0
B0
F0
70
ENDCHAR
STARTCHAR U+007D
ENCODING 125
SWIDTH 333 0
DWIDTH 7 0
BBX 6 20 0 0
BITMAP
E0
B0
D8
58
58
58
58
58
4C
6C
4C
5C
5C
58
58
58
D8
B8
F8
70
ENDCHAR
STARTCHAR U+007E
ENCODING 126
SWIDTH 524 0
DWIDTH 11 0
BBX 10 6 0 7
BITMAP
FF80
86C0
B6C0
B0C0
FFC0
7FC0
ENDCHAR
ENDFONT
