STARTFONT 2.1
FONT -PixelFonts-pixelfont_13x7_semibold-SemiBold-R-Normal--15-150-75-75-P-0-ISO10646-1
SIZE 15 75 75
FONTBOUNDINGBOX 8 13 0 0
STARTPROPERTIES 7
FOUNDRY "PixelFonts"
FAMILY_NAME "pixelfont_13x7_semibold"
WEIGHT_NAME "SemiBold"
PIXEL_SIZE 15
FONT_ASCENT 13
FONT_DESCENT 2
DEFAULT_CHAR 32
ENDPROPERTIES
CHARS 95
STARTCHAR U+0020
ENCODING 32
SWIDTH 400 0
DWIDTH 6 0
BBX 1 1 0 0
BITMAP
00
ENDCHAR
STARTCHAR U+0021
ENCODING 33
SWIDTH 267 0
DWIDTH 4 0
BBX 2 13 0 0
BITMAP
C0
C0
C0
C0
C0
C0
C0
C0
C0
00
00
C0
C0
ENDCHAR
STARTCHAR U+0022
ENCODING 34
SWIDTH 467 0
DWIDTH 7 0
BBX 5 4 0 9
BITMAP
D8
D8
D8
D8
ENDCHAR
STARTCHAR U+0023
ENCODING 35
SWIDTH 667 0
DWIDTH 10 0
BBX 8 11 0 1
BITMAP
66
66
FF
FF
66
66
66
FF
FF
66
66
ENDCHAR
STARTCHAR U+0024
ENCODING 36
SWIDTH 600 0
DWIDTH 9 0
BBX 7 13 0 0
BITMAP
10
FE
FE
D0
D0
FE
FE
16
16
16
FE
FE
10
ENDCHAR
STARTCHAR U+0025
ENCODING 37
SWIDTH 600 0
DWIDTH 9 0
BBX 7 13 0 0
BITMAP
E0
E0
E0
06
0E
1C
38
70
E0
C0
0E
0E
0E
ENDCHAR
STARTCHAR U+0026
ENCODING 38
SWIDTH 600 0
DWIDTH 9 0
BBX 7 13 0 0
BITMAP
78
FC
CC
CC
78
78
DA
DE
CC
CC
CE
FE
7A
ENDCHAR
STARTCHAR U+0027
ENCODING 39
SWIDTH 267 0
DWIDTH 4 0
BBX 2 4 0 9
BITMAP
C0
C0
C0
C0
ENDCHAR
STARTCHAR U+0028
ENCODING 40
SWIDTH 333 0
DWIDTH 5 0
BBX 3 13 0 0
BITMAP
60
E0
C0
C0
C0
C0
C0
C0
C0
C0
C0
E0
60
ENDCHAR
STARTCHAR U+0029
ENCODING 41
SWIDTH 333 0
DWIDTH 5 0
BBX 3 13 0 0
BITMAP
C0
E0
60
60
60
60
60
60
60
60
60
E0
C0
ENDCHAR
STARTCHAR U+002A
ENCODING 42
SWIDTH 667 0
DWIDTH 10 0
BBX 8 8 0 3
BITMAP
DB
DB
DB
7E
7E
FF
DB
DB
ENDCHAR
STARTCHAR U+002B
ENCODING 43
SWIDTH 533 0
DWIDTH 8 0
BBX 6 6 0 4
BITMAP
30
30
FC
FC
30
30
ENDCHAR
STARTCHAR U+002C
ENCODING 44
SWIDTH 267 0
DWIDTH 4 0
BBX 2 4 0 0
BITMAP
C0
C0
C0
C0
ENDCHAR
STARTCHAR U+002D
ENCODING 45
SWIDTH 533 0
DWIDTH 8 0
BBX 6 2 0 6
BITMAP
FC
FC
ENDCHAR
STARTCHAR U+002E
ENCODING 46
SWIDTH 267 0
DWIDTH 4 0
BBX 2 2 0 0
BITMAP
C0
C0
ENDCHAR
STARTCHAR U+002F
ENCODING 47
SWIDTH 533 0
DWIDTH 8 0
BBX 6 13 0 0
BITMAP
0C
0C
0C
18
18
30
30
30
60
60
C0
C0
C0
ENDCHAR
STARTCHAR U+0030
ENCODING 48
SWIDTH 533 0
DWIDTH 8 0
BBX 6 13 0 0
BITMAP
FC
FC
CC
CC
CC
CC
CC
CC
CC
CC
CC
FC
FC
ENDCHAR
STARTCHAR U+0031
ENCODING 49
SWIDTH 267 0
DWIDTH 4 0
BBX 2 13 0 0
BITMAP
C0
C0
C0
C0
C0
C0
C0
C0
C0
C0
C0
C0
C0
ENDCHAR
STARTCHAR U+0032
ENCODING 50
SWIDTH 533 0
DWIDTH 8 0
BBX 6 13 0 0
BITMAP
FC
FC
CC
0C
0C
FC
FC
C0
C0
C0
C0
FC
FC
ENDCHAR
STARTCHAR U+0033
ENCODING 51
SWIDTH 533 0
DWIDTH 8 0
BBX 6 13 0 0
BITMAP
FC
FC
0C
0C
0C
3C
3C
0C
0C
0C
0C
FC
FC
ENDCHAR
STARTCHAR U+0034
ENCODING 52
SWIDTH 533 0
DWIDTH 8 0
BBX 6 13 0 0
BITMAP
CC
CC
CC
CC
CC
FC
FC
0C
0C
0C
0C
0C
0C
ENDCHAR
STARTCHAR U+0035
ENCODING 53
SWIDTH 533 0
DWIDTH 8 0
BBX 6 13 0 0
BITMAP
FC
FC
C0
C0
C0
FC
FC
0C
0C
0C
CC
FC
FC
ENDCHAR
STARTCHAR U+0036
ENCODING 54
SWIDTH 533 0
DWIDTH 8 0
BBX 6 13 0 0
BITMAP
FC
FC
CC
C0
C0
FC
FC
CC
CC
CC
CC
FC
FC
ENDCHAR
STARTCHAR U+0037
ENCODING 55
SWIDTH 533 0
DWIDTH 8 0
BBX 6 13 0 0
BITMAP
FC
FC
CC
0C
0C
0C
0C
0C
0C
0C
0C
0C
0C
ENDCHAR
STARTCHAR U+0038
ENCODING 56
SWIDTH 533 0
DWIDTH 8 0
BBX 6 13 0 0
BITMAP
FC
FC
CC
CC
CC
FC
FC
CC
CC
CC
CC
FC
FC
ENDCHAR
STARTCHAR U+0039
ENCODING 57
SWIDTH 533 0
DWIDTH 8 0
BBX 6 13 0 0
BITMAP
FC
FC
CC
CC
CC
FC
FC
0C
0C
0C
CC
FC
FC
ENDCHAR
STARTCHAR U+003A
ENCODING 58
SWIDTH 267 0
DWIDTH 4 0
BBX 2 7 0 1
BITMAP
C0
C0
00
00
00
C0
C0
ENDCHAR
STARTCHAR U+003B
ENCODING 59
SWIDTH 267 0
DWIDTH 4 0
BBX 2 8 0 0
BITMAP
C0
C0
00
00
C0
C0
C0
C0
ENDCHAR
STARTCHAR U+003C
ENCODING 60
SWIDTH 467 0
DWIDTH 7 0
BBX 5 8 0 3
BITMAP
18
38
70
E0
E0
70
38
18
ENDCHAR
STARTCHAR U+003D
ENCODING 61
SWIDTH 533 0
DWIDTH 8 0
BBX 6 6 0 4
BITMAP
FC
FC
00
00
FC
FC
ENDCHAR
STARTCHAR U+003E
ENCODING 62
SWIDTH 467 0
DWIDTH 7 0
BBX 5 8 0 3
BITMAP
C0
E0
70
38
38
70
E0
C0
ENDCHAR
STARTCHAR U+003F
ENCODING 63
SWIDTH 533 0
DWIDTH 8 0
BBX 6 13 0 0
BITMAP
FC
FC
CC
0C
0C
3C
3C
30
30
00
00
30
30
ENDCHAR
STARTCHAR U+0040
ENCODING 64
SWIDTH 667 0
DWIDTH 10 0
BBX 8 11 0 2
BITMAP
FF
FF
C3
DF
DB
DB
DF
C0
C0
FF
FF
ENDCHAR
STARTCHAR U+0041
ENCODING 65
SWIDTH 533 0
DWIDTH 8 0
BBX 6 13 0 0
BITMAP
FC
FC
CC
CC
CC
FC
FC
CC
CC
CC
CC
CC
CC
ENDCHAR
STARTCHAR U+0042
ENCODING 66
SWIDTH 533 0
DWIDTH 8 0
BBX 6 13 0 0
BITMAP
F8
FC
CC
CC
CC
FC
FC
CC
CC
CC
CC
FC
F8
ENDCHAR
STARTCHAR U+0043
ENCODING 67
SWIDTH 533 0
DWIDTH 8 0
BBX 6 13 0 0
BITMAP
FC
FC
CC
C0
C0
C0
C0
C0
C0
C0
CC
FC
FC
ENDCHAR
STARTCHAR U+0044
ENCODING 68
SWIDTH 533 0
DWIDTH 8 0
BBX 6 13 0 0
BITMAP
F8
FC
CC
CC
CC
CC
CC
CC
CC
CC
CC
FC
F8
ENDCHAR
STARTCHAR U+0045
ENCODING 69
SWIDTH 533 0
DWIDTH 8 0
BBX 6 13 0 0
BITMAP
FC
FC
C0
C0
C0
F8
F8
C0
C0
C0
C0
FC
FC
ENDCHAR
STARTCHAR U+0046
ENCODING 70
SWIDTH 533 0
DWIDTH 8 0
BBX 6 13 0 0
BITMAP
FC
FC
C0
C0
C0
F8
F8
C0
C0
C0
C0
C0
C0
ENDCHAR
STARTCHAR U+0047
ENCODING 71
SWIDTH 533 0
DWIDTH 8 0
BBX 6 13 0 0
BITMAP
FC
FC
CC
C0
C0
DC
DC
CC
CC
CC
CC
FC
FC
ENDCHAR
STARTCHAR U+0048
ENCODING 72
SWIDTH 533 0
DWIDTH 8 0
BBX 6 13 0 0
BITMAP
CC
CC
CC
CC
CC
FC
FC
CC
CC
CC
CC
CC
CC
ENDCHAR
STARTCHAR U+0049
ENCODING 73
SWIDTH 267 0
DWIDTH 4 0
BBX 2 13 0 0
BITMAP
C0
C0
C0
C0
C0
C0
C0
C0
C0
C0
C0
C0
C0
ENDCHAR
STARTCHAR U+004A
ENCODING 74
SWIDTH 533 0
DWIDTH 8 0
BBX 6 13 0 0
BITMAP
0C
0C
0C
0C
0C
0C
0C
0C
0C
CC
CC
FC
FC
ENDCHAR
STARTCHAR U+004B
ENCODING 75
SWIDTH 600 0
DWIDTH 9 0
BBX 7 13 0 0
BITMAP
C6
C6
C6
CE
DC
F8
F8
DC
CE
C6
C6
C6
C6
ENDCHAR
STARTCHAR U+004C
ENCODING 76
SWIDTH 533 0
DWIDTH 8 0
BBX 6 13 0 0
BITMAP
C0
C0
C0
C0
C0
C0
C0
C0
C0
C0
C0
FC
FC
ENDCHAR
STARTCHAR U+004D
ENCODING 77
SWIDTH 667 0
DWIDTH 10 0
BBX 8 13 0 0
BITMAP
FF
FF
DB
DB
DB
DB
C3
C3
C3
C3
C3
C3
C3
ENDCHAR
STARTCHAR U+004E
ENCODING 78
SWIDTH 600 0
DWIDTH 9 0
BBX 7 13 0 0
BITMAP
C6
C6
E6
E6
F6
D6
DE
CE
CE
C6
C6
C6
C6
ENDCHAR
STARTCHAR U+004F
ENCODING 79
SWIDTH 533 0
DWIDTH 8 0
BBX 6 13 0 0
BITMAP
FC
FC
CC
CC
CC
CC
CC
CC
CC
CC
CC
FC
FC
ENDCHAR
STARTCHAR U+0050
ENCODING 80
SWIDTH 533 0
DWIDTH 8 0
BBX 6 13 0 0
BITMAP
FC
FC
CC
CC
CC
FC
FC
C0
C0
C0
C0
C0
C0
ENDCHAR
STARTCHAR U+0051
ENCODING 81
SWIDTH 600 0
DWIDTH 9 0
BBX 6 13 0 0
BITMAP
FC
FC
CC
CC
CC
CC
CC
CC
DC
DC
DC
FC
FC
ENDCHAR
STARTCHAR U+0052
ENCODING 82
SWIDTH 600 0
DWIDTH 9 0
BBX 7 13 0 0
BITMAP
FE
FE
C6
C6
C6
FE
FE
F8
D8
CC
CC
C6
C6
ENDCHAR
STARTCHAR U+0053
ENCODING 83
SWIDTH 533 0
DWIDTH 8 0
BBX 6 13 0 0
BITMAP
FC
FC
C0
C0
C0
FC
FC
0C
0C
0C
0C
FC
FC
ENDCHAR
STARTCHAR U+0054
ENCODING 84
SWIDTH 667 0
DWIDTH 10 0
BBX 8 13 0 0
BITMAP
FF
FF
18
18
18
18
18
18
18
18
18
18
18
ENDCHAR
STARTCHAR U+0055
ENCODING 85
SWIDTH 533 0
DWIDTH 8 0
BBX 6 13 0 0
BITMAP
CC
CC
CC
CC
CC
CC
CC
CC
CC
CC
CC
FC
FC
ENDCHAR
STARTCHAR U+0056
ENCODING 86
SWIDTH 600 0
DWIDTH 9 0
BBX 7 13 0 0
BITMAP
C6
C6
C6
C6
C6
C6
C6
C6
C6
EE
7C
38
10
ENDCHAR
STARTCHAR U+0057
ENCODING 87
SWIDTH 667 0
DWIDTH 10 0
BBX 8 13 0 0
BITMAP
C3
C3
C3
C3
C3
C3
C3
DB
DB
DB
DB
FF
FF
ENDCHAR
STARTCHAR U+0058
ENCODING 88
SWIDTH 600 0
DWIDTH 9 0
BBX 7 13 0 0
BITMAP
C6
C6
C6
C6
EE
7C
38
7C
EE
C6
C6
C6
C6
ENDCHAR
STARTCHAR U+0059
ENCODING 89
SWIDTH 667 0
DWIDTH 10 0
BBX 8 13 0 0
BITMAP
C3
C3
C3
C3
E7
7E
3C
18
18
18
18
18
18
ENDCHAR
STARTCHAR U+005A
ENCODING 90
SWIDTH 533 0
DWIDTH 8 0
BBX 6 13 0 0
BITMAP
FC
FC
0C
0C
1C
38
70
E0
C0
C0
C0
FC
FC
ENDCHAR
STARTCHAR U+005B
ENCODING 91
SWIDTH 400 0
DWIDTH 6 0
BBX 4 13 0 0
BITMAP
F0
F0
C0
C0
C0
C0
C0
C0
C0
C0
C0
F0
F0
ENDCHAR
STARTCHAR U+005C
ENCODING 92
SWIDTH 533 0
DWIDTH 8 0
BBX 6 13 0 0
BITMAP
C0
C0
C0
60
60
30
30
30
18
18
0C
0C
0C
ENDCHAR
STARTCHAR U+005D
ENCODING 93
SWIDTH 400 0
DWIDTH 6 0
BBX 4 13 0 0
BITMAP
F0
F0
30
30
30
30
30
30
30
30
30
F0
F0
ENDCHAR
STARTCHAR U+005E
ENCODING 94
SWIDTH 533 0
DWIDTH 8 0
BBX 6 4 0 9
BITMAP
30
78
FC
CC
ENDCHAR
STARTCHAR U+005F
ENCODING 95
SWIDTH 533 0
DWIDTH 8 0
BBX 6 2 0 0
BITMAP
7C
FC
ENDCHAR
STARTCHAR U+0060
ENCODING 96
SWIDTH 333 0
DWIDTH 5 0
BBX 3 4 0 9
BITMAP
C0
C0
60
60
ENDCHAR
STARTCHAR U+0061
ENCODING 97
SWIDTH 533 0
DWIDTH 8 0
BBX 6 8 0 0
BITMAP
3C
3C
0C
FC
FC
CC
FC
FC
ENDCHAR
STARTCHAR U+0062
ENCODING 98
SWIDTH 533 0
DWIDTH 8 0
BBX 6 13 0 0
BITMAP
C0
C0
C0
C0
C0
FC
FC
CC
CC
CC
CC
FC
FC
ENDCHAR
STARTCHAR U+0063
ENCODING 99
SWIDTH 533 0
DWIDTH 8 0
BBX 6 8 0 0
BITMAP
FC
FC
C0
C0
C0
C0
FC
FC
ENDCHAR
STARTCHAR U+0064
ENCODING 100
SWIDTH 533 0
DWIDTH 8 0
BBX 6 13 0 0
BITMAP
0C
0C
0C
0C
0C
FC
FC
CC
CC
CC
CC
FC
FC
ENDCHAR
STARTCHAR U+0065
ENCODING 101
SWIDTH 533 0
DWIDTH 8 0
BBX 6 8 0 0
BITMAP
FC
FC
CC
FC
FC
C0
FC
FC
ENDCHAR
STARTCHAR U+0066
ENCODING 102
SWIDTH 467 0
DWIDTH 7 0
BBX 5 13 0 0
BITMAP
78
78
60
60
60
F8
F8
60
60
60
60
60
60
ENDCHAR
STARTCHAR U+0067
ENCODING 103
SWIDTH 533 0
DWIDTH 8 0
BBX 6 8 0 0
BITMAP
FC
FC
CC
FC
FC
0C
FC
FC
ENDCHAR
STARTCHAR U+0068
ENCODING 104
SWIDTH 533 0
DWIDTH 8 0
BBX 6 13 0 0
BITMAP
C0
C0
C0
C0
C0
FC
FC
CC
CC
CC
CC
CC
CC
ENDCHAR
STARTCHAR U+0069
ENCODING 105
SWIDTH 267 0
DWIDTH 4 0
BBX 2 11 0 0
BITMAP
C0
C0
00
C0
C0
C0
C0
C0
C0
C0
C0
ENDCHAR
STARTCHAR U+006A
ENCODING 106
SWIDTH 467 0
DWIDTH 7 0
BBX 5 11 0 0
BITMAP
18
18
00
18
18
18
18
18
D8
F8
F8
ENDCHAR
STARTCHAR U+006B
ENCODING 107
SWIDTH 533 0
DWIDTH 8 0
BBX 6 13 0 0
BITMAP
C0
C0
C0
C0
CC
CC
CC
FC
F0
FC
CC
CC
CC
ENDCHAR
STARTCHAR U+006C
ENCODING 108
SWIDTH 267 0
DWIDTH 4 0
BBX 2 13 0 0
BITMAP
C0
C0
C0
C0
C0
C0
C0
C0
C0
C0
C0
C0
C0
ENDCHAR
STARTCHAR U+006D
ENCODING 109
SWIDTH 667 0
DWIDTH 10 0
BBX 8 8 0 0
BITMAP
FF
FF
DB
DB
DB
DB
DB
DB
ENDCHAR
STARTCHAR U+006E
ENCODING 110
SWIDTH 533 0
DWIDTH 8 0
BBX 6 8 0 0
BITMAP
F8
F8
CC
CC
CC
CC
CC
CC
ENDCHAR
STARTCHAR U+006F
ENCODING 111
SWIDTH 533 0
DWIDTH 8 0
BBX 6 8 0 0
BITMAP
FC
FC
CC
CC
CC
CC
FC
FC
ENDCHAR
STARTCHAR U+0070
ENCODING 112
SWIDTH 533 0
DWIDTH 8 0
BBX 6 8 0 0
BITMAP
FC
FC
CC
FC
FC
C0
C0
C0
ENDCHAR
STARTCHAR U+0071
ENCODING 113
SWIDTH 533 0
DWIDTH 8 0
BBX 6 8 0 0
BITMAP
FC
FC
CC
FC
FC
0C
0C
0C
ENDCHAR
STARTCHAR U+0072
ENCODING 114
SWIDTH 400 0
DWIDTH 6 0
BBX 4 8 0 0
BITMAP
F0
F0
C0
C0
C0
C0
C0
C0
ENDCHAR
STARTCHAR U+0073
ENCODING 115
SWIDTH 533 0
DWIDTH 8 0
BBX 6 8 0 0
BITMAP
FC
FC
C0
FC
FC
0C
FC
FC
ENDCHAR
STARTCHAR U+0074
ENCODING 116
SWIDTH 467 0
DWIDTH 7 0
BBX 5 13 0 0
BITMAP
60
60
60
60
60
F8
F8
60
60
60
60
78
78
ENDCHAR
STARTCHAR U+0075
ENCODING 117
SWIDTH 533 0
DWIDTH 8 0
BBX 6 8 0 0
BITMAP
CC
CC
CC
CC
CC
CC
FC
FC
ENDCHAR
STARTCHAR U+0076
ENCODING 118
SWIDTH 533 0
DWIDTH 8 0
BBX 6 8 0 0
BITMAP
CC
CC
CC
CC
EC
7C
3C
1C
ENDCHAR
STARTCHAR U+0077
ENCODING 119
SWIDTH 667 0
DWIDTH 10 0
BBX 8 8 0 0
BITMAP
DB
DB
DB
DB
DB
DB
FF
FF
ENDCHAR
STARTCHAR U+0078
ENCODING 120
SWIDTH 533 0
DWIDTH 8 0
BBX 7 8 0 0
BITMAP
C6
EE
7C
38
38
7C
EE
C6
ENDCHAR
STARTCHAR U+0079
ENCODING 121
SWIDTH 533 0
DWIDTH 8 0
BBX 6 8 0 0
BITMAP
CC
CC
CC
FC
FC
0C
FC
FC
ENDCHAR
STARTCHAR U+007A
ENCODING 122
SWIDTH 533 0
DWIDTH 8 0
BBX 6 8 0 0
BITMAP
FC
FC
1C
38
70
E0
FC
FC
ENDCHAR
STARTCHAR U+007B
ENCODING 123
SWIDTH 400 0
DWIDTH 6 0
BBX 4 13 0 0
BITMAP
30
70
60
60
60
E0
C0
E0
60
60
60
70
30
ENDCHAR
STARTCHAR U+007C
ENCODING 124
SWIDTH 267 0
DWIDTH 4 0
BBX 2 13 0 0
BITMAP
C0
C0
C0
C0
C0
C0
C0
C0
C0
C0
C0
C0
C0
ENDCHAR
STARTCHAR U+007D
ENCODING 125
SWIDTH 400 0
DWIDTH 6 0
BBX 4 13 0 0
BITMAP
C0
E0
60
60
60
70
10
70
60
60
60
E0
C0
ENDCHAR
STARTCHAR U+007E
ENCODING 126
SWIDTH 667 0
DWIDTH 10 0
BBX 8 4 0 5
BITMAP
03
FF
FF
C0
ENDCHAR
ENDFONT
