STARTFONT 2.1
FONT -PixelFonts-pixelfont_3d_21x11_bold-Bold-R-Normal--25-250-75-75-P-0-ISO10646-1
SIZE 25 75 75
FONTBOUNDINGBOX 18 24 0 0
STARTPROPERTIES 7
FOUNDRY "PixelFonts"
FAMILY_NAME "pixelfont_3d_21x11_bold"
WEIGHT_NAME "Bold"
PIXEL_SIZE 25
FONT_ASCENT 24
FONT_DESCENT 1
DEFAULT_CHAR 32
ENDPROPERTIES
CHARS 95
STARTCHAR U+0020
ENCODING 32
SWIDTH 360 0
DWIDTH 9 0
BBX 1 1 0 0
BITMAP
00
ENDCHAR
STARTCHAR U+0021
ENCODING 33
SWIDTH 280 0
DWIDTH 7 0
BBX 6 24 0 0
BITMAP
F8
8C
8C
8C
8C
8C
8C
8C
8C
8C
8C
8C
8C
8C
8C
8C
FC
7C
F8
8C
8C
8C
FC
7C
ENDCHAR
STARTCHAR U+0022
ENCODING 34
SWIDTH 440 0
DWIDTH 11 0
BBX 10 8 0 16
BITMAP
FF80
88C0
88C0
88C0
88C0
88C0
FFC0
7FC0
ENDCHAR
STARTCHAR U+0023
ENCODING 35
SWIDTH 680 0
DWIDTH 17 0
BBX 16 17 0 3
BITMAP
3EF8
238C
238C
E38E
8003
8003
8003
E38F
E38F
8003
8003
8003
E38F
638F
238C
3FFC
1F7C
ENDCHAR
STARTCHAR U+0024
ENCODING 36
SWIDTH 680 0
DWIDTH 17 0
BBX 16 24 0 0
BITMAP
07C0
0460
FC7E
8003
8003
8003
8C7F
8C7F
8C60
8C7E
8003
8003
8003
FC63
7C63
0463
FC63
8003
8003
8003
FC7F
7C7F
07E0
03E0
ENDCHAR
STARTCHAR U+0025
ENCODING 37
SWIDTH 680 0
DWIDTH 17 0
BBX 16 24 0 0
BITMAP
FE3E
8323
8323
9323
8323
8323
FF63
7FC3
0187
030F
061E
0C3C
1878
30F0
61E0
C3C0
87FE
8F83
8E83
8C93
8C83
8C83
FCFF
7C7F
ENDCHAR
STARTCHAR U+0026
ENCODING 38
SWIDTH 680 0
DWIDTH 17 0
BBX 16 24 0 0
BITMAP
7FF0
C018
800C
800C
8F8C
8F8C
8D8C
8F0C
8E0C
8C1C
803C
807E
8023
8003
8E03
8F07
8D8F
8D8E
8F06
8003
8003
C063
7FFF
3FFF
ENDCHAR
STARTCHAR U+0027
ENCODING 39
SWIDTH 280 0
DWIDTH 7 0
BBX 6 12 0 12
BITMAP
F8
8C
8C
8C
8C
8C
8C
8C
8C
8C
FC
7C
ENDCHAR
STARTCHAR U+0028
ENCODING 40
SWIDTH 360 0
DWIDTH 9 0
BBX 8 24 0 0
BITMAP
7E
C3
83
83
8F
8F
8C
8C
8C
8C
8C
8C
8C
8C
8C
8C
8C
8C
8E
83
83
C3
7F
3F
ENDCHAR
STARTCHAR U+0029
ENCODING 41
SWIDTH 360 0
DWIDTH 9 0
BBX 8 24 0 0
BITMAP
FC
86
83
83
E3
63
23
23
23
23
23
23
23
23
23
23
23
23
E3
83
83
87
FF
7E
ENDCHAR
STARTCHAR U+002A
ENCODING 42
SWIDTH 680 0
DWIDTH 17 0
BBX 16 20 0 2
BITMAP
FFFE
8C63
8C63
8C63
8C63
8C63
8C63
8C63
8003
8003
8003
8C63
8C63
8C63
8C63
8C63
8C63
8C63
FFFF
7FFF
ENDCHAR
STARTCHAR U+002B
ENCODING 43
SWIDTH 520 0
DWIDTH 13 0
BBX 12 12 0 6
BITMAP
1F00
1180
1180
F1E0
8030
8030
8030
F1F0
71F0
1180
1F80
0F80
ENDCHAR
STARTCHAR U+002C
ENCODING 44
SWIDTH 280 0
DWIDTH 7 0
BBX 6 12 0 0
BITMAP
F8
8C
8C
8C
8C
8C
8C
8C
8C
8C
FC
7C
ENDCHAR
STARTCHAR U+002D
ENCODING 45
SWIDTH 520 0
DWIDTH 13 0
BBX 12 6 0 9
BITMAP
FFE0
8030
8030
8030
FFF0
7FF0
ENDCHAR
STARTCHAR U+002E
ENCODING 46
SWIDTH 280 0
DWIDTH 7 0
BBX 6 6 0 0
BITMAP
F8
8C
8C
8C
FC
7C
ENDCHAR
STARTCHAR U+002F
ENCODING 47
SWIDTH 440 0
DWIDTH 11 0
BBX 10 24 0 0
BITMAP
0F80
08C0
08C0
08C0
18C0
11C0
11C0
1180
3180
2380
2380
2300
2300
6300
4700
4700
4600
C600
8E00
8E00
8C00
8C00
FC00
7C00
ENDCHAR
STARTCHAR U+0030
ENCODING 48
SWIDTH 600 0
DWIDTH 15 0
BBX 14 24 0 0
BITMAP
FFF8
800C
800C
800C
8F8C
8F8C
8C8C
8C8C
8C8C
8C8C
8C8C
8C8C
8C8C
8C8C
8C8C
8C8C
8C8C
8C8C
8F8C
800C
800C
800C
FFFC
7FFC
ENDCHAR
STARTCHAR U+0031
ENCODING 49
SWIDTH 280 0
DWIDTH 7 0
BBX 6 24 0 0
BITMAP
F8
8C
8C
8C
8C
8C
8C
8C
8C
8C
8C
8C
8C
8C
8C
8C
8C
8C
8C
8C
8C
8C
FC
7C
ENDCHAR
STARTCHAR U+0032
ENCODING 50
SWIDTH 600 0
DWIDTH 15 0
BBX 14 24 0 0
BITMAP
FFF8
800C
800C
800C
8F8C
FF8C
7C8C
008C
008C
FF8C
800C
800C
800C
8FFC
8FFC
8C00
8C00
8C00
8FF8
800C
800C
800C
FFFC
7FFC
ENDCHAR
STARTCHAR U+0033
ENCODING 51
SWIDTH 600 0
DWIDTH 15 0
BBX 14 24 0 0
BITMAP
FFF8
800C
800C
800C
FF8C
7F8C
008C
008C
008C
1F8C
100C
100C
100C
1F8C
0F8C
008C
008C
008C
FF8C
800C
800C
800C
FFFC
7FFC
ENDCHAR
STARTCHAR U+0034
ENCODING 52
SWIDTH 600 0
DWIDTH 15 0
BBX 14 24 0 0
BITMAP
F8F8
8C8C
8C8C
8C8C
8C8C
8C8C
8C8C
8C8C
8C8C
8F8C
800C
800C
800C
FF8C
7F8C
008C
008C
008C
008C
008C
008C
008C
00FC
007C
ENDCHAR
STARTCHAR U+0035
ENCODING 53
SWIDTH 600 0
DWIDTH 15 0
BBX 14 24 0 0
BITMAP
FFF8
800C
800C
800C
8FFC
8FFC
8C00
8C00
8C00
8FF8
800C
800C
800C
FF8C
7F8C
008C
008C
F88C
8F8C
800C
800C
800C
FFFC
7FFC
ENDCHAR
STARTCHAR U+0036
ENCODING 54
SWIDTH 600 0
DWIDTH 15 0
BBX 14 24 0 0
BITMAP
FFF8
800C
800C
800C
8F8C
8FFC
8C7C
8C00
8C00
8FF8
800C
800C
800C
8F8C
8F8C
8C8C
8C8C
8C8C
8F8C
800C
800C
800C
FFFC
7FFC
ENDCHAR
STARTCHAR U+0037
ENCODING 55
SWIDTH 600 0
DWIDTH 15 0
BBX 14 24 0 0
BITMAP
FFF8
800C
800C
800C
8F8C
FF8C
7C8C
008C
008C
008C
008C
008C
008C
008C
008C
008C
008C
008C
008C
008C
008C
008C
00FC
007C
ENDCHAR
STARTCHAR U+0038
ENCODING 56
SWIDTH 600 0
DWIDTH 15 0
BBX 14 24 0 0
BITMAP
FFF8
800C
800C
800C
8F8C
8F8C
8C8C
8C8C
8C8C
8F8C
800C
800C
800C
8F8C
8F8C
8C8C
8C8C
8C8C
8F8C
800C
800C
800C
FFFC
7FFC
ENDCHAR
STARTCHAR U+0039
ENCODING 57
SWIDTH 600 0
DWIDTH 15 0
BBX 14 24 0 0
BITMAP
FFF8
800C
800C
800C
8F8C
8F8C
8C8C
8C8C
8C8C
8F8C
800C
800C
800C
FF8C
7F8C
008C
008C
F88C
8F8C
800C
800C
800C
FFFC
7FFC
ENDCHAR
STARTCHAR U+003A
ENCODING 58
SWIDTH 280 0
DWIDTH 7 0
BBX 6 16 0 2
BITMAP
F8
8C
8C
8C
8C
FC
7C
00
00
F8
8C
8C
8C
8C
FC
7C
ENDCHAR
STARTCHAR U+003B
ENCODING 59
SWIDTH 360 0
DWIDTH 9 0
BBX 6 18 2 0
BITMAP
F8
8C
8C
8C
8C
FC
7C
00
00
F8
8C
8C
8C
8C
8C
8C
FC
7C
ENDCHAR
STARTCHAR U+003C
ENCODING 60
SWIDTH 600 0
DWIDTH 15 0
BBX 14 20 0 2
BITMAP
00F8
018C
030C
060C
0C1C
183C
3078
60F0
C1E0
83C0
C180
60C0
3060
1830
0C18
060C
030C
018C
00FC
007C
ENDCHAR
STARTCHAR U+003D
ENCODING 61
SWIDTH 520 0
DWIDTH 13 0
BBX 12 11 0 6
BITMAP
FFE0
8030
8030
8030
FFF0
FFF0
8030
8030
8030
FFF0
7FF0
ENDCHAR
STARTCHAR U+003E
ENCODING 62
SWIDTH 600 0
DWIDTH 15 0
BBX 14 20 0 2
BITMAP
F800
8C00
8600
8300
C180
60C0
3060
1830
0C18
060C
0C1C
183C
3078
60F0
C1E0
83C0
8780
8F00
FE00
7C00
ENDCHAR
STARTCHAR U+003F
ENCODING 63
SWIDTH 680 0
DWIDTH 17 0
BBX 16 24 0 0
BITMAP
FFFE
8003
8003
8003
8FE3
8FE3
FC23
7C23
0023
07E3
0403
0403
0403
047F
047F
0460
07E0
03E0
07C0
0460
0460
0460
07E0
03E0
ENDCHAR
STARTCHAR U+0040
ENCODING 64
SWIDTH 680 0
DWIDTH 17 0
BBX 16 24 0 0
BITMAP
FFFE
8003
8003
8003
8FE3
8FE3
8C23
8C23
8FE3
8C63
8C63
8C63
8C63
8C03
8C03
8C03
8FFF
8FFF
8FFE
8003
8003
8003
FFFF
7FFF
ENDCHAR
STARTCHAR U+0041
ENCODING 65
SWIDTH 600 0
DWIDTH 15 0
BBX 14 24 0 0
BITMAP
FFF8
800C
800C
800C
8F8C
8F8C
8C8C
8C8C
8C8C
8C8C
8C8C
8C8C
8F8C
800C
800C
800C
8F8C
8F8C
8C8C
8C8C
8C8C
8C8C
FCFC
7C7C
ENDCHAR
STARTCHAR U+0042
ENCODING 66
SWIDTH 600 0
DWIDTH 15 0
BBX 14 24 0 0
BITMAP
FFF0
8018
800C
800C
8F8C
8F8C
8C8C
8C8C
8C8C
8F8C
800C
800C
800C
8F8C
8F8C
8C8C
8C8C
8C8C
8F8C
800C
800C
801C
FFFC
7FF8
ENDCHAR
STARTCHAR U+0043
ENCODING 67
SWIDTH 600 0
DWIDTH 15 0
BBX 14 24 0 0
BITMAP
FFF8
800C
800C
800C
8F8C
8F8C
8CFC
8C7C
8C00
8C00
8C00
8C00
8C00
8C00
8C00
8C00
8CF8
8C8C
8F8C
800C
800C
800C
FFFC
7FFC
ENDCHAR
STARTCHAR U+0044
ENCODING 68
SWIDTH 600 0
DWIDTH 15 0
BBX 14 24 0 0
BITMAP
FFF0
8018
800C
800C
8F8C
8F8C
8C8C
8C8C
8C8C
8C8C
8C8C
8C8C
8C8C
8C8C
8C8C
8C8C
8C8C
8C8C
8F8C
800C
800C
801C
FFFC
7FF8
ENDCHAR
STARTCHAR U+0045
ENCODING 69
SWIDTH 600 0
DWIDTH 15 0
BBX 14 24 0 0
BITMAP
FFF8
800C
800C
800C
8FFC
8FFC
8C00
8C00
8C00
8FC0
8060
8060
8060
8FE0
8FE0
8C00
8C00
8C00
8FF8
800C
800C
800C
FFFC
7FFC
ENDCHAR
STARTCHAR U+0046
ENCODING 70
SWIDTH 600 0
DWIDTH 15 0
BBX 14 24 0 0
BITMAP
FFF8
800C
800C
800C
8FFC
8FFC
8C00
8C00
8C00
8FC0
8060
8060
8060
8FE0
8FE0
8C00
8C00
8C00
8C00
8C00
8C00
8C00
FC00
7C00
ENDCHAR
STARTCHAR U+0047
ENCODING 71
SWIDTH 600 0
DWIDTH 15 0
BBX 14 24 0 0
BITMAP
FFF8
800C
800C
800C
8F8C
8FFC
8C7C
8C00
8C00
8FF8
8C0C
8C0C
8C0C
8F8C
8F8C
8C8C
8C8C
8C8C
8F8C
800C
800C
800C
FFFC
7FFC
ENDCHAR
STARTCHAR U+0048
ENCODING 72
SWIDTH 600 0
DWIDTH 15 0
BBX 14 24 0 0
BITMAP
F8F8
8C8C
8C8C
8C8C
8C8C
8C8C
8C8C
8C8C
8C8C
8F8C
800C
800C
800C
8F8C
8F8C
8C8C
8C8C
8C8C
8C8C
8C8C
8C8C
8C8C
FCFC
7C7C
ENDCHAR
STARTCHAR U+0049
ENCODING 73
SWIDTH 280 0
DWIDTH 7 0
BBX 6 24 0 0
BITMAP
F8
8C
8C
8C
8C
8C
8C
8C
8C
8C
8C
8C
8C
8C
8C
8C
8C
8C
8C
8C
8C
8C
FC
7C
ENDCHAR
STARTCHAR U+004A
ENCODING 74
SWIDTH 600 0
DWIDTH 15 0
BBX 14 24 0 0
BITMAP
00F8
008C
008C
008C
008C
008C
008C
008C
008C
008C
008C
008C
008C
F88C
8C8C
8C8C
8C8C
8C8C
8F8C
800C
800C
800C
FFFC
7FFC
ENDCHAR
STARTCHAR U+004B
ENCODING 75
SWIDTH 680 0
DWIDTH 17 0
BBX 16 24 0 0
BITMAP
F83E
8C23
8C23
8C23
8C63
8CC3
8D87
8F0F
8E1E
8C3C
8078
80F0
8060
8C30
8E18
8F0C
8D86
8CC3
8C63
8C23
8C23
8C23
FC3F
7C1F
ENDCHAR
STARTCHAR U+004C
ENCODING 76
SWIDTH 600 0
DWIDTH 15 0
BBX 14 24 0 0
BITMAP
F800
8C00
8C00
8C00
8C00
8C00
8C00
8C00
8C00
8C00
8C00
8C00
8C00
8C00
8C00
8C00
8C00
8C00
8FF8
800C
800C
800C
FFFC
7FFC
ENDCHAR
STARTCHAR U+004D
ENCODING 77
SWIDTH 680 0
DWIDTH 17 0
BBX 16 24 0 0
BITMAP
FFFE
8003
8003
8003
8C63
8C63
8C63
8C63
8C63
8C63
8C63
8C63
8C63
8FE3
8FE3
8C23
8C23
8C23
8C23
8C23
8C23
8C23
FC3F
7C1F
ENDCHAR
STARTCHAR U+004E
ENCODING 78
SWIDTH 600 0
DWIDTH 15 0
BBX 14 24 0 0
BITMAP
F8F8
8C8C
8C8C
8C8C
8C8C
8C8C
868C
838C
818C
808C
880C
8C0C
8E0C
8F0C
8D8C
8C8C
8C8C
8C8C
8C8C
8C8C
8C8C
8C8C
FCFC
7C7C
ENDCHAR
STARTCHAR U+004F
ENCODING 79
SWIDTH 600 0
DWIDTH 15 0
BBX 14 24 0 0
BITMAP
FFF8
800C
800C
800C
8F8C
8F8C
8C8C
8C8C
8C8C
8C8C
8C8C
8C8C
8C8C
8C8C
8C8C
8C8C
8C8C
8C8C
8F8C
800C
800C
800C
FFFC
7FFC
ENDCHAR
STARTCHAR U+0050
ENCODING 80
SWIDTH 600 0
DWIDTH 15 0
BBX 14 24 0 0
BITMAP
FFF8
800C
800C
800C
8F8C
8F8C
8C8C
8C8C
8C8C
8F8C
800C
800C
800C
8FFC
8FFC
8C00
8C00
8C00
8C00
8C00
8C00
8C00
FC00
7C00
ENDCHAR
STARTCHAR U+0051
ENCODING 81
SWIDTH 680 0
DWIDTH 17 0
BBX 16 24 0 0
BITMAP
FFFE
8003
8003
8003
8FE3
8FE3
8C23
8C23
8C23
8C23
8C23
8C23
8C23
8C23
8C23
8FE3
8E23
8E23
8E23
8003
8003
8003
FFFF
7FFF
ENDCHAR
STARTCHAR U+0052
ENCODING 82
SWIDTH 680 0
DWIDTH 17 0
BBX 16 24 0 0
BITMAP
FFFE
8003
8003
8003
8FE3
8FE3
8C23
8C23
8C23
8FE3
8003
8003
8003
80FF
807F
8830
8C18
8E0C
8F06
8D83
8CC3
8C63
FC3F
7C1F
ENDCHAR
STARTCHAR U+0053
ENCODING 83
SWIDTH 680 0
DWIDTH 17 0
BBX 16 24 0 0
BITMAP
FFFE
8003
8003
8003
8FFF
8FFF
8C00
8C00
8C00
8FFE
8003
8003
8003
FFE3
7FE3
0023
0023
0023
FFE3
8003
8003
8003
FFFF
7FFF
ENDCHAR
STARTCHAR U+0054
ENCODING 84
SWIDTH 680 0
DWIDTH 17 0
BBX 16 24 0 0
BITMAP
FFFE
8003
8003
8003
FC7F
7C7F
0460
0460
0460
0460
0460
0460
0460
0460
0460
0460
0460
0460
0460
0460
0460
0460
07E0
03E0
ENDCHAR
STARTCHAR U+0055
ENCODING 85
SWIDTH 680 0
DWIDTH 17 0
BBX 16 24 0 0
BITMAP
F83E
8C23
8C23
8C23
8C23
8C23
8C23
8C23
8C23
8C23
8C23
8C23
8C23
8C23
8C23
8C23
8C23
8C23
8FE3
8003
8003
8003
FFFF
7FFF
ENDCHAR
STARTCHAR U+0056
ENCODING 86
SWIDTH 680 0
DWIDTH 17 0
BBX 16 24 0 0
BITMAP
F83E
8C23
8C23
8C23
8C23
8C23
8C23
8C23
8C23
8C23
8C23
8C23
8C23
8C23
8C63
86C3
8383
C107
600F
301E
183C
0C78
07F0
03E0
ENDCHAR
STARTCHAR U+0057
ENCODING 87
SWIDTH 680 0
DWIDTH 17 0
BBX 16 24 0 0
BITMAP
F83E
8C23
8C23
8C23
8C23
8C23
8C23
8C23
8C23
8FE3
8C63
8C63
8C63
8C63
8C63
8C63
8C63
8C63
8C63
8003
8003
8003
FFFF
7FFF
ENDCHAR
STARTCHAR U+0058
ENCODING 88
SWIDTH 680 0
DWIDTH 17 0
BBX 16 24 0 0
BITMAP
F83E
8C23
8C23
8C23
8C23
8C23
8C63
86C3
C387
610F
301E
183C
3018
610C
C386
87C3
8F63
8E23
8C23
8C23
8C23
8C23
FC3F
7C1F
ENDCHAR
STARTCHAR U+0059
ENCODING 89
SWIDTH 680 0
DWIDTH 17 0
BBX 16 24 0 0
BITMAP
F83E
8C23
8C23
8C23
8C23
8C23
8C63
86C3
8383
C107
600F
301E
183C
0C78
0470
0460
0460
0460
0460
0460
0460
0460
07E0
03E0
ENDCHAR
STARTCHAR U+005A
ENCODING 90
SWIDTH 680 0
DWIDTH 17 0
BBX 16 24 0 0
BITMAP
FFFE
8003
8003
8003
FFE3
7FE3
00C3
0187
030F
061E
0C3C
1878
30F0
61E0
C3C0
8780
8F00
8E00
8FFE
8003
8003
8003
FFFF
7FFF
ENDCHAR
STARTCHAR U+005B
ENCODING 91
SWIDTH 360 0
DWIDTH 9 0
BBX 8 24 0 0
BITMAP
FE
83
83
83
8F
8F
8C
8C
8C
8C
8C
8C
8C
8C
8C
8C
8C
8C
8E
83
83
83
FF
7F
ENDCHAR
STARTCHAR U+005C
ENCODING 92
SWIDTH 440 0
DWIDTH 11 0
BBX 10 24 0 0
BITMAP
F800
8C00
8C00
8C00
8C00
C600
4600
4600
4600
6300
2300
2300
2300
2300
3180
1180
1180
1180
18C0
08C0
08C0
08C0
0FC0
07C0
ENDCHAR
STARTCHAR U+005D
ENCODING 93
SWIDTH 360 0
DWIDTH 9 0
BBX 8 24 0 0
BITMAP
FE
83
83
83
E3
63
23
23
23
23
23
23
23
23
23
23
23
23
E3
83
83
83
FF
7F
ENDCHAR
STARTCHAR U+005E
ENCODING 94
SWIDTH 680 0
DWIDTH 17 0
BBX 16 11 0 13
BITMAP
07C0
0C60
1830
3018
600C
C106
8383
87C3
8F63
FE3F
7C1F
ENDCHAR
STARTCHAR U+005F
ENCODING 95
SWIDTH 680 0
DWIDTH 17 0
BBX 16 6 0 0
BITMAP
FFFE
8003
8003
8003
FFFF
7FFF
ENDCHAR
STARTCHAR U+0060
ENCODING 96
SWIDTH 440 0
DWIDTH 11 0
BBX 10 10 0 14
BITMAP
F800
8C00
8600
8300
C180
60C0
30C0
18C0
0FC0
07C0
ENDCHAR
STARTCHAR U+0061
ENCODING 97
SWIDTH 600 0
DWIDTH 15 0
BBX 14 16 0 0
BITMAP
1FF8
100C
100C
100C
FF8C
800C
800C
800C
8F8C
8F8C
8F8C
800C
800C
800C
FFFC
7FFC
ENDCHAR
STARTCHAR U+0062
ENCODING 98
SWIDTH 600 0
DWIDTH 15 0
BBX 14 24 0 0
BITMAP
F800
8C00
8C00
8C00
8C00
8C00
8C00
8C00
8FF8
800C
800C
800C
8F8C
8F8C
8C8C
8C8C
8C8C
8C8C
8F8C
800C
800C
800C
FFFC
7FFC
ENDCHAR
STARTCHAR U+0063
ENCODING 99
SWIDTH 600 0
DWIDTH 15 0
BBX 14 16 0 0
BITMAP
FFF8
800C
800C
800C
8FFC
8FFC
8C00
8C00
8C00
8C00
8FF8
800C
800C
800C
FFFC
7FFC
ENDCHAR
STARTCHAR U+0064
ENCODING 100
SWIDTH 600 0
DWIDTH 15 0
BBX 14 24 0 0
BITMAP
00F8
008C
008C
008C
008C
008C
008C
008C
FF8C
800C
800C
800C
8F8C
8F8C
8C8C
8C8C
8C8C
8C8C
8F8C
800C
800C
800C
FFFC
7FFC
ENDCHAR
STARTCHAR U+0065
ENCODING 101
SWIDTH 600 0
DWIDTH 15 0
BBX 14 16 0 0
BITMAP
FFF8
800C
800C
800C
8F8C
800C
800C
800C
8FFC
8FFC
8FF8
800C
800C
800C
FFFC
7FFC
ENDCHAR
STARTCHAR U+0066
ENCODING 102
SWIDTH 440 0
DWIDTH 11 0
BBX 10 24 0 0
BITMAP
3F80
20C0
20C0
20C0
23C0
23C0
2300
2300
E380
80C0
80C0
80C0
E3C0
63C0
2300
2300
2300
2300
2300
2300
2300
2300
3F00
1F00
ENDCHAR
STARTCHAR U+0067
ENCODING 103
SWIDTH 600 0
DWIDTH 15 0
BBX 14 16 0 0
BITMAP
FFF8
800C
800C
800C
8F8C
800C
800C
800C
FF8C
7F8C
FF8C
800C
800C
800C
FFFC
7FFC
ENDCHAR
STARTCHAR U+0068
ENCODING 104
SWIDTH 600 0
DWIDTH 15 0
BBX 14 24 0 0
BITMAP
F800
8C00
8C00
8C00
8C00
8C00
8C00
8C00
8FF8
800C
800C
800C
8F8C
8F8C
8C8C
8C8C
8C8C
8C8C
8C8C
8C8C
8C8C
8C8C
FCFC
7C7C
ENDCHAR
STARTCHAR U+0069
ENCODING 105
SWIDTH 280 0
DWIDTH 7 0
BBX 6 22 0 0
BITMAP
F8
8C
8C
8C
FC
7C
F8
8C
8C
8C
8C
8C
8C
8C
8C
8C
8C
8C
8C
8C
FC
7C
ENDCHAR
STARTCHAR U+006A
ENCODING 106
SWIDTH 440 0
DWIDTH 11 0
BBX 10 22 0 0
BITMAP
0F80
08C0
08C0
08C0
0FC0
07C0
0F80
08C0
08C0
08C0
08C0
08C0
08C0
08C0
F8C0
88C0
88C0
80C0
80C0
80C0
FFC0
7FC0
ENDCHAR
STARTCHAR U+006B
ENCODING 107
SWIDTH 600 0
DWIDTH 15 0
BBX 14 24 0 0
BITMAP
F800
8C00
8C00
8C00
8C00
8C00
8C00
8C00
8CF8
8C8C
8C8C
8F8C
8E0C
880C
803C
81FC
8038
880C
8E0C
8F8C
8D8C
8C8C
FCFC
7C7C
ENDCHAR
STARTCHAR U+006C
ENCODING 108
SWIDTH 280 0
DWIDTH 7 0
BBX 6 24 0 0
BITMAP
F8
8C
8C
8C
8C
8C
8C
8C
8C
8C
8C
8C
8C
8C
8C
8C
8C
8C
8C
8C
8C
8C
FC
7C
ENDCHAR
STARTCHAR U+006D
ENCODING 109
SWIDTH 680 0
DWIDTH 17 0
BBX 16 16 0 0
BITMAP
FFFE
8003
8003
8003
8C63
8C63
8C63
8C63
8C63
8C63
8C63
8C63
8C63
8C63
FFFF
7FFF
ENDCHAR
STARTCHAR U+006E
ENCODING 110
SWIDTH 600 0
DWIDTH 15 0
BBX 14 16 0 0
BITMAP
FFF0
8018
800C
800C
8F8C
8F8C
8C8C
8C8C
8C8C
8C8C
8C8C
8C8C
8C8C
8C8C
FCFC
7C7C
ENDCHAR
STARTCHAR U+006F
ENCODING 111
SWIDTH 600 0
DWIDTH 15 0
BBX 14 16 0 0
BITMAP
FFF8
800C
800C
800C
8F8C
8F8C
8C8C
8C8C
8C8C
8C8C
8F8C
800C
800C
800C
FFFC
7FFC
ENDCHAR
STARTCHAR U+0070
ENCODING 112
SWIDTH 600 0
DWIDTH 15 0
BBX 14 16 0 0
BITMAP
FFF8
800C
800C
800C
8F8C
800C
800C
800C
8FFC
8FFC
8C00
8C00
8C00
8C00
FC00
7C00
ENDCHAR
STARTCHAR U+0071
ENCODING 113
SWIDTH 600 0
DWIDTH 15 0
BBX 14 16 0 0
BITMAP
FFF8
800C
800C
800C
8F8C
800C
800C
800C
FF8C
7F8C
008C
008C
008C
008C
00FC
007C
ENDCHAR
STARTCHAR U+0072
ENCODING 114
SWIDTH 440 0
DWIDTH 11 0
BBX 10 16 0 0
BITMAP
FF80
80C0
80C0
80C0
8FC0
8FC0
8C00
8C00
8C00
8C00
8C00
8C00
8C00
8C00
FC00
7C00
ENDCHAR
STARTCHAR U+0073
ENCODING 115
SWIDTH 600 0
DWIDTH 15 0
BBX 14 16 0 0
BITMAP
FFF8
800C
800C
800C
8FFC
800C
800C
800C
FF8C
7F8C
FF8C
800C
800C
800C
FFFC
7FFC
ENDCHAR
STARTCHAR U+0074
ENCODING 116
SWIDTH 440 0
DWIDTH 11 0
BBX 10 24 0 0
BITMAP
3E00
2300
2300
2300
2300
2300
2300
2300
E380
80C0
80C0
80C0
E3C0
63C0
2300
2300
2300
2300
2380
20C0
20C0
20C0
3FC0
1FC0
ENDCHAR
STARTCHAR U+0075
ENCODING 117
SWIDTH 600 0
DWIDTH 15 0
BBX 14 16 0 0
BITMAP
F8F8
8C8C
8C8C
8C8C
8C8C
8C8C
8C8C
8C8C
8C8C
8C8C
8F8C
800C
800C
800C
FFFC
7FFC
ENDCHAR
STARTCHAR U+0076
ENCODING 118
SWIDTH 600 0
DWIDTH 15 0
BBX 14 16 0 0
BITMAP
F8F8
8C8C
8C8C
8C8C
8C8C
8C8C
8C8C
868C
838C
C18C
608C
300C
180C
0C0C
07FC
03FC
ENDCHAR
STARTCHAR U+0077
ENCODING 119
SWIDTH 680 0
DWIDTH 17 0
BBX 16 16 0 0
BITMAP
F83E
8C23
8C23
8C23
8FE3
8C63
8C63
8C63
8C63
8C63
8C63
8003
8003
8003
FFFF
7FFF
ENDCHAR
STARTCHAR U+0078
ENCODING 120
SWIDTH 680 0
DWIDTH 17 0
BBX 16 16 0 0
BITMAP
F83E
8C23
8C63
86C3
C387
610F
301E
183C
3018
610C
C386
87C3
8F63
8E23
FC3F
7C1F
ENDCHAR
STARTCHAR U+0079
ENCODING 121
SWIDTH 600 0
DWIDTH 15 0
BBX 14 16 0 0
BITMAP
F8F8
8C8C
8C8C
8C8C
8F8C
800C
800C
800C
FF8C
7F8C
FF8C
800C
800C
800C
FFFC
7FFC
ENDCHAR
STARTCHAR U+007A
ENCODING 122
SWIDTH 600 0
DWIDTH 15 0
BBX 14 16 0 0
BITMAP
FFF8
800C
800C
800C
FE1C
7C3C
1878
30F0
61E0
C3C0
87F8
800C
800C
800C
FFFC
7FFC
ENDCHAR
STARTCHAR U+007B
ENCODING 123
SWIDTH 400 0
DWIDTH 10 0
BBX 9 24 0 0
BITMAP
3F00
6180
4180
4180
4780
4780
4600
C600
8600
8600
8600
8E00
8600
8600
8600
C600
4600
4600
4700
4180
4180
6180
3F80
1F80
ENDCHAR
STARTCHAR U+007C
ENCODING 124
SWIDTH 280 0
DWIDTH 7 0
BBX 6 24 0 0
BITMAP
F8
8C
8C
8C
8C
8C
8C
8C
8C
8C
8C
8C
8C
8C
8C
8C
8C
8C
8C
8C
8C
8C
FC
7C
ENDCHAR
STARTCHAR U+007D
ENCODING 125
SWIDTH 400 0
DWIDTH 10 0
BBX 9 24 0 0
BITMAP
FC00
8600
8300
8300
E300
6300
2300
2300
2300
2180
2180
3180
2180
2180
2380
2380
2300
2300
E300
8300
8300
8700
FF00
7E00
ENDCHAR
STARTCHAR U+007E
ENCODING 126
SWIDTH 760 0
DWIDTH 19 0
BBX 18 9 0 6
BITMAP
7FCF80
C068C0
8038C0
8010C0
8400C0
8E00C0
8F01C0
FDFFC0
7CFF80
ENDCHAR
ENDFONT
