STARTFONT 2.1
FONT -PixelFonts-pixelfont_extended_latin_15x7_thin-Thin-R-Normal--17-170-75-75-P-0-ISO10646-1
SIZE 17 75 75
FONTBOUNDINGBOX 11 15 0 0
STARTPROPERTIES 7
FOUNDRY "PixelFonts"
FAMILY_NAME "pixelfont_extended_latin_15x7_thin"
WEIGHT_NAME "Thin"
PIXEL_SIZE 17
FONT_ASCENT 15
FONT_DESCENT 2
DEFAULT_CHAR 32
ENDPROPERTIES
CHARS 145
STARTCHAR U+0020
ENCODING 32
SWIDTH 294 0
DWIDTH 5 0
BBX 1 1 0 0
BITMAP
00
ENDCHAR
STARTCHAR U+0021
ENCODING 33
SWIDTH 176 0
DWIDTH 3 0
BBX 1 15 0 0
BITMAP
80
80
80
80
80
80
80
80
80
80
80
80
80
00
80
ENDCHAR
STARTCHAR U+0022
ENCODING 34
SWIDTH 294 0
DWIDTH 5 0
BBX 3 3 0 12
BITMAP
A0
A0
A0
ENDCHAR
STARTCHAR U+0023
ENCODING 35
SWIDTH 529 0
DWIDTH 9 0
BBX 7 13 0 1
BITMAP
44
44
44
FE
44
44
44
44
FE
44
44
44
44
ENDCHAR
STARTCHAR U+0024
ENCODING 36
SWIDTH 529 0
DWIDTH 9 0
BBX 7 15 0 0
BITMAP
10
10
FE
90
90
90
90
FE
12
12
12
12
FE
10
10
ENDCHAR
STARTCHAR U+0025
ENCODING 37
SWIDTH 529 0
DWIDTH 9 0
BBX 7 15 0 0
BITMAP
E0
A4
E4
04
08
08
10
10
10
20
20
40
4E
8A
0E
ENDCHAR
STARTCHAR U+0026
ENCODING 38
SWIDTH 529 0
DWIDTH 9 0
BBX 7 15 0 0
BITMAP
70
88
88
88
50
20
20
52
8A
84
84
84
8A
8A
70
ENDCHAR
STARTCHAR U+0027
ENCODING 39
SWIDTH 176 0
DWIDTH 3 0
BBX 1 4 0 11
BITMAP
80
80
80
80
ENDCHAR
STARTCHAR U+0028
ENCODING 40
SWIDTH 235 0
DWIDTH 4 0
BBX 2 15 0 0
BITMAP
40
80
80
80
80
80
80
80
80
80
80
80
80
40
40
ENDCHAR
STARTCHAR U+0029
ENCODING 41
SWIDTH 235 0
DWIDTH 4 0
BBX 2 15 0 0
BITMAP
80
40
40
40
40
40
40
40
40
40
40
40
40
80
80
ENDCHAR
STARTCHAR U+002A
ENCODING 42
SWIDTH 529 0
DWIDTH 9 0
BBX 7 7 0 4
BITMAP
10
92
54
38
54
92
10
ENDCHAR
STARTCHAR U+002B
ENCODING 43
SWIDTH 412 0
DWIDTH 7 0
BBX 5 6 0 5
BITMAP
20
20
20
F8
20
20
ENDCHAR
STARTCHAR U+002C
ENCODING 44
SWIDTH 176 0
DWIDTH 3 0
BBX 1 4 0 0
BITMAP
80
80
80
80
ENDCHAR
STARTCHAR U+002D
ENCODING 45
SWIDTH 529 0
DWIDTH 9 0
BBX 7 1 0 7
BITMAP
FE
ENDCHAR
STARTCHAR U+002E
ENCODING 46
SWIDTH 176 0
DWIDTH 3 0
BBX 1 1 0 0
BITMAP
80
ENDCHAR
STARTCHAR U+002F
ENCODING 47
SWIDTH 294 0
DWIDTH 5 0
BBX 3 15 0 0
BITMAP
20
20
20
20
20
40
40
40
40
40
80
80
80
80
80
ENDCHAR
STARTCHAR U+0030
ENCODING 48
SWIDTH 471 0
DWIDTH 8 0
BBX 6 15 0 0
BITMAP
FC
84
84
84
84
84
84
84
84
84
84
84
84
84
FC
ENDCHAR
STARTCHAR U+0031
ENCODING 49
SWIDTH 176 0
DWIDTH 3 0
BBX 1 15 0 0
BITMAP
80
80
80
80
80
80
80
80
80
80
80
80
80
80
80
ENDCHAR
STARTCHAR U+0032
ENCODING 50
SWIDTH 471 0
DWIDTH 8 0
BBX 6 15 0 0
BITMAP
FC
84
04
04
04
04
04
FC
80
80
80
80
80
80
FC
ENDCHAR
STARTCHAR U+0033
ENCODING 51
SWIDTH 471 0
DWIDTH 8 0
BBX 6 15 0 0
BITMAP
FC
04
04
04
04
04
04
3C
04
04
04
04
04
04
FC
ENDCHAR
STARTCHAR U+0034
ENCODING 52
SWIDTH 471 0
DWIDTH 8 0
BBX 6 15 0 0
BITMAP
84
84
84
84
84
84
84
FC
04
04
04
04
04
04
04
ENDCHAR
STARTCHAR U+0035
ENCODING 53
SWIDTH 471 0
DWIDTH 8 0
BBX 6 15 0 0
BITMAP
FC
80
80
80
80
80
80
FC
04
04
04
04
04
84
FC
ENDCHAR
STARTCHAR U+0036
ENCODING 54
SWIDTH 471 0
DWIDTH 8 0
BBX 6 15 0 0
BITMAP
FC
84
80
80
80
80
80
FC
84
84
84
84
84
84
FC
ENDCHAR
STARTCHAR U+0037
ENCODING 55
SWIDTH 471 0
DWIDTH 8 0
BBX 6 15 0 0
BITMAP
FC
84
04
04
04
04
04
04
04
04
04
04
04
04
04
ENDCHAR
STARTCHAR U+0038
ENCODING 56
SWIDTH 471 0
DWIDTH 8 0
BBX 6 15 0 0
BITMAP
FC
84
84
84
84
84
84
FC
84
84
84
84
84
84
FC
ENDCHAR
STARTCHAR U+0039
ENCODING 57
SWIDTH 471 0
DWIDTH 8 0
BBX 6 15 0 0
BITMAP
FC
84
84
84
84
84
84
FC
04
04
04
04
84
84
FC
ENDCHAR
STARTCHAR U+003A
ENCODING 58
SWIDTH 176 0
DWIDTH 3 0
BBX 1 8 0 4
BITMAP
80
80
00
00
00
00
80
80
ENDCHAR
STARTCHAR U+003B
ENCODING 59
SWIDTH 235 0
DWIDTH 4 0
BBX 1 12 0 0
BITMAP
80
80
00
00
00
00
80
80
80
80
80
80
ENDCHAR
STARTCHAR U+003C
ENCODING 60
SWIDTH 353 0
DWIDTH 6 0
BBX 4 7 0 4
BITMAP
10
20
40
80
40
20
10
ENDCHAR
STARTCHAR U+003D
ENCODING 61
SWIDTH 529 0
DWIDTH 9 0
BBX 7 6 0 5
BITMAP
FE
00
00
00
00
FE
ENDCHAR
STARTCHAR U+003E
ENCODING 62
SWIDTH 353 0
DWIDTH 6 0
BBX 4 7 0 4
BITMAP
80
40
20
10
20
40
80
ENDCHAR
STARTCHAR U+003F
ENCODING 63
SWIDTH 529 0
DWIDTH 9 0
BBX 7 15 0 0
BITMAP
FE
82
02
02
02
02
02
1E
10
10
10
10
00
00
10
ENDCHAR
STARTCHAR U+0040
ENCODING 64
SWIDTH 529 0
DWIDTH 9 0
BBX 7 13 0 1
BITMAP
FE
82
82
BA
AA
AA
AA
BE
80
80
80
80
FE
ENDCHAR
STARTCHAR U+0041
ENCODING 65
SWIDTH 471 0
DWIDTH 8 0
BBX 6 15 0 0
BITMAP
FC
84
84
84
84
84
84
FC
84
84
84
84
84
84
84
ENDCHAR
STARTCHAR U+0042
ENCODING 66
SWIDTH 471 0
DWIDTH 8 0
BBX 6 15 0 0
BITMAP
F8
84
84
84
84
84
84
FC
84
84
84
84
84
84
F8
ENDCHAR
STARTCHAR U+0043
ENCODING 67
SWIDTH 471 0
DWIDTH 8 0
BBX 6 15 0 0
BITMAP
FC
84
80
80
80
80
80
80
80
80
80
80
84
84
FC
ENDCHAR
STARTCHAR U+0044
ENCODING 68
SWIDTH 471 0
DWIDTH 8 0
BBX 6 15 0 0
BITMAP
F8
84
84
84
84
84
84
84
84
84
84
84
84
84
F8
ENDCHAR
STARTCHAR U+0045
ENCODING 69
SWIDTH 471 0
DWIDTH 8 0
BBX 6 15 0 0
BITMAP
FC
80
80
80
80
80
80
F8
80
80
80
80
80
80
FC
ENDCHAR
STARTCHAR U+0046
ENCODING 70
SWIDTH 471 0
DWIDTH 8 0
BBX 6 15 0 0
BITMAP
FC
80
80
80
80
80
80
F8
80
80
80
80
80
80
80
ENDCHAR
STARTCHAR U+0047
ENCODING 71
SWIDTH 471 0
DWIDTH 8 0
BBX 6 15 0 0
BITMAP
FC
84
80
80
80
80
80
9C
84
84
84
84
84
84
FC
ENDCHAR
STARTCHAR U+0048
ENCODING 72
SWIDTH 471 0
DWIDTH 8 0
BBX 6 15 0 0
BITMAP
84
84
84
84
84
84
84
FC
84
84
84
84
84
84
84
ENDCHAR
STARTCHAR U+0049
ENCODING 73
SWIDTH 176 0
DWIDTH 3 0
BBX 1 15 0 0
BITMAP
80
80
80
80
80
80
80
80
80
80
80
80
80
80
80
ENDCHAR
STARTCHAR U+004A
ENCODING 74
SWIDTH 471 0
DWIDTH 8 0
BBX 6 15 0 0
BITMAP
04
04
04
04
04
04
04
04
04
04
84
84
84
84
FC
ENDCHAR
STARTCHAR U+004B
ENCODING 75
SWIDTH 529 0
DWIDTH 9 0
BBX 7 15 0 0
BITMAP
82
82
84
84
88
88
88
F0
88
88
88
84
84
82
82
ENDCHAR
STARTCHAR U+004C
ENCODING 76
SWIDTH 471 0
DWIDTH 8 0
BBX 6 15 0 0
BITMAP
80
80
80
80
80
80
80
80
80
80
80
80
80
80
FC
ENDCHAR
STARTCHAR U+004D
ENCODING 77
SWIDTH 529 0
DWIDTH 9 0
BBX 7 15 0 0
BITMAP
FE
92
92
92
92
92
92
92
82
82
82
82
82
82
82
ENDCHAR
STARTCHAR U+004E
ENCODING 78
SWIDTH 471 0
DWIDTH 8 0
BBX 6 15 0 0
BITMAP
84
84
84
84
C4
A4
94
94
8C
84
84
84
84
84
84
ENDCHAR
STARTCHAR U+004F
ENCODING 79
SWIDTH 471 0
DWIDTH 8 0
BBX 6 15 0 0
BITMAP
FC
84
84
84
84
84
84
84
84
84
84
84
84
84
FC
ENDCHAR
STARTCHAR U+0050
ENCODING 80
SWIDTH 471 0
DWIDTH 8 0
BBX 6 15 0 0
BITMAP
FC
84
84
84
84
84
84
FC
80
80
80
80
80
80
80
ENDCHAR
STARTCHAR U+0051
ENCODING 81
SWIDTH 471 0
DWIDTH 8 0
BBX 6 15 0 0
BITMAP
FC
84
84
84
84
84
84
84
84
84
A4
94
8C
8C
FC
ENDCHAR
STARTCHAR U+0052
ENCODING 82
SWIDTH 529 0
DWIDTH 9 0
BBX 7 15 0 0
BITMAP
FE
82
82
82
82
82
82
FE
A0
90
88
84
82
82
82
ENDCHAR
STARTCHAR U+0053
ENCODING 83
SWIDTH 471 0
DWIDTH 8 0
BBX 6 15 0 0
BITMAP
FC
84
84
80
80
80
80
FC
04
04
04
04
84
84
FC
ENDCHAR
STARTCHAR U+0054
ENCODING 84
SWIDTH 529 0
DWIDTH 9 0
BBX 7 15 0 0
BITMAP
FE
10
10
10
10
10
10
10
10
10
10
10
10
10
10
ENDCHAR
STARTCHAR U+0055
ENCODING 85
SWIDTH 529 0
DWIDTH 9 0
BBX 7 15 0 0
BITMAP
82
82
82
82
82
82
82
82
82
82
82
82
82
82
FE
ENDCHAR
STARTCHAR U+0056
ENCODING 86
SWIDTH 529 0
DWIDTH 9 0
BBX 7 15 0 0
BITMAP
82
82
82
82
82
82
82
82
82
82
82
44
44
28
10
ENDCHAR
STARTCHAR U+0057
ENCODING 87
SWIDTH 529 0
DWIDTH 9 0
BBX 7 15 0 0
BITMAP
82
82
82
82
82
82
82
82
92
92
92
92
92
92
FE
ENDCHAR
STARTCHAR U+0058
ENCODING 88
SWIDTH 529 0
DWIDTH 9 0
BBX 7 15 0 0
BITMAP
82
82
82
82
82
44
28
10
28
44
82
82
82
82
82
ENDCHAR
STARTCHAR U+0059
ENCODING 89
SWIDTH 529 0
DWIDTH 9 0
BBX 7 15 0 0
BITMAP
82
82
82
44
44
28
10
10
10
10
10
10
10
10
10
ENDCHAR
STARTCHAR U+005A
ENCODING 90
SWIDTH 529 0
DWIDTH 9 0
BBX 7 15 0 0
BITMAP
FE
02
02
02
02
04
08
10
20
40
80
80
80
80
FE
ENDCHAR
STARTCHAR U+005B
ENCODING 91
SWIDTH 353 0
DWIDTH 6 0
BBX 4 15 0 0
BITMAP
F0
80
80
80
80
80
80
80
80
80
80
80
80
80
F0
ENDCHAR
STARTCHAR U+005C
ENCODING 92
SWIDTH 294 0
DWIDTH 5 0
BBX 3 15 0 0
BITMAP
20
20
20
20
20
40
40
40
40
40
80
80
80
80
80
ENDCHAR
STARTCHAR U+005D
ENCODING 93
SWIDTH 353 0
DWIDTH 6 0
BBX 4 15 0 0
BITMAP
F0
10
10
10
10
10
10
10
10
10
10
10
10
10
F0
ENDCHAR
STARTCHAR U+005E
ENCODING 94
SWIDTH 529 0
DWIDTH 9 0
BBX 7 4 0 11
BITMAP
10
28
44
82
ENDCHAR
STARTCHAR U+005F
ENCODING 95
SWIDTH 529 0
DWIDTH 9 0
BBX 7 1 0 0
BITMAP
FE
ENDCHAR
STARTCHAR U+0060
ENCODING 96
SWIDTH 353 0
DWIDTH 6 0
BBX 4 4 0 11
BITMAP
80
40
20
10
ENDCHAR
STARTCHAR U+0061
ENCODING 97
SWIDTH 471 0
DWIDTH 8 0
BBX 6 9 0 0
BITMAP
7C
04
04
04
FC
84
84
84
FC
ENDCHAR
STARTCHAR U+0062
ENCODING 98
SWIDTH 471 0
DWIDTH 8 0
BBX 6 15 0 0
BITMAP
80
80
80
80
80
80
FC
84
84
84
84
84
84
84
FC
ENDCHAR
STARTCHAR U+0063
ENCODING 99
SWIDTH 471 0
DWIDTH 8 0
BBX 6 9 0 0
BITMAP
FC
80
80
80
80
80
80
80
FC
ENDCHAR
STARTCHAR U+0064
ENCODING 100
SWIDTH 471 0
DWIDTH 8 0
BBX 6 15 0 0
BITMAP
04
04
04
04
04
04
FC
84
84
84
84
84
84
84
FC
ENDCHAR
STARTCHAR U+0065
ENCODING 101
SWIDTH 471 0
DWIDTH 8 0
BBX 6 9 0 0
BITMAP
FC
84
84
84
FC
80
80
80
FC
ENDCHAR
STARTCHAR U+0066
ENCODING 102
SWIDTH 353 0
DWIDTH 6 0
BBX 4 15 0 0
BITMAP
70
40
40
40
40
40
F0
40
40
40
40
40
40
40
40
ENDCHAR
STARTCHAR U+0067
ENCODING 103
SWIDTH 471 0
DWIDTH 8 0
BBX 6 9 0 0
BITMAP
FC
84
84
84
FC
04
04
04
FC
ENDCHAR
STARTCHAR U+0068
ENCODING 104
SWIDTH 471 0
DWIDTH 8 0
BBX 6 15 0 0
BITMAP
80
80
80
80
80
80
FC
84
84
84
84
84
84
84
84
ENDCHAR
STARTCHAR U+0069
ENCODING 105
SWIDTH 176 0
DWIDTH 3 0
BBX 1 11 0 0
BITMAP
80
00
80
80
80
80
80
80
80
80
80
ENDCHAR
STARTCHAR U+006A
ENCODING 106
SWIDTH 353 0
DWIDTH 6 0
BBX 4 11 0 0
BITMAP
10
00
10
10
10
10
10
10
90
90
F0
ENDCHAR
STARTCHAR U+006B
ENCODING 107
SWIDTH 412 0
DWIDTH 7 0
BBX 5 15 0 0
BITMAP
80
80
80
80
80
80
88
88
90
A0
C0
A0
90
88
88
ENDCHAR
STARTCHAR U+006C
ENCODING 108
SWIDTH 176 0
DWIDTH 3 0
BBX 1 15 0 0
BITMAP
80
80
80
80
80
80
80
80
80
80
80
80
80
80
80
ENDCHAR
STARTCHAR U+006D
ENCODING 109
SWIDTH 529 0
DWIDTH 9 0
BBX 7 9 0 0
BITMAP
FE
92
92
92
92
92
92
92
92
ENDCHAR
STARTCHAR U+006E
ENCODING 110
SWIDTH 471 0
DWIDTH 8 0
BBX 6 9 0 0
BITMAP
F8
84
84
84
84
84
84
84
84
ENDCHAR
STARTCHAR U+006F
ENCODING 111
SWIDTH 471 0
DWIDTH 8 0
BBX 6 9 0 0
BITMAP
FC
84
84
84
84
84
84
84
FC
ENDCHAR
STARTCHAR U+0070
ENCODING 112
SWIDTH 471 0
DWIDTH 8 0
BBX 6 9 0 0
BITMAP
FC
84
84
84
FC
80
80
80
80
ENDCHAR
STARTCHAR U+0071
ENCODING 113
SWIDTH 471 0
DWIDTH 8 0
BBX 6 9 0 0
BITMAP
FC
84
84
84
FC
04
04
04
04
ENDCHAR
STARTCHAR U+0072
ENCODING 114
SWIDTH 353 0
DWIDTH 6 0
BBX 4 9 0 0
BITMAP
F0
80
80
80
80
80
80
80
80
ENDCHAR
STARTCHAR U+0073
ENCODING 115
SWIDTH 471 0
DWIDTH 8 0
BBX 6 9 0 0
BITMAP
FC
80
80
80
FC
04
04
04
FC
ENDCHAR
STARTCHAR U+0074
ENCODING 116
SWIDTH 353 0
DWIDTH 6 0
BBX 4 15 0 0
BITMAP
40
40
40
40
40
40
F0
40
40
40
40
40
40
40
70
ENDCHAR
STARTCHAR U+0075
ENCODING 117
SWIDTH 471 0
DWIDTH 8 0
BBX 6 9 0 0
BITMAP
84
84
84
84
84
84
84
84
FC
ENDCHAR
STARTCHAR U+0076
ENCODING 118
SWIDTH 471 0
DWIDTH 8 0
BBX 6 9 0 0
BITMAP
84
84
84
84
84
44
24
14
0C
ENDCHAR
STARTCHAR U+0077
ENCODING 119
SWIDTH 529 0
DWIDTH 9 0
BBX 7 9 0 0
BITMAP
82
82
82
82
92
92
92
92
FE
ENDCHAR
STARTCHAR U+0078
ENCODING 120
SWIDTH 529 0
DWIDTH 9 0
BBX 7 9 0 0
BITMAP
82
82
44
28
10
28
44
82
82
ENDCHAR
STARTCHAR U+0079
ENCODING 121
SWIDTH 471 0
DWIDTH 8 0
BBX 6 9 0 0
BITMAP
84
84
84
84
FC
04
04
04
FC
ENDCHAR
STARTCHAR U+007A
ENCODING 122
SWIDTH 471 0
DWIDTH 8 0
BBX 6 9 0 0
BITMAP
FC
08
10
20
20
40
80
80
FC
ENDCHAR
STARTCHAR U+007B
ENCODING 123
SWIDTH 294 0
DWIDTH 5 0
BBX 3 15 0 0
BITMAP
60
40
40
40
40
C0
80
80
C0
40
40
40
40
40
60
ENDCHAR
STARTCHAR U+007C
ENCODING 124
SWIDTH 176 0
DWIDTH 3 0
BBX 1 15 0 0
BITMAP
80
80
80
80
80
80
80
80
80
80
80
80
80
80
80
ENDCHAR
STARTCHAR U+007D
ENCODING 125
SWIDTH 294 0
DWIDTH 5 0
BBX 3 15 0 0
BITMAP
C0
40
40
40
40
60
20
20
60
40
40
40
40
40
C0
ENDCHAR
STARTCHAR U+007E
ENCODING 126
SWIDTH 529 0
DWIDTH 9 0
BBX 7 3 0 7
BITMAP
F2
92
9E
ENDCHAR
STARTCHAR U+00A1
ENCODING 161
SWIDTH 176 0
DWIDTH 3 0
BBX 1 15 0 0
BITMAP
80
00
80
80
80
80
80
80
80
80
80
80
80
80
80
ENDCHAR
STARTCHAR U+00AA
ENCODING 170
SWIDTH 353 0
DWIDTH 6 0
BBX 4 6 0 9
BITMAP
70
90
90
F0
00
F0
ENDCHAR
STARTCHAR U+00AB
ENCODING 171
SWIDTH 412 0
DWIDTH 7 0
BBX 5 6 0 1
BITMAP
28
50
A0
50
50
28
ENDCHAR
STARTCHAR U+00B0
ENCODING 176
SWIDTH 353 0
DWIDTH 6 0
BBX 4 4 0 11
BITMAP
F0
90
90
F0
ENDCHAR
STARTCHAR U+00BA
ENCODING 186
SWIDTH 353 0
DWIDTH 6 0
BBX 4 6 0 9
BITMAP
F0
90
90
F0
00
F0
ENDCHAR
STARTCHAR U+00BB
ENCODING 187
SWIDTH 412 0
DWIDTH 7 0
BBX 5 6 0 1
BITMAP
A0
50
28
50
50
A0
ENDCHAR
STARTCHAR U+00BF
ENCODING 191
SWIDTH 529 0
DWIDTH 9 0
BBX 7 15 0 0
BITMAP
10
00
00
10
10
10
10
F0
80
80
80
80
82
82
FE
ENDCHAR
STARTCHAR U+00DF
ENCODING 223
SWIDTH 471 0
DWIDTH 8 0
BBX 6 15 0 0
BITMAP
F8
84
84
84
84
84
84
BC
84
84
84
84
84
84
B8
ENDCHAR
STARTCHAR U+00E0
ENCODING 224
SWIDTH 471 0
DWIDTH 8 0
BBX 6 12 0 0
BITMAP
40
20
00
7C
04
04
04
FC
84
84
84
FC
ENDCHAR
STARTCHAR U+00E1
ENCODING 225
SWIDTH 471 0
DWIDTH 8 0
BBX 6 12 0 0
BITMAP
08
10
00
7C
04
04
04
FC
84
84
84
FC
ENDCHAR
STARTCHAR U+00E2
ENCODING 226
SWIDTH 471 0
DWIDTH 8 0
BBX 6 12 0 0
BITMAP
30
48
00
7C
04
04
04
FC
84
84
84
FC
ENDCHAR
STARTCHAR U+00E4
ENCODING 228
SWIDTH 471 0
DWIDTH 8 0
BBX 6 11 0 0
BITMAP
84
00
7C
04
04
04
FC
84
84
84
FC
ENDCHAR
STARTCHAR U+00E6
ENCODING 230
SWIDTH 765 0
DWIDTH 13 0
BBX 11 9 0 0
BITMAP
7FE0
0420
0420
0420
FFE0
8400
8400
8400
FFE0
ENDCHAR
STARTCHAR U+00E7
ENCODING 231
SWIDTH 471 0
DWIDTH 8 0
BBX 6 9 0 0
BITMAP
FC
80
80
80
80
80
FC
20
20
ENDCHAR
STARTCHAR U+00E8
ENCODING 232
SWIDTH 471 0
DWIDTH 8 0
BBX 6 12 0 0
BITMAP
40
20
00
FC
84
84
84
FC
80
80
80
FC
ENDCHAR
STARTCHAR U+00E9
ENCODING 233
SWIDTH 471 0
DWIDTH 8 0
BBX 6 12 0 0
BITMAP
08
10
00
FC
84
84
84
FC
80
80
80
FC
ENDCHAR
STARTCHAR U+00EA
ENCODING 234
SWIDTH 471 0
DWIDTH 8 0
BBX 6 12 0 0
BITMAP
30
48
00
FC
84
84
84
FC
80
80
80
FC
ENDCHAR
STARTCHAR U+00EB
ENCODING 235
SWIDTH 471 0
DWIDTH 8 0
BBX 6 11 0 0
BITMAP
84
00
FC
84
84
84
FC
80
80
80
FC
ENDCHAR
STARTCHAR U+00EC
ENCODING 236
SWIDTH 235 0
DWIDTH 4 0
BBX 2 12 0 0
BITMAP
80
40
00
40
40
40
40
40
40
40
40
40
ENDCHAR
STARTCHAR U+00ED
ENCODING 237
SWIDTH 235 0
DWIDTH 4 0
BBX 2 12 0 0
BITMAP
40
80
00
80
80
80
80
80
80
80
80
80
ENDCHAR
STARTCHAR U+00EE
ENCODING 238
SWIDTH 353 0
DWIDTH 6 0
BBX 4 12 0 0
BITMAP
60
90
00
20
20
20
20
20
20
20
20
20
ENDCHAR
STARTCHAR U+00EF
ENCODING 239
SWIDTH 412 0
DWIDTH 7 0
BBX 5 11 0 0
BITMAP
88
00
20
20
20
20
20
20
20
20
20
ENDCHAR
STARTCHAR U+00F1
ENCODING 241
SWIDTH 471 0
DWIDTH 8 0
BBX 6 12 0 0
BITMAP
64
98
00
F8
84
84
84
84
84
84
84
84
ENDCHAR
STARTCHAR U+00F2
ENCODING 242
SWIDTH 471 0
DWIDTH 8 0
BBX 6 12 0 0
BITMAP
40
20
00
FC
84
84
84
84
84
84
84
FC
ENDCHAR
STARTCHAR U+00F3
ENCODING 243
SWIDTH 471 0
DWIDTH 8 0
BBX 6 12 0 0
BITMAP
08
10
00
FC
84
84
84
84
84
84
84
FC
ENDCHAR
STARTCHAR U+00F4
ENCODING 244
SWIDTH 471 0
DWIDTH 8 0
BBX 6 12 0 0
BITMAP
30
48
00
FC
84
84
84
84
84
84
84
FC
ENDCHAR
STARTCHAR U+00F6
ENCODING 246
SWIDTH 471 0
DWIDTH 8 0
BBX 6 11 0 0
BITMAP
84
00
FC
84
84
84
84
84
84
84
FC
ENDCHAR
STARTCHAR U+00F9
ENCODING 249
SWIDTH 471 0
DWIDTH 8 0
BBX 6 12 0 0
BITMAP
40
20
00
84
84
84
84
84
84
84
84
FC
ENDCHAR
STARTCHAR U+00FA
ENCODING 250
SWIDTH 471 0
DWIDTH 8 0
BBX 6 12 0 0
BITMAP
08
10
00
84
84
84
84
84
84
84
84
FC
ENDCHAR
STARTCHAR U+00FB
ENCODING 251
SWIDTH 471 0
DWIDTH 8 0
BBX 6 12 0 0
BITMAP
30
48
00
84
84
84
84
84
84
84
84
FC
ENDCHAR
STARTCHAR U+00FC
ENCODING 252
SWIDTH 471 0
DWIDTH 8 0
BBX 6 11 0 0
BITMAP
84
00
84
84
84
84
84
84
84
84
FC
ENDCHAR
STARTCHAR U+00FD
ENCODING 253
SWIDTH 471 0
DWIDTH 8 0
BBX 6 12 0 0
BITMAP
08
10
00
84
84
84
84
FC
04
04
04
FC
ENDCHAR
STARTCHAR U+00FF
ENCODING 255
SWIDTH 471 0
DWIDTH 8 0
BBX 6 11 0 0
BITMAP
84
00
84
84
84
84
FC
04
04
04
FC
ENDCHAR
STARTCHAR U+010D
ENCODING 269
SWIDTH 471 0
DWIDTH 8 0
BBX 6 12 0 0
BITMAP
48
30
00
FC
80
80
80
80
80
80
80
FC
ENDCHAR
STARTCHAR U+010F
ENCODING 271
SWIDTH 471 0
DWIDTH 8 0
BBX 6 15 0 0
BITMAP
14
14
14
04
04
04
FC
84
84
84
84
84
84
84
FC
ENDCHAR
STARTCHAR U+011B
ENCODING 283
SWIDTH 471 0
DWIDTH 8 0
BBX 6 12 0 0
BITMAP
48
30
00
FC
84
84
84
FC
80
80
80
FC
ENDCHAR
STARTCHAR U+0148
ENCODING 328
SWIDTH 471 0
DWIDTH 8 0
BBX 6 12 0 0
BITMAP
48
30
00
F8
84
84
84
84
84
84
84
84
ENDCHAR
STARTCHAR U+0153
ENCODING 339
SWIDTH 765 0
DWIDTH 13 0
BBX 11 9 0 0
BITMAP
FFE0
8420
8420
8420
87E0
8400
8400
8400
FFE0
ENDCHAR
STARTCHAR U+0159
ENCODING 345
SWIDTH 353 0
DWIDTH 6 0
BBX 4 12 0 0
BITMAP
90
60
00
F0
80
80
80
80
80
80
80
80
ENDCHAR
STARTCHAR U+0161
ENCODING 353
SWIDTH 471 0
DWIDTH 8 0
BBX 6 12 0 0
BITMAP
48
30
00
FC
80
80
80
FC
04
04
04
FC
ENDCHAR
STARTCHAR U+0165
ENCODING 357
SWIDTH 353 0
DWIDTH 6 0
BBX 4 15 0 0
BITMAP
50
50
50
40
40
40
F0
40
40
40
40
40
40
40
70
ENDCHAR
STARTCHAR U+016F
ENCODING 367
SWIDTH 471 0
DWIDTH 8 0
BBX 6 12 0 0
BITMAP
30
30
00
84
84
84
84
84
84
84
84
FC
ENDCHAR
STARTCHAR U+017E
ENCODING 382
SWIDTH 471 0
DWIDTH 8 0
BBX 6 12 0 0
BITMAP
48
30
00
FC
08
10
20
20
40
80
80
FC
ENDCHAR
STARTCHAR U+2018
ENCODING 8216
SWIDTH 176 0
DWIDTH 3 0
BBX 1 3 0 12
BITMAP
80
80
80
ENDCHAR
STARTCHAR U+2019
ENCODING 8217
SWIDTH 176 0
DWIDTH 3 0
BBX 1 3 0 12
BITMAP
80
80
80
ENDCHAR
STARTCHAR U+201A
ENCODING 8218
SWIDTH 176 0
DWIDTH 3 0
BBX 1 4 0 0
BITMAP
80
80
80
80
ENDCHAR
STARTCHAR U+201C
ENCODING 8220
SWIDTH 294 0
DWIDTH 5 0
BBX 3 3 0 12
BITMAP
A0
A0
A0
ENDCHAR
STARTCHAR U+201D
ENCODING 8221
SWIDTH 294 0
DWIDTH 5 0
BBX 3 3 0 12
BITMAP
A0
A0
A0
ENDCHAR
STARTCHAR U+201E
ENCODING 8222
SWIDTH 294 0
DWIDTH 5 0
BBX 3 4 0 0
BITMAP
A0
A0
A0
A0
ENDCHAR
STARTCHAR U+20AC
ENCODING 8364
SWIDTH 529 0
DWIDTH 9 0
BBX 7 15 0 0
BITMAP
7E
42
40
40
40
40
F8
40
F8
40
40
40
40
42
7E
ENDCHAR
ENDFONT
