STARTFONT 2.1
FONT -PixelFonts-pixelfont_extended_latin_17x7_bold-Bold-R-Normal--19-190-75-75-P-0-ISO10646-1
SIZE 19 75 75
FONTBOUNDINGBOX 13 17 0 0
STARTPROPERTIES 7
FOUNDRY "PixelFonts"
FAMILY_NAME "pixelfont_extended_latin_17x7_bold"
WEIGHT_NAME "Bold"
PIXEL_SIZE 19
FONT_ASCENT 17
FONT_DESCENT 2
DEFAULT_CHAR 32
ENDPROPERTIES
CHARS 145
STARTCHAR U+0020
ENCODING 32
SWIDTH 368 0
DWIDTH 7 0
BBX 1 1 0 0
BITMAP
00
ENDCHAR
STARTCHAR U+0021
ENCODING 33
SWIDTH 263 0
DWIDTH 5 0
BBX 3 17 0 0
BITMAP
E0
E0
E0
E0
E0
E0
E0
E0
E0
E0
E0
E0
E0
00
E0
E0
E0
ENDCHAR
STARTCHAR U+0022
ENCODING 34
SWIDTH 474 0
DWIDTH 9 0
BBX 7 5 0 12
BITMAP
EE
EE
EE
EE
EE
ENDCHAR
STARTCHAR U+0023
ENCODING 35
SWIDTH 684 0
DWIDTH 13 0
BBX 11 13 0 1
BITMAP
3B80
3B80
3B80
FFE0
FFE0
FFE0
3B80
FFE0
FFE0
FFE0
3B80
3B80
3B80
ENDCHAR
STARTCHAR U+0024
ENCODING 36
SWIDTH 684 0
DWIDTH 13 0
BBX 11 17 0 0
BITMAP
0E00
0E00
FFE0
FFE0
FFE0
EE00
EE00
FFE0
FFE0
FFE0
0EE0
0EE0
FFE0
FFE0
FFE0
0E00
0E00
ENDCHAR
STARTCHAR U+0025
ENCODING 37
SWIDTH 684 0
DWIDTH 13 0
BBX 11 17 0 0
BITMAP
F860
F860
D860
F860
F8E0
01C0
0380
0700
0E00
1C00
3800
7000
E3E0
C3E0
C360
C3E0
C3E0
ENDCHAR
STARTCHAR U+0026
ENCODING 38
SWIDTH 684 0
DWIDTH 13 0
BBX 11 17 0 0
BITMAP
3E00
FF80
FF80
E380
E380
E300
E700
FF00
FE00
FE00
FEE0
E7E0
E7E0
E380
FFE0
FFE0
7FE0
ENDCHAR
STARTCHAR U+0027
ENCODING 39
SWIDTH 263 0
DWIDTH 5 0
BBX 3 7 0 10
BITMAP
E0
E0
E0
E0
E0
E0
E0
ENDCHAR
STARTCHAR U+0028
ENCODING 40
SWIDTH 368 0
DWIDTH 7 0
BBX 5 17 0 0
BITMAP
78
F8
F8
F8
E0
E0
E0
E0
E0
E0
E0
E0
E0
E0
F8
F8
78
ENDCHAR
STARTCHAR U+0029
ENCODING 41
SWIDTH 368 0
DWIDTH 7 0
BBX 5 17 0 0
BITMAP
F0
F8
F8
F8
38
38
38
38
38
38
38
38
38
38
F8
F8
F0
ENDCHAR
STARTCHAR U+002A
ENCODING 42
SWIDTH 684 0
DWIDTH 13 0
BBX 11 13 0 2
BITMAP
EEE0
EEE0
EEE0
EEE0
EEE0
FFE0
FFE0
FFE0
EEE0
EEE0
EEE0
EEE0
EEE0
ENDCHAR
STARTCHAR U+002B
ENCODING 43
SWIDTH 579 0
DWIDTH 11 0
BBX 9 13 0 2
BITMAP
1C00
1C00
1C00
1C00
1C00
FF80
FF80
FF80
1C00
1C00
1C00
1C00
1C00
ENDCHAR
STARTCHAR U+002C
ENCODING 44
SWIDTH 263 0
DWIDTH 5 0
BBX 3 7 0 0
BITMAP
E0
E0
E0
E0
E0
E0
E0
ENDCHAR
STARTCHAR U+002D
ENCODING 45
SWIDTH 474 0
DWIDTH 9 0
BBX 7 3 0 7
BITMAP
FE
FE
FE
ENDCHAR
STARTCHAR U+002E
ENCODING 46
SWIDTH 263 0
DWIDTH 5 0
BBX 3 3 0 0
BITMAP
E0
E0
E0
ENDCHAR
STARTCHAR U+002F
ENCODING 47
SWIDTH 474 0
DWIDTH 9 0
BBX 7 17 0 0
BITMAP
0E
0E
0E
0E
3E
38
38
38
38
38
38
F8
F8
E0
E0
E0
E0
ENDCHAR
STARTCHAR U+0030
ENCODING 48
SWIDTH 474 0
DWIDTH 9 0
BBX 7 17 0 0
BITMAP
FE
FE
FE
EE
EE
EE
EE
EE
EE
EE
EE
EE
EE
EE
FE
FE
FE
ENDCHAR
STARTCHAR U+0031
ENCODING 49
SWIDTH 263 0
DWIDTH 5 0
BBX 3 17 0 0
BITMAP
E0
E0
E0
E0
E0
E0
E0
E0
E0
E0
E0
E0
E0
E0
E0
E0
E0
ENDCHAR
STARTCHAR U+0032
ENCODING 50
SWIDTH 474 0
DWIDTH 9 0
BBX 7 17 0 0
BITMAP
FE
FE
FE
EE
0E
0E
0E
FE
FE
FE
E0
E0
E0
E0
FE
FE
FE
ENDCHAR
STARTCHAR U+0033
ENCODING 51
SWIDTH 474 0
DWIDTH 9 0
BBX 7 17 0 0
BITMAP
FE
FE
FE
0E
0E
0E
0E
3E
3E
3E
0E
0E
0E
0E
FE
FE
FE
ENDCHAR
STARTCHAR U+0034
ENCODING 52
SWIDTH 474 0
DWIDTH 9 0
BBX 7 17 0 0
BITMAP
EE
EE
EE
EE
EE
EE
EE
FE
FE
FE
0E
0E
0E
0E
0E
0E
0E
ENDCHAR
STARTCHAR U+0035
ENCODING 53
SWIDTH 474 0
DWIDTH 9 0
BBX 7 17 0 0
BITMAP
FE
FE
FE
E0
E0
E0
E0
FE
FE
FE
0E
0E
0E
EE
FE
FE
FE
ENDCHAR
STARTCHAR U+0036
ENCODING 54
SWIDTH 474 0
DWIDTH 9 0
BBX 7 17 0 0
BITMAP
FE
FE
FE
EE
E0
E0
E0
FE
FE
FE
EE
EE
EE
EE
FE
FE
FE
ENDCHAR
STARTCHAR U+0037
ENCODING 55
SWIDTH 474 0
DWIDTH 9 0
BBX 7 17 0 0
BITMAP
FE
FE
FE
EE
0E
0E
0E
0E
0E
0E
0E
0E
0E
0E
0E
0E
0E
ENDCHAR
STARTCHAR U+0038
ENCODING 56
SWIDTH 474 0
DWIDTH 9 0
BBX 7 17 0 0
BITMAP
FE
FE
FE
EE
EE
EE
EE
FE
FE
FE
EE
EE
EE
EE
FE
FE
FE
ENDCHAR
STARTCHAR U+0039
ENCODING 57
SWIDTH 474 0
DWIDTH 9 0
BBX 7 17 0 0
BITMAP
FE
FE
FE
EE
EE
EE
EE
FE
FE
FE
0E
0E
0E
EE
FE
FE
FE
ENDCHAR
STARTCHAR U+003A
ENCODING 58
SWIDTH 263 0
DWIDTH 5 0
BBX 3 11 0 0
BITMAP
E0
E0
E0
E0
00
00
00
E0
E0
E0
E0
ENDCHAR
STARTCHAR U+003B
ENCODING 59
SWIDTH 368 0
DWIDTH 7 0
BBX 3 13 2 0
BITMAP
E0
E0
E0
E0
00
00
00
E0
E0
E0
E0
E0
E0
ENDCHAR
STARTCHAR U+003C
ENCODING 60
SWIDTH 579 0
DWIDTH 11 0
BBX 9 17 0 0
BITMAP
0180
0380
0780
0F80
1F00
3E00
7C00
F800
F000
F800
7C00
3E00
1F00
0F80
0780
0380
0180
ENDCHAR
STARTCHAR U+003D
ENCODING 61
SWIDTH 579 0
DWIDTH 11 0
BBX 9 7 0 4
BITMAP
FF80
FF80
FF80
0000
FF80
FF80
FF80
ENDCHAR
STARTCHAR U+003E
ENCODING 62
SWIDTH 579 0
DWIDTH 11 0
BBX 9 17 0 0
BITMAP
C000
E000
F000
F800
7C00
3E00
1F00
0F80
0780
0F80
1F00
3E00
7C00
F800
F000
E000
C000
ENDCHAR
STARTCHAR U+003F
ENCODING 63
SWIDTH 579 0
DWIDTH 11 0
BBX 9 17 0 0
BITMAP
FF80
FF80
FF80
E380
E380
0380
0380
1F80
1F80
1F80
1C00
1C00
1C00
0000
1C00
1C00
1C00
ENDCHAR
STARTCHAR U+0040
ENCODING 64
SWIDTH 684 0
DWIDTH 13 0
BBX 11 17 0 0
BITMAP
FFE0
FFE0
FFE0
E0E0
E0E0
E0E0
EEE0
EEE0
EEE0
EEE0
EFE0
EFE0
EFE0
E000
FFE0
FFE0
FFE0
ENDCHAR
STARTCHAR U+0041
ENCODING 65
SWIDTH 474 0
DWIDTH 9 0
BBX 7 17 0 0
BITMAP
FE
FE
FE
EE
EE
EE
EE
EE
EE
EE
FE
FE
FE
EE
EE
EE
EE
ENDCHAR
STARTCHAR U+0042
ENCODING 66
SWIDTH 474 0
DWIDTH 9 0
BBX 7 17 0 0
BITMAP
FC
FE
FE
EE
EE
EE
EE
FE
FE
FE
EE
EE
EE
EE
FE
FE
FC
ENDCHAR
STARTCHAR U+0043
ENCODING 67
SWIDTH 474 0
DWIDTH 9 0
BBX 7 17 0 0
BITMAP
FE
FE
FE
EE
EE
E0
E0
E0
E0
E0
E0
E0
EE
EE
FE
FE
FE
ENDCHAR
STARTCHAR U+0044
ENCODING 68
SWIDTH 474 0
DWIDTH 9 0
BBX 7 17 0 0
BITMAP
FC
FE
FE
EE
EE
EE
EE
EE
EE
EE
EE
EE
EE
EE
FE
FE
FC
ENDCHAR
STARTCHAR U+0045
ENCODING 69
SWIDTH 474 0
DWIDTH 9 0
BBX 7 17 0 0
BITMAP
FE
FE
FE
E0
E0
E0
E0
F8
F8
F8
E0
E0
E0
E0
FE
FE
FE
ENDCHAR
STARTCHAR U+0046
ENCODING 70
SWIDTH 474 0
DWIDTH 9 0
BBX 7 17 0 0
BITMAP
FE
FE
FE
E0
E0
E0
E0
FC
FC
FC
E0
E0
E0
E0
E0
E0
E0
ENDCHAR
STARTCHAR U+0047
ENCODING 71
SWIDTH 474 0
DWIDTH 9 0
BBX 7 17 0 0
BITMAP
FE
FE
FE
EE
EE
E0
E0
EE
EE
EE
EE
EE
EE
EE
FE
FE
FE
ENDCHAR
STARTCHAR U+0048
ENCODING 72
SWIDTH 474 0
DWIDTH 9 0
BBX 7 17 0 0
BITMAP
EE
EE
EE
EE
EE
EE
EE
FE
FE
FE
EE
EE
EE
EE
EE
EE
EE
ENDCHAR
STARTCHAR U+0049
ENCODING 73
SWIDTH 263 0
DWIDTH 5 0
BBX 3 17 0 0
BITMAP
E0
E0
E0
E0
E0
E0
E0
E0
E0
E0
E0
E0
E0
E0
E0
E0
E0
ENDCHAR
STARTCHAR U+004A
ENCODING 74
SWIDTH 474 0
DWIDTH 9 0
BBX 7 17 0 0
BITMAP
0E
0E
0E
0E
0E
0E
0E
0E
0E
0E
EE
EE
EE
EE
FE
FE
FE
ENDCHAR
STARTCHAR U+004B
ENCODING 75
SWIDTH 579 0
DWIDTH 11 0
BBX 9 17 0 0
BITMAP
E380
E380
E380
E380
E380
E780
EF00
FE00
FC00
FE00
EF00
E780
E380
E380
E380
E380
E380
ENDCHAR
STARTCHAR U+004C
ENCODING 76
SWIDTH 474 0
DWIDTH 9 0
BBX 7 17 0 0
BITMAP
E0
E0
E0
E0
E0
E0
E0
E0
E0
E0
E0
E0
E0
E0
FE
FE
FE
ENDCHAR
STARTCHAR U+004D
ENCODING 77
SWIDTH 684 0
DWIDTH 13 0
BBX 11 17 0 0
BITMAP
FFE0
FFE0
FFE0
EEE0
EEE0
EEE0
EEE0
EEE0
EEE0
EEE0
E0E0
E0E0
E0E0
E0E0
E0E0
E0E0
E0E0
ENDCHAR
STARTCHAR U+004E
ENCODING 78
SWIDTH 579 0
DWIDTH 11 0
BBX 9 17 0 0
BITMAP
E380
E380
E380
E380
E380
F380
FB80
FF80
FF80
EF80
E780
E380
E380
E380
E380
E380
E380
ENDCHAR
STARTCHAR U+004F
ENCODING 79
SWIDTH 474 0
DWIDTH 9 0
BBX 7 17 0 0
BITMAP
FE
FE
FE
EE
EE
EE
EE
EE
EE
EE
EE
EE
EE
EE
FE
FE
FE
ENDCHAR
STARTCHAR U+0050
ENCODING 80
SWIDTH 474 0
DWIDTH 9 0
BBX 7 17 0 0
BITMAP
FE
FE
FE
EE
EE
EE
EE
FE
FE
FE
E0
E0
E0
E0
E0
E0
E0
ENDCHAR
STARTCHAR U+0051
ENCODING 81
SWIDTH 526 0
DWIDTH 10 0
BBX 8 17 0 0
BITMAP
FF
FF
FF
E7
E7
E7
E7
E7
E7
E7
E7
EF
EF
EF
FF
FF
FF
ENDCHAR
STARTCHAR U+0052
ENCODING 82
SWIDTH 579 0
DWIDTH 11 0
BBX 9 17 0 0
BITMAP
FF80
FF80
FF80
E380
E380
E380
E380
FF80
FF80
FF80
FC00
EE00
E700
E380
E380
E380
E380
ENDCHAR
STARTCHAR U+0053
ENCODING 83
SWIDTH 474 0
DWIDTH 9 0
BBX 7 17 0 0
BITMAP
FE
FE
FE
EE
EE
E0
E0
FE
FE
FE
0E
0E
EE
EE
FE
FE
FE
ENDCHAR
STARTCHAR U+0054
ENCODING 84
SWIDTH 579 0
DWIDTH 11 0
BBX 9 17 0 0
BITMAP
FF80
FF80
FF80
1C00
1C00
1C00
1C00
1C00
1C00
1C00
1C00
1C00
1C00
1C00
1C00
1C00
1C00
ENDCHAR
STARTCHAR U+0055
ENCODING 85
SWIDTH 579 0
DWIDTH 11 0
BBX 9 17 0 0
BITMAP
E380
E380
E380
E380
E380
E380
E380
E380
E380
E380
E380
E380
E380
E380
FF80
FF80
FF80
ENDCHAR
STARTCHAR U+0056
ENCODING 86
SWIDTH 579 0
DWIDTH 11 0
BBX 9 17 0 0
BITMAP
E380
E380
E380
E380
E380
E380
E380
E380
E380
E380
E380
E380
E380
F780
7F00
3E00
1C00
ENDCHAR
STARTCHAR U+0057
ENCODING 87
SWIDTH 684 0
DWIDTH 13 0
BBX 11 17 0 0
BITMAP
E0E0
E0E0
E0E0
E0E0
E0E0
E0E0
E0E0
EEE0
EEE0
EEE0
EEE0
EEE0
EEE0
EEE0
FFE0
FFE0
FFE0
ENDCHAR
STARTCHAR U+0058
ENCODING 88
SWIDTH 579 0
DWIDTH 11 0
BBX 9 17 0 0
BITMAP
E380
E380
E380
E380
F780
FF80
7F00
3E00
1C00
3E00
7F00
FF80
F780
E380
E380
E380
E380
ENDCHAR
STARTCHAR U+0059
ENCODING 89
SWIDTH 579 0
DWIDTH 11 0
BBX 9 17 0 0
BITMAP
E380
E380
E380
E380
E380
E380
F780
7F00
3E00
1C00
1C00
1C00
1C00
1C00
1C00
1C00
1C00
ENDCHAR
STARTCHAR U+005A
ENCODING 90
SWIDTH 579 0
DWIDTH 11 0
BBX 9 17 0 0
BITMAP
FF80
FF80
FF80
0380
0380
0780
0F00
1E00
3C00
7800
F000
E000
E000
E000
FF80
FF80
FF80
ENDCHAR
STARTCHAR U+005B
ENCODING 91
SWIDTH 474 0
DWIDTH 9 0
BBX 7 17 0 0
BITMAP
FE
FE
FE
E0
E0
E0
E0
E0
E0
E0
E0
E0
E0
E0
FE
FE
FE
ENDCHAR
STARTCHAR U+005C
ENCODING 92
SWIDTH 474 0
DWIDTH 9 0
BBX 7 17 0 0
BITMAP
E0
E0
E0
E0
F0
70
78
38
38
3C
1C
1C
1E
0E
0E
0E
0E
ENDCHAR
STARTCHAR U+005D
ENCODING 93
SWIDTH 474 0
DWIDTH 9 0
BBX 7 17 0 0
BITMAP
FE
FE
FE
0E
0E
0E
0E
0E
0E
0E
0E
0E
0E
0E
FE
FE
FE
ENDCHAR
STARTCHAR U+005E
ENCODING 94
SWIDTH 684 0
DWIDTH 13 0
BBX 11 7 0 10
BITMAP
0E00
1F00
3F80
7FC0
FBE0
F1E0
E0E0
ENDCHAR
STARTCHAR U+005F
ENCODING 95
SWIDTH 579 0
DWIDTH 11 0
BBX 9 3 0 0
BITMAP
FF80
FF80
FF80
ENDCHAR
STARTCHAR U+0060
ENCODING 96
SWIDTH 474 0
DWIDTH 9 0
BBX 7 7 0 10
BITMAP
E0
F0
F8
7C
3E
1E
0E
ENDCHAR
STARTCHAR U+0061
ENCODING 97
SWIDTH 474 0
DWIDTH 9 0
BBX 7 11 0 0
BITMAP
3E
3E
3E
0E
FE
FE
FE
EE
FE
FE
FE
ENDCHAR
STARTCHAR U+0062
ENCODING 98
SWIDTH 474 0
DWIDTH 9 0
BBX 7 17 0 0
BITMAP
E0
E0
E0
E0
E0
E0
FE
FE
FE
EE
EE
EE
EE
EE
FE
FE
FE
ENDCHAR
STARTCHAR U+0063
ENCODING 99
SWIDTH 474 0
DWIDTH 9 0
BBX 7 11 0 0
BITMAP
FE
FE
FE
E0
E0
E0
E0
E0
FE
FE
FE
ENDCHAR
STARTCHAR U+0064
ENCODING 100
SWIDTH 474 0
DWIDTH 9 0
BBX 7 17 0 0
BITMAP
0E
0E
0E
0E
0E
0E
FE
FE
FE
EE
EE
EE
EE
EE
FE
FE
FE
ENDCHAR
STARTCHAR U+0065
ENCODING 101
SWIDTH 474 0
DWIDTH 9 0
BBX 7 11 0 0
BITMAP
FE
FE
FE
EE
FE
FE
FE
E0
FE
FE
FE
ENDCHAR
STARTCHAR U+0066
ENCODING 102
SWIDTH 474 0
DWIDTH 9 0
BBX 7 17 0 0
BITMAP
3E
3E
3E
38
38
38
FE
FE
FE
38
38
38
38
38
38
38
38
ENDCHAR
STARTCHAR U+0067
ENCODING 103
SWIDTH 474 0
DWIDTH 9 0
BBX 7 11 0 0
BITMAP
FE
FE
FE
EE
FE
FE
FE
0E
FE
FE
FE
ENDCHAR
STARTCHAR U+0068
ENCODING 104
SWIDTH 474 0
DWIDTH 9 0
BBX 7 17 0 0
BITMAP
E0
E0
E0
E0
E0
E0
FE
FE
FE
EE
EE
EE
EE
EE
EE
EE
EE
ENDCHAR
STARTCHAR U+0069
ENCODING 105
SWIDTH 263 0
DWIDTH 5 0
BBX 3 17 0 0
BITMAP
E0
E0
E0
00
00
00
E0
E0
E0
E0
E0
E0
E0
E0
E0
E0
E0
ENDCHAR
STARTCHAR U+006A
ENCODING 106
SWIDTH 474 0
DWIDTH 9 0
BBX 7 17 0 0
BITMAP
0E
0E
0E
00
00
00
0E
0E
0E
0E
0E
0E
EE
EE
FE
FE
FE
ENDCHAR
STARTCHAR U+006B
ENCODING 107
SWIDTH 579 0
DWIDTH 11 0
BBX 9 17 0 0
BITMAP
E000
E000
E000
E000
E000
E000
E380
E380
E780
EF80
FF00
FE00
FF00
EF80
E780
E380
E380
ENDCHAR
STARTCHAR U+006C
ENCODING 108
SWIDTH 263 0
DWIDTH 5 0
BBX 3 17 0 0
BITMAP
E0
E0
E0
E0
E0
E0
E0
E0
E0
E0
E0
E0
E0
E0
E0
E0
E0
ENDCHAR
STARTCHAR U+006D
ENCODING 109
SWIDTH 684 0
DWIDTH 13 0
BBX 11 11 0 0
BITMAP
FFE0
FFE0
FFE0
EEE0
EEE0
EEE0
EEE0
EEE0
EEE0
EEE0
EEE0
ENDCHAR
STARTCHAR U+006E
ENCODING 110
SWIDTH 474 0
DWIDTH 9 0
BBX 7 11 0 0
BITMAP
FC
FE
FE
EE
EE
EE
EE
EE
EE
EE
EE
ENDCHAR
STARTCHAR U+006F
ENCODING 111
SWIDTH 474 0
DWIDTH 9 0
BBX 7 11 0 0
BITMAP
FE
FE
FE
EE
EE
EE
EE
EE
FE
FE
FE
ENDCHAR
STARTCHAR U+0070
ENCODING 112
SWIDTH 474 0
DWIDTH 9 0
BBX 7 11 0 0
BITMAP
FE
FE
FE
EE
FE
FE
FE
E0
E0
E0
E0
ENDCHAR
STARTCHAR U+0071
ENCODING 113
SWIDTH 474 0
DWIDTH 9 0
BBX 7 11 0 0
BITMAP
FE
FE
FE
EE
FE
FE
FE
0E
0E
0E
0E
ENDCHAR
STARTCHAR U+0072
ENCODING 114
SWIDTH 474 0
DWIDTH 9 0
BBX 7 11 0 0
BITMAP
FE
FE
FE
E0
E0
E0
E0
E0
E0
E0
E0
ENDCHAR
STARTCHAR U+0073
ENCODING 115
SWIDTH 474 0
DWIDTH 9 0
BBX 7 11 0 0
BITMAP
FE
FE
FE
E0
FE
FE
FE
0E
FE
FE
FE
ENDCHAR
STARTCHAR U+0074
ENCODING 116
SWIDTH 474 0
DWIDTH 9 0
BBX 7 17 0 0
BITMAP
38
38
38
38
38
38
FE
FE
FE
38
38
38
38
38
3E
3E
3E
ENDCHAR
STARTCHAR U+0075
ENCODING 117
SWIDTH 474 0
DWIDTH 9 0
BBX 7 11 0 0
BITMAP
EE
EE
EE
EE
EE
EE
EE
EE
FE
FE
FE
ENDCHAR
STARTCHAR U+0076
ENCODING 118
SWIDTH 474 0
DWIDTH 9 0
BBX 7 11 0 0
BITMAP
EE
EE
EE
EE
EE
EE
EE
FE
7E
3E
1E
ENDCHAR
STARTCHAR U+0077
ENCODING 119
SWIDTH 684 0
DWIDTH 13 0
BBX 11 11 0 0
BITMAP
E0E0
E0E0
E0E0
E0E0
EEE0
EEE0
EEE0
EEE0
FFE0
FFE0
FFE0
ENDCHAR
STARTCHAR U+0078
ENCODING 120
SWIDTH 579 0
DWIDTH 11 0
BBX 9 11 0 0
BITMAP
E380
E380
E380
F780
7F00
3E00
3F00
7780
E380
E380
E380
ENDCHAR
STARTCHAR U+0079
ENCODING 121
SWIDTH 474 0
DWIDTH 9 0
BBX 7 11 0 0
BITMAP
EE
EE
EE
EE
FE
FE
FE
0E
FE
FE
FE
ENDCHAR
STARTCHAR U+007A
ENCODING 122
SWIDTH 474 0
DWIDTH 9 0
BBX 7 11 0 0
BITMAP
FE
FE
FE
1E
3C
78
F0
E0
FE
FE
FE
ENDCHAR
STARTCHAR U+007B
ENCODING 123
SWIDTH 474 0
DWIDTH 9 0
BBX 5 17 0 0
BITMAP
38
78
78
70
70
F0
F0
F0
E0
F0
F0
F0
70
70
78
78
38
ENDCHAR
STARTCHAR U+007C
ENCODING 124
SWIDTH 263 0
DWIDTH 5 0
BBX 3 17 0 0
BITMAP
E0
E0
E0
E0
E0
E0
E0
E0
E0
E0
E0
E0
E0
E0
E0
E0
E0
ENDCHAR
STARTCHAR U+007D
ENCODING 125
SWIDTH 474 0
DWIDTH 9 0
BBX 5 17 1 0
BITMAP
E0
F0
F0
70
70
78
78
78
38
78
78
78
70
70
70
F0
E0
ENDCHAR
STARTCHAR U+007E
ENCODING 126
SWIDTH 684 0
DWIDTH 13 0
BBX 11 6 0 4
BITMAP
FE00
FEE0
FEE0
EFE0
EFE0
0FE0
ENDCHAR
STARTCHAR U+00A1
ENCODING 161
SWIDTH 263 0
DWIDTH 5 0
BBX 3 17 0 0
BITMAP
E0
E0
E0
00
E0
E0
E0
E0
E0
E0
E0
E0
E0
E0
E0
E0
E0
ENDCHAR
STARTCHAR U+00AA
ENCODING 170
SWIDTH 526 0
DWIDTH 10 0
BBX 8 13 0 4
BITMAP
1F
1F
1F
E7
E7
E7
FF
FF
FF
00
FF
FF
FF
ENDCHAR
STARTCHAR U+00AB
ENCODING 171
SWIDTH 684 0
DWIDTH 13 0
BBX 11 7 0 2
BITMAP
38E0
79E0
FBE0
F3C0
FBE0
79E0
38E0
ENDCHAR
STARTCHAR U+00B0
ENCODING 176
SWIDTH 474 0
DWIDTH 9 0
BBX 8 9 0 8
BITMAP
FF
FF
FF
E7
E7
E7
FF
FF
FF
ENDCHAR
STARTCHAR U+00BA
ENCODING 186
SWIDTH 526 0
DWIDTH 10 0
BBX 8 13 0 4
BITMAP
FF
FF
FF
E7
E7
E7
FF
FF
FF
00
FF
FF
FF
ENDCHAR
STARTCHAR U+00BB
ENCODING 187
SWIDTH 684 0
DWIDTH 13 0
BBX 11 7 0 2
BITMAP
E380
F3C0
FBE0
79E0
FBE0
F3C0
E380
ENDCHAR
STARTCHAR U+00BF
ENCODING 191
SWIDTH 579 0
DWIDTH 11 0
BBX 9 17 0 0
BITMAP
1C00
1C00
1C00
0000
1C00
1C00
1C00
FC00
FC00
FC00
E000
E000
E380
E380
FF80
FF80
FF80
ENDCHAR
STARTCHAR U+00DF
ENCODING 223
SWIDTH 474 0
DWIDTH 9 0
BBX 7 17 0 0
BITMAP
FC
FC
FC
EE
EE
EE
EE
EC
EC
EC
EE
EE
EE
EE
EC
EC
EC
ENDCHAR
STARTCHAR U+00E0
ENCODING 224
SWIDTH 474 0
DWIDTH 9 0
BBX 7 15 0 0
BITMAP
F8
F8
00
00
3E
3E
3E
0E
FE
FE
FE
EE
FE
FE
FE
ENDCHAR
STARTCHAR U+00E1
ENCODING 225
SWIDTH 474 0
DWIDTH 9 0
BBX 7 15 0 0
BITMAP
3E
3E
00
00
3E
3E
3E
0E
FE
FE
FE
EE
FE
FE
FE
ENDCHAR
STARTCHAR U+00E2
ENCODING 226
SWIDTH 474 0
DWIDTH 9 0
BBX 7 17 0 0
BITMAP
38
7C
EE
C6
00
00
3E
3E
3E
0E
FE
FE
FE
EE
FE
FE
FE
ENDCHAR
STARTCHAR U+00E4
ENCODING 228
SWIDTH 474 0
DWIDTH 9 0
BBX 7 17 0 0
BITMAP
EE
EE
EE
00
00
00
3E
3E
3E
0E
FE
FE
FE
EE
FE
FE
FE
ENDCHAR
STARTCHAR U+00E6
ENCODING 230
SWIDTH 789 0
DWIDTH 15 0
BBX 13 11 0 0
BITMAP
3FF8
3FF8
3FF8
0738
FFF8
FFF8
FFF8
E700
FFF8
FFF8
FFF8
ENDCHAR
STARTCHAR U+00E7
ENCODING 231
SWIDTH 474 0
DWIDTH 9 0
BBX 7 11 0 0
BITMAP
FE
FE
FE
E0
E0
FE
FE
FE
38
38
38
ENDCHAR
STARTCHAR U+00E8
ENCODING 232
SWIDTH 474 0
DWIDTH 9 0
BBX 7 15 0 0
BITMAP
F8
F8
00
00
FE
FE
FE
EE
FE
FE
FE
E0
FE
FE
FE
ENDCHAR
STARTCHAR U+00E9
ENCODING 233
SWIDTH 474 0
DWIDTH 9 0
BBX 7 15 0 0
BITMAP
3E
3E
00
00
FE
FE
FE
EE
FE
FE
FE
E0
FE
FE
FE
ENDCHAR
STARTCHAR U+00EA
ENCODING 234
SWIDTH 474 0
DWIDTH 9 0
BBX 7 17 0 0
BITMAP
38
7C
EE
C6
00
00
FE
FE
FE
EE
FE
FE
FE
E0
FE
FE
FE
ENDCHAR
STARTCHAR U+00EB
ENCODING 235
SWIDTH 474 0
DWIDTH 9 0
BBX 7 17 0 0
BITMAP
EE
EE
EE
00
00
00
FE
FE
FE
EE
FE
FE
FE
E0
FE
FE
FE
ENDCHAR
STARTCHAR U+00EC
ENCODING 236
SWIDTH 368 0
DWIDTH 7 0
BBX 5 15 0 0
BITMAP
F8
F8
00
00
70
70
70
70
70
70
70
70
70
70
70
ENDCHAR
STARTCHAR U+00ED
ENCODING 237
SWIDTH 368 0
DWIDTH 7 0
BBX 5 15 0 0
BITMAP
F8
F8
00
00
E0
E0
E0
E0
E0
E0
E0
E0
E0
E0
E0
ENDCHAR
STARTCHAR U+00EE
ENCODING 238
SWIDTH 526 0
DWIDTH 10 0
BBX 8 17 0 0
BITMAP
3C
7E
E7
C3
00
00
38
38
38
38
38
38
38
38
38
38
38
ENDCHAR
STARTCHAR U+00EF
ENCODING 239
SWIDTH 474 0
DWIDTH 9 0
BBX 7 17 0 0
BITMAP
EE
EE
EE
00
00
00
38
38
38
38
38
38
38
38
38
38
38
ENDCHAR
STARTCHAR U+00F1
ENCODING 241
SWIDTH 474 0
DWIDTH 9 0
BBX 7 17 0 0
BITMAP
1C
FC
FC
E0
00
00
FC
FE
FE
EE
EE
EE
EE
EE
EE
EE
EE
ENDCHAR
STARTCHAR U+00F2
ENCODING 242
SWIDTH 474 0
DWIDTH 9 0
BBX 7 15 0 0
BITMAP
F8
F8
00
00
FE
FE
FE
EE
EE
EE
EE
EE
FE
FE
FE
ENDCHAR
STARTCHAR U+00F3
ENCODING 243
SWIDTH 474 0
DWIDTH 9 0
BBX 7 15 0 0
BITMAP
3E
3E
00
00
FE
FE
FE
EE
EE
EE
EE
EE
FE
FE
FE
ENDCHAR
STARTCHAR U+00F4
ENCODING 244
SWIDTH 474 0
DWIDTH 9 0
BBX 7 17 0 0
BITMAP
38
7C
EE
C6
00
00
FE
FE
FE
EE
EE
EE
EE
EE
FE
FE
FE
ENDCHAR
STARTCHAR U+00F6
ENCODING 246
SWIDTH 474 0
DWIDTH 9 0
BBX 7 17 0 0
BITMAP
EE
EE
EE
00
00
00
FE
FE
FE
EE
EE
EE
EE
EE
FE
FE
FE
ENDCHAR
STARTCHAR U+00F9
ENCODING 249
SWIDTH 474 0
DWIDTH 9 0
BBX 7 15 0 0
BITMAP
F8
F8
00
00
EE
EE
EE
EE
EE
EE
EE
EE
FE
FE
FE
ENDCHAR
STARTCHAR U+00FA
ENCODING 250
SWIDTH 474 0
DWIDTH 9 0
BBX 7 15 0 0
BITMAP
3E
3E
00
00
EE
EE
EE
EE
EE
EE
EE
EE
FE
FE
FE
ENDCHAR
STARTCHAR U+00FB
ENCODING 251
SWIDTH 474 0
DWIDTH 9 0
BBX 7 17 0 0
BITMAP
38
7C
EE
C6
00
00
EE
EE
EE
EE
EE
EE
EE
EE
FE
FE
FE
ENDCHAR
STARTCHAR U+00FC
ENCODING 252
SWIDTH 474 0
DWIDTH 9 0
BBX 7 17 0 0
BITMAP
EE
EE
EE
00
00
00
EE
EE
EE
EE
EE
EE
EE
EE
FE
FE
FE
ENDCHAR
STARTCHAR U+00FD
ENCODING 253
SWIDTH 474 0
DWIDTH 9 0
BBX 7 15 0 0
BITMAP
1E
1E
00
00
EE
EE
EE
EE
FE
FE
FE
0E
FE
FE
FE
ENDCHAR
STARTCHAR U+00FF
ENCODING 255
SWIDTH 474 0
DWIDTH 9 0
BBX 7 17 0 0
BITMAP
EE
EE
EE
00
00
00
EE
EE
EE
EE
FE
FE
FE
0E
FE
FE
FE
ENDCHAR
STARTCHAR U+010D
ENCODING 269
SWIDTH 474 0
DWIDTH 9 0
BBX 7 17 0 0
BITMAP
C6
EE
7C
38
00
00
FE
FE
FE
E0
E0
E0
E0
E0
FE
FE
FE
ENDCHAR
STARTCHAR U+010F
ENCODING 271
SWIDTH 474 0
DWIDTH 9 0
BBX 7 17 0 0
BITMAP
CE
CE
CE
CE
0E
0E
FE
FE
FE
EE
EE
EE
EE
EE
FE
FE
FE
ENDCHAR
STARTCHAR U+011B
ENCODING 283
SWIDTH 474 0
DWIDTH 9 0
BBX 7 17 0 0
BITMAP
C6
EE
7C
38
00
00
FE
FE
FE
EE
FE
FE
FE
E0
FE
FE
FE
ENDCHAR
STARTCHAR U+0148
ENCODING 328
SWIDTH 474 0
DWIDTH 9 0
BBX 7 17 0 0
BITMAP
C6
EE
7C
38
00
00
FC
FE
FE
EE
EE
EE
EE
EE
EE
EE
EE
ENDCHAR
STARTCHAR U+0153
ENCODING 339
SWIDTH 789 0
DWIDTH 15 0
BBX 13 11 0 0
BITMAP
FFF8
FFF8
FFF8
EE38
EFF8
EFF8
EFF8
EE00
FFF8
FFF8
FFF8
ENDCHAR
STARTCHAR U+0159
ENCODING 345
SWIDTH 474 0
DWIDTH 9 0
BBX 7 17 0 0
BITMAP
C6
EE
7C
38
00
00
FE
FE
FE
E0
E0
E0
E0
E0
E0
E0
E0
ENDCHAR
STARTCHAR U+0161
ENCODING 353
SWIDTH 474 0
DWIDTH 9 0
BBX 7 17 0 0
BITMAP
C6
EE
7C
38
00
00
FE
FE
FE
E0
FE
FE
FE
0E
FE
FE
FE
ENDCHAR
STARTCHAR U+0165
ENCODING 357
SWIDTH 526 0
DWIDTH 10 0
BBX 8 17 0 0
BITMAP
3B
3B
3B
3B
38
38
FE
FE
FE
38
38
38
38
38
3E
3E
3E
ENDCHAR
STARTCHAR U+016F
ENCODING 367
SWIDTH 474 0
DWIDTH 9 0
BBX 7 17 0 0
BITMAP
38
7C
6C
7C
38
00
EE
EE
EE
EE
EE
EE
EE
EE
FE
FE
FE
ENDCHAR
STARTCHAR U+017E
ENCODING 382
SWIDTH 474 0
DWIDTH 9 0
BBX 7 17 0 0
BITMAP
C6
EE
7C
38
00
00
FE
FE
FE
1E
3C
78
F0
E0
FE
FE
FE
ENDCHAR
STARTCHAR U+2018
ENCODING 8216
SWIDTH 263 0
DWIDTH 5 0
BBX 3 7 0 10
BITMAP
E0
E0
E0
E0
E0
E0
E0
ENDCHAR
STARTCHAR U+2019
ENCODING 8217
SWIDTH 263 0
DWIDTH 5 0
BBX 3 7 0 10
BITMAP
E0
E0
E0
E0
E0
E0
E0
ENDCHAR
STARTCHAR U+201A
ENCODING 8218
SWIDTH 263 0
DWIDTH 5 0
BBX 3 7 0 0
BITMAP
E0
E0
E0
E0
E0
E0
E0
ENDCHAR
STARTCHAR U+201C
ENCODING 8220
SWIDTH 474 0
DWIDTH 9 0
BBX 7 7 0 10
BITMAP
EE
EE
EE
EE
EE
EE
EE
ENDCHAR
STARTCHAR U+201D
ENCODING 8221
SWIDTH 474 0
DWIDTH 9 0
BBX 7 7 0 10
BITMAP
EE
EE
EE
EE
EE
EE
EE
ENDCHAR
STARTCHAR U+201E
ENCODING 8222
SWIDTH 474 0
DWIDTH 9 0
BBX 7 7 0 0
BITMAP
EE
EE
EE
EE
EE
EE
EE
ENDCHAR
STARTCHAR U+20AC
ENCODING 8364
SWIDTH 526 0
DWIDTH 10 0
BBX 8 17 0 0
BITMAP
7F
7F
7F
70
70
70
FC
FC
70
FC
FC
70
70
70
7F
7F
7F
ENDCHAR
ENDFONT
