STARTFONT 2.1
FONT -PixelFonts-pixelfont_extended_latin_17x5_semibold-SemiBold-R-Normal--19-190-75-75-P-0-ISO10646-1
SIZE 19 75 75
FONTBOUNDINGBOX 9 17 0 0
STARTPROPERTIES 7
FOUNDRY "PixelFonts"
FAMILY_NAME "pixelfont_extended_latin_17x5_semibold"
WEIGHT_NAME "SemiBold"
PIXEL_SIZE 19
FONT_ASCENT 17
FONT_DESCENT 2
DEFAULT_CHAR 32
ENDPROPERTIES
CHARS 145
STARTCHAR U+0020
ENCODING 32
SWIDTH 211 0
DWIDTH 4 0
BBX 1 1 0 0
BITMAP
00
ENDCHAR
STARTCHAR U+0021
ENCODING 33
SWIDTH 158 0
DWIDTH 3 0
BBX 2 17 0 0
BITMAP
C0
C0
C0
C0
C0
C0
C0
C0
C0
C0
C0
C0
00
00
00
C0
C0
ENDCHAR
STARTCHAR U+0022
ENCODING 34
SWIDTH 316 0
DWIDTH 6 0
BBX 5 4 0 13
BITMAP
D8
D8
D8
D8
ENDCHAR
STARTCHAR U+0023
ENCODING 35
SWIDTH 421 0
DWIDTH 8 0
BBX 7 11 0 3
BITMAP
6C
6C
FE
FE
6C
6C
6C
FE
FE
6C
6C
ENDCHAR
STARTCHAR U+0024
ENCODING 36
SWIDTH 474 0
DWIDTH 9 0
BBX 8 17 0 0
BITMAP
18
18
FF
FF
D8
D8
D8
FF
FF
1B
1B
1B
FF
FF
18
18
18
ENDCHAR
STARTCHAR U+0025
ENCODING 37
SWIDTH 474 0
DWIDTH 9 0
BBX 8 16 0 0
BITMAP
70
FB
DB
FB
73
07
0E
1C
38
70
E0
CE
DF
DB
DF
0E
ENDCHAR
STARTCHAR U+0026
ENCODING 38
SWIDTH 474 0
DWIDTH 9 0
BBX 8 17 0 0
BITMAP
78
FC
CC
CC
CC
CC
D8
F8
60
F8
DB
DF
CE
CC
CE
FF
7B
ENDCHAR
STARTCHAR U+0027
ENCODING 39
SWIDTH 158 0
DWIDTH 3 0
BBX 2 5 0 12
BITMAP
C0
C0
C0
C0
C0
ENDCHAR
STARTCHAR U+0028
ENCODING 40
SWIDTH 211 0
DWIDTH 4 0
BBX 3 17 0 0
BITMAP
60
E0
C0
C0
C0
C0
C0
C0
C0
C0
C0
C0
C0
C0
C0
E0
60
ENDCHAR
STARTCHAR U+0029
ENCODING 41
SWIDTH 211 0
DWIDTH 4 0
BBX 3 17 0 0
BITMAP
C0
E0
60
60
60
60
60
60
60
60
60
60
60
60
60
E0
C0
ENDCHAR
STARTCHAR U+002A
ENCODING 42
SWIDTH 474 0
DWIDTH 9 0
BBX 8 8 0 5
BITMAP
18
DB
DB
7E
7E
DB
DB
18
ENDCHAR
STARTCHAR U+002B
ENCODING 43
SWIDTH 368 0
DWIDTH 7 0
BBX 6 6 0 6
BITMAP
30
30
FC
FC
30
30
ENDCHAR
STARTCHAR U+002C
ENCODING 44
SWIDTH 158 0
DWIDTH 3 0
BBX 2 7 0 0
BITMAP
C0
C0
C0
C0
C0
C0
C0
ENDCHAR
STARTCHAR U+002D
ENCODING 45
SWIDTH 368 0
DWIDTH 7 0
BBX 6 2 0 8
BITMAP
FC
FC
ENDCHAR
STARTCHAR U+002E
ENCODING 46
SWIDTH 158 0
DWIDTH 3 0
BBX 2 2 0 0
BITMAP
C0
C0
ENDCHAR
STARTCHAR U+002F
ENCODING 47
SWIDTH 263 0
DWIDTH 5 0
BBX 4 17 0 0
BITMAP
30
30
30
30
30
70
70
60
60
60
60
E0
C0
C0
C0
C0
C0
ENDCHAR
STARTCHAR U+0030
ENCODING 48
SWIDTH 316 0
DWIDTH 6 0
BBX 5 17 0 0
BITMAP
F8
F8
D8
D8
D8
D8
D8
D8
D8
D8
D8
D8
D8
D8
D8
F8
F8
ENDCHAR
STARTCHAR U+0031
ENCODING 49
SWIDTH 158 0
DWIDTH 3 0
BBX 2 17 0 0
BITMAP
C0
C0
C0
C0
C0
C0
C0
C0
C0
C0
C0
C0
C0
C0
C0
C0
C0
ENDCHAR
STARTCHAR U+0032
ENCODING 50
SWIDTH 316 0
DWIDTH 6 0
BBX 5 17 0 0
BITMAP
F8
F8
D8
18
18
18
18
F8
F8
C0
C0
C0
C0
C0
C0
F8
F8
ENDCHAR
STARTCHAR U+0033
ENCODING 51
SWIDTH 316 0
DWIDTH 6 0
BBX 5 17 0 0
BITMAP
F8
F8
18
18
18
18
18
78
78
18
18
18
18
18
18
F8
F8
ENDCHAR
STARTCHAR U+0034
ENCODING 52
SWIDTH 316 0
DWIDTH 6 0
BBX 5 17 0 0
BITMAP
D8
D8
D8
D8
D8
D8
D8
F8
F8
18
18
18
18
18
18
18
18
ENDCHAR
STARTCHAR U+0035
ENCODING 53
SWIDTH 316 0
DWIDTH 6 0
BBX 5 17 0 0
BITMAP
F8
F8
C0
C0
C0
C0
C0
F8
F8
18
18
18
18
18
D8
F8
F8
ENDCHAR
STARTCHAR U+0036
ENCODING 54
SWIDTH 316 0
DWIDTH 6 0
BBX 5 17 0 0
BITMAP
F8
F8
D8
C0
C0
C0
C0
F8
F8
D8
D8
D8
D8
D8
D8
F8
F8
ENDCHAR
STARTCHAR U+0037
ENCODING 55
SWIDTH 316 0
DWIDTH 6 0
BBX 5 17 0 0
BITMAP
F8
F8
D8
18
18
18
18
18
18
18
18
18
18
18
18
18
18
ENDCHAR
STARTCHAR U+0038
ENCODING 56
SWIDTH 316 0
DWIDTH 6 0
BBX 5 17 0 0
BITMAP
F8
F8
D8
D8
D8
D8
D8
F8
F8
D8
D8
D8
D8
D8
D8
F8
F8
ENDCHAR
STARTCHAR U+0039
ENCODING 57
SWIDTH 316 0
DWIDTH 6 0
BBX 5 17 0 0
BITMAP
F8
F8
D8
D8
D8
D8
D8
F8
F8
18
18
18
18
18
D8
F8
F8
ENDCHAR
STARTCHAR U+003A
ENCODING 58
SWIDTH 158 0
DWIDTH 3 0
BBX 2 9 0 4
BITMAP
C0
C0
C0
00
00
00
C0
C0
C0
ENDCHAR
STARTCHAR U+003B
ENCODING 59
SWIDTH 158 0
DWIDTH 3 0
BBX 2 13 0 0
BITMAP
C0
C0
C0
00
00
00
C0
C0
C0
C0
C0
C0
C0
ENDCHAR
STARTCHAR U+003C
ENCODING 60
SWIDTH 316 0
DWIDTH 6 0
BBX 5 7 0 5
BITMAP
18
38
70
E0
70
38
18
ENDCHAR
STARTCHAR U+003D
ENCODING 61
SWIDTH 368 0
DWIDTH 7 0
BBX 6 5 0 6
BITMAP
FC
FC
00
FC
FC
ENDCHAR
STARTCHAR U+003E
ENCODING 62
SWIDTH 316 0
DWIDTH 6 0
BBX 5 7 0 5
BITMAP
C0
E0
70
38
70
E0
C0
ENDCHAR
STARTCHAR U+003F
ENCODING 63
SWIDTH 368 0
DWIDTH 7 0
BBX 6 17 0 0
BITMAP
FC
FC
CC
CC
0C
0C
0C
3C
3C
30
30
30
00
00
00
30
30
ENDCHAR
STARTCHAR U+0040
ENCODING 64
SWIDTH 474 0
DWIDTH 9 0
BBX 8 17 0 0
BITMAP
FF
FF
C3
C3
C3
DB
DB
DB
DB
DB
DF
DF
C0
C0
C0
FF
FF
ENDCHAR
STARTCHAR U+0041
ENCODING 65
SWIDTH 316 0
DWIDTH 6 0
BBX 5 17 0 0
BITMAP
F8
F8
D8
D8
D8
D8
D8
F8
F8
D8
D8
D8
D8
D8
D8
D8
D8
ENDCHAR
STARTCHAR U+0042
ENCODING 66
SWIDTH 316 0
DWIDTH 6 0
BBX 5 17 0 0
BITMAP
F0
F8
D8
D8
D8
D8
D8
F8
F8
D8
D8
D8
D8
D8
D8
F8
F0
ENDCHAR
STARTCHAR U+0043
ENCODING 67
SWIDTH 316 0
DWIDTH 6 0
BBX 5 17 0 0
BITMAP
F8
F8
D8
D8
C0
C0
C0
C0
C0
C0
C0
C0
C0
D8
D8
F8
F8
ENDCHAR
STARTCHAR U+0044
ENCODING 68
SWIDTH 316 0
DWIDTH 6 0
BBX 5 17 0 0
BITMAP
F0
F8
D8
D8
D8
D8
D8
D8
D8
D8
D8
D8
D8
D8
D8
F8
F0
ENDCHAR
STARTCHAR U+0045
ENCODING 69
SWIDTH 316 0
DWIDTH 6 0
BBX 5 17 0 0
BITMAP
F8
F8
C0
C0
C0
C0
C0
F0
F0
C0
C0
C0
C0
C0
C0
F8
F8
ENDCHAR
STARTCHAR U+0046
ENCODING 70
SWIDTH 316 0
DWIDTH 6 0
BBX 5 17 0 0
BITMAP
F8
F8
C0
C0
C0
C0
C0
F0
F0
C0
C0
C0
C0
C0
C0
C0
C0
ENDCHAR
STARTCHAR U+0047
ENCODING 71
SWIDTH 368 0
DWIDTH 7 0
BBX 6 17 0 0
BITMAP
FC
FC
CC
CC
C0
C0
C0
DC
DC
CC
CC
CC
CC
CC
CC
FC
FC
ENDCHAR
STARTCHAR U+0048
ENCODING 72
SWIDTH 316 0
DWIDTH 6 0
BBX 5 17 0 0
BITMAP
D8
D8
D8
D8
D8
D8
D8
F8
F8
D8
D8
D8
D8
D8
D8
D8
D8
ENDCHAR
STARTCHAR U+0049
ENCODING 73
SWIDTH 158 0
DWIDTH 3 0
BBX 2 17 0 0
BITMAP
C0
C0
C0
C0
C0
C0
C0
C0
C0
C0
C0
C0
C0
C0
C0
C0
C0
ENDCHAR
STARTCHAR U+004A
ENCODING 74
SWIDTH 316 0
DWIDTH 6 0
BBX 5 17 0 0
BITMAP
18
18
18
18
18
18
18
18
18
18
18
D8
D8
D8
D8
F8
F8
ENDCHAR
STARTCHAR U+004B
ENCODING 75
SWIDTH 316 0
DWIDTH 6 0
BBX 5 17 0 0
BITMAP
D8
D8
D8
D8
D8
D8
D8
D8
F0
F0
D8
D8
D8
D8
D8
D8
D8
ENDCHAR
STARTCHAR U+004C
ENCODING 76
SWIDTH 316 0
DWIDTH 6 0
BBX 5 17 0 0
BITMAP
C0
C0
C0
C0
C0
C0
C0
C0
C0
C0
C0
C0
C0
C0
C0
F8
F8
ENDCHAR
STARTCHAR U+004D
ENCODING 77
SWIDTH 474 0
DWIDTH 9 0
BBX 8 17 0 0
BITMAP
FF
FF
DB
DB
DB
DB
DB
DB
C3
C3
C3
C3
C3
C3
C3
C3
C3
ENDCHAR
STARTCHAR U+004E
ENCODING 78
SWIDTH 368 0
DWIDTH 7 0
BBX 6 17 0 0
BITMAP
CC
CC
CC
CC
EC
FC
DC
CC
CC
CC
CC
CC
CC
CC
CC
CC
CC
ENDCHAR
STARTCHAR U+004F
ENCODING 79
SWIDTH 316 0
DWIDTH 6 0
BBX 5 17 0 0
BITMAP
F8
F8
D8
D8
D8
D8
D8
D8
D8
D8
D8
D8
D8
D8
D8
F8
F8
ENDCHAR
STARTCHAR U+0050
ENCODING 80
SWIDTH 316 0
DWIDTH 6 0
BBX 5 17 0 0
BITMAP
F8
F8
D8
D8
D8
D8
D8
F8
F8
C0
C0
C0
C0
C0
C0
C0
C0
ENDCHAR
STARTCHAR U+0051
ENCODING 81
SWIDTH 368 0
DWIDTH 7 0
BBX 6 17 0 0
BITMAP
FC
FC
CC
CC
CC
CC
CC
CC
CC
CC
CC
CC
DC
DC
DC
FC
FC
ENDCHAR
STARTCHAR U+0052
ENCODING 82
SWIDTH 316 0
DWIDTH 6 0
BBX 5 17 0 0
BITMAP
F8
F8
D8
D8
D8
D8
D8
F0
F0
D8
D8
D8
D8
D8
D8
D8
D8
ENDCHAR
STARTCHAR U+0053
ENCODING 83
SWIDTH 316 0
DWIDTH 6 0
BBX 5 17 0 0
BITMAP
F8
F8
D8
D8
C0
C0
C0
F8
F8
18
18
18
18
D8
D8
F8
F8
ENDCHAR
STARTCHAR U+0054
ENCODING 84
SWIDTH 368 0
DWIDTH 7 0
BBX 6 17 0 0
BITMAP
FC
FC
30
30
30
30
30
30
30
30
30
30
30
30
30
30
30
ENDCHAR
STARTCHAR U+0055
ENCODING 85
SWIDTH 316 0
DWIDTH 6 0
BBX 5 17 0 0
BITMAP
D8
D8
D8
D8
D8
D8
D8
D8
D8
D8
D8
D8
D8
D8
D8
F8
F8
ENDCHAR
STARTCHAR U+0056
ENCODING 86
SWIDTH 368 0
DWIDTH 7 0
BBX 6 17 0 0
BITMAP
CC
CC
CC
CC
CC
CC
CC
CC
CC
CC
CC
CC
EC
7C
3C
1C
0C
ENDCHAR
STARTCHAR U+0057
ENCODING 87
SWIDTH 474 0
DWIDTH 9 0
BBX 8 17 0 0
BITMAP
C3
C3
C3
C3
C3
C3
C3
C3
C3
DB
DB
DB
DB
DB
DB
FF
FF
ENDCHAR
STARTCHAR U+0058
ENCODING 88
SWIDTH 421 0
DWIDTH 8 0
BBX 7 17 0 0
BITMAP
C6
C6
C6
C6
C6
C6
EE
7C
38
7C
EE
C6
C6
C6
C6
C6
C6
ENDCHAR
STARTCHAR U+0059
ENCODING 89
SWIDTH 368 0
DWIDTH 7 0
BBX 6 17 0 0
BITMAP
CC
CC
CC
CC
CC
CC
FC
78
30
30
30
30
30
30
30
30
30
ENDCHAR
STARTCHAR U+005A
ENCODING 90
SWIDTH 316 0
DWIDTH 6 0
BBX 5 17 0 0
BITMAP
F8
F8
18
18
18
30
30
30
60
60
60
C0
C0
C0
C0
F8
F8
ENDCHAR
STARTCHAR U+005B
ENCODING 91
SWIDTH 263 0
DWIDTH 5 0
BBX 4 17 0 0
BITMAP
F0
F0
C0
C0
C0
C0
C0
C0
C0
C0
C0
C0
C0
C0
C0
F0
F0
ENDCHAR
STARTCHAR U+005C
ENCODING 92
SWIDTH 263 0
DWIDTH 5 0
BBX 4 17 0 0
BITMAP
C0
C0
C0
C0
E0
60
60
60
60
60
60
70
30
30
30
30
30
ENDCHAR
STARTCHAR U+005D
ENCODING 93
SWIDTH 263 0
DWIDTH 5 0
BBX 4 17 0 0
BITMAP
F0
F0
30
30
30
30
30
30
30
30
30
30
30
30
30
F0
F0
ENDCHAR
STARTCHAR U+005E
ENCODING 94
SWIDTH 421 0
DWIDTH 8 0
BBX 7 5 0 12
BITMAP
10
38
7C
EE
C6
ENDCHAR
STARTCHAR U+005F
ENCODING 95
SWIDTH 368 0
DWIDTH 7 0
BBX 6 2 0 0
BITMAP
FC
FC
ENDCHAR
STARTCHAR U+0060
ENCODING 96
SWIDTH 263 0
DWIDTH 5 0
BBX 4 4 0 12
BITMAP
C0
E0
70
30
ENDCHAR
STARTCHAR U+0061
ENCODING 97
SWIDTH 316 0
DWIDTH 6 0
BBX 5 12 0 0
BITMAP
78
78
18
18
18
F8
F8
D8
D8
D8
F8
F8
ENDCHAR
STARTCHAR U+0062
ENCODING 98
SWIDTH 316 0
DWIDTH 6 0
BBX 5 17 0 0
BITMAP
C0
C0
C0
C0
C0
F8
F8
D8
D8
D8
D8
D8
D8
D8
D8
F8
F8
ENDCHAR
STARTCHAR U+0063
ENCODING 99
SWIDTH 316 0
DWIDTH 6 0
BBX 5 12 0 0
BITMAP
F8
F8
C0
C0
C0
C0
C0
C0
C0
C0
F8
F8
ENDCHAR
STARTCHAR U+0064
ENCODING 100
SWIDTH 316 0
DWIDTH 6 0
BBX 5 17 0 0
BITMAP
18
18
18
18
18
F8
F8
D8
D8
D8
D8
D8
D8
D8
D8
F8
F8
ENDCHAR
STARTCHAR U+0065
ENCODING 101
SWIDTH 316 0
DWIDTH 6 0
BBX 5 12 0 0
BITMAP
F8
F8
D8
D8
D8
F8
F8
C0
C0
C0
F8
F8
ENDCHAR
STARTCHAR U+0066
ENCODING 102
SWIDTH 263 0
DWIDTH 5 0
BBX 4 17 0 0
BITMAP
70
70
60
60
60
F0
F0
60
60
60
60
60
60
60
60
60
60
ENDCHAR
STARTCHAR U+0067
ENCODING 103
SWIDTH 316 0
DWIDTH 6 0
BBX 5 12 0 0
BITMAP
F8
F8
D8
D8
D8
F8
F8
18
18
18
F8
F8
ENDCHAR
STARTCHAR U+0068
ENCODING 104
SWIDTH 316 0
DWIDTH 6 0
BBX 5 17 0 0
BITMAP
C0
C0
C0
C0
C0
F8
F8
D8
D8
D8
D8
D8
D8
D8
D8
D8
D8
ENDCHAR
STARTCHAR U+0069
ENCODING 105
SWIDTH 158 0
DWIDTH 3 0
BBX 2 17 0 0
BITMAP
C0
C0
00
00
00
C0
C0
C0
C0
C0
C0
C0
C0
C0
C0
C0
C0
ENDCHAR
STARTCHAR U+006A
ENCODING 106
SWIDTH 316 0
DWIDTH 6 0
BBX 5 17 0 0
BITMAP
18
18
00
00
00
18
18
18
18
18
18
18
D8
D8
D8
F8
F8
ENDCHAR
STARTCHAR U+006B
ENCODING 107
SWIDTH 368 0
DWIDTH 7 0
BBX 6 17 0 0
BITMAP
C0
C0
C0
C0
C0
CC
CC
CC
CC
DC
F8
F8
DC
CC
CC
CC
CC
ENDCHAR
STARTCHAR U+006C
ENCODING 108
SWIDTH 158 0
DWIDTH 3 0
BBX 2 17 0 0
BITMAP
C0
C0
C0
C0
C0
C0
C0
C0
C0
C0
C0
C0
C0
C0
C0
C0
C0
ENDCHAR
STARTCHAR U+006D
ENCODING 109
SWIDTH 474 0
DWIDTH 9 0
BBX 8 12 0 0
BITMAP
FF
FF
DB
DB
DB
DB
DB
DB
DB
DB
DB
DB
ENDCHAR
STARTCHAR U+006E
ENCODING 110
SWIDTH 316 0
DWIDTH 6 0
BBX 5 12 0 0
BITMAP
F0
F8
D8
D8
D8
D8
D8
D8
D8
D8
D8
D8
ENDCHAR
STARTCHAR U+006F
ENCODING 111
SWIDTH 316 0
DWIDTH 6 0
BBX 5 12 0 0
BITMAP
F8
F8
D8
D8
D8
D8
D8
D8
D8
D8
F8
F8
ENDCHAR
STARTCHAR U+0070
ENCODING 112
SWIDTH 316 0
DWIDTH 6 0
BBX 5 12 0 0
BITMAP
F8
F8
D8
D8
D8
F8
F8
C0
C0
C0
C0
C0
ENDCHAR
STARTCHAR U+0071
ENCODING 113
SWIDTH 316 0
DWIDTH 6 0
BBX 5 12 0 0
BITMAP
F8
F8
D8
D8
D8
F8
F8
18
18
18
18
18
ENDCHAR
STARTCHAR U+0072
ENCODING 114
SWIDTH 263 0
DWIDTH 5 0
BBX 4 12 0 0
BITMAP
F0
F0
C0
C0
C0
C0
C0
C0
C0
C0
C0
C0
ENDCHAR
STARTCHAR U+0073
ENCODING 115
SWIDTH 316 0
DWIDTH 6 0
BBX 5 12 0 0
BITMAP
F8
F8
C0
C0
C0
F8
F8
18
18
18
F8
F8
ENDCHAR
STARTCHAR U+0074
ENCODING 116
SWIDTH 263 0
DWIDTH 5 0
BBX 4 17 0 0
BITMAP
60
60
60
60
60
F0
F0
60
60
60
60
60
60
60
60
70
70
ENDCHAR
STARTCHAR U+0075
ENCODING 117
SWIDTH 316 0
DWIDTH 6 0
BBX 5 12 0 0
BITMAP
D8
D8
D8
D8
D8
D8
D8
D8
D8
D8
F8
F8
ENDCHAR
STARTCHAR U+0076
ENCODING 118
SWIDTH 368 0
DWIDTH 7 0
BBX 6 12 0 0
BITMAP
CC
CC
CC
CC
CC
CC
CC
CC
EC
7C
3C
1C
ENDCHAR
STARTCHAR U+0077
ENCODING 119
SWIDTH 474 0
DWIDTH 9 0
BBX 8 12 0 0
BITMAP
C3
C3
C3
C3
C3
DB
DB
DB
DB
DB
FF
FF
ENDCHAR
STARTCHAR U+0078
ENCODING 120
SWIDTH 421 0
DWIDTH 8 0
BBX 7 12 0 0
BITMAP
C6
C6
C6
EE
7C
38
7C
EE
C6
C6
C6
C6
ENDCHAR
STARTCHAR U+0079
ENCODING 121
SWIDTH 316 0
DWIDTH 6 0
BBX 5 12 0 0
BITMAP
D8
D8
D8
D8
D8
F8
F8
18
18
18
F8
F8
ENDCHAR
STARTCHAR U+007A
ENCODING 122
SWIDTH 316 0
DWIDTH 6 0
BBX 5 12 0 0
BITMAP
F8
F8
18
18
38
70
E0
C0
C0
C0
F8
F8
ENDCHAR
STARTCHAR U+007B
ENCODING 123
SWIDTH 263 0
DWIDTH 5 0
BBX 4 17 0 0
BITMAP
30
70
70
60
60
60
60
E0
C0
E0
60
60
60
60
70
30
30
ENDCHAR
STARTCHAR U+007C
ENCODING 124
SWIDTH 158 0
DWIDTH 3 0
BBX 2 17 0 0
BITMAP
C0
C0
C0
C0
C0
C0
C0
C0
C0
C0
C0
C0
C0
C0
C0
C0
C0
ENDCHAR
STARTCHAR U+007D
ENCODING 125
SWIDTH 263 0
DWIDTH 5 0
BBX 4 17 0 0
BITMAP
C0
E0
E0
60
60
60
60
70
30
70
60
60
60
60
E0
C0
C0
ENDCHAR
STARTCHAR U+007E
ENCODING 126
SWIDTH 474 0
DWIDTH 9 0
BBX 8 4 0 6
BITMAP
FB
FB
DF
DF
ENDCHAR
STARTCHAR U+00A1
ENCODING 161
SWIDTH 158 0
DWIDTH 3 0
BBX 2 17 0 0
BITMAP
C0
C0
00
00
00
C0
C0
C0
C0
C0
C0
C0
C0
C0
C0
C0
C0
ENDCHAR
STARTCHAR U+00AA
ENCODING 170
SWIDTH 316 0
DWIDTH 6 0
BBX 5 10 0 7
BITMAP
38
38
D8
D8
D8
F8
F8
00
F8
F8
ENDCHAR
STARTCHAR U+00AB
ENCODING 171
SWIDTH 526 0
DWIDTH 10 0
BBX 9 8 0 2
BITMAP
1980
3B80
7700
EE00
EE00
7700
3B80
1980
ENDCHAR
STARTCHAR U+00B0
ENCODING 176
SWIDTH 316 0
DWIDTH 6 0
BBX 5 7 0 10
BITMAP
F8
F8
D8
D8
D8
F8
F8
ENDCHAR
STARTCHAR U+00BA
ENCODING 186
SWIDTH 316 0
DWIDTH 6 0
BBX 5 10 0 7
BITMAP
F8
F8
D8
D8
D8
F8
F8
00
F8
F8
ENDCHAR
STARTCHAR U+00BB
ENCODING 187
SWIDTH 526 0
DWIDTH 10 0
BBX 9 8 0 2
BITMAP
CC00
EE00
7700
3B80
3B80
7700
EE00
CC00
ENDCHAR
STARTCHAR U+00BF
ENCODING 191
SWIDTH 368 0
DWIDTH 7 0
BBX 6 17 0 0
BITMAP
30
30
00
00
00
30
30
30
F0
F0
C0
C0
C0
CC
CC
FC
FC
ENDCHAR
STARTCHAR U+00DF
ENCODING 223
SWIDTH 316 0
DWIDTH 6 0
BBX 5 17 0 0
BITMAP
70
F8
D8
D8
D8
D8
D8
D0
F0
D0
D8
D8
D8
D8
D8
D8
D0
ENDCHAR
STARTCHAR U+00E0
ENCODING 224
SWIDTH 316 0
DWIDTH 6 0
BBX 5 15 0 0
BITMAP
F0
F0
00
78
78
18
18
18
F8
F8
D8
D8
D8
F8
F8
ENDCHAR
STARTCHAR U+00E1
ENCODING 225
SWIDTH 316 0
DWIDTH 6 0
BBX 5 15 0 0
BITMAP
78
78
00
78
78
18
18
18
F8
F8
D8
D8
D8
F8
F8
ENDCHAR
STARTCHAR U+00E2
ENCODING 226
SWIDTH 316 0
DWIDTH 6 0
BBX 5 16 0 0
BITMAP
70
F8
D8
00
78
78
18
18
18
F8
F8
D8
D8
D8
F8
F8
ENDCHAR
STARTCHAR U+00E4
ENCODING 228
SWIDTH 316 0
DWIDTH 6 0
BBX 5 15 0 0
BITMAP
D8
D8
00
78
78
18
18
18
F8
F8
D8
D8
D8
F8
F8
ENDCHAR
STARTCHAR U+00E6
ENCODING 230
SWIDTH 474 0
DWIDTH 9 0
BBX 8 12 0 0
BITMAP
7F
7F
1B
1B
1B
FF
FF
D8
D8
D8
FF
FF
ENDCHAR
STARTCHAR U+00E7
ENCODING 231
SWIDTH 316 0
DWIDTH 6 0
BBX 5 12 0 0
BITMAP
F8
F8
C0
C0
C0
C0
C0
C0
F8
F8
30
30
ENDCHAR
STARTCHAR U+00E8
ENCODING 232
SWIDTH 316 0
DWIDTH 6 0
BBX 5 15 0 0
BITMAP
F0
F0
00
F8
F8
D8
D8
D8
F8
F8
C0
C0
C0
F8
F8
ENDCHAR
STARTCHAR U+00E9
ENCODING 233
SWIDTH 316 0
DWIDTH 6 0
BBX 5 15 0 0
BITMAP
78
78
00
F8
F8
D8
D8
D8
F8
F8
C0
C0
C0
F8
F8
ENDCHAR
STARTCHAR U+00EA
ENCODING 234
SWIDTH 316 0
DWIDTH 6 0
BBX 5 16 0 0
BITMAP
70
F8
D8
00
F8
F8
D8
D8
D8
F8
F8
C0
C0
C0
F8
F8
ENDCHAR
STARTCHAR U+00EB
ENCODING 235
SWIDTH 316 0
DWIDTH 6 0
BBX 5 15 0 0
BITMAP
D8
D8
00
F8
F8
D8
D8
D8
F8
F8
C0
C0
C0
F8
F8
ENDCHAR
STARTCHAR U+00EC
ENCODING 236
SWIDTH 263 0
DWIDTH 5 0
BBX 4 15 0 0
BITMAP
F0
F0
00
30
30
30
30
30
30
30
30
30
30
30
30
ENDCHAR
STARTCHAR U+00ED
ENCODING 237
SWIDTH 211 0
DWIDTH 4 0
BBX 4 15 0 0
BITMAP
F0
F0
00
C0
C0
C0
C0
C0
C0
C0
C0
C0
C0
C0
C0
ENDCHAR
STARTCHAR U+00EE
ENCODING 238
SWIDTH 316 0
DWIDTH 6 0
BBX 5 16 0 0
BITMAP
70
F8
D8
00
30
30
30
30
30
30
30
30
30
30
30
30
ENDCHAR
STARTCHAR U+00EF
ENCODING 239
SWIDTH 368 0
DWIDTH 7 0
BBX 6 15 0 0
BITMAP
CC
CC
00
30
30
30
30
30
30
30
30
30
30
30
30
ENDCHAR
STARTCHAR U+00F1
ENCODING 241
SWIDTH 316 0
DWIDTH 6 0
BBX 5 16 0 0
BITMAP
18
F8
C0
00
F0
F8
D8
D8
D8
D8
D8
D8
D8
D8
D8
D8
ENDCHAR
STARTCHAR U+00F2
ENCODING 242
SWIDTH 316 0
DWIDTH 6 0
BBX 5 15 0 0
BITMAP
F0
F0
00
F8
F8
D8
D8
D8
D8
D8
D8
D8
D8
F8
F8
ENDCHAR
STARTCHAR U+00F3
ENCODING 243
SWIDTH 316 0
DWIDTH 6 0
BBX 5 15 0 0
BITMAP
78
78
00
F8
F8
D8
D8
D8
D8
D8
D8
D8
D8
F8
F8
ENDCHAR
STARTCHAR U+00F4
ENCODING 244
SWIDTH 316 0
DWIDTH 6 0
BBX 5 16 0 0
BITMAP
70
F8
D8
00
F8
F8
D8
D8
D8
D8
D8
D8
D8
D8
F8
F8
ENDCHAR
STARTCHAR U+00F6
ENCODING 246
SWIDTH 316 0
DWIDTH 6 0
BBX 5 15 0 0
BITMAP
D8
D8
00
F8
F8
D8
D8
D8
D8
D8
D8
D8
D8
F8
F8
ENDCHAR
STARTCHAR U+00F9
ENCODING 249
SWIDTH 316 0
DWIDTH 6 0
BBX 5 15 0 0
BITMAP
F0
F0
00
D8
D8
D8
D8
D8
D8
D8
D8
D8
D8
F8
F8
ENDCHAR
STARTCHAR U+00FA
ENCODING 250
SWIDTH 316 0
DWIDTH 6 0
BBX 5 15 0 0
BITMAP
78
78
00
D8
D8
D8
D8
D8
D8
D8
D8
D8
D8
F8
F8
ENDCHAR
STARTCHAR U+00FB
ENCODING 251
SWIDTH 316 0
DWIDTH 6 0
BBX 5 16 0 0
BITMAP
70
F8
D8
00
D8
D8
D8
D8
D8
D8
D8
D8
D8
D8
F8
F8
ENDCHAR
STARTCHAR U+00FC
ENCODING 252
SWIDTH 316 0
DWIDTH 6 0
BBX 5 15 0 0
BITMAP
D8
D8
00
D8
D8
D8
D8
D8
D8
D8
D8
D8
D8
F8
F8
ENDCHAR
STARTCHAR U+00FD
ENCODING 253
SWIDTH 316 0
DWIDTH 6 0
BBX 5 15 0 0
BITMAP
78
78
00
D8
D8
D8
D8
D8
F8
F8
18
18
18
F8
F8
ENDCHAR
STARTCHAR U+00FF
ENCODING 255
SWIDTH 316 0
DWIDTH 6 0
BBX 5 15 0 0
BITMAP
D8
D8
00
D8
D8
D8
D8
D8
F8
F8
18
18
18
F8
F8
ENDCHAR
STARTCHAR U+010D
ENCODING 269
SWIDTH 316 0
DWIDTH 6 0
BBX 5 16 0 0
BITMAP
D8
F8
70
00
F8
F8
C0
C0
C0
C0
C0
C0
C0
C0
F8
F8
ENDCHAR
STARTCHAR U+010F
ENCODING 271
SWIDTH 368 0
DWIDTH 7 0
BBX 6 17 0 0
BITMAP
CC
CC
CC
CC
0C
FC
FC
CC
CC
CC
CC
CC
CC
CC
CC
FC
FC
ENDCHAR
STARTCHAR U+011B
ENCODING 283
SWIDTH 316 0
DWIDTH 6 0
BBX 5 16 0 0
BITMAP
D8
F8
70
00
F8
F8
D8
D8
D8
F8
F8
C0
C0
C0
F8
F8
ENDCHAR
STARTCHAR U+0148
ENCODING 328
SWIDTH 316 0
DWIDTH 6 0
BBX 5 16 0 0
BITMAP
D8
F8
70
00
F0
F8
D8
D8
D8
D8
D8
D8
D8
D8
D8
D8
ENDCHAR
STARTCHAR U+0153
ENCODING 339
SWIDTH 474 0
DWIDTH 9 0
BBX 8 12 0 0
BITMAP
FF
FF
DB
DB
DB
DF
DF
D8
D8
D8
FF
FF
ENDCHAR
STARTCHAR U+0159
ENCODING 345
SWIDTH 316 0
DWIDTH 6 0
BBX 5 16 0 0
BITMAP
D8
F8
70
00
F0
F0
C0
C0
C0
C0
C0
C0
C0
C0
C0
C0
ENDCHAR
STARTCHAR U+0161
ENCODING 353
SWIDTH 316 0
DWIDTH 6 0
BBX 5 16 0 0
BITMAP
D8
F8
70
00
F8
F8
C0
C0
C0
F8
F8
18
18
18
F8
F8
ENDCHAR
STARTCHAR U+0165
ENCODING 357
SWIDTH 368 0
DWIDTH 7 0
BBX 6 17 0 0
BITMAP
6C
6C
6C
6C
60
F0
F0
60
60
60
60
60
60
60
60
70
70
ENDCHAR
STARTCHAR U+016F
ENCODING 367
SWIDTH 316 0
DWIDTH 6 0
BBX 5 16 0 0
BITMAP
70
50
70
00
D8
D8
D8
D8
D8
D8
D8
D8
D8
D8
F8
F8
ENDCHAR
STARTCHAR U+017E
ENCODING 382
SWIDTH 316 0
DWIDTH 6 0
BBX 5 16 0 0
BITMAP
D8
F8
70
00
F8
F8
18
18
38
70
E0
C0
C0
C0
F8
F8
ENDCHAR
STARTCHAR U+2018
ENCODING 8216
SWIDTH 158 0
DWIDTH 3 0
BBX 2 7 0 10
BITMAP
C0
C0
C0
C0
C0
C0
C0
ENDCHAR
STARTCHAR U+2019
ENCODING 8217
SWIDTH 158 0
DWIDTH 3 0
BBX 2 7 0 10
BITMAP
C0
C0
C0
C0
C0
C0
C0
ENDCHAR
STARTCHAR U+201A
ENCODING 8218
SWIDTH 158 0
DWIDTH 3 0
BBX 2 7 0 0
BITMAP
C0
C0
C0
C0
C0
C0
C0
ENDCHAR
STARTCHAR U+201C
ENCODING 8220
SWIDTH 316 0
DWIDTH 6 0
BBX 5 7 0 10
BITMAP
D8
D8
D8
D8
D8
D8
D8
ENDCHAR
STARTCHAR U+201D
ENCODING 8221
SWIDTH 316 0
DWIDTH 6 0
BBX 5 7 0 10
BITMAP
D8
D8
D8
D8
D8
D8
D8
ENDCHAR
STARTCHAR U+201E
ENCODING 8222
SWIDTH 316 0
DWIDTH 6 0
BBX 5 7 0 0
BITMAP
D8
D8
D8
D8
D8
D8
D8
ENDCHAR
STARTCHAR U+20AC
ENCODING 8364
SWIDTH 368 0
DWIDTH 7 0
BBX 6 17 0 0
BITMAP
7C
7C
60
60
60
60
60
F8
60
F8
60
60
60
60
60
7C
7C
ENDCHAR
ENDFONT
