STARTFONT 2.1
FONT -PixelFonts-pixelfont_3d_condensed_5x5_thin-Thin-R-Normal--8-80-75-75-P-0-ISO10646-1
SIZE 8 75 75
FONTBOUNDINGBOX 8 8 0 0
STARTPROPERTIES 7
FOUNDRY "PixelFonts"
FAMILY_NAME "pixelfont_3d_condensed_5x5_thin"
WEIGHT_NAME "Thin"
PIXEL_SIZE 8
FONT_ASCENT 8
FONT_DESCENT 0
DEFAULT_CHAR 32
ENDPROPERTIES
CHARS 95
STARTCHAR U+0020
ENCODING 32
SWIDTH 375 0
DWIDTH 3 0
BBX 1 1 0 0
BITMAP
00
ENDCHAR
STARTCHAR U+0021
ENCODING 33
SWIDTH 500 0
DWIDTH 4 0
BBX 4 8 0 0
BITMAP
E0
B0
B0
B0
F0
B0
F0
70
ENDCHAR
STARTCHAR U+0022
ENCODING 34
SWIDTH 750 0
DWIDTH 6 0
BBX 6 5 0 3
BITMAP
F8
AC
AC
FC
7C
ENDCHAR
STARTCHAR U+0023
ENCODING 35
SWIDTH 1000 0
DWIDTH 8 0
BBX 8 8 0 0
BITMAP
7C
D6
83
D7
83
D7
7F
3E
ENDCHAR
STARTCHAR U+0024
ENCODING 36
SWIDTH 1000 0
DWIDTH 8 0
BBX 8 8 0 0
BITMAP
FE
83
AF
83
EB
83
FF
7F
ENDCHAR
STARTCHAR U+0025
ENCODING 37
SWIDTH 1000 0
DWIDTH 8 0
BBX 8 8 0 0
BITMAP
FE
9B
97
EF
D3
B3
FF
7F
ENDCHAR
STARTCHAR U+0026
ENCODING 38
SWIDTH 1000 0
DWIDTH 8 0
BBX 8 8 0 0
BITMAP
70
D8
AE
DB
A7
CB
7F
3F
ENDCHAR
STARTCHAR U+0027
ENCODING 39
SWIDTH 500 0
DWIDTH 4 0
BBX 4 5 0 3
BITMAP
E0
B0
B0
F0
70
ENDCHAR
STARTCHAR U+0028
ENCODING 40
SWIDTH 625 0
DWIDTH 5 0
BBX 5 8 0 0
BITMAP
70
D8
B8
B8
B0
D8
78
38
ENDCHAR
STARTCHAR U+0029
ENCODING 41
SWIDTH 625 0
DWIDTH 5 0
BBX 5 8 0 0
BITMAP
E0
B0
D8
58
D8
B8
F8
70
ENDCHAR
STARTCHAR U+002A
ENCODING 42
SWIDTH 1000 0
DWIDTH 8 0
BBX 8 8 0 0
BITMAP
FE
AB
AB
C7
AB
AB
FF
7F
ENDCHAR
STARTCHAR U+002B
ENCODING 43
SWIDTH 750 0
DWIDTH 6 0
BBX 6 6 0 1
BITMAP
70
D8
8C
DC
7C
38
ENDCHAR
STARTCHAR U+002C
ENCODING 44
SWIDTH 500 0
DWIDTH 4 0
BBX 4 5 0 0
BITMAP
E0
B0
B0
F0
70
ENDCHAR
STARTCHAR U+002D
ENCODING 45
SWIDTH 750 0
DWIDTH 6 0
BBX 6 4 0 2
BITMAP
F8
8C
FC
7C
ENDCHAR
STARTCHAR U+002E
ENCODING 46
SWIDTH 500 0
DWIDTH 4 0
BBX 4 4 0 0
BITMAP
E0
B0
F0
70
ENDCHAR
STARTCHAR U+002F
ENCODING 47
SWIDTH 750 0
DWIDTH 6 0
BBX 6 8 0 0
BITMAP
38
2C
6C
DC
BC
B8
F0
70
ENDCHAR
STARTCHAR U+0030
ENCODING 48
SWIDTH 875 0
DWIDTH 7 0
BBX 7 8 0 0
BITMAP
FC
86
B6
B6
B6
86
FE
7E
ENDCHAR
STARTCHAR U+0031
ENCODING 49
SWIDTH 500 0
DWIDTH 4 0
BBX 4 8 0 0
BITMAP
E0
B0
B0
B0
B0
B0
F0
70
ENDCHAR
STARTCHAR U+0032
ENCODING 50
SWIDTH 875 0
DWIDTH 7 0
BBX 7 8 0 0
BITMAP
FC
86
F6
86
BE
86
FE
7E
ENDCHAR
STARTCHAR U+0033
ENCODING 51
SWIDTH 875 0
DWIDTH 7 0
BBX 7 8 0 0
BITMAP
FC
86
F6
46
F6
86
FE
7E
ENDCHAR
STARTCHAR U+0034
ENCODING 52
SWIDTH 875 0
DWIDTH 7 0
BBX 7 8 0 0
BITMAP
FC
B6
B6
86
F6
76
1E
0E
ENDCHAR
STARTCHAR U+0035
ENCODING 53
SWIDTH 875 0
DWIDTH 7 0
BBX 7 8 0 0
BITMAP
FC
86
BE
86
F6
86
FE
7E
ENDCHAR
STARTCHAR U+0036
ENCODING 54
SWIDTH 875 0
DWIDTH 7 0
BBX 7 8 0 0
BITMAP
FC
86
BE
86
B6
86
FE
7E
ENDCHAR
STARTCHAR U+0037
ENCODING 55
SWIDTH 875 0
DWIDTH 7 0
BBX 7 8 0 0
BITMAP
FC
86
B6
F6
76
16
1E
0E
ENDCHAR
STARTCHAR U+0038
ENCODING 56
SWIDTH 875 0
DWIDTH 7 0
BBX 7 8 0 0
BITMAP
FC
86
B6
86
B6
86
FE
7E
ENDCHAR
STARTCHAR U+0039
ENCODING 57
SWIDTH 875 0
DWIDTH 7 0
BBX 7 8 0 0
BITMAP
FC
86
B6
86
F6
86
FE
7E
ENDCHAR
STARTCHAR U+003A
ENCODING 58
SWIDTH 500 0
DWIDTH 4 0
BBX 4 6 0 1
BITMAP
E0
B0
F0
B0
F0
70
ENDCHAR
STARTCHAR U+003B
ENCODING 59
SWIDTH 500 0
DWIDTH 4 0
BBX 4 7 0 0
BITMAP
E0
B0
F0
B0
B0
F0
70
ENDCHAR
STARTCHAR U+003C
ENCODING 60
SWIDTH 750 0
DWIDTH 6 0
BBX 6 8 0 0
BITMAP
38
6C
DC
BC
D8
6C
3C
1C
ENDCHAR
STARTCHAR U+003D
ENCODING 61
SWIDTH 750 0
DWIDTH 6 0
BBX 6 6 0 1
BITMAP
F8
8C
FC
8C
FC
7C
ENDCHAR
STARTCHAR U+003E
ENCODING 62
SWIDTH 750 0
DWIDTH 6 0
BBX 6 8 0 0
BITMAP
E0
B0
D8
6C
DC
BC
F8
70
ENDCHAR
STARTCHAR U+003F
ENCODING 63
SWIDTH 875 0
DWIDTH 7 0
BBX 7 8 0 0
BITMAP
FC
86
F6
46
7E
5E
78
38
ENDCHAR
STARTCHAR U+0040
ENCODING 64
SWIDTH 1000 0
DWIDTH 8 0
BBX 8 8 0 0
BITMAP
FE
83
AB
A3
BF
83
FF
7F
ENDCHAR
STARTCHAR U+0041
ENCODING 65
SWIDTH 875 0
DWIDTH 7 0
BBX 7 8 0 0
BITMAP
FC
86
B6
86
B6
B6
FE
7E
ENDCHAR
STARTCHAR U+0042
ENCODING 66
SWIDTH 875 0
DWIDTH 7 0
BBX 7 8 0 0
BITMAP
F8
8C
B6
86
B6
8E
FE
7C
ENDCHAR
STARTCHAR U+0043
ENCODING 67
SWIDTH 875 0
DWIDTH 7 0
BBX 7 8 0 0
BITMAP
FC
86
BE
BE
BC
86
FE
7E
ENDCHAR
STARTCHAR U+0044
ENCODING 68
SWIDTH 875 0
DWIDTH 7 0
BBX 7 8 0 0
BITMAP
F8
8C
B6
B6
B6
8E
FE
7C
ENDCHAR
STARTCHAR U+0045
ENCODING 69
SWIDTH 875 0
DWIDTH 7 0
BBX 7 8 0 0
BITMAP
FC
86
BE
8E
BC
86
FE
7E
ENDCHAR
STARTCHAR U+0046
ENCODING 70
SWIDTH 875 0
DWIDTH 7 0
BBX 7 8 0 0
BITMAP
FC
86
BE
8E
BC
BC
F0
70
ENDCHAR
STARTCHAR U+0047
ENCODING 71
SWIDTH 875 0
DWIDTH 7 0
BBX 7 8 0 0
BITMAP
FC
86
BE
A6
B6
86
FE
7E
ENDCHAR
STARTCHAR U+0048
ENCODING 72
SWIDTH 875 0
DWIDTH 7 0
BBX 7 8 0 0
BITMAP
FC
B6
B6
86
B6
B6
FE
7E
ENDCHAR
STARTCHAR U+0049
ENCODING 73
SWIDTH 500 0
DWIDTH 4 0
BBX 4 8 0 0
BITMAP
E0
B0
B0
B0
B0
B0
F0
70
ENDCHAR
STARTCHAR U+004A
ENCODING 74
SWIDTH 875 0
DWIDTH 7 0
BBX 7 8 0 0
BITMAP
1C
16
16
F6
B6
86
FE
7E
ENDCHAR
STARTCHAR U+004B
ENCODING 75
SWIDTH 875 0
DWIDTH 7 0
BBX 7 8 0 0
BITMAP
FC
B6
AE
9E
AC
B6
FE
7E
ENDCHAR
STARTCHAR U+004C
ENCODING 76
SWIDTH 875 0
DWIDTH 7 0
BBX 7 8 0 0
BITMAP
E0
B0
B0
B0
BC
86
FE
7E
ENDCHAR
STARTCHAR U+004D
ENCODING 77
SWIDTH 1000 0
DWIDTH 8 0
BBX 8 8 0 0
BITMAP
FE
83
AB
AB
BB
BB
FF
77
ENDCHAR
STARTCHAR U+004E
ENCODING 78
SWIDTH 875 0
DWIDTH 7 0
BBX 7 8 0 0
BITMAP
FC
B6
96
A6
B6
B6
FE
7E
ENDCHAR
STARTCHAR U+004F
ENCODING 79
SWIDTH 875 0
DWIDTH 7 0
BBX 7 8 0 0
BITMAP
FC
86
B6
B6
B6
86
FE
7E
ENDCHAR
STARTCHAR U+0050
ENCODING 80
SWIDTH 875 0
DWIDTH 7 0
BBX 7 8 0 0
BITMAP
FC
86
B6
86
BE
BE
F0
70
ENDCHAR
STARTCHAR U+0051
ENCODING 81
SWIDTH 875 0
DWIDTH 7 0
BBX 7 8 0 0
BITMAP
FC
86
B6
B6
A6
86
FE
7E
ENDCHAR
STARTCHAR U+0052
ENCODING 82
SWIDTH 875 0
DWIDTH 7 0
BBX 7 8 0 0
BITMAP
FC
86
B6
86
AE
B6
FE
7E
ENDCHAR
STARTCHAR U+0053
ENCODING 83
SWIDTH 875 0
DWIDTH 7 0
BBX 7 8 0 0
BITMAP
FC
86
BE
86
F6
86
FE
7E
ENDCHAR
STARTCHAR U+0054
ENCODING 84
SWIDTH 1000 0
DWIDTH 8 0
BBX 8 8 0 0
BITMAP
FE
83
EF
6F
2C
2C
3C
1C
ENDCHAR
STARTCHAR U+0055
ENCODING 85
SWIDTH 875 0
DWIDTH 7 0
BBX 7 8 0 0
BITMAP
FC
B6
B6
B6
B6
86
FE
7E
ENDCHAR
STARTCHAR U+0056
ENCODING 86
SWIDTH 875 0
DWIDTH 7 0
BBX 7 8 0 0
BITMAP
FC
B6
B6
B6
D6
66
3E
1E
ENDCHAR
STARTCHAR U+0057
ENCODING 87
SWIDTH 1000 0
DWIDTH 8 0
BBX 8 8 0 0
BITMAP
EE
BB
BB
AB
AB
83
FF
7F
ENDCHAR
STARTCHAR U+0058
ENCODING 88
SWIDTH 1000 0
DWIDTH 8 0
BBX 8 8 0 0
BITMAP
EE
BB
D7
6F
D6
BB
FF
77
ENDCHAR
STARTCHAR U+0059
ENCODING 89
SWIDTH 1000 0
DWIDTH 8 0
BBX 8 8 0 0
BITMAP
EE
BB
D7
6F
2E
2C
3C
1C
ENDCHAR
STARTCHAR U+005A
ENCODING 90
SWIDTH 875 0
DWIDTH 7 0
BBX 7 8 0 0
BITMAP
FC
86
F6
6E
DE
86
FE
7E
ENDCHAR
STARTCHAR U+005B
ENCODING 91
SWIDTH 625 0
DWIDTH 5 0
BBX 5 8 0 0
BITMAP
F0
98
B8
B8
B0
98
F8
78
ENDCHAR
STARTCHAR U+005C
ENCODING 92
SWIDTH 750 0
DWIDTH 6 0
BBX 6 8 0 0
BITMAP
E0
B0
B0
D8
6C
2C
3C
1C
ENDCHAR
STARTCHAR U+005D
ENCODING 93
SWIDTH 625 0
DWIDTH 5 0
BBX 5 8 0 0
BITMAP
F0
98
D8
58
D8
98
F8
78
ENDCHAR
STARTCHAR U+005E
ENCODING 94
SWIDTH 750 0
DWIDTH 6 0
BBX 6 5 0 3
BITMAP
70
D8
AC
FC
7C
ENDCHAR
STARTCHAR U+005F
ENCODING 95
SWIDTH 875 0
DWIDTH 7 0
BBX 7 4 0 0
BITMAP
FC
86
FE
7E
ENDCHAR
STARTCHAR U+0060
ENCODING 96
SWIDTH 500 0
DWIDTH 4 0
BBX 4 5 0 3
BITMAP
E0
B0
B0
F0
70
ENDCHAR
STARTCHAR U+0061
ENCODING 97
SWIDTH 875 0
DWIDTH 7 0
BBX 7 8 0 0
BITMAP
FC
86
B6
86
B6
B6
FE
7E
ENDCHAR
STARTCHAR U+0062
ENCODING 98
SWIDTH 875 0
DWIDTH 7 0
BBX 7 8 0 0
BITMAP
F8
8C
B6
86
B6
8E
FE
7C
ENDCHAR
STARTCHAR U+0063
ENCODING 99
SWIDTH 875 0
DWIDTH 7 0
BBX 7 8 0 0
BITMAP
FC
86
BE
BE
BC
86
FE
7E
ENDCHAR
STARTCHAR U+0064
ENCODING 100
SWIDTH 875 0
DWIDTH 7 0
BBX 7 8 0 0
BITMAP
F8
8C
B6
B6
B6
8E
FE
7C
ENDCHAR
STARTCHAR U+0065
ENCODING 101
SWIDTH 875 0
DWIDTH 7 0
BBX 7 8 0 0
BITMAP
FC
86
BE
8E
BC
86
FE
7E
ENDCHAR
STARTCHAR U+0066
ENCODING 102
SWIDTH 875 0
DWIDTH 7 0
BBX 7 8 0 0
BITMAP
FC
86
BE
8E
BC
BC
F0
70
ENDCHAR
STARTCHAR U+0067
ENCODING 103
SWIDTH 875 0
DWIDTH 7 0
BBX 7 8 0 0
BITMAP
FC
86
BE
A6
B6
86
FE
7E
ENDCHAR
STARTCHAR U+0068
ENCODING 104
SWIDTH 875 0
DWIDTH 7 0
BBX 7 8 0 0
BITMAP
FC
B6
B6
86
B6
B6
FE
7E
ENDCHAR
STARTCHAR U+0069
ENCODING 105
SWIDTH 500 0
DWIDTH 4 0
BBX 4 8 0 0
BITMAP
E0
B0
B0
B0
B0
B0
F0
70
ENDCHAR
STARTCHAR U+006A
ENCODING 106
SWIDTH 875 0
DWIDTH 7 0
BBX 7 8 0 0
BITMAP
1C
16
16
F6
B6
86
FE
7E
ENDCHAR
STARTCHAR U+006B
ENCODING 107
SWIDTH 875 0
DWIDTH 7 0
BBX 7 8 0 0
BITMAP
FC
B6
AE
9E
AC
B6
FE
7E
ENDCHAR
STARTCHAR U+006C
ENCODING 108
SWIDTH 875 0
DWIDTH 7 0
BBX 7 8 0 0
BITMAP
E0
B0
B0
B0
BC
86
FE
7E
ENDCHAR
STARTCHAR U+006D
ENCODING 109
SWIDTH 1000 0
DWIDTH 8 0
BBX 8 8 0 0
BITMAP
FE
83
AB
AB
BB
BB
FF
77
ENDCHAR
STARTCHAR U+006E
ENCODING 110
SWIDTH 875 0
DWIDTH 7 0
BBX 7 8 0 0
BITMAP
FC
B6
96
A6
B6
B6
FE
7E
ENDCHAR
STARTCHAR U+006F
ENCODING 111
SWIDTH 875 0
DWIDTH 7 0
BBX 7 8 0 0
BITMAP
FC
86
B6
B6
B6
86
FE
7E
ENDCHAR
STARTCHAR U+0070
ENCODING 112
SWIDTH 875 0
DWIDTH 7 0
BBX 7 8 0 0
BITMAP
FC
86
B6
86
BE
BE
F0
70
ENDCHAR
STARTCHAR U+0071
ENCODING 113
SWIDTH 875 0
DWIDTH 7 0
BBX 7 8 0 0
BITMAP
FC
86
B6
B6
A6
86
FE
7E
ENDCHAR
STARTCHAR U+0072
ENCODING 114
SWIDTH 875 0
DWIDTH 7 0
BBX 7 8 0 0
BITMAP
FC
86
B6
86
AE
B6
FE
7E
ENDCHAR
STARTCHAR U+0073
ENCODING 115
SWIDTH 875 0
DWIDTH 7 0
BBX 7 8 0 0
BITMAP
FC
86
BE
86
F6
86
FE
7E
ENDCHAR
STARTCHAR U+0074
ENCODING 116
SWIDTH 1000 0
DWIDTH 8 0
BBX 8 8 0 0
BITMAP
FE
83
EF
6F
2C
2C
3C
1C
ENDCHAR
STARTCHAR U+0075
ENCODING 117
SWIDTH 875 0
DWIDTH 7 0
BBX 7 8 0 0
BITMAP
FC
B6
B6
B6
B6
86
FE
7E
ENDCHAR
STARTCHAR U+0076
ENCODING 118
SWIDTH 1000 0
DWIDTH 8 0
BBX 8 8 0 0
BITMAP
EE
BB
BB
DB
6B
33
1F
0F
ENDCHAR
STARTCHAR U+0077
ENCODING 119
SWIDTH 1000 0
DWIDTH 8 0
BBX 8 8 0 0
BITMAP
EE
BB
BB
AB
AB
83
FF
7F
ENDCHAR
STARTCHAR U+0078
ENCODING 120
SWIDTH 1000 0
DWIDTH 8 0
BBX 8 8 0 0
BITMAP
EE
BB
D7
6F
D6
BB
FF
77
ENDCHAR
STARTCHAR U+0079
ENCODING 121
SWIDTH 1000 0
DWIDTH 8 0
BBX 8 8 0 0
BITMAP
EE
BB
D7
6F
2E
2C
3C
1C
ENDCHAR
STARTCHAR U+007A
ENCODING 122
SWIDTH 875 0
DWIDTH 7 0
BBX 7 8 0 0
BITMAP
FC
86
F6
6E
DE
86
FE
7E
ENDCHAR
STARTCHAR U+007B
ENCODING 123
SWIDTH 750 0
DWIDTH 6 0
BBX 6 8 0 0
BITMAP
78
CC
9C
BC
98
CC
7C
3C
ENDCHAR
STARTCHAR U+007C
ENCODING 124
SWIDTH 500 0
DWIDTH 4 0
BBX 4 8 0 0
BITMAP
E0
B0
B0
B0
B0
B0
F0
70
ENDCHAR
STARTCHAR U+007D
ENCODING 125
SWIDTH 750 0
DWIDTH 6 0
BBX 6 8 0 0
BITMAP
F0
98
CC
6C
CC
9C
FC
78
ENDCHAR
STARTCHAR U+007E
ENCODING 126
SWIDTH 1000 0
DWIDTH 8 0
BBX 8 6 0 1
BITMAP
F0
9E
AB
F3
7F
0F
ENDCHAR
ENDFONT
